700 0 1 0           
30 Autodesk Translation Framework 20 ASM 227.7.2.65535 NT 24 Fri Mar 25 19:29:00 2022 
1 9.999999999999999547e-07 1.000000000000000036e-10 
body $1 -1 $-1 $2 $-1 $3 #
rgb_color-st-attrib $-1 -1 $4 $-1 $0 0.627450980392156854 0.627450980392156854 0.627450980392156854 #
lump $-1 -1 $-1 $-1 $5 $0 #
transform $-1 -1 1 0 0 0 1 0 0 0 1 0 0 0 1 no_rotate no_reflect no_shear #
ATTRIB_CUSTOM-attrib $-1 -1 $-1 $1 $0 @20 Timestamp_attrib_def 1 1602819842747083 #
shell $-1 -1 $-1 $-1 $-1 $6 $-1 $2 #
face $7 -1 $-1 $8 $9 $5 $-1 $10 reversed single #
DXID-attrib $-1 -1 $-1 $-1 $6 @10 ASM ENTITY @1 0 #
face $11 -1 $-1 $12 $13 $5 $-1 $14 reversed single #
loop $-1 -1 $-1 $15 $16 $6 #
cone-surface $-1 -1 $-1 650 7.500000000000004441 3.174999999999999822 0 0 -1 -2.750000000000056843 0 0 1 I I 0 1 2.750000000000056843 forward I I I I #
DXID-attrib $-1 -1 $-1 $-1 $8 @10 ASM ENTITY @1 1 #
face $17 -1 $-1 $18 $19 $5 $-1 $20 reversed single #
loop $-1 -1 $-1 $21 $22 $8 #
cone-surface $-1 -1 $-1 150 7.500000000000004441 3.174999999999999822 0 0 -1 -2.750000000000003553 0 0 1 I I 0 1 2.750000000000003553 forward I I I I #
loop $-1 -1 $-1 $-1 $23 $6 #
coedge $-1 -1 $-1 $16 $16 $24 $25 reversed $9 $-1 #
DXID-attrib $-1 -1 $-1 $-1 $12 @10 ASM ENTITY @1 2 #
face $26 -1 $-1 $27 $28 $5 $-1 $29 reversed single #
loop $-1 -1 $-1 $30 $31 $12 #
cone-surface $-1 -1 $-1 650 40.50000000000000711 3.174999999999999822 0 0 -1 -2.750000000000056843 0 0 1 I I 0 1 2.750000000000056843 forward I I I I #
loop $-1 -1 $-1 $-1 $32 $8 #
coedge $-1 -1 $-1 $22 $22 $33 $34 reversed $13 $-1 #
coedge $35 -1 $-1 $23 $23 $36 $37 reversed $15 $-1 #
coedge $-1 -1 $-1 $24 $24 $16 $25 forward $38 $-1 #
edge $-1 -1 $-1 $39 -3.141592653589793116 $39 3.141592653589793116 $24 $40 forward @7 unknown #
DXID-attrib $-1 -1 $-1 $-1 $18 @10 ASM ENTITY @1 3 #
face $41 -1 $-1 $42 $43 $5 $-1 $44 reversed single #
loop $-1 -1 $-1 $45 $46 $18 #
cone-surface $-1 -1 $-1 450 7.500000000000004441 3.174999999999999822 0 0 -1 -2.749999999999985789 0 0 1 I I 0 1 2.749999999999985789 forward I I I I #
loop $-1 -1 $-1 $-1 $47 $12 #
coedge $-1 -1 $-1 $31 $31 $48 $49 reversed $19 $-1 #
coedge $50 -1 $-1 $32 $32 $51 $52 reversed $21 $-1 #
coedge $-1 -1 $-1 $33 $33 $22 $34 forward $53 $-1 #
edge $-1 -1 $-1 $54 -3.141592653589793116 $54 3.141592653589793116 $33 $55 forward @7 unknown #
ATTRIB_CUSTOM-attrib $-1 -1 $-1 $-1 $23 @17 sketch_attrib_def 1 1 3 @13 179 0 0 0 1 1 #
coedge $-1 -1 $-1 $36 $36 $23 $37 forward $56 $-1 #
edge $-1 -1 $-1 $57 -3.141592653589793116 $57 3.141592653589793116 $36 $58 forward @7 unknown #
loop $-1 -1 $-1 $53 $24 $59 #
vertex $-1 -1 $-1 $25 $60 #
ellipse-curve $-1 -1 $-1 650 7.500000000000004441 0 0 0 1 -2.750000000000056843 0 0 1 I I #
DXID-attrib $-1 -1 $-1 $-1 $27 @10 ASM ENTITY @1 4 #
face $61 -1 $-1 $62 $63 $5 $-1 $64 reversed single #
loop $-1 -1 $-1 $65 $66 $27 #
cone-surface $-1 -1 $-1 789.3999999999999773 24.00000000000000355 3.174999999999999822 0 0 -1 -4.000000000000056843 0 0 1 I I 0 1 4.000000000000056843 forward I I I I #
loop $-1 -1 $-1 $-1 $67 $18 #
coedge $-1 -1 $-1 $46 $46 $68 $69 reversed $28 $-1 #
coedge $70 -1 $-1 $47 $47 $71 $72 reversed $30 $-1 #
coedge $-1 -1 $-1 $48 $48 $31 $49 forward $73 $-1 #
edge $-1 -1 $-1 $74 -3.141592653589793116 $74 3.141592653589793116 $48 $75 forward @7 unknown #
ATTRIB_CUSTOM-attrib $-1 -1 $-1 $-1 $32 @17 sketch_attrib_def 1 1 3 @13 174 0 0 0 1 1 #
coedge $-1 -1 $-1 $51 $51 $32 $52 forward $76 $-1 #
edge $-1 -1 $-1 $77 -3.141592653589793116 $77 3.141592653589793116 $51 $78 forward @7 unknown #
loop $-1 -1 $-1 $73 $33 $59 #
vertex $-1 -1 $-1 $34 $79 #
ellipse-curve $-1 -1 $-1 150 7.500000000000004441 0 0 0 1 -2.750000000000003553 0 0 1 I I #
loop $-1 -1 $-1 $76 $36 $80 #
vertex $-1 -1 $-1 $37 $81 #
ellipse-curve $-1 -1 $-1 650 7.500000000000004441 3.174999999999999822 -0 -0 -1 -2.750000000000056843 0 0 1 I I #
face $82 -1 $-1 $-1 $38 $5 $-1 $83 reversed single #
point $-1 -1 $-1 652.75 7.500000000000004441 0 #
DXID-attrib $-1 -1 $-1 $-1 $42 @10 ASM ENTITY @1 5 #
face $84 -1 $-1 $85 $86 $5 $-1 $87 reversed single #
loop $-1 -1 $-1 $88 $89 $42 #
cone-surface $-1 -1 $-1 289.3999999999999773 24.00000000000000355 3.174999999999999822 0 0 -1 -3.999999999999985789 0 0 1 I I 0 1 3.999999999999985789 forward I I I I #
loop $-1 -1 $-1 $-1 $90 $27 #
coedge $-1 -1 $-1 $66 $66 $91 $92 reversed $43 $-1 #
coedge $93 -1 $-1 $67 $67 $94 $95 reversed $45 $-1 #
coedge $-1 -1 $-1 $68 $68 $46 $69 forward $96 $-1 #
edge $-1 -1 $-1 $97 -3.141592653589793116 $97 3.141592653589793116 $68 $98 forward @7 unknown #
ATTRIB_CUSTOM-attrib $-1 -1 $-1 $-1 $47 @17 sketch_attrib_def 1 1 3 @13 170 0 0 0 1 1 #
coedge $-1 -1 $-1 $71 $71 $47 $72 forward $99 $-1 #
edge $-1 -1 $-1 $100 -3.141592653589793116 $100 3.141592653589793116 $71 $101 forward @7 unknown #
loop $-1 -1 $-1 $96 $48 $59 #
vertex $-1 -1 $-1 $49 $102 #
ellipse-curve $-1 -1 $-1 650 40.50000000000000711 0 0 0 1 -2.750000000000056843 0 0 1 I I #
loop $-1 -1 $-1 $99 $51 $80 #
vertex $-1 -1 $-1 $52 $103 #
ellipse-curve $-1 -1 $-1 150 7.500000000000004441 3.174999999999999822 -0 -0 -1 -2.750000000000003553 0 0 1 I I #
point $-1 -1 $-1 152.75 7.500000000000004441 0 #
face $104 -1 $-1 $59 $56 $5 $-1 $105 forward single #
point $-1 -1 $-1 652.75 7.500000000000004441 3.174999999999999822 #
DXID-attrib $-1 -1 $-1 $-1 $59 @10 ASM ENTITY @2 32 #
plane-surface $-1 -1 $-1 457.1999999999999886 24.00000000000000355 0 0 0 1 10 0 0 forward_v I I I I #
DXID-attrib $-1 -1 $-1 $-1 $62 @10 ASM ENTITY @1 6 #
face $106 -1 $-1 $107 $108 $5 $-1 $109 reversed single #
loop $-1 -1 $-1 $110 $111 $62 #
cone-surface $-1 -1 $-1 89.39999999999997726 24.00000000000000355 3.174999999999999822 0 0 -1 -4.000000000000003553 0 0 1 I I 0 1 4.000000000000003553 forward I I I I #
loop $-1 -1 $-1 $-1 $112 $42 #
coedge $-1 -1 $-1 $89 $89 $113 $114 reversed $63 $-1 #
coedge $115 -1 $-1 $90 $90 $116 $117 reversed $65 $-1 #
coedge $-1 -1 $-1 $91 $91 $66 $92 forward $118 $-1 #
edge $-1 -1 $-1 $119 -3.141592653589793116 $119 3.141592653589793116 $91 $120 forward @7 unknown #
ATTRIB_CUSTOM-attrib $-1 -1 $-1 $-1 $67 @17 sketch_attrib_def 1 1 3 @13 177 0 0 0 1 1 #
coedge $-1 -1 $-1 $94 $94 $67 $95 forward $121 $-1 #
edge $-1 -1 $-1 $122 -3.141592653589793116 $122 3.141592653589793116 $94 $123 forward @7 unknown #
loop $-1 -1 $-1 $118 $68 $59 #
vertex $-1 -1 $-1 $69 $124 #
ellipse-curve $-1 -1 $-1 450 7.500000000000004441 0 0 0 1 -2.749999999999985789 0 0 1 I I #
loop $-1 -1 $-1 $121 $71 $80 #
vertex $-1 -1 $-1 $72 $125 #
ellipse-curve $-1 -1 $-1 650 40.50000000000000711 3.174999999999999822 -0 -0 -1 -2.750000000000056843 0 0 1 I I #
point $-1 -1 $-1 652.75 40.50000000000000711 0 #
point $-1 -1 $-1 152.75 7.500000000000004441 3.174999999999999822 #
DXID-attrib $-1 -1 $-1 $-1 $80 @10 ASM ENTITY @2 31 #
plane-surface $-1 -1 $-1 457.1999999999999886 24.00000000000000355 3.174999999999999822 0 0 1 10 0 0 forward_v I I I I #
DXID-attrib $-1 -1 $-1 $-1 $85 @10 ASM ENTITY @1 7 #
face $126 -1 $-1 $127 $128 $5 $-1 $129 reversed single #
loop $-1 -1 $-1 $130 $131 $85 #
cone-surface $-1 -1 $-1 889.3999999999999773 24.00000000000000355 3.174999999999999822 0 0 -1 -4.000000000000056843 0 0 1 I I 0 1 4.000000000000056843 forward I I I I #
loop $-1 -1 $-1 $-1 $132 $62 #
coedge $-1 -1 $-1 $111 $111 $133 $134 reversed $86 $-1 #
coedge $135 -1 $-1 $112 $112 $136 $137 reversed $88 $-1 #
coedge $-1 -1 $-1 $113 $113 $89 $114 forward $138 $-1 #
edge $-1 -1 $-1 $139 -3.141592653589793116 $139 3.141592653589793116 $113 $140 forward @7 unknown #
ATTRIB_CUSTOM-attrib $-1 -1 $-1 $-1 $90 @17 sketch_attrib_def 1 1 3 @13 150 0 0 0 1 1 #
coedge $-1 -1 $-1 $116 $116 $90 $117 forward $141 $-1 #
edge $-1 -1 $-1 $142 -3.141592653589793116 $142 3.141592653589793116 $116 $143 forward @7 unknown #
loop $-1 -1 $-1 $138 $91 $59 #
vertex $-1 -1 $-1 $92 $144 #
ellipse-curve $-1 -1 $-1 789.3999999999999773 24.00000000000000355 0 0 0 1 -4.000000000000056843 0 0 1 I I #
loop $-1 -1 $-1 $141 $94 $80 #
vertex $-1 -1 $-1 $95 $145 #
ellipse-curve $-1 -1 $-1 450 7.500000000000004441 3.174999999999999822 -0 -0 -1 -2.749999999999985789 0 0 1 I I #
point $-1 -1 $-1 452.75 7.500000000000004441 0 #
point $-1 -1 $-1 652.75 40.50000000000000711 3.174999999999999822 #
DXID-attrib $-1 -1 $-1 $-1 $107 @10 ASM ENTITY @1 8 #
face $146 -1 $-1 $147 $148 $5 $-1 $149 reversed single #
loop $-1 -1 $-1 $150 $151 $107 #
cone-surface $-1 -1 $-1 150 40.50000000000000711 3.174999999999999822 0 0 -1 -2.750000000000003553 0 0 1 I I 0 1 2.750000000000003553 forward I I I I #
loop $-1 -1 $-1 $-1 $152 $85 #
coedge $-1 -1 $-1 $131 $131 $153 $154 reversed $108 $-1 #
coedge $155 -1 $-1 $132 $132 $156 $157 reversed $110 $-1 #
coedge $-1 -1 $-1 $133 $133 $111 $134 forward $158 $-1 #
edge $-1 -1 $-1 $159 -3.141592653589793116 $159 3.141592653589793116 $133 $160 forward @7 unknown #
ATTRIB_CUSTOM-attrib $-1 -1 $-1 $-1 $112 @17 sketch_attrib_def 1 1 3 @13 160 0 0 0 1 1 #
coedge $-1 -1 $-1 $136 $136 $112 $137 forward $161 $-1 #
edge $-1 -1 $-1 $162 -3.141592653589793116 $162 3.141592653589793116 $136 $163 forward @7 unknown #
loop $-1 -1 $-1 $158 $113 $59 #
vertex $-1 -1 $-1 $114 $164 #
ellipse-curve $-1 -1 $-1 289.3999999999999773 24.00000000000000355 0 0 0 1 -3.999999999999985789 0 0 1 I I #
loop $-1 -1 $-1 $161 $116 $80 #
vertex $-1 -1 $-1 $117 $165 #
ellipse-curve $-1 -1 $-1 789.3999999999999773 24.00000000000000355 3.174999999999999822 -0 -0 -1 -4.000000000000056843 0 0 1 I I #
point $-1 -1 $-1 793.4000000000000909 24.00000000000000355 0 #
point $-1 -1 $-1 452.75 7.500000000000004441 3.174999999999999822 #
DXID-attrib $-1 -1 $-1 $-1 $127 @10 ASM ENTITY @1 9 #
face $166 -1 $-1 $167 $168 $5 $-1 $169 reversed single #
loop $-1 -1 $-1 $170 $171 $127 #
cone-surface $-1 -1 $-1 250 40.50000000000000711 3.174999999999999822 0 0 -1 -2.749999999999985789 0 0 1 I I 0 1 2.749999999999985789 forward I I I I #
loop $-1 -1 $-1 $-1 $172 $107 #
coedge $-1 -1 $-1 $151 $151 $173 $174 reversed $128 $-1 #
coedge $175 -1 $-1 $152 $152 $176 $177 reversed $130 $-1 #
coedge $-1 -1 $-1 $153 $153 $131 $154 forward $178 $-1 #
edge $-1 -1 $-1 $179 -3.141592653589793116 $179 3.141592653589793116 $153 $180 forward @7 unknown #
ATTRIB_CUSTOM-attrib $-1 -1 $-1 $-1 $132 @17 sketch_attrib_def 1 1 3 @13 164 0 0 0 1 1 #
coedge $-1 -1 $-1 $156 $156 $132 $157 forward $181 $-1 #
edge $-1 -1 $-1 $182 -3.141592653589793116 $182 3.141592653589793116 $156 $183 forward @7 unknown #
loop $-1 -1 $-1 $178 $133 $59 #
vertex $-1 -1 $-1 $134 $184 #
ellipse-curve $-1 -1 $-1 89.39999999999997726 24.00000000000000355 0 0 0 1 -4.000000000000003553 0 0 1 I I #
loop $-1 -1 $-1 $181 $136 $80 #
vertex $-1 -1 $-1 $137 $185 #
ellipse-curve $-1 -1 $-1 289.3999999999999773 24.00000000000000355 3.174999999999999822 -0 -0 -1 -3.999999999999985789 0 0 1 I I #
point $-1 -1 $-1 293.3999999999999773 24.00000000000000355 0 #
point $-1 -1 $-1 793.4000000000000909 24.00000000000000355 3.174999999999999822 #
DXID-attrib $-1 -1 $-1 $-1 $147 @10 ASM ENTITY @2 10 #
face $186 -1 $-1 $187 $188 $5 $-1 $189 reversed single #
loop $-1 -1 $-1 $190 $191 $147 #
cone-surface $-1 -1 $-1 350 40.50000000000000711 3.174999999999999822 0 0 -1 -2.749999999999985789 0 0 1 I I 0 1 2.749999999999985789 forward I I I I #
loop $-1 -1 $-1 $-1 $192 $127 #
coedge $-1 -1 $-1 $171 $171 $193 $194 reversed $148 $-1 #
coedge $195 -1 $-1 $172 $172 $196 $197 reversed $150 $-1 #
coedge $-1 -1 $-1 $173 $173 $151 $174 forward $198 $-1 #
edge $-1 -1 $-1 $199 -3.141592653589793116 $199 3.141592653589793116 $173 $200 forward @7 unknown #
ATTRIB_CUSTOM-attrib $-1 -1 $-1 $-1 $152 @17 sketch_attrib_def 1 1 3 @13 148 0 0 0 1 1 #
coedge $-1 -1 $-1 $176 $176 $152 $177 forward $201 $-1 #
edge $-1 -1 $-1 $202 -3.141592653589793116 $202 3.141592653589793116 $176 $203 forward @7 unknown #
loop $-1 -1 $-1 $198 $153 $59 #
vertex $-1 -1 $-1 $154 $204 #
ellipse-curve $-1 -1 $-1 889.3999999999999773 24.00000000000000355 0 0 0 1 -4.000000000000056843 0 0 1 I I #
loop $-1 -1 $-1 $201 $156 $80 #
vertex $-1 -1 $-1 $157 $205 #
ellipse-curve $-1 -1 $-1 89.39999999999997726 24.00000000000000355 3.174999999999999822 -0 -0 -1 -4.000000000000003553 0 0 1 I I #
point $-1 -1 $-1 93.39999999999997726 24.00000000000000355 0 #
point $-1 -1 $-1 293.3999999999999773 24.00000000000000355 3.174999999999999822 #
DXID-attrib $-1 -1 $-1 $-1 $167 @10 ASM ENTITY @2 11 #
face $206 -1 $-1 $207 $208 $5 $-1 $209 reversed single #
loop $-1 -1 $-1 $210 $211 $167 #
cone-surface $-1 -1 $-1 850 40.50000000000000711 3.174999999999999822 0 0 -1 -2.750000000000056843 0 0 1 I I 0 1 2.750000000000056843 forward I I I I #
loop $-1 -1 $-1 $-1 $212 $147 #
coedge $-1 -1 $-1 $191 $191 $213 $214 reversed $168 $-1 #
coedge $215 -1 $-1 $192 $192 $216 $217 reversed $170 $-1 #
coedge $-1 -1 $-1 $193 $193 $171 $194 forward $218 $-1 #
edge $-1 -1 $-1 $219 -3.141592653589793116 $219 3.141592653589793116 $193 $220 forward @7 unknown #
ATTRIB_CUSTOM-attrib $-1 -1 $-1 $-1 $172 @17 sketch_attrib_def 1 1 3 @13 165 0 0 0 1 1 #
coedge $-1 -1 $-1 $196 $196 $172 $197 forward $221 $-1 #
edge $-1 -1 $-1 $222 -3.141592653589793116 $222 3.141592653589793116 $196 $223 forward @7 unknown #
loop $-1 -1 $-1 $218 $173 $59 #
vertex $-1 -1 $-1 $174 $224 #
ellipse-curve $-1 -1 $-1 150 40.50000000000000711 0 0 0 1 -2.750000000000003553 0 0 1 I I #
loop $-1 -1 $-1 $221 $176 $80 #
vertex $-1 -1 $-1 $177 $225 #
ellipse-curve $-1 -1 $-1 889.3999999999999773 24.00000000000000355 3.174999999999999822 -0 -0 -1 -4.000000000000056843 0 0 1 I I #
point $-1 -1 $-1 893.4000000000000909 24.00000000000000355 0 #
point $-1 -1 $-1 93.39999999999997726 24.00000000000000355 3.174999999999999822 #
DXID-attrib $-1 -1 $-1 $-1 $187 @10 ASM ENTITY @2 12 #
face $226 -1 $-1 $227 $228 $5 $-1 $229 reversed single #
loop $-1 -1 $-1 $230 $231 $187 #
cone-surface $-1 -1 $-1 550 7.500000000000004441 3.174999999999999822 0 0 -1 -2.749999999999985789 0 0 1 I I 0 1 2.749999999999985789 forward I I I I #
loop $-1 -1 $-1 $-1 $232 $167 #
coedge $-1 -1 $-1 $211 $211 $233 $234 reversed $188 $-1 #
coedge $235 -1 $-1 $212 $212 $236 $237 reversed $190 $-1 #
coedge $-1 -1 $-1 $213 $213 $191 $214 forward $238 $-1 #
edge $-1 -1 $-1 $239 -3.141592653589793116 $239 3.141592653589793116 $213 $240 forward @7 unknown #
ATTRIB_CUSTOM-attrib $-1 -1 $-1 $-1 $192 @17 sketch_attrib_def 1 1 3 @13 166 0 0 0 1 1 #
coedge $-1 -1 $-1 $216 $216 $192 $217 forward $241 $-1 #
edge $-1 -1 $-1 $242 -3.141592653589793116 $242 3.141592653589793116 $216 $243 forward @7 unknown #
loop $-1 -1 $-1 $238 $193 $59 #
vertex $-1 -1 $-1 $194 $244 #
ellipse-curve $-1 -1 $-1 250 40.50000000000000711 0 0 0 1 -2.749999999999985789 0 0 1 I I #
loop $-1 -1 $-1 $241 $196 $80 #
vertex $-1 -1 $-1 $197 $245 #
ellipse-curve $-1 -1 $-1 150 40.50000000000000711 3.174999999999999822 -0 -0 -1 -2.750000000000003553 0 0 1 I I #
point $-1 -1 $-1 152.75 40.50000000000000711 0 #
point $-1 -1 $-1 893.4000000000000909 24.00000000000000355 3.174999999999999822 #
DXID-attrib $-1 -1 $-1 $-1 $207 @10 ASM ENTITY @2 13 #
face $246 -1 $-1 $247 $248 $5 $-1 $249 reversed single #
loop $-1 -1 $-1 $250 $251 $207 #
cone-surface $-1 -1 $-1 750 7.500000000000004441 3.174999999999999822 0 0 -1 -2.750000000000056843 0 0 1 I I 0 1 2.750000000000056843 forward I I I I #
loop $-1 -1 $-1 $-1 $252 $187 #
coedge $-1 -1 $-1 $231 $231 $253 $254 reversed $208 $-1 #
coedge $255 -1 $-1 $232 $232 $256 $257 reversed $210 $-1 #
coedge $-1 -1 $-1 $233 $233 $211 $234 forward $258 $-1 #
edge $-1 -1 $-1 $259 -3.141592653589793116 $259 3.141592653589793116 $233 $260 forward @7 unknown #
ATTRIB_CUSTOM-attrib $-1 -1 $-1 $-1 $212 @17 sketch_attrib_def 1 1 3 @13 167 0 0 0 1 1 #
coedge $-1 -1 $-1 $236 $236 $212 $237 forward $261 $-1 #
edge $-1 -1 $-1 $262 -3.141592653589793116 $262 3.141592653589793116 $236 $263 forward @7 unknown #
loop $-1 -1 $-1 $258 $213 $59 #
vertex $-1 -1 $-1 $214 $264 #
ellipse-curve $-1 -1 $-1 350 40.50000000000000711 0 0 0 1 -2.749999999999985789 0 0 1 I I #
loop $-1 -1 $-1 $261 $216 $80 #
vertex $-1 -1 $-1 $217 $265 #
ellipse-curve $-1 -1 $-1 250 40.50000000000000711 3.174999999999999822 -0 -0 -1 -2.749999999999985789 0 0 1 I I #
point $-1 -1 $-1 252.75 40.50000000000000711 0 #
point $-1 -1 $-1 152.75 40.50000000000000711 3.174999999999999822 #
DXID-attrib $-1 -1 $-1 $-1 $227 @10 ASM ENTITY @2 14 #
face $266 -1 $-1 $267 $268 $5 $-1 $269 reversed single #
loop $-1 -1 $-1 $270 $271 $227 #
cone-surface $-1 -1 $-1 250 7.500000000000004441 3.174999999999999822 0 0 -1 -2.749999999999985789 0 0 1 I I 0 1 2.749999999999985789 forward I I I I #
loop $-1 -1 $-1 $-1 $272 $207 #
coedge $-1 -1 $-1 $251 $251 $273 $274 reversed $228 $-1 #
coedge $275 -1 $-1 $252 $252 $276 $277 reversed $230 $-1 #
coedge $-1 -1 $-1 $253 $253 $231 $254 forward $278 $-1 #
edge $-1 -1 $-1 $279 -3.141592653589793116 $279 3.141592653589793116 $253 $280 forward @7 unknown #
ATTRIB_CUSTOM-attrib $-1 -1 $-1 $-1 $232 @17 sketch_attrib_def 1 1 3 @13 172 0 0 0 1 1 #
coedge $-1 -1 $-1 $256 $256 $232 $257 forward $281 $-1 #
edge $-1 -1 $-1 $282 -3.141592653589793116 $282 3.141592653589793116 $256 $283 forward @7 unknown #
loop $-1 -1 $-1 $278 $233 $59 #
vertex $-1 -1 $-1 $234 $284 #
ellipse-curve $-1 -1 $-1 850 40.50000000000000711 0 0 0 1 -2.750000000000056843 0 0 1 I I #
loop $-1 -1 $-1 $281 $236 $80 #
vertex $-1 -1 $-1 $237 $285 #
ellipse-curve $-1 -1 $-1 350 40.50000000000000711 3.174999999999999822 -0 -0 -1 -2.749999999999985789 0 0 1 I I #
point $-1 -1 $-1 352.75 40.50000000000000711 0 #
point $-1 -1 $-1 252.75 40.50000000000000711 3.174999999999999822 #
DXID-attrib $-1 -1 $-1 $-1 $247 @10 ASM ENTITY @2 15 #
face $286 -1 $-1 $287 $288 $5 $-1 $289 reversed single #
loop $-1 -1 $-1 $290 $291 $247 #
cone-surface $-1 -1 $-1 750 40.50000000000000711 3.174999999999999822 0 0 -1 -2.750000000000056843 0 0 1 I I 0 1 2.750000000000056843 forward I I I I #
loop $-1 -1 $-1 $-1 $292 $227 #
coedge $-1 -1 $-1 $271 $271 $293 $294 reversed $248 $-1 #
coedge $295 -1 $-1 $272 $272 $296 $297 reversed $250 $-1 #
coedge $-1 -1 $-1 $273 $273 $251 $274 forward $298 $-1 #
edge $-1 -1 $-1 $299 -3.141592653589793116 $299 3.141592653589793116 $273 $300 forward @7 unknown #
ATTRIB_CUSTOM-attrib $-1 -1 $-1 $-1 $252 @17 sketch_attrib_def 1 1 3 @13 178 0 0 0 1 1 #
coedge $-1 -1 $-1 $276 $276 $252 $277 forward $301 $-1 #
edge $-1 -1 $-1 $302 -3.141592653589793116 $302 3.141592653589793116 $276 $303 forward @7 unknown #
loop $-1 -1 $-1 $298 $253 $59 #
vertex $-1 -1 $-1 $254 $304 #
ellipse-curve $-1 -1 $-1 550 7.500000000000004441 0 0 0 1 -2.749999999999985789 0 0 1 I I #
loop $-1 -1 $-1 $301 $256 $80 #
vertex $-1 -1 $-1 $257 $305 #
ellipse-curve $-1 -1 $-1 850 40.50000000000000711 3.174999999999999822 -0 -0 -1 -2.750000000000056843 0 0 1 I I #
point $-1 -1 $-1 852.75 40.50000000000000711 0 #
point $-1 -1 $-1 352.75 40.50000000000000711 3.174999999999999822 #
DXID-attrib $-1 -1 $-1 $-1 $267 @10 ASM ENTITY @2 16 #
face $306 -1 $-1 $307 $308 $5 $-1 $309 reversed single #
loop $-1 -1 $-1 $310 $311 $267 #
cone-surface $-1 -1 $-1 550 40.50000000000000711 3.174999999999999822 0 0 -1 -2.749999999999985789 0 0 1 I I 0 1 2.749999999999985789 forward I I I I #
loop $-1 -1 $-1 $-1 $312 $247 #
coedge $-1 -1 $-1 $291 $291 $313 $314 reversed $268 $-1 #
coedge $315 -1 $-1 $292 $292 $316 $317 reversed $270 $-1 #
coedge $-1 -1 $-1 $293 $293 $271 $294 forward $318 $-1 #
edge $-1 -1 $-1 $319 -3.141592653589793116 $319 3.141592653589793116 $293 $320 forward @7 unknown #
ATTRIB_CUSTOM-attrib $-1 -1 $-1 $-1 $272 @17 sketch_attrib_def 1 1 3 @13 180 0 0 0 1 1 #
coedge $-1 -1 $-1 $296 $296 $272 $297 forward $321 $-1 #
edge $-1 -1 $-1 $322 -3.141592653589793116 $322 3.141592653589793116 $296 $323 forward @7 unknown #
loop $-1 -1 $-1 $318 $273 $59 #
vertex $-1 -1 $-1 $274 $324 #
ellipse-curve $-1 -1 $-1 750 7.500000000000004441 0 0 0 1 -2.750000000000056843 0 0 1 I I #
loop $-1 -1 $-1 $321 $276 $80 #
vertex $-1 -1 $-1 $277 $325 #
ellipse-curve $-1 -1 $-1 550 7.500000000000004441 3.174999999999999822 -0 -0 -1 -2.749999999999985789 0 0 1 I I #
point $-1 -1 $-1 552.75 7.500000000000004441 0 #
point $-1 -1 $-1 852.75 40.50000000000000711 3.174999999999999822 #
DXID-attrib $-1 -1 $-1 $-1 $287 @10 ASM ENTITY @2 17 #
face $326 -1 $-1 $327 $328 $5 $-1 $329 reversed single #
loop $-1 -1 $-1 $330 $331 $287 #
cone-surface $-1 -1 $-1 389.3999999999999773 24.00000000000000355 3.174999999999999822 0 0 -1 -3.999999999999985789 0 0 1 I I 0 1 3.999999999999985789 forward I I I I #
loop $-1 -1 $-1 $-1 $332 $267 #
coedge $-1 -1 $-1 $311 $311 $333 $334 reversed $288 $-1 #
coedge $335 -1 $-1 $312 $312 $336 $337 reversed $290 $-1 #
coedge $-1 -1 $-1 $313 $313 $291 $314 forward $338 $-1 #
edge $-1 -1 $-1 $339 -3.141592653589793116 $339 3.141592653589793116 $313 $340 forward @7 unknown #
ATTRIB_CUSTOM-attrib $-1 -1 $-1 $-1 $292 @17 sketch_attrib_def 1 1 3 @13 175 0 0 0 1 1 #
coedge $-1 -1 $-1 $316 $316 $292 $317 forward $341 $-1 #
edge $-1 -1 $-1 $342 -3.141592653589793116 $342 3.141592653589793116 $316 $343 forward @7 unknown #
loop $-1 -1 $-1 $338 $293 $59 #
vertex $-1 -1 $-1 $294 $344 #
ellipse-curve $-1 -1 $-1 250 7.500000000000004441 0 0 0 1 -2.749999999999985789 0 0 1 I I #
loop $-1 -1 $-1 $341 $296 $80 #
vertex $-1 -1 $-1 $297 $345 #
ellipse-curve $-1 -1 $-1 750 7.500000000000004441 3.174999999999999822 -0 -0 -1 -2.750000000000056843 0 0 1 I I #
point $-1 -1 $-1 752.75 7.500000000000004441 0 #
point $-1 -1 $-1 552.75 7.500000000000004441 3.174999999999999822 #
DXID-attrib $-1 -1 $-1 $-1 $307 @10 ASM ENTITY @2 18 #
face $346 -1 $-1 $347 $348 $5 $-1 $349 reversed single #
loop $-1 -1 $-1 $350 $351 $307 #
cone-surface $-1 -1 $-1 189.3999999999999773 24.00000000000000355 3.174999999999999822 0 0 -1 -3.999999999999985789 0 0 1 I I 0 1 3.999999999999985789 forward I I I I #
loop $-1 -1 $-1 $-1 $352 $287 #
coedge $-1 -1 $-1 $331 $331 $353 $354 reversed $308 $-1 #
coedge $355 -1 $-1 $332 $332 $356 $357 reversed $310 $-1 #
coedge $-1 -1 $-1 $333 $333 $311 $334 forward $358 $-1 #
edge $-1 -1 $-1 $359 -3.141592653589793116 $359 3.141592653589793116 $333 $360 forward @7 unknown #
ATTRIB_CUSTOM-attrib $-1 -1 $-1 $-1 $312 @17 sketch_attrib_def 1 1 3 @13 171 0 0 0 1 1 #
coedge $-1 -1 $-1 $336 $336 $312 $337 forward $361 $-1 #
edge $-1 -1 $-1 $362 -3.141592653589793116 $362 3.141592653589793116 $336 $363 forward @7 unknown #
loop $-1 -1 $-1 $358 $313 $59 #
vertex $-1 -1 $-1 $314 $364 #
ellipse-curve $-1 -1 $-1 750 40.50000000000000711 0 0 0 1 -2.750000000000056843 0 0 1 I I #
loop $-1 -1 $-1 $361 $316 $80 #
vertex $-1 -1 $-1 $317 $365 #
ellipse-curve $-1 -1 $-1 250 7.500000000000004441 3.174999999999999822 -0 -0 -1 -2.749999999999985789 0 0 1 I I #
point $-1 -1 $-1 252.75 7.500000000000004441 0 #
point $-1 -1 $-1 752.75 7.500000000000004441 3.174999999999999822 #
DXID-attrib $-1 -1 $-1 $-1 $327 @10 ASM ENTITY @2 19 #
face $366 -1 $-1 $367 $368 $5 $-1 $369 reversed single #
loop $-1 -1 $-1 $370 $371 $327 #
cone-surface $-1 -1 $-1 689.3999999999999773 24.00000000000000355 3.174999999999999822 0 0 -1 -4.000000000000056843 0 0 1 I I 0 1 4.000000000000056843 forward I I I I #
loop $-1 -1 $-1 $-1 $372 $307 #
coedge $-1 -1 $-1 $351 $351 $373 $374 reversed $328 $-1 #
coedge $375 -1 $-1 $352 $352 $376 $377 reversed $330 $-1 #
coedge $-1 -1 $-1 $353 $353 $331 $354 forward $378 $-1 #
edge $-1 -1 $-1 $379 -3.141592653589793116 $379 3.141592653589793116 $353 $380 forward @7 unknown #
ATTRIB_CUSTOM-attrib $-1 -1 $-1 $-1 $332 @17 sketch_attrib_def 1 1 3 @13 169 0 0 0 1 1 #
coedge $-1 -1 $-1 $356 $356 $332 $357 forward $381 $-1 #
edge $-1 -1 $-1 $382 -3.141592653589793116 $382 3.141592653589793116 $356 $383 forward @7 unknown #
loop $-1 -1 $-1 $378 $333 $59 #
vertex $-1 -1 $-1 $334 $384 #
ellipse-curve $-1 -1 $-1 550 40.50000000000000711 0 0 0 1 -2.749999999999985789 0 0 1 I I #
loop $-1 -1 $-1 $381 $336 $80 #
vertex $-1 -1 $-1 $337 $385 #
ellipse-curve $-1 -1 $-1 750 40.50000000000000711 3.174999999999999822 -0 -0 -1 -2.750000000000056843 0 0 1 I I #
point $-1 -1 $-1 752.75 40.50000000000000711 0 #
point $-1 -1 $-1 252.75 7.500000000000004441 3.174999999999999822 #
DXID-attrib $-1 -1 $-1 $-1 $347 @10 ASM ENTITY @2 20 #
face $386 -1 $-1 $387 $388 $5 $-1 $389 reversed single #
loop $-1 -1 $-1 $390 $391 $347 #
cone-surface $-1 -1 $-1 589.3999999999999773 24.00000000000000355 3.174999999999999822 0 0 -1 -3.999999999999985789 0 0 1 I I 0 1 3.999999999999985789 forward I I I I #
loop $-1 -1 $-1 $-1 $392 $327 #
coedge $-1 -1 $-1 $371 $371 $393 $394 reversed $348 $-1 #
coedge $395 -1 $-1 $372 $372 $396 $397 reversed $350 $-1 #
coedge $-1 -1 $-1 $373 $373 $351 $374 forward $398 $-1 #
edge $-1 -1 $-1 $399 -3.141592653589793116 $399 3.141592653589793116 $373 $400 forward @7 unknown #
ATTRIB_CUSTOM-attrib $-1 -1 $-1 $-1 $352 @17 sketch_attrib_def 1 1 3 @13 158 0 0 0 1 1 #
coedge $-1 -1 $-1 $376 $376 $352 $377 forward $401 $-1 #
edge $-1 -1 $-1 $402 -3.141592653589793116 $402 3.141592653589793116 $376 $403 forward @7 unknown #
loop $-1 -1 $-1 $398 $353 $59 #
vertex $-1 -1 $-1 $354 $404 #
ellipse-curve $-1 -1 $-1 389.3999999999999773 24.00000000000000355 0 0 0 1 -3.999999999999985789 0 0 1 I I #
loop $-1 -1 $-1 $401 $356 $80 #
vertex $-1 -1 $-1 $357 $405 #
ellipse-curve $-1 -1 $-1 550 40.50000000000000711 3.174999999999999822 -0 -0 -1 -2.749999999999985789 0 0 1 I I #
point $-1 -1 $-1 552.75 40.50000000000000711 0 #
point $-1 -1 $-1 752.75 40.50000000000000711 3.174999999999999822 #
DXID-attrib $-1 -1 $-1 $-1 $367 @10 ASM ENTITY @2 21 #
face $406 -1 $-1 $407 $408 $5 $-1 $409 reversed single #
loop $-1 -1 $-1 $410 $411 $367 #
cone-surface $-1 -1 $-1 489.3999999999999773 24.00000000000000355 3.174999999999999822 0 0 -1 -3.999999999999985789 0 0 1 I I 0 1 3.999999999999985789 forward I I I I #
loop $-1 -1 $-1 $-1 $412 $347 #
coedge $-1 -1 $-1 $391 $391 $413 $414 reversed $368 $-1 #
coedge $415 -1 $-1 $392 $392 $416 $417 reversed $370 $-1 #
coedge $-1 -1 $-1 $393 $393 $371 $394 forward $418 $-1 #
edge $-1 -1 $-1 $419 -3.141592653589793116 $419 3.141592653589793116 $393 $420 forward @7 unknown #
ATTRIB_CUSTOM-attrib $-1 -1 $-1 $-1 $372 @17 sketch_attrib_def 1 1 3 @13 162 0 0 0 1 1 #
coedge $-1 -1 $-1 $396 $396 $372 $397 forward $421 $-1 #
edge $-1 -1 $-1 $422 -3.141592653589793116 $422 3.141592653589793116 $396 $423 forward @7 unknown #
loop $-1 -1 $-1 $418 $373 $59 #
vertex $-1 -1 $-1 $374 $424 #
ellipse-curve $-1 -1 $-1 189.3999999999999773 24.00000000000000355 0 0 0 1 -3.999999999999985789 0 0 1 I I #
loop $-1 -1 $-1 $421 $376 $80 #
vertex $-1 -1 $-1 $377 $425 #
ellipse-curve $-1 -1 $-1 389.3999999999999773 24.00000000000000355 3.174999999999999822 -0 -0 -1 -3.999999999999985789 0 0 1 I I #
point $-1 -1 $-1 393.3999999999999773 24.00000000000000355 0 #
point $-1 -1 $-1 552.75 40.50000000000000711 3.174999999999999822 #
DXID-attrib $-1 -1 $-1 $-1 $387 @10 ASM ENTITY @2 22 #
face $426 -1 $-1 $427 $428 $5 $-1 $429 reversed single #
loop $-1 -1 $-1 $430 $431 $387 #
cone-surface $-1 -1 $-1 50 40.50000000000000711 3.174999999999999822 0 0 -1 -2.750000000000003553 0 0 1 I I 0 1 2.750000000000003553 forward I I I I #
loop $-1 -1 $-1 $-1 $432 $367 #
coedge $-1 -1 $-1 $411 $411 $433 $434 reversed $388 $-1 #
coedge $435 -1 $-1 $412 $412 $436 $437 reversed $390 $-1 #
coedge $-1 -1 $-1 $413 $413 $391 $414 forward $438 $-1 #
edge $-1 -1 $-1 $439 -3.141592653589793116 $439 3.141592653589793116 $413 $440 forward @7 unknown #
ATTRIB_CUSTOM-attrib $-1 -1 $-1 $-1 $392 @17 sketch_attrib_def 1 1 3 @13 152 0 0 0 1 1 #
coedge $-1 -1 $-1 $416 $416 $392 $417 forward $441 $-1 #
edge $-1 -1 $-1 $442 -3.141592653589793116 $442 3.141592653589793116 $416 $443 forward @7 unknown #
loop $-1 -1 $-1 $438 $393 $59 #
vertex $-1 -1 $-1 $394 $444 #
ellipse-curve $-1 -1 $-1 689.3999999999999773 24.00000000000000355 0 0 0 1 -4.000000000000056843 0 0 1 I I #
loop $-1 -1 $-1 $441 $396 $80 #
vertex $-1 -1 $-1 $397 $445 #
ellipse-curve $-1 -1 $-1 189.3999999999999773 24.00000000000000355 3.174999999999999822 -0 -0 -1 -3.999999999999985789 0 0 1 I I #
point $-1 -1 $-1 193.3999999999999773 24.00000000000000355 0 #
point $-1 -1 $-1 393.3999999999999773 24.00000000000000355 3.174999999999999822 #
DXID-attrib $-1 -1 $-1 $-1 $407 @10 ASM ENTITY @2 23 #
face $446 -1 $-1 $447 $448 $5 $-1 $449 reversed single #
loop $-1 -1 $-1 $450 $451 $407 #
cone-surface $-1 -1 $-1 50 7.500000000000004441 3.174999999999999822 0 0 -1 -2.750000000000003553 0 0 1 I I 0 1 2.750000000000003553 forward I I I I #
loop $-1 -1 $-1 $-1 $452 $387 #
coedge $-1 -1 $-1 $431 $431 $453 $454 reversed $408 $-1 #
coedge $455 -1 $-1 $432 $432 $456 $457 reversed $410 $-1 #
coedge $-1 -1 $-1 $433 $433 $411 $434 forward $458 $-1 #
edge $-1 -1 $-1 $459 -3.141592653589793116 $459 3.141592653589793116 $433 $460 forward @7 unknown #
ATTRIB_CUSTOM-attrib $-1 -1 $-1 $-1 $412 @17 sketch_attrib_def 1 1 3 @13 154 0 0 0 1 1 #
coedge $-1 -1 $-1 $436 $436 $412 $437 forward $461 $-1 #
edge $-1 -1 $-1 $462 -3.141592653589793116 $462 3.141592653589793116 $436 $463 forward @7 unknown #
loop $-1 -1 $-1 $458 $413 $59 #
vertex $-1 -1 $-1 $414 $464 #
ellipse-curve $-1 -1 $-1 589.3999999999999773 24.00000000000000355 0 0 0 1 -3.999999999999985789 0 0 1 I I #
loop $-1 -1 $-1 $461 $416 $80 #
vertex $-1 -1 $-1 $417 $465 #
ellipse-curve $-1 -1 $-1 689.3999999999999773 24.00000000000000355 3.174999999999999822 -0 -0 -1 -4.000000000000056843 0 0 1 I I #
point $-1 -1 $-1 693.4000000000000909 24.00000000000000355 0 #
point $-1 -1 $-1 193.3999999999999773 24.00000000000000355 3.174999999999999822 #
DXID-attrib $-1 -1 $-1 $-1 $427 @10 ASM ENTITY @2 24 #
face $466 -1 $-1 $467 $468 $5 $-1 $469 reversed single #
loop $-1 -1 $-1 $470 $471 $427 #
cone-surface $-1 -1 $-1 450 40.50000000000000711 3.174999999999999822 0 0 -1 -2.749999999999985789 0 0 1 I I 0 1 2.749999999999985789 forward I I I I #
loop $-1 -1 $-1 $-1 $472 $407 #
coedge $-1 -1 $-1 $451 $451 $473 $474 reversed $428 $-1 #
coedge $475 -1 $-1 $452 $452 $476 $477 reversed $430 $-1 #
coedge $-1 -1 $-1 $453 $453 $431 $454 forward $478 $-1 #
edge $-1 -1 $-1 $479 -3.141592653589793116 $479 3.141592653589793116 $453 $480 forward @7 unknown #
ATTRIB_CUSTOM-attrib $-1 -1 $-1 $-1 $432 @17 sketch_attrib_def 1 1 3 @13 156 0 0 0 1 1 #
coedge $-1 -1 $-1 $456 $456 $432 $457 forward $481 $-1 #
edge $-1 -1 $-1 $482 -3.141592653589793116 $482 3.141592653589793116 $456 $483 forward @7 unknown #
loop $-1 -1 $-1 $478 $433 $59 #
vertex $-1 -1 $-1 $434 $484 #
ellipse-curve $-1 -1 $-1 489.3999999999999773 24.00000000000000355 0 0 0 1 -3.999999999999985789 0 0 1 I I #
loop $-1 -1 $-1 $481 $436 $80 #
vertex $-1 -1 $-1 $437 $485 #
ellipse-curve $-1 -1 $-1 589.3999999999999773 24.00000000000000355 3.174999999999999822 -0 -0 -1 -3.999999999999985789 0 0 1 I I #
point $-1 -1 $-1 593.3999999999999773 24.00000000000000355 0 #
point $-1 -1 $-1 693.4000000000000909 24.00000000000000355 3.174999999999999822 #
DXID-attrib $-1 -1 $-1 $-1 $447 @10 ASM ENTITY @2 25 #
face $486 -1 $-1 $487 $488 $5 $-1 $489 reversed single #
loop $-1 -1 $-1 $490 $491 $447 #
cone-surface $-1 -1 $-1 350 7.500000000000004441 3.174999999999999822 0 0 -1 -2.749999999999985789 0 0 1 I I 0 1 2.749999999999985789 forward I I I I #
loop $-1 -1 $-1 $-1 $492 $427 #
coedge $-1 -1 $-1 $471 $471 $493 $494 reversed $448 $-1 #
coedge $495 -1 $-1 $472 $472 $496 $497 reversed $450 $-1 #
coedge $-1 -1 $-1 $473 $473 $451 $474 forward $498 $-1 #
edge $-1 -1 $-1 $499 -3.141592653589793116 $499 3.141592653589793116 $473 $500 forward @7 unknown #
ATTRIB_CUSTOM-attrib $-1 -1 $-1 $-1 $452 @17 sketch_attrib_def 1 1 3 @13 124 0 0 0 1 1 #
coedge $-1 -1 $-1 $476 $476 $452 $477 forward $501 $-1 #
edge $-1 -1 $-1 $502 -3.141592653589793116 $502 3.141592653589793116 $476 $503 forward @7 unknown #
loop $-1 -1 $-1 $498 $453 $59 #
vertex $-1 -1 $-1 $454 $504 #
ellipse-curve $-1 -1 $-1 50 40.50000000000000711 0 0 0 1 -2.750000000000003553 0 0 1 I I #
loop $-1 -1 $-1 $501 $456 $80 #
vertex $-1 -1 $-1 $457 $505 #
ellipse-curve $-1 -1 $-1 489.3999999999999773 24.00000000000000355 3.174999999999999822 -0 -0 -1 -3.999999999999985789 0 0 1 I I #
point $-1 -1 $-1 493.3999999999999773 24.00000000000000355 0 #
point $-1 -1 $-1 593.3999999999999773 24.00000000000000355 3.174999999999999822 #
DXID-attrib $-1 -1 $-1 $-1 $467 @10 ASM ENTITY @2 26 #
face $506 -1 $-1 $507 $508 $5 $-1 $509 forward single #
loop $-1 -1 $-1 $510 $511 $467 #
cone-surface $-1 -1 $-1 850 7.500000000000004441 3.174999999999999822 0 0 -1 -2.750000000000056843 0 0 1 I I 0 1 2.750000000000056843 forward I I I I #
loop $-1 -1 $-1 $-1 $512 $447 #
coedge $-1 -1 $-1 $491 $491 $513 $514 reversed $468 $-1 #
coedge $515 -1 $-1 $492 $492 $516 $517 reversed $470 $-1 #
coedge $-1 -1 $-1 $493 $493 $471 $494 forward $518 $-1 #
edge $-1 -1 $-1 $519 -3.141592653589793116 $519 3.141592653589793116 $493 $520 forward @7 unknown #
ATTRIB_CUSTOM-attrib $-1 -1 $-1 $-1 $472 @17 sketch_attrib_def 1 1 3 @13 173 0 0 0 1 1 #
coedge $-1 -1 $-1 $496 $496 $472 $497 forward $521 $-1 #
edge $-1 -1 $-1 $522 -3.141592653589793116 $522 3.141592653589793116 $496 $523 forward @7 unknown #
loop $-1 -1 $-1 $518 $473 $59 #
vertex $-1 -1 $-1 $474 $524 #
ellipse-curve $-1 -1 $-1 50 7.500000000000004441 0 0 0 1 -2.750000000000003553 0 0 1 I I #
loop $-1 -1 $-1 $521 $476 $80 #
vertex $-1 -1 $-1 $477 $525 #
ellipse-curve $-1 -1 $-1 50 40.50000000000000711 3.174999999999999822 -0 -0 -1 -2.750000000000003553 0 0 1 I I #
point $-1 -1 $-1 52.75 40.50000000000000711 0 #
point $-1 -1 $-1 493.3999999999999773 24.00000000000000355 3.174999999999999822 #
DXID-attrib $-1 -1 $-1 $-1 $487 @10 ASM ENTITY @2 27 #
face $526 -1 $-1 $527 $528 $5 $-1 $529 forward single #
loop $-1 -1 $-1 $-1 $530 $487 #
plane-surface $-1 -1 $-1 914.3999999999999773 48.00000000000000711 0 0 1 0 -10 0 0 forward_v I I I I #
loop $-1 -1 $-1 $-1 $531 $467 #
coedge $-1 -1 $-1 $511 $511 $532 $533 reversed $488 $-1 #
coedge $534 -1 $-1 $512 $512 $535 $536 reversed $490 $-1 #
coedge $-1 -1 $-1 $513 $513 $491 $514 forward $537 $-1 #
edge $-1 -1 $-1 $538 -3.141592653589793116 $538 3.141592653589793116 $513 $539 forward @7 unknown #
ATTRIB_CUSTOM-attrib $-1 -1 $-1 $-1 $492 @17 sketch_attrib_def 1 1 3 @13 168 0 0 0 1 1 #
coedge $-1 -1 $-1 $516 $516 $492 $517 forward $540 $-1 #
edge $-1 -1 $-1 $541 -3.141592653589793116 $541 3.141592653589793116 $516 $542 forward @7 unknown #
loop $-1 -1 $-1 $537 $493 $59 #
vertex $-1 -1 $-1 $494 $543 #
ellipse-curve $-1 -1 $-1 450 40.50000000000000711 0 0 0 1 -2.749999999999985789 0 0 1 I I #
loop $-1 -1 $-1 $540 $496 $80 #
vertex $-1 -1 $-1 $497 $544 #
ellipse-curve $-1 -1 $-1 50 7.500000000000004441 3.174999999999999822 -0 -0 -1 -2.750000000000003553 0 0 1 I I #
point $-1 -1 $-1 52.75 7.500000000000004441 0 #
point $-1 -1 $-1 52.75 40.50000000000000711 3.174999999999999822 #
DXID-attrib $-1 -1 $-1 $-1 $507 @10 ASM ENTITY @2 28 #
face $545 -1 $-1 $546 $547 $5 $-1 $548 forward single #
loop $-1 -1 $-1 $-1 $549 $507 #
plane-surface $-1 -1 $-1 914.3999999999999773 0 0 1 0 0 0 10 0 forward_v I I I I #
coedge $550 -1 $-1 $551 $552 $553 $554 forward $508 $-1 #
coedge $555 -1 $-1 $531 $531 $556 $557 reversed $510 $-1 #
coedge $-1 -1 $-1 $532 $532 $511 $533 forward $558 $-1 #
edge $-1 -1 $-1 $559 -3.141592653589793116 $559 3.141592653589793116 $532 $560 forward @7 unknown #
ATTRIB_CUSTOM-attrib $-1 -1 $-1 $-1 $512 @17 sketch_attrib_def 1 1 3 @13 176 0 0 0 1 1 #
coedge $-1 -1 $-1 $535 $535 $512 $536 forward $561 $-1 #
edge $-1 -1 $-1 $562 -3.141592653589793116 $562 3.141592653589793116 $535 $563 forward @7 unknown #
loop $-1 -1 $-1 $558 $513 $59 #
vertex $-1 -1 $-1 $514 $564 #
ellipse-curve $-1 -1 $-1 350 7.500000000000004441 0 0 0 1 -2.749999999999985789 0 0 1 I I #
loop $-1 -1 $-1 $561 $516 $80 #
vertex $-1 -1 $-1 $517 $565 #
ellipse-curve $-1 -1 $-1 450 40.50000000000000711 3.174999999999999822 -0 -0 -1 -2.749999999999985789 0 0 1 I I #
point $-1 -1 $-1 452.75 40.50000000000000711 0 #
point $-1 -1 $-1 52.75 7.500000000000004441 3.174999999999999822 #
DXID-attrib $-1 -1 $-1 $-1 $527 @10 ASM ENTITY @2 29 #
face $566 -1 $-1 $80 $567 $5 $-1 $568 forward single #
loop $-1 -1 $-1 $-1 $569 $527 #
plane-surface $-1 -1 $-1 0 0 0 0 -1 0 10 0 0 forward_v I I I I #
coedge $570 -1 $-1 $571 $572 $573 $574 forward $528 $-1 #
ATTRIB_CUSTOM-attrib $-1 -1 $-1 $-1 $530 @17 sketch_attrib_def 1 1 3 @13 107 0 0 0 1 1 #
coedge $-1 -1 $-1 $575 $530 $576 $577 forward $508 $-1 #
coedge $-1 -1 $-1 $530 $575 $571 $578 reversed $508 $-1 #
coedge $579 -1 $-1 $573 $580 $530 $554 reversed $581 $-1 #
edge $-1 -1 $-1 $582 0 $583 91.43999999999999773 $530 $584 forward @7 unknown #
ATTRIB_CUSTOM-attrib $-1 -1 $-1 $-1 $531 @17 sketch_attrib_def 1 1 3 @13 181 0 0 0 1 1 #
coedge $-1 -1 $-1 $556 $556 $531 $557 forward $585 $-1 #
edge $-1 -1 $-1 $586 -3.141592653589793116 $586 3.141592653589793116 $556 $587 forward @7 unknown #
loop $-1 -1 $-1 $581 $532 $59 #
vertex $-1 -1 $-1 $533 $588 #
ellipse-curve $-1 -1 $-1 850 7.500000000000004441 0 0 0 1 -2.750000000000056843 0 0 1 I I #
loop $-1 -1 $-1 $585 $535 $80 #
vertex $-1 -1 $-1 $536 $589 #
ellipse-curve $-1 -1 $-1 350 7.500000000000004441 3.174999999999999822 -0 -0 -1 -2.749999999999985789 0 0 1 I I #
point $-1 -1 $-1 352.75 7.500000000000004441 0 #
point $-1 -1 $-1 452.75 40.50000000000000711 3.174999999999999822 #
DXID-attrib $-1 -1 $-1 $-1 $546 @10 ASM ENTITY @2 30 #
loop $-1 -1 $-1 $-1 $590 $546 #
plane-surface $-1 -1 $-1 -2.465190328815661892e-31 48.00000000000000711 0 -1 -5.135813185032628485e-33 0 5.135813185032628212e-32 -10 0 forward_v I I I I #
coedge $591 -1 $-1 $592 $593 $594 $595 forward $547 $-1 #
ATTRIB_CUSTOM-attrib $-1 -1 $-1 $-1 $549 @17 sketch_attrib_def 1 1 3 @13 106 0 0 0 1 1 #
coedge $-1 -1 $-1 $596 $549 $552 $578 forward $528 $-1 #
coedge $-1 -1 $-1 $549 $596 $592 $597 reversed $528 $-1 #
coedge $598 -1 $-1 $594 $553 $549 $574 reversed $581 $-1 #
edge $-1 -1 $-1 $599 0 $582 4.800000000000000711 $549 $600 forward @7 unknown #
coedge $-1 -1 $-1 $552 $551 $601 $602 reversed $508 $-1 #
coedge $-1 -1 $-1 $590 $603 $551 $577 reversed $567 $-1 #
edge $-1 -1 $-1 $583 0 $604 0.3175000000000000044 $576 $605 forward @7 unknown #
edge $-1 -1 $-1 $582 0 $606 0.3175000000000000044 $571 $607 forward @7 unknown #
ATTRIB_CUSTOM-attrib $-1 -1 $-1 $-1 $553 @17 sketch_attrib_def 1 1 3 @13 107 0 0 0 1 1 #
coedge $608 -1 $-1 $553 $594 $590 $609 reversed $581 $-1 #
loop $-1 -1 $-1 $-1 $580 $59 #
vertex $-1 -1 $-1 $554 $610 #
vertex $-1 -1 $-1 $554 $611 #
straight-curve $-1 -1 $-1 914.3999999999999773 48.00000000000000711 0 -10 0 0 F 0 F 91.43999999999999773 #
loop $-1 -1 $-1 $612 $556 $80 #
vertex $-1 -1 $-1 $557 $613 #
ellipse-curve $-1 -1 $-1 850 7.500000000000004441 3.174999999999999822 -0 -0 -1 -2.750000000000056843 0 0 1 I I #
point $-1 -1 $-1 852.75 7.500000000000004441 0 #
point $-1 -1 $-1 352.75 7.500000000000004441 3.174999999999999822 #
coedge $614 -1 $-1 $615 $576 $580 $609 forward $567 $-1 #
ATTRIB_CUSTOM-attrib $-1 -1 $-1 $-1 $569 @17 sketch_attrib_def 1 1 3 @13 105 0 0 0 1 1 #
coedge $-1 -1 $-1 $616 $569 $572 $597 forward $547 $-1 #
coedge $-1 -1 $-1 $569 $616 $615 $617 reversed $547 $-1 #
coedge $618 -1 $-1 $580 $573 $569 $595 reversed $581 $-1 #
edge $-1 -1 $-1 $619 0 $599 91.43999999999999773 $569 $620 forward @7 unknown #
coedge $-1 -1 $-1 $572 $571 $621 $622 reversed $528 $-1 #
edge $-1 -1 $-1 $599 0 $623 0.3175000000000000044 $592 $624 forward @7 unknown #
ATTRIB_CUSTOM-attrib $-1 -1 $-1 $-1 $573 @17 sketch_attrib_def 1 1 3 @13 106 0 0 0 1 1 #
vertex $-1 -1 $-1 $574 $625 #
straight-curve $-1 -1 $-1 914.3999999999999773 0 0 0 10 0 F 0 F 4.800000000000000711 #
coedge $-1 -1 $-1 $626 $621 $575 $602 forward $612 $-1 #
edge $-1 -1 $-1 $606 0 $604 91.43999999999999773 $575 $627 forward @7 unknown #
coedge $-1 -1 $-1 $576 $615 $626 $628 reversed $567 $-1 #
vertex $-1 -1 $-1 $577 $629 #
straight-curve $-1 -1 $-1 -2.465190328815661892e-31 48.00000000000000711 0 0 0 10 I I #
vertex $-1 -1 $-1 $602 $630 #
straight-curve $-1 -1 $-1 914.3999999999999773 48.00000000000000711 0 0 0 10 I I #
ATTRIB_CUSTOM-attrib $-1 -1 $-1 $-1 $580 @17 sketch_attrib_def 1 1 3 @13 108 0 0 0 1 1 #
edge $-1 -1 $-1 $583 0 $619 4.800000000000000711 $590 $631 forward @7 unknown #
point $-1 -1 $-1 914.3999999999999773 48.00000000000000711 0 #
point $-1 -1 $-1 -2.465190328815661892e-31 48.00000000000000711 0 #
loop $-1 -1 $-1 $-1 $626 $80 #
point $-1 -1 $-1 852.75 7.500000000000004441 3.174999999999999822 #
ATTRIB_CUSTOM-attrib $-1 -1 $-1 $-1 $590 @17 sketch_attrib_def 1 1 3 @13 108 0 0 0 1 1 #
coedge $-1 -1 $-1 $603 $590 $593 $617 forward $567 $-1 #
coedge $-1 -1 $-1 $593 $592 $632 $633 reversed $547 $-1 #
edge $-1 -1 $-1 $619 0 $634 0.3175000000000000044 $615 $635 forward @7 unknown #
ATTRIB_CUSTOM-attrib $-1 -1 $-1 $-1 $594 @17 sketch_attrib_def 1 1 3 @13 105 0 0 0 1 1 #
vertex $-1 -1 $-1 $595 $636 #
straight-curve $-1 -1 $-1 0 0 0 10 0 0 F 0 F 91.43999999999999773 #
coedge $-1 -1 $-1 $601 $632 $596 $622 forward $612 $-1 #
edge $-1 -1 $-1 $623 0 $606 4.800000000000000711 $596 $637 forward @7 unknown #
vertex $-1 -1 $-1 $622 $638 #
straight-curve $-1 -1 $-1 914.3999999999999773 0 0 0 0 10 I I #
point $-1 -1 $-1 914.3999999999999773 0 0 #
coedge $-1 -1 $-1 $632 $601 $603 $628 forward $612 $-1 #
straight-curve $-1 -1 $-1 914.3999999999999773 48.00000000000000711 3.174999999999999822 -10 0 0 I I #
edge $-1 -1 $-1 $604 0 $634 4.800000000000000711 $603 $639 forward @7 unknown #
point $-1 -1 $-1 -2.465190328815661892e-31 48.00000000000000711 3.174999999999999822 #
point $-1 -1 $-1 914.3999999999999773 48.00000000000000711 3.174999999999999822 #
straight-curve $-1 -1 $-1 -2.465190328815661892e-31 48.00000000000000711 0 5.135813185032628212e-32 -10 0 F 0 F 4.800000000000000711 #
coedge $-1 -1 $-1 $621 $626 $616 $633 forward $612 $-1 #
edge $-1 -1 $-1 $634 0 $623 91.43999999999999773 $616 $640 forward @7 unknown #
vertex $-1 -1 $-1 $633 $641 #
straight-curve $-1 -1 $-1 0 0 0 0 0 10 I I #
point $-1 -1 $-1 0 0 0 #
straight-curve $-1 -1 $-1 914.3999999999999773 0 3.174999999999999822 0 10 0 I I #
point $-1 -1 $-1 914.3999999999999773 0 3.174999999999999822 #
straight-curve $-1 -1 $-1 -2.465190328815661892e-31 48.00000000000000711 3.174999999999999822 5.135813185032628212e-32 -10 0 I I #
straight-curve $-1 -1 $-1 0 0 3.174999999999999822 10 0 0 I I #
point $-1 -1 $-1 0 0 3.174999999999999822 #
End-of-ACIS-data 