22700 0 2 4           
30 Autodesk Translation Framework 20 ASM 227.7.2.65535 NT 24 Fri Mar 25 19:29:16 2022 
1 9.999999999999999547e-07 1.000000000000000036e-10 
asmheader $-1 -1 @13 227.7.2.65535 #
body $2 -1 $-1 $3 $-1 $4 #
rgb_color-st-attrib $-1 -1 $5 $-1 $1 0.627450980392156854 0.627450980392156854 0.627450980392156854 1 #
lump $-1 -1 $-1 $-1 $6 $1 #
transform $-1 -1 1 0 0 0 1 0 0 0 1 0 0 0 1 no_rotate no_reflect no_shear #
ATTRIB_CUSTOM-attrib $-1 -1 $-1 $2 $1 @20 Timestamp_attrib_def 1 1602819842747083 #
shell $-1 -1 $-1 $-1 $-1 $7 $-1 $3 #
face $8 -1 $-1 $9 $10 $6 $-1 $11 reversed single #
DXID-attrib $-1 -1 $-1 $-1 $7 @10 ASM ENTITY @1 0 #
face $12 -1 $-1 $13 $14 $6 $-1 $15 reversed single #
loop $-1 -1 $-1 $16 $17 $7 #
cone-surface $-1 -1 $-1 650 7.500000000000004441 3.174999999999999822 0 0 -1 -2.750000000000056843 0 0 1 I I 0 1 2.750000000000056843 forward I I I I #
DXID-attrib $-1 -1 $-1 $-1 $9 @10 ASM ENTITY @1 1 #
face $18 -1 $-1 $19 $20 $6 $-1 $21 reversed single #
loop $-1 -1 $-1 $22 $23 $9 #
cone-surface $-1 -1 $-1 150 7.500000000000004441 3.174999999999999822 0 0 -1 -2.750000000000003553 0 0 1 I I 0 1 2.750000000000003553 forward I I I I #
loop $-1 -1 $-1 $-1 $24 $7 #
coedge $-1 -1 $-1 $17 $17 $25 $26 reversed $10 0 $-1 #
DXID-attrib $-1 -1 $-1 $-1 $13 @10 ASM ENTITY @1 2 #
face $27 -1 $-1 $28 $29 $6 $-1 $30 reversed single #
loop $-1 -1 $-1 $31 $32 $13 #
cone-surface $-1 -1 $-1 650 40.50000000000000711 3.174999999999999822 0 0 -1 -2.750000000000056843 0 0 1 I I 0 1 2.750000000000056843 forward I I I I #
loop $-1 -1 $-1 $-1 $33 $9 #
coedge $-1 -1 $-1 $23 $23 $34 $35 reversed $14 0 $-1 #
coedge $36 -1 $-1 $24 $24 $37 $38 reversed $16 0 $-1 #
coedge $-1 -1 $-1 $25 $25 $17 $26 forward $39 0 $-1 #
edge $-1 -1 $-1 $40 -3.141592653589793116 $40 3.141592653589793116 $25 $41 forward @7 unknown #
DXID-attrib $-1 -1 $-1 $-1 $19 @10 ASM ENTITY @1 3 #
face $42 -1 $-1 $43 $44 $6 $-1 $45 reversed single #
loop $-1 -1 $-1 $46 $47 $19 #
cone-surface $-1 -1 $-1 450 7.500000000000004441 3.174999999999999822 0 0 -1 -2.749999999999985789 0 0 1 I I 0 1 2.749999999999985789 forward I I I I #
loop $-1 -1 $-1 $-1 $48 $13 #
coedge $-1 -1 $-1 $32 $32 $49 $50 reversed $20 0 $-1 #
coedge $51 -1 $-1 $33 $33 $52 $53 reversed $22 0 $-1 #
coedge $-1 -1 $-1 $34 $34 $23 $35 forward $54 0 $-1 #
edge $-1 -1 $-1 $55 -3.141592653589793116 $55 3.141592653589793116 $34 $56 forward @7 unknown #
ATTRIB_CUSTOM-attrib $-1 -1 $-1 $-1 $24 @17 sketch_attrib_def 1 1 3 @13 179 0 0 0 1 1 #
coedge $-1 -1 $-1 $37 $37 $24 $38 forward $57 0 $-1 #
edge $-1 -1 $-1 $58 -3.141592653589793116 $58 3.141592653589793116 $37 $59 forward @7 unknown #
loop $-1 -1 $-1 $54 $25 $60 #
vertex $-1 -1 $-1 $26 0 $61 #
ellipse-curve $-1 -1 $-1 650 7.500000000000004441 0 0 0 1 -2.750000000000056843 0 0 1 I I #
DXID-attrib $-1 -1 $-1 $-1 $28 @10 ASM ENTITY @1 4 #
face $62 -1 $-1 $63 $64 $6 $-1 $65 reversed single #
loop $-1 -1 $-1 $66 $67 $28 #
cone-surface $-1 -1 $-1 789.3999999999999773 24.00000000000000355 3.174999999999999822 0 0 -1 -4.000000000000056843 0 0 1 I I 0 1 4.000000000000056843 forward I I I I #
loop $-1 -1 $-1 $-1 $68 $19 #
coedge $-1 -1 $-1 $47 $47 $69 $70 reversed $29 0 $-1 #
coedge $71 -1 $-1 $48 $48 $72 $73 reversed $31 0 $-1 #
coedge $-1 -1 $-1 $49 $49 $32 $50 forward $74 0 $-1 #
edge $-1 -1 $-1 $75 -3.141592653589793116 $75 3.141592653589793116 $49 $76 forward @7 unknown #
ATTRIB_CUSTOM-attrib $-1 -1 $-1 $-1 $33 @17 sketch_attrib_def 1 1 3 @13 174 0 0 0 1 1 #
coedge $-1 -1 $-1 $52 $52 $33 $53 forward $77 0 $-1 #
edge $-1 -1 $-1 $78 -3.141592653589793116 $78 3.141592653589793116 $52 $79 forward @7 unknown #
loop $-1 -1 $-1 $74 $34 $60 #
vertex $-1 -1 $-1 $35 0 $80 #
ellipse-curve $-1 -1 $-1 150 7.500000000000004441 0 0 0 1 -2.750000000000003553 0 0 1 I I #
loop $-1 -1 $-1 $77 $37 $81 #
vertex $-1 -1 $-1 $38 0 $82 #
ellipse-curve $-1 -1 $-1 650 7.500000000000004441 3.174999999999999822 -0 -0 -1 -2.750000000000056843 0 0 1 I I #
face $83 -1 $-1 $-1 $39 $6 $-1 $84 reversed single #
point $-1 -1 $-1 652.75 7.500000000000004441 0 #
DXID-attrib $-1 -1 $-1 $-1 $43 @10 ASM ENTITY @1 5 #
face $85 -1 $-1 $86 $87 $6 $-1 $88 reversed single #
loop $-1 -1 $-1 $89 $90 $43 #
cone-surface $-1 -1 $-1 289.3999999999999773 24.00000000000000355 3.174999999999999822 0 0 -1 -3.999999999999985789 0 0 1 I I 0 1 3.999999999999985789 forward I I I I #
loop $-1 -1 $-1 $-1 $91 $28 #
coedge $-1 -1 $-1 $67 $67 $92 $93 reversed $44 0 $-1 #
coedge $94 -1 $-1 $68 $68 $95 $96 reversed $46 0 $-1 #
coedge $-1 -1 $-1 $69 $69 $47 $70 forward $97 0 $-1 #
edge $-1 -1 $-1 $98 -3.141592653589793116 $98 3.141592653589793116 $69 $99 forward @7 unknown #
ATTRIB_CUSTOM-attrib $-1 -1 $-1 $-1 $48 @17 sketch_attrib_def 1 1 3 @13 170 0 0 0 1 1 #
coedge $-1 -1 $-1 $72 $72 $48 $73 forward $100 0 $-1 #
edge $-1 -1 $-1 $101 -3.141592653589793116 $101 3.141592653589793116 $72 $102 forward @7 unknown #
loop $-1 -1 $-1 $97 $49 $60 #
vertex $-1 -1 $-1 $50 0 $103 #
ellipse-curve $-1 -1 $-1 650 40.50000000000000711 0 0 0 1 -2.750000000000056843 0 0 1 I I #
loop $-1 -1 $-1 $100 $52 $81 #
vertex $-1 -1 $-1 $53 0 $104 #
ellipse-curve $-1 -1 $-1 150 7.500000000000004441 3.174999999999999822 -0 -0 -1 -2.750000000000003553 0 0 1 I I #
point $-1 -1 $-1 152.75 7.500000000000004441 0 #
face $105 -1 $-1 $60 $57 $6 $-1 $106 forward single #
point $-1 -1 $-1 652.75 7.500000000000004441 3.174999999999999822 #
DXID-attrib $-1 -1 $-1 $-1 $60 @10 ASM ENTITY @2 32 #
plane-surface $-1 -1 $-1 457.1999999999999886 24.00000000000000355 0 0 0 1 10 0 0 forward_v I I I I #
DXID-attrib $-1 -1 $-1 $-1 $63 @10 ASM ENTITY @1 6 #
face $107 -1 $-1 $108 $109 $6 $-1 $110 reversed single #
loop $-1 -1 $-1 $111 $112 $63 #
cone-surface $-1 -1 $-1 89.39999999999997726 24.00000000000000355 3.174999999999999822 0 0 -1 -4.000000000000003553 0 0 1 I I 0 1 4.000000000000003553 forward I I I I #
loop $-1 -1 $-1 $-1 $113 $43 #
coedge $-1 -1 $-1 $90 $90 $114 $115 reversed $64 0 $-1 #
coedge $116 -1 $-1 $91 $91 $117 $118 reversed $66 0 $-1 #
coedge $-1 -1 $-1 $92 $92 $67 $93 forward $119 0 $-1 #
edge $-1 -1 $-1 $120 -3.141592653589793116 $120 3.141592653589793116 $92 $121 forward @7 unknown #
ATTRIB_CUSTOM-attrib $-1 -1 $-1 $-1 $68 @17 sketch_attrib_def 1 1 3 @13 177 0 0 0 1 1 #
coedge $-1 -1 $-1 $95 $95 $68 $96 forward $122 0 $-1 #
edge $-1 -1 $-1 $123 -3.141592653589793116 $123 3.141592653589793116 $95 $124 forward @7 unknown #
loop $-1 -1 $-1 $119 $69 $60 #
vertex $-1 -1 $-1 $70 0 $125 #
ellipse-curve $-1 -1 $-1 450 7.500000000000004441 0 0 0 1 -2.749999999999985789 0 0 1 I I #
loop $-1 -1 $-1 $122 $72 $81 #
vertex $-1 -1 $-1 $73 0 $126 #
ellipse-curve $-1 -1 $-1 650 40.50000000000000711 3.174999999999999822 -0 -0 -1 -2.750000000000056843 0 0 1 I I #
point $-1 -1 $-1 652.75 40.50000000000000711 0 #
point $-1 -1 $-1 152.75 7.500000000000004441 3.174999999999999822 #
DXID-attrib $-1 -1 $-1 $-1 $81 @10 ASM ENTITY @2 31 #
plane-surface $-1 -1 $-1 457.1999999999999886 24.00000000000000355 3.174999999999999822 0 0 1 10 0 0 forward_v I I I I #
DXID-attrib $-1 -1 $-1 $-1 $86 @10 ASM ENTITY @1 7 #
face $127 -1 $-1 $128 $129 $6 $-1 $130 reversed single #
loop $-1 -1 $-1 $131 $132 $86 #
cone-surface $-1 -1 $-1 889.3999999999999773 24.00000000000000355 3.174999999999999822 0 0 -1 -4.000000000000056843 0 0 1 I I 0 1 4.000000000000056843 forward I I I I #
loop $-1 -1 $-1 $-1 $133 $63 #
coedge $-1 -1 $-1 $112 $112 $134 $135 reversed $87 0 $-1 #
coedge $136 -1 $-1 $113 $113 $137 $138 reversed $89 0 $-1 #
coedge $-1 -1 $-1 $114 $114 $90 $115 forward $139 0 $-1 #
edge $-1 -1 $-1 $140 -3.141592653589793116 $140 3.141592653589793116 $114 $141 forward @7 unknown #
ATTRIB_CUSTOM-attrib $-1 -1 $-1 $-1 $91 @17 sketch_attrib_def 1 1 3 @13 150 0 0 0 1 1 #
coedge $-1 -1 $-1 $117 $117 $91 $118 forward $142 0 $-1 #
edge $-1 -1 $-1 $143 -3.141592653589793116 $143 3.141592653589793116 $117 $144 forward @7 unknown #
loop $-1 -1 $-1 $139 $92 $60 #
vertex $-1 -1 $-1 $93 0 $145 #
ellipse-curve $-1 -1 $-1 789.3999999999999773 24.00000000000000355 0 0 0 1 -4.000000000000056843 0 0 1 I I #
loop $-1 -1 $-1 $142 $95 $81 #
vertex $-1 -1 $-1 $96 0 $146 #
ellipse-curve $-1 -1 $-1 450 7.500000000000004441 3.174999999999999822 -0 -0 -1 -2.749999999999985789 0 0 1 I I #
point $-1 -1 $-1 452.75 7.500000000000004441 0 #
point $-1 -1 $-1 652.75 40.50000000000000711 3.174999999999999822 #
DXID-attrib $-1 -1 $-1 $-1 $108 @10 ASM ENTITY @1 8 #
face $147 -1 $-1 $148 $149 $6 $-1 $150 reversed single #
loop $-1 -1 $-1 $151 $152 $108 #
cone-surface $-1 -1 $-1 150 40.50000000000000711 3.174999999999999822 0 0 -1 -2.750000000000003553 0 0 1 I I 0 1 2.750000000000003553 forward I I I I #
loop $-1 -1 $-1 $-1 $153 $86 #
coedge $-1 -1 $-1 $132 $132 $154 $155 reversed $109 0 $-1 #
coedge $156 -1 $-1 $133 $133 $157 $158 reversed $111 0 $-1 #
coedge $-1 -1 $-1 $134 $134 $112 $135 forward $159 0 $-1 #
edge $-1 -1 $-1 $160 -3.141592653589793116 $160 3.141592653589793116 $134 $161 forward @7 unknown #
ATTRIB_CUSTOM-attrib $-1 -1 $-1 $-1 $113 @17 sketch_attrib_def 1 1 3 @13 160 0 0 0 1 1 #
coedge $-1 -1 $-1 $137 $137 $113 $138 forward $162 0 $-1 #
edge $-1 -1 $-1 $163 -3.141592653589793116 $163 3.141592653589793116 $137 $164 forward @7 unknown #
loop $-1 -1 $-1 $159 $114 $60 #
vertex $-1 -1 $-1 $115 0 $165 #
ellipse-curve $-1 -1 $-1 289.3999999999999773 24.00000000000000355 0 0 0 1 -3.999999999999985789 0 0 1 I I #
loop $-1 -1 $-1 $162 $117 $81 #
vertex $-1 -1 $-1 $118 0 $166 #
ellipse-curve $-1 -1 $-1 789.3999999999999773 24.00000000000000355 3.174999999999999822 -0 -0 -1 -4.000000000000056843 0 0 1 I I #
point $-1 -1 $-1 793.4000000000000909 24.00000000000000355 0 #
point $-1 -1 $-1 452.75 7.500000000000004441 3.174999999999999822 #
DXID-attrib $-1 -1 $-1 $-1 $128 @10 ASM ENTITY @1 9 #
face $167 -1 $-1 $168 $169 $6 $-1 $170 reversed single #
loop $-1 -1 $-1 $171 $172 $128 #
cone-surface $-1 -1 $-1 250 40.50000000000000711 3.174999999999999822 0 0 -1 -2.749999999999985789 0 0 1 I I 0 1 2.749999999999985789 forward I I I I #
loop $-1 -1 $-1 $-1 $173 $108 #
coedge $-1 -1 $-1 $152 $152 $174 $175 reversed $129 0 $-1 #
coedge $176 -1 $-1 $153 $153 $177 $178 reversed $131 0 $-1 #
coedge $-1 -1 $-1 $154 $154 $132 $155 forward $179 0 $-1 #
edge $-1 -1 $-1 $180 -3.141592653589793116 $180 3.141592653589793116 $154 $181 forward @7 unknown #
ATTRIB_CUSTOM-attrib $-1 -1 $-1 $-1 $133 @17 sketch_attrib_def 1 1 3 @13 164 0 0 0 1 1 #
coedge $-1 -1 $-1 $157 $157 $133 $158 forward $182 0 $-1 #
edge $-1 -1 $-1 $183 -3.141592653589793116 $183 3.141592653589793116 $157 $184 forward @7 unknown #
loop $-1 -1 $-1 $179 $134 $60 #
vertex $-1 -1 $-1 $135 0 $185 #
ellipse-curve $-1 -1 $-1 89.39999999999997726 24.00000000000000355 0 0 0 1 -4.000000000000003553 0 0 1 I I #
loop $-1 -1 $-1 $182 $137 $81 #
vertex $-1 -1 $-1 $138 0 $186 #
ellipse-curve $-1 -1 $-1 289.3999999999999773 24.00000000000000355 3.174999999999999822 -0 -0 -1 -3.999999999999985789 0 0 1 I I #
point $-1 -1 $-1 293.3999999999999773 24.00000000000000355 0 #
point $-1 -1 $-1 793.4000000000000909 24.00000000000000355 3.174999999999999822 #
DXID-attrib $-1 -1 $-1 $-1 $148 @10 ASM ENTITY @2 10 #
face $187 -1 $-1 $188 $189 $6 $-1 $190 reversed single #
loop $-1 -1 $-1 $191 $192 $148 #
cone-surface $-1 -1 $-1 350 40.50000000000000711 3.174999999999999822 0 0 -1 -2.749999999999985789 0 0 1 I I 0 1 2.749999999999985789 forward I I I I #
loop $-1 -1 $-1 $-1 $193 $128 #
coedge $-1 -1 $-1 $172 $172 $194 $195 reversed $149 0 $-1 #
coedge $196 -1 $-1 $173 $173 $197 $198 reversed $151 0 $-1 #
coedge $-1 -1 $-1 $174 $174 $152 $175 forward $199 0 $-1 #
edge $-1 -1 $-1 $200 -3.141592653589793116 $200 3.141592653589793116 $174 $201 forward @7 unknown #
ATTRIB_CUSTOM-attrib $-1 -1 $-1 $-1 $153 @17 sketch_attrib_def 1 1 3 @13 148 0 0 0 1 1 #
coedge $-1 -1 $-1 $177 $177 $153 $178 forward $202 0 $-1 #
edge $-1 -1 $-1 $203 -3.141592653589793116 $203 3.141592653589793116 $177 $204 forward @7 unknown #
loop $-1 -1 $-1 $199 $154 $60 #
vertex $-1 -1 $-1 $155 0 $205 #
ellipse-curve $-1 -1 $-1 889.3999999999999773 24.00000000000000355 0 0 0 1 -4.000000000000056843 0 0 1 I I #
loop $-1 -1 $-1 $202 $157 $81 #
vertex $-1 -1 $-1 $158 0 $206 #
ellipse-curve $-1 -1 $-1 89.39999999999997726 24.00000000000000355 3.174999999999999822 -0 -0 -1 -4.000000000000003553 0 0 1 I I #
point $-1 -1 $-1 93.39999999999997726 24.00000000000000355 0 #
point $-1 -1 $-1 293.3999999999999773 24.00000000000000355 3.174999999999999822 #
DXID-attrib $-1 -1 $-1 $-1 $168 @10 ASM ENTITY @2 11 #
face $207 -1 $-1 $208 $209 $6 $-1 $210 reversed single #
loop $-1 -1 $-1 $211 $212 $168 #
cone-surface $-1 -1 $-1 850 40.50000000000000711 3.174999999999999822 0 0 -1 -2.750000000000056843 0 0 1 I I 0 1 2.750000000000056843 forward I I I I #
loop $-1 -1 $-1 $-1 $213 $148 #
coedge $-1 -1 $-1 $192 $192 $214 $215 reversed $169 0 $-1 #
coedge $216 -1 $-1 $193 $193 $217 $218 reversed $171 0 $-1 #
coedge $-1 -1 $-1 $194 $194 $172 $195 forward $219 0 $-1 #
edge $-1 -1 $-1 $220 -3.141592653589793116 $220 3.141592653589793116 $194 $221 forward @7 unknown #
ATTRIB_CUSTOM-attrib $-1 -1 $-1 $-1 $173 @17 sketch_attrib_def 1 1 3 @13 165 0 0 0 1 1 #
coedge $-1 -1 $-1 $197 $197 $173 $198 forward $222 0 $-1 #
edge $-1 -1 $-1 $223 -3.141592653589793116 $223 3.141592653589793116 $197 $224 forward @7 unknown #
loop $-1 -1 $-1 $219 $174 $60 #
vertex $-1 -1 $-1 $175 0 $225 #
ellipse-curve $-1 -1 $-1 150 40.50000000000000711 0 0 0 1 -2.750000000000003553 0 0 1 I I #
loop $-1 -1 $-1 $222 $177 $81 #
vertex $-1 -1 $-1 $178 0 $226 #
ellipse-curve $-1 -1 $-1 889.3999999999999773 24.00000000000000355 3.174999999999999822 -0 -0 -1 -4.000000000000056843 0 0 1 I I #
point $-1 -1 $-1 893.4000000000000909 24.00000000000000355 0 #
point $-1 -1 $-1 93.39999999999997726 24.00000000000000355 3.174999999999999822 #
DXID-attrib $-1 -1 $-1 $-1 $188 @10 ASM ENTITY @2 12 #
face $227 -1 $-1 $228 $229 $6 $-1 $230 reversed single #
loop $-1 -1 $-1 $231 $232 $188 #
cone-surface $-1 -1 $-1 550 7.500000000000004441 3.174999999999999822 0 0 -1 -2.749999999999985789 0 0 1 I I 0 1 2.749999999999985789 forward I I I I #
loop $-1 -1 $-1 $-1 $233 $168 #
coedge $-1 -1 $-1 $212 $212 $234 $235 reversed $189 0 $-1 #
coedge $236 -1 $-1 $213 $213 $237 $238 reversed $191 0 $-1 #
coedge $-1 -1 $-1 $214 $214 $192 $215 forward $239 0 $-1 #
edge $-1 -1 $-1 $240 -3.141592653589793116 $240 3.141592653589793116 $214 $241 forward @7 unknown #
ATTRIB_CUSTOM-attrib $-1 -1 $-1 $-1 $193 @17 sketch_attrib_def 1 1 3 @13 166 0 0 0 1 1 #
coedge $-1 -1 $-1 $217 $217 $193 $218 forward $242 0 $-1 #
edge $-1 -1 $-1 $243 -3.141592653589793116 $243 3.141592653589793116 $217 $244 forward @7 unknown #
loop $-1 -1 $-1 $239 $194 $60 #
vertex $-1 -1 $-1 $195 0 $245 #
ellipse-curve $-1 -1 $-1 250 40.50000000000000711 0 0 0 1 -2.749999999999985789 0 0 1 I I #
loop $-1 -1 $-1 $242 $197 $81 #
vertex $-1 -1 $-1 $198 0 $246 #
ellipse-curve $-1 -1 $-1 150 40.50000000000000711 3.174999999999999822 -0 -0 -1 -2.750000000000003553 0 0 1 I I #
point $-1 -1 $-1 152.75 40.50000000000000711 0 #
point $-1 -1 $-1 893.4000000000000909 24.00000000000000355 3.174999999999999822 #
DXID-attrib $-1 -1 $-1 $-1 $208 @10 ASM ENTITY @2 13 #
face $247 -1 $-1 $248 $249 $6 $-1 $250 reversed single #
loop $-1 -1 $-1 $251 $252 $208 #
cone-surface $-1 -1 $-1 750 7.500000000000004441 3.174999999999999822 0 0 -1 -2.750000000000056843 0 0 1 I I 0 1 2.750000000000056843 forward I I I I #
loop $-1 -1 $-1 $-1 $253 $188 #
coedge $-1 -1 $-1 $232 $232 $254 $255 reversed $209 0 $-1 #
coedge $256 -1 $-1 $233 $233 $257 $258 reversed $211 0 $-1 #
coedge $-1 -1 $-1 $234 $234 $212 $235 forward $259 0 $-1 #
edge $-1 -1 $-1 $260 -3.141592653589793116 $260 3.141592653589793116 $234 $261 forward @7 unknown #
ATTRIB_CUSTOM-attrib $-1 -1 $-1 $-1 $213 @17 sketch_attrib_def 1 1 3 @13 167 0 0 0 1 1 #
coedge $-1 -1 $-1 $237 $237 $213 $238 forward $262 0 $-1 #
edge $-1 -1 $-1 $263 -3.141592653589793116 $263 3.141592653589793116 $237 $264 forward @7 unknown #
loop $-1 -1 $-1 $259 $214 $60 #
vertex $-1 -1 $-1 $215 0 $265 #
ellipse-curve $-1 -1 $-1 350 40.50000000000000711 0 0 0 1 -2.749999999999985789 0 0 1 I I #
loop $-1 -1 $-1 $262 $217 $81 #
vertex $-1 -1 $-1 $218 0 $266 #
ellipse-curve $-1 -1 $-1 250 40.50000000000000711 3.174999999999999822 -0 -0 -1 -2.749999999999985789 0 0 1 I I #
point $-1 -1 $-1 252.75 40.50000000000000711 0 #
point $-1 -1 $-1 152.75 40.50000000000000711 3.174999999999999822 #
DXID-attrib $-1 -1 $-1 $-1 $228 @10 ASM ENTITY @2 14 #
face $267 -1 $-1 $268 $269 $6 $-1 $270 reversed single #
loop $-1 -1 $-1 $271 $272 $228 #
cone-surface $-1 -1 $-1 250 7.500000000000004441 3.174999999999999822 0 0 -1 -2.749999999999985789 0 0 1 I I 0 1 2.749999999999985789 forward I I I I #
loop $-1 -1 $-1 $-1 $273 $208 #
coedge $-1 -1 $-1 $252 $252 $274 $275 reversed $229 0 $-1 #
coedge $276 -1 $-1 $253 $253 $277 $278 reversed $231 0 $-1 #
coedge $-1 -1 $-1 $254 $254 $232 $255 forward $279 0 $-1 #
edge $-1 -1 $-1 $280 -3.141592653589793116 $280 3.141592653589793116 $254 $281 forward @7 unknown #
ATTRIB_CUSTOM-attrib $-1 -1 $-1 $-1 $233 @17 sketch_attrib_def 1 1 3 @13 172 0 0 0 1 1 #
coedge $-1 -1 $-1 $257 $257 $233 $258 forward $282 0 $-1 #
edge $-1 -1 $-1 $283 -3.141592653589793116 $283 3.141592653589793116 $257 $284 forward @7 unknown #
loop $-1 -1 $-1 $279 $234 $60 #
vertex $-1 -1 $-1 $235 0 $285 #
ellipse-curve $-1 -1 $-1 850 40.50000000000000711 0 0 0 1 -2.750000000000056843 0 0 1 I I #
loop $-1 -1 $-1 $282 $237 $81 #
vertex $-1 -1 $-1 $238 0 $286 #
ellipse-curve $-1 -1 $-1 350 40.50000000000000711 3.174999999999999822 -0 -0 -1 -2.749999999999985789 0 0 1 I I #
point $-1 -1 $-1 352.75 40.50000000000000711 0 #
point $-1 -1 $-1 252.75 40.50000000000000711 3.174999999999999822 #
DXID-attrib $-1 -1 $-1 $-1 $248 @10 ASM ENTITY @2 15 #
face $287 -1 $-1 $288 $289 $6 $-1 $290 reversed single #
loop $-1 -1 $-1 $291 $292 $248 #
cone-surface $-1 -1 $-1 750 40.50000000000000711 3.174999999999999822 0 0 -1 -2.750000000000056843 0 0 1 I I 0 1 2.750000000000056843 forward I I I I #
loop $-1 -1 $-1 $-1 $293 $228 #
coedge $-1 -1 $-1 $272 $272 $294 $295 reversed $249 0 $-1 #
coedge $296 -1 $-1 $273 $273 $297 $298 reversed $251 0 $-1 #
coedge $-1 -1 $-1 $274 $274 $252 $275 forward $299 0 $-1 #
edge $-1 -1 $-1 $300 -3.141592653589793116 $300 3.141592653589793116 $274 $301 forward @7 unknown #
ATTRIB_CUSTOM-attrib $-1 -1 $-1 $-1 $253 @17 sketch_attrib_def 1 1 3 @13 178 0 0 0 1 1 #
coedge $-1 -1 $-1 $277 $277 $253 $278 forward $302 0 $-1 #
edge $-1 -1 $-1 $303 -3.141592653589793116 $303 3.141592653589793116 $277 $304 forward @7 unknown #
loop $-1 -1 $-1 $299 $254 $60 #
vertex $-1 -1 $-1 $255 0 $305 #
ellipse-curve $-1 -1 $-1 550 7.500000000000004441 0 0 0 1 -2.749999999999985789 0 0 1 I I #
loop $-1 -1 $-1 $302 $257 $81 #
vertex $-1 -1 $-1 $258 0 $306 #
ellipse-curve $-1 -1 $-1 850 40.50000000000000711 3.174999999999999822 -0 -0 -1 -2.750000000000056843 0 0 1 I I #
point $-1 -1 $-1 852.75 40.50000000000000711 0 #
point $-1 -1 $-1 352.75 40.50000000000000711 3.174999999999999822 #
DXID-attrib $-1 -1 $-1 $-1 $268 @10 ASM ENTITY @2 16 #
face $307 -1 $-1 $308 $309 $6 $-1 $310 reversed single #
loop $-1 -1 $-1 $311 $312 $268 #
cone-surface $-1 -1 $-1 550 40.50000000000000711 3.174999999999999822 0 0 -1 -2.749999999999985789 0 0 1 I I 0 1 2.749999999999985789 forward I I I I #
loop $-1 -1 $-1 $-1 $313 $248 #
coedge $-1 -1 $-1 $292 $292 $314 $315 reversed $269 0 $-1 #
coedge $316 -1 $-1 $293 $293 $317 $318 reversed $271 0 $-1 #
coedge $-1 -1 $-1 $294 $294 $272 $295 forward $319 0 $-1 #
edge $-1 -1 $-1 $320 -3.141592653589793116 $320 3.141592653589793116 $294 $321 forward @7 unknown #
ATTRIB_CUSTOM-attrib $-1 -1 $-1 $-1 $273 @17 sketch_attrib_def 1 1 3 @13 180 0 0 0 1 1 #
coedge $-1 -1 $-1 $297 $297 $273 $298 forward $322 0 $-1 #
edge $-1 -1 $-1 $323 -3.141592653589793116 $323 3.141592653589793116 $297 $324 forward @7 unknown #
loop $-1 -1 $-1 $319 $274 $60 #
vertex $-1 -1 $-1 $275 0 $325 #
ellipse-curve $-1 -1 $-1 750 7.500000000000004441 0 0 0 1 -2.750000000000056843 0 0 1 I I #
loop $-1 -1 $-1 $322 $277 $81 #
vertex $-1 -1 $-1 $278 0 $326 #
ellipse-curve $-1 -1 $-1 550 7.500000000000004441 3.174999999999999822 -0 -0 -1 -2.749999999999985789 0 0 1 I I #
point $-1 -1 $-1 552.75 7.500000000000004441 0 #
point $-1 -1 $-1 852.75 40.50000000000000711 3.174999999999999822 #
DXID-attrib $-1 -1 $-1 $-1 $288 @10 ASM ENTITY @2 17 #
face $327 -1 $-1 $328 $329 $6 $-1 $330 reversed single #
loop $-1 -1 $-1 $331 $332 $288 #
cone-surface $-1 -1 $-1 389.3999999999999773 24.00000000000000355 3.174999999999999822 0 0 -1 -3.999999999999985789 0 0 1 I I 0 1 3.999999999999985789 forward I I I I #
loop $-1 -1 $-1 $-1 $333 $268 #
coedge $-1 -1 $-1 $312 $312 $334 $335 reversed $289 0 $-1 #
coedge $336 -1 $-1 $313 $313 $337 $338 reversed $291 0 $-1 #
coedge $-1 -1 $-1 $314 $314 $292 $315 forward $339 0 $-1 #
edge $-1 -1 $-1 $340 -3.141592653589793116 $340 3.141592653589793116 $314 $341 forward @7 unknown #
ATTRIB_CUSTOM-attrib $-1 -1 $-1 $-1 $293 @17 sketch_attrib_def 1 1 3 @13 175 0 0 0 1 1 #
coedge $-1 -1 $-1 $317 $317 $293 $318 forward $342 0 $-1 #
edge $-1 -1 $-1 $343 -3.141592653589793116 $343 3.141592653589793116 $317 $344 forward @7 unknown #
loop $-1 -1 $-1 $339 $294 $60 #
vertex $-1 -1 $-1 $295 0 $345 #
ellipse-curve $-1 -1 $-1 250 7.500000000000004441 0 0 0 1 -2.749999999999985789 0 0 1 I I #
loop $-1 -1 $-1 $342 $297 $81 #
vertex $-1 -1 $-1 $298 0 $346 #
ellipse-curve $-1 -1 $-1 750 7.500000000000004441 3.174999999999999822 -0 -0 -1 -2.750000000000056843 0 0 1 I I #
point $-1 -1 $-1 752.75 7.500000000000004441 0 #
point $-1 -1 $-1 552.75 7.500000000000004441 3.174999999999999822 #
DXID-attrib $-1 -1 $-1 $-1 $308 @10 ASM ENTITY @2 18 #
face $347 -1 $-1 $348 $349 $6 $-1 $350 reversed single #
loop $-1 -1 $-1 $351 $352 $308 #
cone-surface $-1 -1 $-1 189.3999999999999773 24.00000000000000355 3.174999999999999822 0 0 -1 -3.999999999999985789 0 0 1 I I 0 1 3.999999999999985789 forward I I I I #
loop $-1 -1 $-1 $-1 $353 $288 #
coedge $-1 -1 $-1 $332 $332 $354 $355 reversed $309 0 $-1 #
coedge $356 -1 $-1 $333 $333 $357 $358 reversed $311 0 $-1 #
coedge $-1 -1 $-1 $334 $334 $312 $335 forward $359 0 $-1 #
edge $-1 -1 $-1 $360 -3.141592653589793116 $360 3.141592653589793116 $334 $361 forward @7 unknown #
ATTRIB_CUSTOM-attrib $-1 -1 $-1 $-1 $313 @17 sketch_attrib_def 1 1 3 @13 171 0 0 0 1 1 #
coedge $-1 -1 $-1 $337 $337 $313 $338 forward $362 0 $-1 #
edge $-1 -1 $-1 $363 -3.141592653589793116 $363 3.141592653589793116 $337 $364 forward @7 unknown #
loop $-1 -1 $-1 $359 $314 $60 #
vertex $-1 -1 $-1 $315 0 $365 #
ellipse-curve $-1 -1 $-1 750 40.50000000000000711 0 0 0 1 -2.750000000000056843 0 0 1 I I #
loop $-1 -1 $-1 $362 $317 $81 #
vertex $-1 -1 $-1 $318 0 $366 #
ellipse-curve $-1 -1 $-1 250 7.500000000000004441 3.174999999999999822 -0 -0 -1 -2.749999999999985789 0 0 1 I I #
point $-1 -1 $-1 252.75 7.500000000000004441 0 #
point $-1 -1 $-1 752.75 7.500000000000004441 3.174999999999999822 #
DXID-attrib $-1 -1 $-1 $-1 $328 @10 ASM ENTITY @2 19 #
face $367 -1 $-1 $368 $369 $6 $-1 $370 reversed single #
loop $-1 -1 $-1 $371 $372 $328 #
cone-surface $-1 -1 $-1 689.3999999999999773 24.00000000000000355 3.174999999999999822 0 0 -1 -4.000000000000056843 0 0 1 I I 0 1 4.000000000000056843 forward I I I I #
loop $-1 -1 $-1 $-1 $373 $308 #
coedge $-1 -1 $-1 $352 $352 $374 $375 reversed $329 0 $-1 #
coedge $376 -1 $-1 $353 $353 $377 $378 reversed $331 0 $-1 #
coedge $-1 -1 $-1 $354 $354 $332 $355 forward $379 0 $-1 #
edge $-1 -1 $-1 $380 -3.141592653589793116 $380 3.141592653589793116 $354 $381 forward @7 unknown #
ATTRIB_CUSTOM-attrib $-1 -1 $-1 $-1 $333 @17 sketch_attrib_def 1 1 3 @13 169 0 0 0 1 1 #
coedge $-1 -1 $-1 $357 $357 $333 $358 forward $382 0 $-1 #
edge $-1 -1 $-1 $383 -3.141592653589793116 $383 3.141592653589793116 $357 $384 forward @7 unknown #
loop $-1 -1 $-1 $379 $334 $60 #
vertex $-1 -1 $-1 $335 0 $385 #
ellipse-curve $-1 -1 $-1 550 40.50000000000000711 0 0 0 1 -2.749999999999985789 0 0 1 I I #
loop $-1 -1 $-1 $382 $337 $81 #
vertex $-1 -1 $-1 $338 0 $386 #
ellipse-curve $-1 -1 $-1 750 40.50000000000000711 3.174999999999999822 -0 -0 -1 -2.750000000000056843 0 0 1 I I #
point $-1 -1 $-1 752.75 40.50000000000000711 0 #
point $-1 -1 $-1 252.75 7.500000000000004441 3.174999999999999822 #
DXID-attrib $-1 -1 $-1 $-1 $348 @10 ASM ENTITY @2 20 #
face $387 -1 $-1 $388 $389 $6 $-1 $390 reversed single #
loop $-1 -1 $-1 $391 $392 $348 #
cone-surface $-1 -1 $-1 589.3999999999999773 24.00000000000000355 3.174999999999999822 0 0 -1 -3.999999999999985789 0 0 1 I I 0 1 3.999999999999985789 forward I I I I #
loop $-1 -1 $-1 $-1 $393 $328 #
coedge $-1 -1 $-1 $372 $372 $394 $395 reversed $349 0 $-1 #
coedge $396 -1 $-1 $373 $373 $397 $398 reversed $351 0 $-1 #
coedge $-1 -1 $-1 $374 $374 $352 $375 forward $399 0 $-1 #
edge $-1 -1 $-1 $400 -3.141592653589793116 $400 3.141592653589793116 $374 $401 forward @7 unknown #
ATTRIB_CUSTOM-attrib $-1 -1 $-1 $-1 $353 @17 sketch_attrib_def 1 1 3 @13 158 0 0 0 1 1 #
coedge $-1 -1 $-1 $377 $377 $353 $378 forward $402 0 $-1 #
edge $-1 -1 $-1 $403 -3.141592653589793116 $403 3.141592653589793116 $377 $404 forward @7 unknown #
loop $-1 -1 $-1 $399 $354 $60 #
vertex $-1 -1 $-1 $355 0 $405 #
ellipse-curve $-1 -1 $-1 389.3999999999999773 24.00000000000000355 0 0 0 1 -3.999999999999985789 0 0 1 I I #
loop $-1 -1 $-1 $402 $357 $81 #
vertex $-1 -1 $-1 $358 0 $406 #
ellipse-curve $-1 -1 $-1 550 40.50000000000000711 3.174999999999999822 -0 -0 -1 -2.749999999999985789 0 0 1 I I #
point $-1 -1 $-1 552.75 40.50000000000000711 0 #
point $-1 -1 $-1 752.75 40.50000000000000711 3.174999999999999822 #
DXID-attrib $-1 -1 $-1 $-1 $368 @10 ASM ENTITY @2 21 #
face $407 -1 $-1 $408 $409 $6 $-1 $410 reversed single #
loop $-1 -1 $-1 $411 $412 $368 #
cone-surface $-1 -1 $-1 489.3999999999999773 24.00000000000000355 3.174999999999999822 0 0 -1 -3.999999999999985789 0 0 1 I I 0 1 3.999999999999985789 forward I I I I #
loop $-1 -1 $-1 $-1 $413 $348 #
coedge $-1 -1 $-1 $392 $392 $414 $415 reversed $369 0 $-1 #
coedge $416 -1 $-1 $393 $393 $417 $418 reversed $371 0 $-1 #
coedge $-1 -1 $-1 $394 $394 $372 $395 forward $419 0 $-1 #
edge $-1 -1 $-1 $420 -3.141592653589793116 $420 3.141592653589793116 $394 $421 forward @7 unknown #
ATTRIB_CUSTOM-attrib $-1 -1 $-1 $-1 $373 @17 sketch_attrib_def 1 1 3 @13 162 0 0 0 1 1 #
coedge $-1 -1 $-1 $397 $397 $373 $398 forward $422 0 $-1 #
edge $-1 -1 $-1 $423 -3.141592653589793116 $423 3.141592653589793116 $397 $424 forward @7 unknown #
loop $-1 -1 $-1 $419 $374 $60 #
vertex $-1 -1 $-1 $375 0 $425 #
ellipse-curve $-1 -1 $-1 189.3999999999999773 24.00000000000000355 0 0 0 1 -3.999999999999985789 0 0 1 I I #
loop $-1 -1 $-1 $422 $377 $81 #
vertex $-1 -1 $-1 $378 0 $426 #
ellipse-curve $-1 -1 $-1 389.3999999999999773 24.00000000000000355 3.174999999999999822 -0 -0 -1 -3.999999999999985789 0 0 1 I I #
point $-1 -1 $-1 393.3999999999999773 24.00000000000000355 0 #
point $-1 -1 $-1 552.75 40.50000000000000711 3.174999999999999822 #
DXID-attrib $-1 -1 $-1 $-1 $388 @10 ASM ENTITY @2 22 #
face $427 -1 $-1 $428 $429 $6 $-1 $430 reversed single #
loop $-1 -1 $-1 $431 $432 $388 #
cone-surface $-1 -1 $-1 50 40.50000000000000711 3.174999999999999822 0 0 -1 -2.750000000000003553 0 0 1 I I 0 1 2.750000000000003553 forward I I I I #
loop $-1 -1 $-1 $-1 $433 $368 #
coedge $-1 -1 $-1 $412 $412 $434 $435 reversed $389 0 $-1 #
coedge $436 -1 $-1 $413 $413 $437 $438 reversed $391 0 $-1 #
coedge $-1 -1 $-1 $414 $414 $392 $415 forward $439 0 $-1 #
edge $-1 -1 $-1 $440 -3.141592653589793116 $440 3.141592653589793116 $414 $441 forward @7 unknown #
ATTRIB_CUSTOM-attrib $-1 -1 $-1 $-1 $393 @17 sketch_attrib_def 1 1 3 @13 152 0 0 0 1 1 #
coedge $-1 -1 $-1 $417 $417 $393 $418 forward $442 0 $-1 #
edge $-1 -1 $-1 $443 -3.141592653589793116 $443 3.141592653589793116 $417 $444 forward @7 unknown #
loop $-1 -1 $-1 $439 $394 $60 #
vertex $-1 -1 $-1 $395 0 $445 #
ellipse-curve $-1 -1 $-1 689.3999999999999773 24.00000000000000355 0 0 0 1 -4.000000000000056843 0 0 1 I I #
loop $-1 -1 $-1 $442 $397 $81 #
vertex $-1 -1 $-1 $398 0 $446 #
ellipse-curve $-1 -1 $-1 189.3999999999999773 24.00000000000000355 3.174999999999999822 -0 -0 -1 -3.999999999999985789 0 0 1 I I #
point $-1 -1 $-1 193.3999999999999773 24.00000000000000355 0 #
point $-1 -1 $-1 393.3999999999999773 24.00000000000000355 3.174999999999999822 #
DXID-attrib $-1 -1 $-1 $-1 $408 @10 ASM ENTITY @2 23 #
face $447 -1 $-1 $448 $449 $6 $-1 $450 reversed single #
loop $-1 -1 $-1 $451 $452 $408 #
cone-surface $-1 -1 $-1 50 7.500000000000004441 3.174999999999999822 0 0 -1 -2.750000000000003553 0 0 1 I I 0 1 2.750000000000003553 forward I I I I #
loop $-1 -1 $-1 $-1 $453 $388 #
coedge $-1 -1 $-1 $432 $432 $454 $455 reversed $409 0 $-1 #
coedge $456 -1 $-1 $433 $433 $457 $458 reversed $411 0 $-1 #
coedge $-1 -1 $-1 $434 $434 $412 $435 forward $459 0 $-1 #
edge $-1 -1 $-1 $460 -3.141592653589793116 $460 3.141592653589793116 $434 $461 forward @7 unknown #
ATTRIB_CUSTOM-attrib $-1 -1 $-1 $-1 $413 @17 sketch_attrib_def 1 1 3 @13 154 0 0 0 1 1 #
coedge $-1 -1 $-1 $437 $437 $413 $438 forward $462 0 $-1 #
edge $-1 -1 $-1 $463 -3.141592653589793116 $463 3.141592653589793116 $437 $464 forward @7 unknown #
loop $-1 -1 $-1 $459 $414 $60 #
vertex $-1 -1 $-1 $415 0 $465 #
ellipse-curve $-1 -1 $-1 589.3999999999999773 24.00000000000000355 0 0 0 1 -3.999999999999985789 0 0 1 I I #
loop $-1 -1 $-1 $462 $417 $81 #
vertex $-1 -1 $-1 $418 0 $466 #
ellipse-curve $-1 -1 $-1 689.3999999999999773 24.00000000000000355 3.174999999999999822 -0 -0 -1 -4.000000000000056843 0 0 1 I I #
point $-1 -1 $-1 693.4000000000000909 24.00000000000000355 0 #
point $-1 -1 $-1 193.3999999999999773 24.00000000000000355 3.174999999999999822 #
DXID-attrib $-1 -1 $-1 $-1 $428 @10 ASM ENTITY @2 24 #
face $467 -1 $-1 $468 $469 $6 $-1 $470 reversed single #
loop $-1 -1 $-1 $471 $472 $428 #
cone-surface $-1 -1 $-1 450 40.50000000000000711 3.174999999999999822 0 0 -1 -2.749999999999985789 0 0 1 I I 0 1 2.749999999999985789 forward I I I I #
loop $-1 -1 $-1 $-1 $473 $408 #
coedge $-1 -1 $-1 $452 $452 $474 $475 reversed $429 0 $-1 #
coedge $476 -1 $-1 $453 $453 $477 $478 reversed $431 0 $-1 #
coedge $-1 -1 $-1 $454 $454 $432 $455 forward $479 0 $-1 #
edge $-1 -1 $-1 $480 -3.141592653589793116 $480 3.141592653589793116 $454 $481 forward @7 unknown #
ATTRIB_CUSTOM-attrib $-1 -1 $-1 $-1 $433 @17 sketch_attrib_def 1 1 3 @13 156 0 0 0 1 1 #
coedge $-1 -1 $-1 $457 $457 $433 $458 forward $482 0 $-1 #
edge $-1 -1 $-1 $483 -3.141592653589793116 $483 3.141592653589793116 $457 $484 forward @7 unknown #
loop $-1 -1 $-1 $479 $434 $60 #
vertex $-1 -1 $-1 $435 0 $485 #
ellipse-curve $-1 -1 $-1 489.3999999999999773 24.00000000000000355 0 0 0 1 -3.999999999999985789 0 0 1 I I #
loop $-1 -1 $-1 $482 $437 $81 #
vertex $-1 -1 $-1 $438 0 $486 #
ellipse-curve $-1 -1 $-1 589.3999999999999773 24.00000000000000355 3.174999999999999822 -0 -0 -1 -3.999999999999985789 0 0 1 I I #
point $-1 -1 $-1 593.3999999999999773 24.00000000000000355 0 #
point $-1 -1 $-1 693.4000000000000909 24.00000000000000355 3.174999999999999822 #
DXID-attrib $-1 -1 $-1 $-1 $448 @10 ASM ENTITY @2 25 #
face $487 -1 $-1 $488 $489 $6 $-1 $490 reversed single #
loop $-1 -1 $-1 $491 $492 $448 #
cone-surface $-1 -1 $-1 350 7.500000000000004441 3.174999999999999822 0 0 -1 -2.749999999999985789 0 0 1 I I 0 1 2.749999999999985789 forward I I I I #
loop $-1 -1 $-1 $-1 $493 $428 #
coedge $-1 -1 $-1 $472 $472 $494 $495 reversed $449 0 $-1 #
coedge $496 -1 $-1 $473 $473 $497 $498 reversed $451 0 $-1 #
coedge $-1 -1 $-1 $474 $474 $452 $475 forward $499 0 $-1 #
edge $-1 -1 $-1 $500 -3.141592653589793116 $500 3.141592653589793116 $474 $501 forward @7 unknown #
ATTRIB_CUSTOM-attrib $-1 -1 $-1 $-1 $453 @17 sketch_attrib_def 1 1 3 @13 124 0 0 0 1 1 #
coedge $-1 -1 $-1 $477 $477 $453 $478 forward $502 0 $-1 #
edge $-1 -1 $-1 $503 -3.141592653589793116 $503 3.141592653589793116 $477 $504 forward @7 unknown #
loop $-1 -1 $-1 $499 $454 $60 #
vertex $-1 -1 $-1 $455 0 $505 #
ellipse-curve $-1 -1 $-1 50 40.50000000000000711 0 0 0 1 -2.750000000000003553 0 0 1 I I #
loop $-1 -1 $-1 $502 $457 $81 #
vertex $-1 -1 $-1 $458 0 $506 #
ellipse-curve $-1 -1 $-1 489.3999999999999773 24.00000000000000355 3.174999999999999822 -0 -0 -1 -3.999999999999985789 0 0 1 I I #
point $-1 -1 $-1 493.3999999999999773 24.00000000000000355 0 #
point $-1 -1 $-1 593.3999999999999773 24.00000000000000355 3.174999999999999822 #
DXID-attrib $-1 -1 $-1 $-1 $468 @10 ASM ENTITY @2 26 #
face $507 -1 $-1 $508 $509 $6 $-1 $510 forward single #
loop $-1 -1 $-1 $511 $512 $468 #
cone-surface $-1 -1 $-1 850 7.500000000000004441 3.174999999999999822 0 0 -1 -2.750000000000056843 0 0 1 I I 0 1 2.750000000000056843 forward I I I I #
loop $-1 -1 $-1 $-1 $513 $448 #
coedge $-1 -1 $-1 $492 $492 $514 $515 reversed $469 0 $-1 #
coedge $516 -1 $-1 $493 $493 $517 $518 reversed $471 0 $-1 #
coedge $-1 -1 $-1 $494 $494 $472 $495 forward $519 0 $-1 #
edge $-1 -1 $-1 $520 -3.141592653589793116 $520 3.141592653589793116 $494 $521 forward @7 unknown #
ATTRIB_CUSTOM-attrib $-1 -1 $-1 $-1 $473 @17 sketch_attrib_def 1 1 3 @13 173 0 0 0 1 1 #
coedge $-1 -1 $-1 $497 $497 $473 $498 forward $522 0 $-1 #
edge $-1 -1 $-1 $523 -3.141592653589793116 $523 3.141592653589793116 $497 $524 forward @7 unknown #
loop $-1 -1 $-1 $519 $474 $60 #
vertex $-1 -1 $-1 $475 0 $525 #
ellipse-curve $-1 -1 $-1 50 7.500000000000004441 0 0 0 1 -2.750000000000003553 0 0 1 I I #
loop $-1 -1 $-1 $522 $477 $81 #
vertex $-1 -1 $-1 $478 0 $526 #
ellipse-curve $-1 -1 $-1 50 40.50000000000000711 3.174999999999999822 -0 -0 -1 -2.750000000000003553 0 0 1 I I #
point $-1 -1 $-1 52.75 40.50000000000000711 0 #
point $-1 -1 $-1 493.3999999999999773 24.00000000000000355 3.174999999999999822 #
DXID-attrib $-1 -1 $-1 $-1 $488 @10 ASM ENTITY @2 27 #
face $527 -1 $-1 $528 $529 $6 $-1 $530 forward single #
loop $-1 -1 $-1 $-1 $531 $488 #
plane-surface $-1 -1 $-1 914.3999999999999773 48.00000000000000711 0 0 1 0 -10 0 0 forward_v I I I I #
loop $-1 -1 $-1 $-1 $532 $468 #
coedge $-1 -1 $-1 $512 $512 $533 $534 reversed $489 0 $-1 #
coedge $535 -1 $-1 $513 $513 $536 $537 reversed $491 0 $-1 #
coedge $-1 -1 $-1 $514 $514 $492 $515 forward $538 0 $-1 #
edge $-1 -1 $-1 $539 -3.141592653589793116 $539 3.141592653589793116 $514 $540 forward @7 unknown #
ATTRIB_CUSTOM-attrib $-1 -1 $-1 $-1 $493 @17 sketch_attrib_def 1 1 3 @13 168 0 0 0 1 1 #
coedge $-1 -1 $-1 $517 $517 $493 $518 forward $541 0 $-1 #
edge $-1 -1 $-1 $542 -3.141592653589793116 $542 3.141592653589793116 $517 $543 forward @7 unknown #
loop $-1 -1 $-1 $538 $494 $60 #
vertex $-1 -1 $-1 $495 0 $544 #
ellipse-curve $-1 -1 $-1 450 40.50000000000000711 0 0 0 1 -2.749999999999985789 0 0 1 I I #
loop $-1 -1 $-1 $541 $497 $81 #
vertex $-1 -1 $-1 $498 0 $545 #
ellipse-curve $-1 -1 $-1 50 7.500000000000004441 3.174999999999999822 -0 -0 -1 -2.750000000000003553 0 0 1 I I #
point $-1 -1 $-1 52.75 7.500000000000004441 0 #
point $-1 -1 $-1 52.75 40.50000000000000711 3.174999999999999822 #
DXID-attrib $-1 -1 $-1 $-1 $508 @10 ASM ENTITY @2 28 #
face $546 -1 $-1 $547 $548 $6 $-1 $549 forward single #
loop $-1 -1 $-1 $-1 $550 $508 #
plane-surface $-1 -1 $-1 914.3999999999999773 0 0 1 0 0 0 10 0 forward_v I I I I #
coedge $551 -1 $-1 $552 $553 $554 $555 forward $509 0 $-1 #
coedge $556 -1 $-1 $532 $532 $557 $558 reversed $511 0 $-1 #
coedge $-1 -1 $-1 $533 $533 $512 $534 forward $559 0 $-1 #
edge $-1 -1 $-1 $560 -3.141592653589793116 $560 3.141592653589793116 $533 $561 forward @7 unknown #
ATTRIB_CUSTOM-attrib $-1 -1 $-1 $-1 $513 @17 sketch_attrib_def 1 1 3 @13 176 0 0 0 1 1 #
coedge $-1 -1 $-1 $536 $536 $513 $537 forward $562 0 $-1 #
edge $-1 -1 $-1 $563 -3.141592653589793116 $563 3.141592653589793116 $536 $564 forward @7 unknown #
loop $-1 -1 $-1 $559 $514 $60 #
vertex $-1 -1 $-1 $515 0 $565 #
ellipse-curve $-1 -1 $-1 350 7.500000000000004441 0 0 0 1 -2.749999999999985789 0 0 1 I I #
loop $-1 -1 $-1 $562 $517 $81 #
vertex $-1 -1 $-1 $518 0 $566 #
ellipse-curve $-1 -1 $-1 450 40.50000000000000711 3.174999999999999822 -0 -0 -1 -2.749999999999985789 0 0 1 I I #
point $-1 -1 $-1 452.75 40.50000000000000711 0 #
point $-1 -1 $-1 52.75 7.500000000000004441 3.174999999999999822 #
DXID-attrib $-1 -1 $-1 $-1 $528 @10 ASM ENTITY @2 29 #
face $567 -1 $-1 $81 $568 $6 $-1 $569 forward single #
loop $-1 -1 $-1 $-1 $570 $528 #
plane-surface $-1 -1 $-1 0 0 0 0 -1 0 10 0 0 forward_v I I I I #
coedge $571 -1 $-1 $572 $573 $574 $575 forward $529 0 $-1 #
ATTRIB_CUSTOM-attrib $-1 -1 $-1 $-1 $531 @17 sketch_attrib_def 1 1 3 @13 107 0 0 0 1 1 #
coedge $-1 -1 $-1 $576 $531 $577 $578 forward $509 0 $-1 #
coedge $-1 -1 $-1 $531 $576 $572 $579 reversed $509 0 $-1 #
coedge $580 -1 $-1 $574 $581 $531 $555 reversed $582 0 $-1 #
edge $-1 -1 $-1 $583 0 $584 91.43999999999999773 $531 $585 forward @7 unknown #
ATTRIB_CUSTOM-attrib $-1 -1 $-1 $-1 $532 @17 sketch_attrib_def 1 1 3 @13 181 0 0 0 1 1 #
coedge $-1 -1 $-1 $557 $557 $532 $558 forward $586 0 $-1 #
edge $-1 -1 $-1 $587 -3.141592653589793116 $587 3.141592653589793116 $557 $588 forward @7 unknown #
loop $-1 -1 $-1 $582 $533 $60 #
vertex $-1 -1 $-1 $534 0 $589 #
ellipse-curve $-1 -1 $-1 850 7.500000000000004441 0 0 0 1 -2.750000000000056843 0 0 1 I I #
loop $-1 -1 $-1 $586 $536 $81 #
vertex $-1 -1 $-1 $537 0 $590 #
ellipse-curve $-1 -1 $-1 350 7.500000000000004441 3.174999999999999822 -0 -0 -1 -2.749999999999985789 0 0 1 I I #
point $-1 -1 $-1 352.75 7.500000000000004441 0 #
point $-1 -1 $-1 452.75 40.50000000000000711 3.174999999999999822 #
DXID-attrib $-1 -1 $-1 $-1 $547 @10 ASM ENTITY @2 30 #
loop $-1 -1 $-1 $-1 $591 $547 #
plane-surface $-1 -1 $-1 -2.465190328815661892e-31 48.00000000000000711 0 -1 -5.135813185032628485e-33 0 5.135813185032628212e-32 -10 0 forward_v I I I I #
coedge $592 -1 $-1 $593 $594 $595 $596 forward $548 0 $-1 #
ATTRIB_CUSTOM-attrib $-1 -1 $-1 $-1 $550 @17 sketch_attrib_def 1 1 3 @13 106 0 0 0 1 1 #
coedge $-1 -1 $-1 $597 $550 $553 $579 forward $529 0 $-1 #
coedge $-1 -1 $-1 $550 $597 $593 $598 reversed $529 0 $-1 #
coedge $599 -1 $-1 $595 $554 $550 $575 reversed $582 0 $-1 #
edge $-1 -1 $-1 $600 0 $583 4.800000000000000711 $550 $601 forward @7 unknown #
coedge $-1 -1 $-1 $553 $552 $602 $603 reversed $509 0 $-1 #
coedge $-1 -1 $-1 $591 $604 $552 $578 reversed $568 0 $-1 #
edge $-1 -1 $-1 $584 0 $605 0.3175000000000000044 $577 $606 forward @7 unknown #
edge $-1 -1 $-1 $583 0 $607 0.3175000000000000044 $572 $608 forward @7 unknown #
ATTRIB_CUSTOM-attrib $-1 -1 $-1 $-1 $554 @17 sketch_attrib_def 1 1 3 @13 107 0 0 0 1 1 #
coedge $609 -1 $-1 $554 $595 $591 $610 reversed $582 0 $-1 #
loop $-1 -1 $-1 $-1 $581 $60 #
vertex $-1 -1 $-1 $575 1 $611 #
vertex $-1 -1 $-1 $610 0 $612 #
straight-curve $-1 -1 $-1 914.3999999999999773 48.00000000000000711 0 -10 0 0 F 0 F 91.43999999999999773 #
loop $-1 -1 $-1 $613 $557 $81 #
vertex $-1 -1 $-1 $558 0 $614 #
ellipse-curve $-1 -1 $-1 850 7.500000000000004441 3.174999999999999822 -0 -0 -1 -2.750000000000056843 0 0 1 I I #
point $-1 -1 $-1 852.75 7.500000000000004441 0 #
point $-1 -1 $-1 352.75 7.500000000000004441 3.174999999999999822 #
coedge $615 -1 $-1 $616 $577 $581 $610 forward $568 0 $-1 #
ATTRIB_CUSTOM-attrib $-1 -1 $-1 $-1 $570 @17 sketch_attrib_def 1 1 3 @13 105 0 0 0 1 1 #
coedge $-1 -1 $-1 $617 $570 $573 $598 forward $548 0 $-1 #
coedge $-1 -1 $-1 $570 $617 $616 $618 reversed $548 0 $-1 #
coedge $619 -1 $-1 $581 $574 $570 $596 reversed $582 0 $-1 #
edge $-1 -1 $-1 $620 0 $600 91.43999999999999773 $570 $621 forward @7 unknown #
coedge $-1 -1 $-1 $573 $572 $622 $623 reversed $529 0 $-1 #
edge $-1 -1 $-1 $600 0 $624 0.3175000000000000044 $593 $625 forward @7 unknown #
ATTRIB_CUSTOM-attrib $-1 -1 $-1 $-1 $574 @17 sketch_attrib_def 1 1 3 @13 106 0 0 0 1 1 #
vertex $-1 -1 $-1 $596 1 $626 #
straight-curve $-1 -1 $-1 914.3999999999999773 0 0 0 10 0 F 0 F 4.800000000000000711 #
coedge $-1 -1 $-1 $627 $622 $576 $603 forward $613 0 $-1 #
edge $-1 -1 $-1 $607 0 $605 91.43999999999999773 $576 $628 forward @7 unknown #
coedge $-1 -1 $-1 $577 $616 $627 $629 reversed $568 0 $-1 #
vertex $-1 -1 $-1 $578 1 $630 #
straight-curve $-1 -1 $-1 -2.465190328815661892e-31 48.00000000000000711 0 0 0 10 I I #
vertex $-1 -1 $-1 $579 1 $631 #
straight-curve $-1 -1 $-1 914.3999999999999773 48.00000000000000711 0 0 0 10 I I #
ATTRIB_CUSTOM-attrib $-1 -1 $-1 $-1 $581 @17 sketch_attrib_def 1 1 3 @13 108 0 0 0 1 1 #
edge $-1 -1 $-1 $584 0 $620 4.800000000000000711 $591 $632 forward @7 unknown #
point $-1 -1 $-1 914.3999999999999773 48.00000000000000711 0 #
point $-1 -1 $-1 -2.465190328815661892e-31 48.00000000000000711 0 #
loop $-1 -1 $-1 $-1 $627 $81 #
point $-1 -1 $-1 852.75 7.500000000000004441 3.174999999999999822 #
ATTRIB_CUSTOM-attrib $-1 -1 $-1 $-1 $591 @17 sketch_attrib_def 1 1 3 @13 108 0 0 0 1 1 #
coedge $-1 -1 $-1 $604 $591 $594 $618 forward $568 0 $-1 #
coedge $-1 -1 $-1 $594 $593 $633 $634 reversed $548 0 $-1 #
edge $-1 -1 $-1 $620 0 $635 0.3175000000000000044 $616 $636 forward @7 unknown #
ATTRIB_CUSTOM-attrib $-1 -1 $-1 $-1 $595 @17 sketch_attrib_def 1 1 3 @13 105 0 0 0 1 1 #
vertex $-1 -1 $-1 $610 1 $637 #
straight-curve $-1 -1 $-1 0 0 0 10 0 0 F 0 F 91.43999999999999773 #
coedge $-1 -1 $-1 $602 $633 $597 $623 forward $613 0 $-1 #
edge $-1 -1 $-1 $624 0 $607 4.800000000000000711 $597 $638 forward @7 unknown #
vertex $-1 -1 $-1 $598 1 $639 #
straight-curve $-1 -1 $-1 914.3999999999999773 0 0 0 0 10 I I #
point $-1 -1 $-1 914.3999999999999773 0 0 #
coedge $-1 -1 $-1 $633 $602 $604 $629 forward $613 0 $-1 #
straight-curve $-1 -1 $-1 914.3999999999999773 48.00000000000000711 3.174999999999999822 -10 0 0 I I #
edge $-1 -1 $-1 $605 0 $635 4.800000000000000711 $604 $640 forward @7 unknown #
point $-1 -1 $-1 -2.465190328815661892e-31 48.00000000000000711 3.174999999999999822 #
point $-1 -1 $-1 914.3999999999999773 48.00000000000000711 3.174999999999999822 #
straight-curve $-1 -1 $-1 -2.465190328815661892e-31 48.00000000000000711 0 5.135813185032628212e-32 -10 0 F 0 F 4.800000000000000711 #
coedge $-1 -1 $-1 $622 $627 $617 $634 forward $613 0 $-1 #
edge $-1 -1 $-1 $635 0 $624 91.43999999999999773 $617 $641 forward @7 unknown #
vertex $-1 -1 $-1 $618 1 $642 #
straight-curve $-1 -1 $-1 0 0 0 0 0 10 I I #
point $-1 -1 $-1 0 0 0 #
straight-curve $-1 -1 $-1 914.3999999999999773 0 3.174999999999999822 0 10 0 I I #
point $-1 -1 $-1 914.3999999999999773 0 3.174999999999999822 #
straight-curve $-1 -1 $-1 -2.465190328815661892e-31 48.00000000000000711 3.174999999999999822 5.135813185032628212e-32 -10 0 I I #
straight-curve $-1 -1 $-1 0 0 3.174999999999999822 10 0 0 I I #
point $-1 -1 $-1 0 0 3.174999999999999822 #
End-of-ASM-data 