                                                                        S      1
,,10HSK 12mm v1,10HSK 12mm v1,7Hunknown,7Hunknown,32,38,7,99,15,,1.,2,2HG      1
MM,1,0.08,15H20220325.210303,0.01,10000.,7Hunknown,7Hunknown,11,0,15H202G      2
01009.201412;                                                           G      3
     186       1                                                00000000D      1
     186            -199       1       0                               0D      2
     514       2                                                00010000D      3
     514                       2       1                               0D      4
     510       4                                                00010000D      5
     510            -199       1       1                               0D      6
     510       5                                                00010000D      7
     510            -199       1       1                               0D      8
     510       6                                                00010000D      9
     510            -199       1       1                               0D     10
     510       7                                                00010000D     11
     510            -199       1       1                               0D     12
     510       8                                                00010000D     13
     510            -199       1       1                               0D     14
     510       9                                                00010000D     15
     510            -199       1       1                               0D     16
     510      10                                                00010000D     17
     510            -199       1       1                               0D     18
     510      11                                                00010000D     19
     510            -199       1       1                               0D     20
     510      12                                                00010000D     21
     510            -199       1       1                               0D     22
     510      13                                                00010000D     23
     510            -199       1       1                               0D     24
     510      14                                                00010000D     25
     510            -199       1       1                               0D     26
     510      15                                                00010000D     27
     510            -199       1       1                               0D     28
     510      16                                                00010000D     29
     510            -199       1       1                               0D     30
     510      17                                                00010000D     31
     510            -199       1       1                               0D     32
     510      18                                                00010000D     33
     510            -199       1       1                               0D     34
     510      19                                                00010000D     35
     510            -199       1       1                               0D     36
     508      20                                                00010000D     37
     508                       1       1                               0D     38
     508      21                                                00010000D     39
     508                       1       1                               0D     40
     508      22                                                00010000D     41
     508                       1       1                               0D     42
     508      23                                                00010000D     43
     508                       1       1                               0D     44
     508      24                                                00010000D     45
     508                       1       1                               0D     46
     508      25                                                00010000D     47
     508                       3       1                               0D     48
     508      28                                                00010000D     49
     508                       1       1                               0D     50
     508      29                                                00010000D     51
     508                       1       1                               0D     52
     508      30                                                00010000D     53
     508                       1       1                               0D     54
     508      31                                                00010000D     55
     508                       1       1                               0D     56
     508      32                                                00010000D     57
     508                       1       1                               0D     58
     508      33                                                00010000D     59
     508                       1       1                               0D     60
     508      34                                                00010000D     61
     508                       1       1                               0D     62
     508      35                                                00010000D     63
     508                       1       1                               0D     64
     508      36                                                00010000D     65
     508                       1       1                               0D     66
     508      37                                                00010000D     67
     508                       1       1                               0D     68
     508      38                                                00010000D     69
     508                       1       1                               0D     70
     508      39                                                00010000D     71
     508                       1       1                               0D     72
     508      40                                                00010000D     73
     508                       1       1                               0D     74
     508      41                                                00010000D     75
     508                       3       1                               0D     76
     126      44                                                00010000D     77
     126       0               8       0                               0D     78
     126      52                                                00010000D     79
     126       0               2       0                               0D     80
     126      54                                                00010000D     81
     126       0               8       0                               0D     82
     126      62                                                00010000D     83
     126       0               8       0                               0D     84
     126      70                                                00010000D     85
     126       0               2       0                               0D     86
     126      72                                                00010000D     87
     126       0               8       0                               0D     88
     126      80                                                00010000D     89
     126       0              11       0                               0D     90
     126      91                                                00010000D     91
     126       0               2       0                               0D     92
     126      93                                                00010000D     93
     126       0              11       0                               0D     94
     126     104                                                00010000D     95
     126       0               2       0                               0D     96
     126     106                                                00010000D     97
     126       0               3       0                               0D     98
     126     109                                                00010000D     99
     126       0               3       0                               0D    100
     126     112                                                00010000D    101
     126       0               2       0                               0D    102
     126     114                                                00010000D    103
     126       0               4       0                               0D    104
     126     118                                                00010000D    105
     126       0               2       0                               0D    106
     126     120                                                00010000D    107
     126       0               3       0                               0D    108
     126     123                                                00010000D    109
     126       0               2       0                               0D    110
     126     125                                                00010000D    111
     126       0               2       0                               0D    112
     126     127                                                00010000D    113
     126       0               2       0                               0D    114
     126     129                                                00010000D    115
     126       0               2       0                               0D    116
     126     131                                                00010000D    117
     126       0               2       0                               0D    118
     126     133                                                00010000D    119
     126       0               2       0                               0D    120
     126     135                                                00010000D    121
     126       0               2       0                               0D    122
     126     137                                                00010000D    123
     126       0               2       0                               0D    124
     126     139                                                00010000D    125
     126       0               2       0                               0D    126
     126     141                                                00010000D    127
     126       0               2       0                               0D    128
     126     143                                                00010000D    129
     126       0               2       0                               0D    130
     126     145                                                00010000D    131
     126       0               2       0                               0D    132
     126     147                                                00010000D    133
     126       0               2       0                               0D    134
     126     149                                                00010000D    135
     126       0               2       0                               0D    136
     126     151                                                00010000D    137
     126       0               2       0                               0D    138
     126     153                                                00010000D    139
     126       0               2       0                               0D    140
     126     155                                                00010000D    141
     126       0               2       0                               0D    142
     126     157                                                00010000D    143
     126       0               2       0                               0D    144
     126     159                                                00010000D    145
     126       0               2       0                               0D    146
     126     161                                                00010000D    147
     126       0               2       0                               0D    148
     126     163                                                00010000D    149
     126       0               2       0                               0D    150
     126     165                                                00010000D    151
     126       0               2       0                               0D    152
     126     167                                                00010000D    153
     126       0               2       0                               0D    154
     126     169                                                00010000D    155
     126       0               2       0                               0D    156
     126     171                                                00010000D    157
     126       0               2       0                               0D    158
     126     173                                                00010000D    159
     126       0               2       0                               0D    160
     128     175                                                00010000D    161
     128       0    -199      12       0                               0D    162
     128     187                                                00010000D    163
     128       0    -199      12       0                               0D    164
     128     199                                                00010000D    165
     128       0    -199      18       0                               0D    166
     128     217                                                00010000D    167
     128       0    -199       5       0                               0D    168
     128     222                                                00010000D    169
     128       0    -199       4       0                               0D    170
     128     226                                                00010000D    171
     128       0    -199       4       0                               0D    172
     128     230                                                00010000D    173
     128       0    -199       3       0                               0D    174
     128     233                                                00010000D    175
     128       0    -199       4       0                               0D    176
     128     237                                                00010000D    177
     128       0    -199       3       0                               0D    178
     128     240                                                00010000D    179
     128       0    -199       3       0                               0D    180
     128     243                                                00010000D    181
     128       0    -199       3       0                               0D    182
     128     246                                                00010000D    183
     128       0    -199       3       0                               0D    184
     128     249                                                00010000D    185
     128       0    -199       3       0                               0D    186
     128     252                                                00010000D    187
     128       0    -199       3       0                               0D    188
     128     255                                                00010000D    189
     128       0    -199       3       0                               0D    190
     128     258                                                00010000D    191
     128       0    -199       4       0                               0D    192
     502     262                                                00010000D    193
     502                       7       1                               0D    194
     504     269                                                00010001D    195
     504                      12       1                               0D    196
     406     281                                                00000000D    197
     406                       1      15                               0D    198
     314     282                                                00000200D    199
     314                       2       0                               0D    200
186,3,1,0,0,1,197;                                                     1P      1
514,16,5,1,7,1,9,1,11,1,13,1,15,1,17,1,19,1,21,1,23,1,25,1,27,1,       3P      2
29,1,31,1,33,1,35,1;                                                   3P      3
510,161,1,1,37;                                                        5P      4
510,163,1,1,39;                                                        7P      5
510,165,1,1,41;                                                        9P      6
510,167,1,1,43;                                                       11P      7
510,169,1,1,45;                                                       13P      8
510,171,1,1,47;                                                       15P      9
510,173,1,1,49;                                                       17P     10
510,175,3,1,51,53,55;                                                 19P     11
510,177,1,1,57;                                                       21P     12
510,179,2,1,59,61;                                                    23P     13
510,181,1,1,63;                                                       25P     14
510,183,1,1,65;                                                       27P     15
510,185,1,1,67;                                                       29P     16
510,187,2,1,69,71;                                                    31P     17
510,189,1,1,73;                                                       33P     18
510,191,1,1,75;                                                       35P     19
508,4,0,195,1,0,0,0,195,2,1,0,0,195,3,0,0,0,195,2,0,0;                37P     20
508,4,0,195,4,0,0,0,195,5,1,0,0,195,6,0,0,0,195,5,0,0;                39P     21
508,4,0,195,7,0,0,0,195,8,0,0,0,195,9,0,0,0,195,10,1,0;               41P     22
508,4,0,195,11,0,0,0,195,10,0,0,0,195,12,0,0,0,195,13,0,0;            43P     23
508,4,0,195,14,0,0,0,195,15,0,0,0,195,16,0,0,0,195,8,1,0;             45P     24
508,12,0,195,14,1,0,0,195,7,1,0,0,195,11,1,0,0,195,17,1,0,0,195,      47P     25
18,1,0,0,195,19,1,0,0,195,20,1,0,0,195,21,1,0,0,195,22,1,0,0,         47P     26
195,23,1,0,0,195,24,1,0,0,195,25,1,0;                                 47P     27
508,4,0,195,13,1,0,0,195,26,1,0,0,195,27,1,0,0,195,17,0,0;            49P     28
508,4,0,195,28,0,0,0,195,29,1,0,0,195,21,0,0,0,195,30,0,0;            51P     29
508,1,0,195,3,1,0;                                                    53P     30
508,1,0,195,6,1,0;                                                    55P     31
508,4,0,195,31,0,0,0,195,30,1,0,0,195,20,0,0,0,195,32,0,0;            57P     32
508,4,0,195,33,0,0,0,195,32,1,0,0,195,19,0,0,0,195,34,0,0;            59P     33
508,1,0,195,1,1,0;                                                    61P     34
508,4,0,195,35,0,0,0,195,34,1,0,0,195,18,0,0,0,195,27,0,0;            63P     35
508,4,0,195,15,1,0,0,195,25,0,0,0,195,36,0,0,0,195,37,1,0;            65P     36
508,4,0,195,38,1,0,0,195,36,1,0,0,195,24,0,0,0,195,39,0,0;            67P     37
508,4,0,195,40,1,0,0,195,39,1,0,0,195,23,0,0,0,195,41,0,0;            69P     38
508,1,0,195,4,1,0;                                                    71P     39
508,4,0,195,42,1,0,0,195,41,1,0,0,195,22,0,0,0,195,29,0,0;            73P     40
508,12,0,195,16,1,0,0,195,37,0,0,0,195,38,0,0,0,195,40,0,0,0,         75P     41
195,42,0,0,0,195,28,1,0,0,195,31,1,0,0,195,33,1,0,0,195,35,1,0,       75P     42
0,195,26,0,0,0,195,12,1,0,0,195,9,1,0;                                75P     43
126,8,2,0,1,0,0,-3.14159265358979,-3.14159265358979,                  77P     44
-3.14159265358979,-1.5707963267949,-1.5707963267949,0.,0.,            77P     45
1.5707963267949,1.5707963267949,3.14159265358979,                     77P     46
3.14159265358979,3.14159265358979,1.,0.707106781186549,1.,            77P     47
0.707106781186549,1.,0.707106781186549,1.,0.707106781186549,1.,       77P     48
39.25,7.,6.,39.25,4.25,6.,36.5,4.25,6.,33.75,4.25,6.,33.75,7.,        77P     49
6.,33.75,9.75,6.,36.5,9.75,6.,39.25,9.75,6.,39.25,7.,6.,              77P     50
-3.14159265358979,3.14159265358979,0.,0.,0.;                          77P     51
126,1,1,0,0,1,0,0.,0.,2.18181818181818,2.18181818181818,1.,1.,        79P     52
39.25,7.,6.,39.25,7.,0.,0.,2.18181818181818,0.,0.,0.;                 79P     53
126,8,2,0,1,0,0,-3.14159265358979,-3.14159265358979,                  81P     54
-3.14159265358979,-1.5707963267949,-1.5707963267949,0.,0.,            81P     55
1.5707963267949,1.5707963267949,3.14159265358979,                     81P     56
3.14159265358979,3.14159265358979,1.,0.707106781186549,1.,            81P     57
0.707106781186549,1.,0.707106781186549,1.,0.707106781186549,1.,       81P     58
39.25,7.,0.,39.25,9.75,0.,36.5,9.75,0.,33.75,9.75,0.,33.75,7.,        81P     59
0.,33.75,4.25,0.,36.5,4.25,0.,39.25,4.25,0.,39.25,7.,0.,              81P     60
-3.14159265358979,3.14159265358979,0.,0.,0.;                          81P     61
126,8,2,0,1,0,0,-3.14159265358979,-3.14159265358979,                  83P     62
-3.14159265358979,-1.5707963267949,-1.5707963267949,0.,0.,            83P     63
1.5707963267949,1.5707963267949,3.14159265358979,                     83P     64
3.14159265358979,3.14159265358979,1.,0.707106781186549,1.,            83P     65
0.707106781186548,1.,0.707106781186548,1.,0.707106781186549,1.,       83P     66
8.25,7.,6.,8.25,4.25,6.,5.5,4.25,6.,2.75,4.25,6.,2.75,7.,6.,          83P     67
2.75,9.75,6.,5.5,9.75,6.,8.25,9.75,6.,8.25,7.,6.,                     83P     68
-3.14159265358979,3.14159265358979,0.,0.,0.;                          83P     69
126,1,1,0,0,1,0,0.,0.,2.18181818181818,2.18181818181818,1.,1.,        85P     70
8.25,7.,6.,8.25,7.,0.,0.,2.18181818181818,0.,0.,0.;                   85P     71
126,8,2,0,1,0,0,-3.14159265358979,-3.14159265358979,                  87P     72
-3.14159265358979,-1.5707963267949,-1.5707963267949,0.,0.,            87P     73
1.5707963267949,1.5707963267949,3.14159265358979,                     87P     74
3.14159265358979,3.14159265358979,1.,0.707106781186549,1.,            87P     75
0.707106781186548,1.,0.707106781186548,1.,0.707106781186549,1.,       87P     76
8.25,7.,0.,8.25,9.75,0.,5.5,9.75,0.,2.75,9.75,0.,2.75,7.,0.,          87P     77
2.75,4.25,0.,5.5,4.25,0.,8.25,4.25,0.,8.25,7.,0.,                     87P     78
-3.14159265358979,3.14159265358979,0.,0.,0.;                          87P     79
126,8,2,0,0,0,0,1.91063323624902,1.91063323624902,                    89P     80
1.91063323624902,3.31151110831685,3.31151110831685,                   89P     81
4.71238898038469,4.71238898038469,6.11326685245252,                   89P     82
6.11326685245252,7.51414472452036,7.51414472452036,                   89P     83
7.51414472452036,1.,0.764559343257854,1.,0.764559343257854,1.,        89P     84
0.764559343257854,1.,0.764559343257854,1.,19.,14.,                    89P     85
28.6568542494924,14.2310512667627,14.,26.9707762552908,               89P     86
15.0864086420791,14.,21.9853881276454,15.9417660173954,14.,17.,       89P     87
21.,14.,17.,26.0582339826046,14.,17.,26.9135913579209,14.,            89P     88
21.9853881276454,27.7689487332373,14.,26.9707762552908,23.,14.,       89P     89
28.6568542494924,1.91063323624902,7.51414472452036,0.,0.,0.;          89P     90
126,1,1,0,0,1,0,0.,0.,1.4,1.4,1.,1.,19.,0.,28.6568542494924,19.,      91P     91
14.,28.6568542494924,0.,1.4,0.,0.,0.;                                 91P     92
126,8,2,0,0,0,0,-1.23095941734077,-1.23095941734077,                  93P     93
-1.23095941734077,0.169918454727062,0.169918454727062,                93P     94
1.5707963267949,1.5707963267949,2.97167419886273,                     93P     95
2.97167419886273,4.37255207093057,4.37255207093057,                   93P     96
4.37255207093057,1.,0.764559343257852,1.,0.764559343257855,1.,        93P     97
0.764559343257855,1.,0.764559343257854,1.,23.,0.,                     93P     98
28.6568542494924,27.7689487332373,0.,26.9707762552908,                93P     99
26.9135913579209,0.,21.9853881276454,26.0582339826046,0.,17.,         93P    100
21.,0.,17.,15.9417660173954,0.,17.,15.0864086420791,0.,               93P    101
21.9853881276454,14.2310512667627,0.,26.9707762552908,19.,0.,         93P    102
28.6568542494924,-1.23095941734077,4.37255207093057,0.,0.,0.;         93P    103
126,1,1,0,0,1,0,0.,0.,1.4,1.4,1.,1.,23.,0.,28.6568542494924,23.,      95P    104
14.,28.6568542494924,0.,1.4,0.,0.,0.;                                 95P    105
126,1,1,0,0,1,0,0.0531854249492372,0.0531854249492372,0.9375,         97P    106
0.9375,1.,1.,23.,14.,28.6568542494924,23.,14.,37.5,                   97P    107
0.0531854249492372,0.9375,0.,0.,0.;                                   97P    108
126,1,1,0,0,1,0,-0.9375,-0.9375,-0.0531854249492372,                  99P    109
-0.0531854249492372,1.,1.,23.,0.,37.5,23.,0.,28.6568542494924,        99P    110
-0.9375,-0.0531854249492372,0.,0.,0.;                                 99P    111
126,1,1,0,0,1,0,-1.4,-1.4,0.,0.,1.,1.,23.,14.,37.5,23.,0.,37.5,      101P    112
-1.4,0.,0.,0.,0.;                                                    101P    113
126,1,1,0,0,1,0,-1.37965728752538,-1.37965728752538,                 103P    114
-0.495342712474619,-0.495342712474619,1.,1.,19.,14.,37.5,19.,        103P    115
14.,28.6568542494924,-1.37965728752538,-0.495342712474619,0.,0.,     103P    116
0.;                                                                  103P    117
126,1,1,0,0,1,0,0.,0.,1.4,1.4,1.,1.,19.,0.,37.5,19.,14.,37.5,0.,     105P    118
1.4,0.,0.,0.;                                                        105P    119
126,1,1,0,0,1,0,0.495342712474619,0.495342712474619,                 107P    120
1.37965728752538,1.37965728752538,1.,1.,19.,0.,28.6568542494924,     107P    121
19.,0.,37.5,0.495342712474619,1.37965728752538,0.,0.,0.;             107P    122
126,1,1,0,0,1,0,1.2,1.2,2.,2.,1.,1.,23.,14.,37.5,31.,14.,37.5,       109P    123
1.2,2.,0.,0.,0.;                                                     109P    124
126,1,1,0,0,1,0,-3.15,-3.15,0.,0.,1.,1.,31.,14.,37.5,31.,14.,6.,     111P    125
-3.15,0.,0.,0.,0.;                                                   111P    126
126,1,1,0,0,1,0,-1.1,-1.1,0.,0.,1.,1.,31.,14.,6.,42.,14.,6.,         113P    127
-1.1,0.,0.,0.,0.;                                                    113P    128
126,1,1,0,0,1,0,-0.6,-0.6,0.,0.,1.,1.,42.,14.,6.,42.,14.,0.,         115P    129
-0.6,0.,0.,0.,0.;                                                    115P    130
126,1,1,0,0,1,0,-4.2,-4.2,0.,0.,1.,1.,42.,14.,0.,0.,14.,0.,-4.2,     117P    131
0.,0.,0.,0.;                                                         117P    132
126,1,1,0,0,1,0,0.,0.,0.6,0.6,1.,1.,0.,14.,0.,0.,14.,6.,0.,0.6,      119P    133
0.,0.,0.;                                                            119P    134
126,1,1,0,0,1,0,0.,0.,1.1,1.1,1.,1.,0.,14.,6.,11.,14.,6.,0.,1.1,     121P    135
0.,0.,0.;                                                            121P    136
126,1,1,0,0,1,0,0.,0.,3.15,3.15,1.,1.,11.,14.,6.,11.,14.,37.5,       123P    137
0.,3.15,0.,0.,0.;                                                    123P    138
126,1,1,0,0,1,0,0.,0.,0.8,0.8,1.,1.,11.,14.,37.5,19.,14.,37.5,       125P    139
0.,0.8,0.,0.,0.;                                                     125P    140
126,1,1,0,0,1,0,1.2,1.2,2.,2.,1.,1.,23.,0.,37.5,31.,0.,37.5,1.2,     127P    141
2.,0.,0.,0.;                                                         127P    142
126,1,1,0,0,1,0,0.,0.,1.4,1.4,1.,1.,31.,0.,37.5,31.,14.,37.5,0.,     129P    143
1.4,0.,0.,0.;                                                        129P    144
126,1,1,0,0,1,0,0.,0.,4.2,4.2,1.,1.,0.,0.,0.,42.,0.,0.,0.,4.2,       131P    145
0.,0.,0.;                                                            131P    146
126,1,1,0,0,1,0,0.,0.,1.4,1.4,1.,1.,0.,0.,0.,0.,14.,0.,0.,1.4,       133P    147
0.,0.,0.;                                                            133P    148
126,1,1,0,0,1,0,0.,0.,1.4,1.4,1.,1.,42.,0.,0.,42.,14.,0.,0.,1.4,     135P    149
0.,0.,0.;                                                            135P    150
126,1,1,0,0,1,0,0.,0.,0.6,0.6,1.,1.,42.,0.,0.,42.,0.,6.,0.,0.6,      137P    151
0.,0.,0.;                                                            137P    152
126,1,1,0,0,1,0,0.,0.,1.4,1.4,1.,1.,42.,0.,6.,42.,14.,6.,0.,1.4,     139P    153
0.,0.,0.;                                                            139P    154
126,1,1,0,0,1,0,0.,0.,1.1,1.1,1.,1.,42.,0.,6.,31.,0.,6.,0.,1.1,      141P    155
0.,0.,0.;                                                            141P    156
126,1,1,0,0,1,0,0.,0.,1.4,1.4,1.,1.,31.,0.,6.,31.,14.,6.,0.,1.4,     143P    157
0.,0.,0.;                                                            143P    158
126,1,1,0,0,1,0,0.,0.,3.15,3.15,1.,1.,31.,0.,6.,31.,0.,37.5,0.,      145P    159
3.15,0.,0.,0.;                                                       145P    160
126,1,1,0,0,1,0,0.,0.,1.4,1.4,1.,1.,11.,0.,37.5,11.,14.,37.5,0.,     147P    161
1.4,0.,0.,0.;                                                        147P    162
126,1,1,0,0,1,0,0.,0.,0.8,0.8,1.,1.,11.,0.,37.5,19.,0.,37.5,0.,      149P    163
0.8,0.,0.,0.;                                                        149P    164
126,1,1,0,0,1,0,0.,0.,3.15,3.15,1.,1.,11.,0.,6.,11.,0.,37.5,0.,      151P    165
3.15,0.,0.,0.;                                                       151P    166
126,1,1,0,0,1,0,0.,0.,1.4,1.4,1.,1.,11.,0.,6.,11.,14.,6.,0.,1.4,     153P    167
0.,0.,0.;                                                            153P    168
126,1,1,0,0,1,0,0.,0.,1.1,1.1,1.,1.,0.,0.,6.,11.,0.,6.,0.,1.1,       155P    169
0.,0.,0.;                                                            155P    170
126,1,1,0,0,1,0,0.,0.,1.4,1.4,1.,1.,0.,0.,6.,0.,14.,6.,0.,1.4,       157P    171
0.,0.,0.;                                                            157P    172
126,1,1,0,0,1,0,0.,0.,0.6,0.6,1.,1.,0.,0.,0.,0.,0.,6.,0.,0.6,0.,     159P    173
0.,0.;                                                               159P    174
128,1,8,1,2,0,1,0,0,1,0.,0.,2.18181818181818,2.18181818181818,       161P    175
-3.14159265358979,-3.14159265358979,-3.14159265358979,               161P    176
-1.5707963267949,-1.5707963267949,0.,0.,1.5707963267949,             161P    177
1.5707963267949,3.14159265358979,3.14159265358979,                   161P    178
3.14159265358979,1.,1.,0.707106781186548,0.707106781186548,1.,       161P    179
1.,0.707106781186548,0.707106781186548,1.,1.,0.707106781186548,      161P    180
0.707106781186548,1.,1.,0.707106781186548,0.707106781186548,1.,      161P    181
1.,39.25,7.,6.,39.25,7.,0.,39.25,4.25,6.,39.25,4.25,0.,36.5,         161P    182
4.25,6.,36.5,4.25,0.,33.75,4.25,6.,33.75,4.25,0.,33.75,7.,6.,        161P    183
33.75,7.,0.,33.75,9.75,6.,33.75,9.75,0.,36.5,9.75,6.,36.5,9.75,      161P    184
0.,39.25,9.75,6.,39.25,9.75,0.,39.25,7.,6.,39.25,7.,0.,0.,           161P    185
2.18181818181818,-3.14159265358979,3.14159265358979;                 161P    186
128,1,8,1,2,0,1,0,0,1,0.,0.,2.18181818181818,2.18181818181818,       163P    187
-3.14159265358979,-3.14159265358979,-3.14159265358979,               163P    188
-1.5707963267949,-1.5707963267949,0.,0.,1.5707963267949,             163P    189
1.5707963267949,3.14159265358979,3.14159265358979,                   163P    190
3.14159265358979,1.,1.,0.707106781186548,0.707106781186548,1.,       163P    191
1.,0.707106781186548,0.707106781186548,1.,1.,0.707106781186548,      163P    192
0.707106781186548,1.,1.,0.707106781186548,0.707106781186548,1.,      163P    193
1.,8.25,7.,6.,8.25,7.,0.,8.25,4.25,6.,8.25,4.25,0.,5.5,4.25,6.,      163P    194
5.5,4.25,0.,2.75,4.25,6.,2.75,4.25,0.,2.75,7.,6.,2.75,7.,0.,         163P    195
2.75,9.75,6.,2.75,9.75,0.,5.5,9.75,6.,5.5,9.75,0.,8.25,9.75,6.,      163P    196
8.25,9.75,0.,8.25,7.,6.,8.25,7.,0.,0.,2.18181818181818,              163P    197
-3.14159265358979,3.14159265358979;                                  163P    198
128,1,8,1,2,0,0,0,0,0,0.,0.,2.33333333333333,2.33333333333333,       165P    199
-1.23095941734077,-1.23095941734077,-1.23095941734077,               165P    200
0.169918454727062,0.169918454727062,1.5707963267949,                 165P    201
1.5707963267949,2.97167419886273,2.97167419886273,                   165P    202
4.37255207093057,4.37255207093057,4.37255207093057,1.,1.,            165P    203
0.764559343257854,0.764559343257854,1.,1.,0.764559343257854,         165P    204
0.764559343257854,1.,1.,0.764559343257854,0.764559343257854,1.,      165P    205
1.,0.764559343257854,0.764559343257854,1.,1.,23.,0.,                 165P    206
28.6568542494924,23.,14.,28.6568542494924,27.7689487332373,0.,       165P    207
26.9707762552908,27.7689487332373,14.,26.9707762552908,              165P    208
26.9135913579209,0.,21.9853881276454,26.9135913579209,14.,           165P    209
21.9853881276454,26.0582339826046,0.,17.,26.0582339826046,14.,       165P    210
17.,21.,0.,17.,21.,14.,17.,15.9417660173954,0.,17.,                  165P    211
15.9417660173954,14.,17.,15.0864086420791,0.,21.9853881276454,       165P    212
15.0864086420791,14.,21.9853881276454,14.2310512667627,0.,           165P    213
26.9707762552908,14.2310512667627,14.,26.9707762552908,19.,0.,       165P    214
28.6568542494924,19.,14.,28.6568542494924,0.,2.33333333333333,       165P    215
-1.23095941734077,4.37255207093057;                                  165P    216
128,1,1,1,1,0,0,1,0,0,-0.001,-0.001,0.885314575050763,               167P    217
0.885314575050763,-0.001,-0.001,1.401,1.401,1.,1.,1.,1.,23.,         167P    218
-0.01,28.6468542494924,23.,-0.01,37.51,23.,14.01,                    167P    219
28.6468542494924,23.,14.01,37.51,-0.001,0.885314575050763,           167P    220
-0.001,1.401;                                                        167P    221
128,1,1,1,1,0,0,1,0,0,-0.001,-0.001,0.885314575050762,               169P    222
0.885314575050762,-0.001,-0.001,1.401,1.401,1.,1.,1.,1.,19.,         169P    223
-0.01,37.51,19.,-0.01,28.6468542494924,19.,14.01,37.51,19.,          169P    224
14.01,28.6468542494924,-0.001,0.885314575050762,-0.001,1.401;        169P    225
128,1,1,1,1,0,0,1,0,0,-1.876,-1.876,1.876,1.876,-2.101,-2.101,       171P    226
2.101,2.101,1.,1.,1.,1.,-0.0099999999999989,14.,                     171P    227
-0.0099999999999989,-0.0099999999999989,14.,37.51,42.01,14.,         171P    228
-0.0099999999999989,42.01,14.,37.51,-1.876,1.876,-2.101,2.101;       171P    229
128,1,1,1,1,0,0,1,0,0,1.199,1.199,2.001,2.001,-0.001,-0.001,         173P    230
1.401,1.401,1.,1.,1.,1.,22.99,-0.01,37.5,31.01,-0.01,37.5,22.99,     173P    231
14.01,37.5,31.01,14.01,37.5,1.199,2.001,-0.001,1.401;                173P    232
128,1,1,1,1,0,0,1,0,0,-0.001,-0.001,4.201,4.201,-0.001,-0.001,       175P    233
1.401,1.401,1.,1.,1.,1.,42.01,-0.01,0.,-0.0100000000000033,          175P    234
-0.01,0.,42.01,14.01,0.,-0.0100000000000033,14.01,0.,-0.001,         175P    235
4.201,-0.001,1.401;                                                  175P    236
128,1,1,1,1,0,0,1,0,0,-0.001,-0.001,0.601,0.601,-0.001,-0.001,       177P    237
1.401,1.401,1.,1.,1.,1.,42.,-0.01,6.01,42.,-0.01,-0.01,42.,          177P    238
14.01,6.01,42.,14.01,-0.01,-0.001,0.601,-0.001,1.401;                177P    239
128,1,1,1,1,0,0,1,0,0,-0.001,-0.001,1.101,1.101,-0.001,-0.001,       179P    240
1.401,1.401,1.,1.,1.,1.,30.99,-0.01,6.,42.01,-0.01,6.,30.99,         179P    241
14.01,6.,42.01,14.01,6.,-0.001,1.101,-0.001,1.401;                   179P    242
128,1,1,1,1,0,0,1,0,0,-0.001,-0.001,3.151,3.151,-0.001,-0.001,       181P    243
1.401,1.401,1.,1.,1.,1.,31.,-0.01,37.51,31.,-0.01,5.99,31.,          181P    244
14.01,37.51,31.,14.01,5.99,-0.001,3.151,-0.001,1.401;                181P    245
128,1,1,1,1,0,0,1,0,0,-0.001,-0.001,0.801,0.801,-0.001,-0.001,       183P    246
1.401,1.401,1.,1.,1.,1.,10.99,-0.01,37.5,19.01,-0.01,37.5,10.99,     183P    247
14.01,37.5,19.01,14.01,37.5,-0.001,0.801,-0.001,1.401;               183P    248
128,1,1,1,1,0,0,1,0,0,-0.001,-0.001,3.151,3.151,-0.001,-0.001,       185P    249
1.401,1.401,1.,1.,1.,1.,11.,-0.01,5.99,11.,-0.01,37.51,11.,          185P    250
14.01,5.99,11.,14.01,37.51,-0.001,3.151,-0.001,1.401;                185P    251
128,1,1,1,1,0,0,1,0,0,-0.001,-0.001,1.101,1.101,-0.001,-0.001,       187P    252
1.401,1.401,1.,1.,1.,1.,-0.01,-0.01,6.,11.01,-0.01,6.,-0.01,         187P    253
14.01,6.,11.01,14.01,6.,-0.001,1.101,-0.001,1.401;                   187P    254
128,1,1,1,1,0,0,1,0,0,-0.001,-0.001,0.601,0.601,-0.001,-0.001,       189P    255
1.401,1.401,1.,1.,1.,1.,0.,-0.01,-0.01,0.,-0.01,6.01,0.,14.01,       189P    256
-0.01,0.,14.01,6.01,-0.001,0.601,-0.001,1.401;                       189P    257
128,1,1,1,1,0,0,1,0,0,-2.101,-2.101,2.101,2.101,-1.876,-1.876,       191P    258
1.876,1.876,1.,1.,1.,1.,42.01,0.,37.51,-0.0099999999999989,0.,       191P    259
37.51,42.01,0.,-0.0099999999999989,-0.0099999999999989,0.,           191P    260
-0.0099999999999989,-2.101,2.101,-1.876,1.876;                       191P    261
502,28,39.25,7.,6.,39.25,7.,0.,8.25,7.,6.,8.25,7.,0.,19.,14.,        193P    262
28.6568542494924,23.,14.,28.6568542494924,19.,0.,                    193P    263
28.6568542494924,23.,0.,28.6568542494924,23.,14.,37.5,23.,0.,        193P    264
37.5,19.,14.,37.5,19.,0.,37.5,31.,14.,37.5,31.,14.,6.,42.,14.,       193P    265
6.,42.,14.,0.,0.,14.,0.,0.,14.,6.,11.,14.,6.,11.,14.,37.5,31.,       193P    266
0.,37.5,0.,0.,0.,42.,0.,0.,42.,0.,6.,31.,0.,6.,11.,0.,37.5,11.,      193P    267
0.,6.,0.,0.,6.;                                                      193P    268
504,42,77,193,1,193,1,79,193,1,193,2,81,193,2,193,2,83,193,3,        195P    269
193,3,85,193,3,193,4,87,193,4,193,4,89,193,5,193,6,91,193,7,193,     195P    270
5,93,193,8,193,7,95,193,8,193,6,97,193,6,193,9,99,193,10,193,8,      195P    271
101,193,9,193,10,103,193,11,193,5,105,193,12,193,11,107,193,7,       195P    272
193,12,109,193,9,193,13,111,193,13,193,14,113,193,14,193,15,115,     195P    273
193,15,193,16,117,193,16,193,17,119,193,17,193,18,121,193,18,        195P    274
193,19,123,193,19,193,20,125,193,20,193,11,127,193,10,193,21,        195P    275
129,193,21,193,13,131,193,22,193,23,133,193,22,193,17,135,193,       195P    276
23,193,16,137,193,23,193,24,139,193,24,193,15,141,193,24,193,25,     195P    277
143,193,25,193,14,145,193,25,193,21,147,193,26,193,20,149,193,       195P    278
26,193,12,151,193,27,193,26,153,193,27,193,19,155,193,28,193,27,     195P    279
157,193,28,193,18,159,193,22,193,28;                                 195P    280
406,1,5HBody1;                                                       197P    281
314,62.7450980392157,62.7450980392157,62.7450980392157,13HSteel      199P    282
- Satin;                                                             199P    283
S      1G      3D    200P    283                                        T      1
