700 0 1 0           
30 Autodesk Translation Framework 20 ASM 227.7.2.65535 NT 24 Fri Mar 25 20:17:24 2022 
1 9.999999999999999547e-07 1.000000000000000036e-10 
body $1 -1 $-1 $2 $-1 $3 #
rgb_color-st-attrib $-1 -1 $4 $-1 $0 0.627450980392156854 0.627450980392156854 0.627450980392156854 #
lump $-1 -1 $-1 $-1 $5 $0 #
transform $-1 -1 1 0 0 0 1 0 0 0 1 0 0 0 1 no_rotate no_reflect no_shear #
ATTRIB_CUSTOM-attrib $-1 -1 $-1 $1 $0 @20 Timestamp_attrib_def 1 1586046038111158 #
shell $-1 -1 $-1 $-1 $-1 $6 $-1 $2 #
face $7 -1 $-1 $8 $9 $5 $-1 $10 reversed single #
DXID-attrib $-1 -1 $-1 $-1 $6 @10 ASM ENTITY @1 0 #
face $11 -1 $-1 $12 $13 $5 $-1 $14 reversed single #
loop $-1 -1 $-1 $15 $16 $6 #
cone-surface $-1 -1 $-1 0 5 0 0 0 1 1.999999999999999556 0 0 1 I I 0 1 1.999999999999999556 forward I I I I #
DXID-attrib $-1 -1 $-1 $-1 $8 @10 ASM ENTITY @1 1 #
face $17 -1 $-1 $18 $19 $5 $-1 $20 forward single #
loop $-1 -1 $-1 $21 $22 $8 #
cone-surface $-1 -1 $-1 0 91.20000000000001705 0 0 0 1 2 0 0 1 I I 0 1 2 forward I I I I #
loop $-1 -1 $-1 $-1 $23 $6 #
coedge $-1 -1 $-1 $16 $16 $24 $25 reversed $9 $-1 #
DXID-attrib $-1 -1 $-1 $-1 $12 @10 ASM ENTITY @1 2 #
face $26 -1 $-1 $27 $28 $5 $-1 $29 forward single #
loop $-1 -1 $-1 $30 $24 $12 #
cone-surface $-1 -1 $-1 1.11022302462515654e-15 0 1.11022302462515654e-15 0 1 0 -10 0 -1.11022302462515654e-15 1 I I 0 1 10 forward I I I I #
loop $-1 -1 $-1 $-1 $31 $8 #
coedge $-1 -1 $-1 $22 $22 $32 $33 reversed $13 $-1 #
coedge $34 -1 $-1 $23 $23 $35 $36 reversed $15 $-1 #
coedge $-1 -1 $-1 $24 $24 $16 $25 forward $19 $-1 #
edge $-1 -1 $-1 $37 0 $37 1.208910947447028317 $24 $38 forward @7 unknown #
DXID-attrib $-1 -1 $-1 $-1 $18 @10 ASM ENTITY @1 3 #
face $39 -1 $-1 $40 $41 $5 $-1 $42 forward single #
loop $-1 -1 $-1 $43 $35 $18 #
plane-surface $-1 -1 $-1 10 0 0 0 0 -1 -10 0 0 forward_v I I I I #
loop $-1 -1 $-1 $44 $32 $12 #
coedge $45 -1 $-1 $31 $31 $46 $47 reversed $21 $-1 #
coedge $-1 -1 $-1 $32 $32 $22 $33 forward $30 $-1 #
edge $-1 -1 $-1 $48 0 $48 1.208910947447027429 $32 $49 forward @7 unknown #
ATTRIB_CUSTOM-attrib $-1 -1 $-1 $-1 $23 @17 sketch_attrib_def 1 1 3 @13 134 0 0 0 1 1 #
coedge $-1 -1 $-1 $35 $35 $23 $36 forward $28 $-1 #
edge $-1 -1 $-1 $50 -3.141592653589793116 $50 3.141592653589793116 $35 $51 forward @7 unknown #
vertex $-1 -1 $-1 $25 $52 #
intcurve-curve $-1 -1 $-1 forward { surfintcur full nubs 3 periodic 17 
	0 3 0.07555905117803884963 2 0.1511181023560776993 2 0.226672919608917417 2 0.3022277368617571347 2 
	0.3777825541145968802 2 0.4533373713674366257 2 0.5288964225454754198 2 0.6044554737235142694 2 0.680014524901553008 2 
	0.7555735760795918576 2 0.8311283933324316031 2 0.9066832105852712376 2 0.982238027838110872 2 1.057792845090950618 2 
	1.133351896268989467 2 1.208910947447028317 3 
	1.999999999999999556 5 9.797958971132715078 
	1.999999999999999556 4.748136496073204427 9.797958971132715078 
	1.949525592497227677 4.479964445676218432 9.808677532368935914 
	1.745210835296764573 3.987415989939892214 9.847083015855417898 
	1.591406204384176348 3.762979079637986946 9.874181702038654862 
	1.237030849290187362 3.408603724543998403 9.924806752766368589 
	1.012589722395251135 3.254791316910485843 9.95166694303727084 
	0.5200266121637291405 3.050470915528331606 9.989523772941629076 
	0.251849390842798726 3.000000000000000444 10 
	-0.2518493908427994477 3.000000000000000444 10 
	-0.5200266121637298067 3.050470915528331606 9.989523772941629076 
	-1.012589722395251579 3.254791316910485843 9.95166694303727084 
	-1.237030849290188028 3.408603724543998403 9.924806752766368589 
	-1.591406204384177014 3.762979079637988278 9.874181702038654862 
	-1.745210835296764573 3.987415989939893102 9.847083015855416122 
	-1.949525592497227455 4.479964445676218432 9.808677532368935914 
	-1.999999999999999556 4.748136496073204427 9.797958971132715078 
	-1.999999999999999556 5.251863503926795573 9.797958971132715078 
	-1.949525592497226789 5.520035554323781568 9.808677532368935914 
	-1.745210835296764129 6.012584010060106898 9.847083015855416122 
	-1.591406204384176792 6.237020920362013499 9.874181702038654862 
	-1.237030849290187362 6.591396275456001597 9.924806752766368589 
	-1.012589722395249803 6.745208683089515489 9.95166694303727084 
	-0.5200266121637276973 6.949529084471669726 9.989523772941629076 
	-0.251849390842798726 7 10 
	0.2518493908427990591 7 10 
	0.5200266121637284744 6.949529084471668838 9.989523772941629076 
	1.012589722395250247 6.745208683089515489 9.951666943037272617 
	1.237030849290187362 6.591396275456002485 9.924806752766368589 
	1.591406204384176348 6.237020920362013499 9.874181702038654862 
	1.745210835296764351 6.012584010060106898 9.847083015855417898 
	1.949525592497227233 5.520035554323781568 9.808677532368935914 
	1.999999999999999556 5.251863503926795573 9.797958971132715078 
	1.999999999999999556 5 9.797958971132715078 
	0.00155276808163130756 
	
	cone 0 5 0 0 0 1 1.999999999999999556 0 0 1 I I 0 1 1.999999999999999556 forward I I I I 
	cone 1.11022302462515654e-15 0 1.11022302462515654e-15 0 1 0 -10 0 -1.11022302462515654e-15 1 I I 0 1 10 forward I I I I 
	nullbs 
	nullbs 
	I I 
	0 
	0 
	0 
	} I I #
DXID-attrib $-1 -1 $-1 $-1 $27 @10 ASM ENTITY @1 4 #
face $53 -1 $-1 $-1 $54 $5 $-1 $55 reversed single #
loop $-1 -1 $-1 $-1 $56 $27 #
plane-surface $-1 -1 $-1 5.551115123125782702e-16 96.20000000000001705 5.000000000000000888 0 1 0 10 0 0 forward_v I I I I #
loop $-1 -1 $-1 $57 $46 $18 #
loop $-1 -1 $-1 $-1 $58 $12 #
ATTRIB_CUSTOM-attrib $-1 -1 $-1 $-1 $31 @17 sketch_attrib_def 1 1 3 @13 140 0 0 0 1 1 #
coedge $-1 -1 $-1 $46 $46 $31 $47 forward $43 $-1 #
edge $-1 -1 $-1 $59 -3.141592653589793116 $59 3.141592653589793116 $46 $60 forward @7 unknown #
vertex $-1 -1 $-1 $33 $61 #
intcurve-curve $-1 -1 $-1 forward { surfintcur full nubs 3 periodic 17 
	0 3 0.07555905117803868309 2 0.1511181023560773662 2 0.2266729196089170839 2 0.3022277368617568016 2 
	0.3777825541145964916 2 0.4533373713674362371 2 0.5288964225454748647 2 0.6044554737235136033 2 0.6800145249015523419 2 
	0.7555735760795909695 2 0.8311283933324307149 2 0.9066832105852704604 2 0.9822380278381102059 2 1.057792845090949951 2 
	1.133351896268988579 2 1.208910947447027429 3 
	2 91.20000000000001705 9.797958971132715078 
	2 90.94813649607320372 9.797958971132715078 
	1.949525592497222348 90.67996444567620529 9.808677532368939467 
	1.74521083529675769 90.18741598993989328 9.847083015855419674 
	1.591406204384177681 89.96297907963800355 9.874181702038654862 
	1.237030849290189138 89.60860372454402523 9.924806752766368589 
	1.012589722395258907 89.45479131691050156 9.95166694303727084 
	0.5200266121637366901 89.25047091552833933 9.9895237729416273 
	0.251849390842798726 89.20000000000001705 10 
	-0.2518493908427993366 89.20000000000001705 10 
	-0.5200266121637366901 89.25047091552833933 9.989523772941629076 
	-1.012589722395258907 89.45479131691050156 9.95166694303727084 
	-1.237030849290189582 89.60860372454402523 9.924806752766368589 
	-1.591406204384177903 89.96297907963800355 9.874181702038654862 
	-1.745210835296770568 90.18741598993989328 9.847083015855416122 
	-1.949525592497229898 90.67996444567623371 9.808677532368935914 
	-2 90.94813649607320372 9.797958971132715078 
	-2 91.45186350392680197 9.797958971132713302 
	-1.949525592497222792 91.72003555432381461 9.808677532368935914 
	-1.745210835296757912 92.21258401006012662 9.847083015855417898 
	-1.591406204384177681 92.43702092036201634 9.874181702038654862 
	-1.237030849290189582 92.79139627545600888 9.924806752766368589 
	-1.012589722395259351 92.94520868308951833 9.95166694303727084 
	-0.5200266121637366901 93.14952908447168056 9.9895237729416273 
	-0.2518493908427988925 93.20000000000000284 10 
	0.2518493908427991701 93.20000000000000284 10 
	0.5200266121637369121 93.14952908447168056 9.9895237729416273 
	1.012589722395259351 92.94520868308951833 9.95166694303727084 
	1.23703084929018936 92.79139627545600888 9.924806752766368589 
	1.591406204384177236 92.43702092036201634 9.874181702038654862 
	1.745210835296757912 92.21258401006012662 9.847083015855419674 
	1.949525592497222792 91.72003555432381461 9.808677532368939467 
	2 91.45186350392680197 9.797958971132715078 
	2 91.20000000000001705 9.797958971132715078 
	0.001552768081629356429 
	
	cone 0 91.20000000000001705 0 0 0 1 2 0 0 1 I I 0 1 2 forward I I I I 
	cone 1.11022302462515654e-15 0 1.11022302462515654e-15 0 1 0 -10 0 -1.11022302462515654e-15 1 I I 0 1 10 forward I I I I 
	nullbs 
	nullbs 
	I I 
	0 
	0 
	0 
	} I I #
vertex $-1 -1 $-1 $36 $62 #
ellipse-curve $-1 -1 $-1 0 5 0 0 0 1 1.999999999999999556 0 0 1 I I #
point $-1 -1 $-1 1.999999999999999334 5 9.797958971132715078 #
DXID-attrib $-1 -1 $-1 $-1 $40 @10 ASM ENTITY @1 5 #
loop $-1 -1 $-1 $-1 $63 $40 #
plane-surface $-1 -1 $-1 5.551115123125782702e-16 0 5.000000000000000888 0 1 0 10 0 0 forward_v I I I I #
coedge $-1 -1 $-1 $64 $64 $65 $66 forward $41 $-1 #
loop $-1 -1 $-1 $-1 $67 $18 #
coedge $68 -1 $-1 $69 $70 $71 $72 forward $44 $-1 #
vertex $-1 -1 $-1 $47 $73 #
ellipse-curve $-1 -1 $-1 0 91.20000000000001705 0 0 0 1 2 0 0 1 I I #
point $-1 -1 $-1 2.000000000000000444 91.20000000000003126 9.797958971132713302 #
point $-1 -1 $-1 -1.999999999999999556 5 0 #
coedge $74 -1 $-1 $71 $71 $67 $75 reversed $54 $-1 #
coedge $-1 -1 $-1 $56 $56 $76 $77 forward $41 $-1 #
coedge $-1 -1 $-1 $78 $79 $56 $66 reversed $57 $-1 #
edge $-1 -1 $-1 $80 -1 $81 0.999999999999999889 $65 $82 forward @7 unknown #
coedge $83 -1 $-1 $79 $78 $63 $75 forward $57 $-1 #
ATTRIB_CUSTOM-attrib $-1 -1 $-1 $-1 $58 @17 sketch_attrib_def 1 1 3 @13 110 0 0 0 1 1 #
coedge $-1 -1 $-1 $76 $58 $78 $84 forward $44 $-1 #
coedge $-1 -1 $-1 $58 $76 $79 $85 reversed $44 $-1 #
coedge $86 -1 $-1 $63 $63 $58 $72 reversed $54 $-1 #
edge $-1 -1 $-1 $87 0 $88 3.141592653589793116 $58 $89 forward @7 unknown #
point $-1 -1 $-1 -2 91.20000000000001705 0 #
ATTRIB_CUSTOM-attrib $-1 -1 $90 $-1 $63 @17 sketch_attrib_def 1 1 3 @13 106 0 0 0 1 1 #
edge $-1 -1 $-1 $88 -1 $87 0.999999999999999889 $67 $91 forward @7 unknown #
coedge $-1 -1 $-1 $70 $69 $64 $77 reversed $44 $-1 #
edge $-1 -1 $-1 $81 0 $80 3.141592653589793116 $76 $92 forward @7 unknown #
coedge $-1 -1 $-1 $67 $65 $69 $84 reversed $57 $-1 #
coedge $-1 -1 $-1 $65 $67 $70 $85 forward $57 $-1 #
vertex $-1 -1 $-1 $84 $93 #
vertex $-1 -1 $-1 $77 $94 #
straight-curve $-1 -1 $-1 0 96.20000000000001705 0 -10 0 0 I I #
ATTRIB_CUSTOM-attrib $-1 -1 $95 $-1 $67 @17 sketch_attrib_def 1 1 3 @13 103 0 1 0 1 1 #
edge $-1 -1 $-1 $88 0 $80 9.620000000000000995 $78 $96 forward @7 unknown #
edge $-1 -1 $-1 $87 0 $81 9.620000000000000995 $79 $97 forward @7 unknown #
ATTRIB_CUSTOM-attrib $-1 -1 $-1 $-1 $71 @17 sketch_attrib_def 1 1 3 @13 110 0 0 0 1 1 #
vertex $-1 -1 $-1 $72 $98 #
vertex $-1 -1 $-1 $72 $99 #
ellipse-curve $-1 -1 $-1 1.11022302462515654e-15 0 1.11022302462515654e-15 0 1 0 -10 0 -1.11022302462515654e-15 1 F 0 F 3.141592653589793116 #
ATTRIB_CUSTOM-attrib $-1 -1 $-1 $74 $63 @17 sketch_attrib_def 1 1 3 @13 103 0 1 0 1 1 #
straight-curve $-1 -1 $-1 0 0 0 -10 0 0 F -1 F 0.999999999999999889 #
ellipse-curve $-1 -1 $-1 1.11022302462515654e-15 96.20000000000001705 1.11022302462515654e-15 0 1 0 -10 0 -1.11022302462515654e-15 1 I I #
point $-1 -1 $-1 10 96.20000000000001705 3.445092848397666535e-15 #
point $-1 -1 $-1 -10 96.20000000000001705 0 #
ATTRIB_CUSTOM-attrib $-1 -1 $-1 $83 $67 @17 sketch_attrib_def 1 1 3 @13 106 0 0 0 1 1 #
straight-curve $-1 -1 $-1 10 0 3.445092848397666535e-15 0 10 0 I I #
straight-curve $-1 -1 $-1 -9.999999999999998224 0 0 0 10 0 I I #
point $-1 -1 $-1 -9.999999999999998224 0 0 #
point $-1 -1 $-1 10 0 3.445092848397666535e-15 #
End-of-ACIS-data 