                                                                        S      1
,,17HShaker Fixture v1,17HShaker Fixture v1,7Hunknown,7Hunknown,32,38,7,G      1
99,15,,1.,2,2HMM,1,0.08,15H20220325.201715,0.01,10000.,7Hunknown,7HunknoG      2
wn,11,0,15H20201009.201425;                                             G      3
     186       1                                                00000000D      1
     186             -83       1       0                               0D      2
     514       2                                                00010000D      3
     514                       1       1                               0D      4
     510       3                                                00010000D      5
     510             -83       1       1                               0D      6
     510       4                                                00010000D      7
     510             -83       1       1                               0D      8
     510       5                                                00010000D      9
     510             -83       1       1                               0D     10
     510       6                                                00010000D     11
     510             -83       1       1                               0D     12
     510       7                                                00010000D     13
     510             -83       1       1                               0D     14
     510       8                                                00010000D     15
     510             -83       1       1                               0D     16
     508       9                                                00010000D     17
     508                       1       1                               0D     18
     508      10                                                00010000D     19
     508                       1       1                               0D     20
     508      11                                                00010000D     21
     508                       1       1                               0D     22
     508      12                                                00010000D     23
     508                       1       1                               0D     24
     508      13                                                00010000D     25
     508                       1       1                               0D     26
     508      14                                                00010000D     27
     508                       1       1                               0D     28
     508      15                                                00010000D     29
     508                       1       1                               0D     30
     508      16                                                00010000D     31
     508                       1       1                               0D     32
     508      17                                                00010000D     33
     508                       1       1                               0D     34
     508      18                                                00010000D     35
     508                       1       1                               0D     36
     126      19                                                00010000D     37
     126       0               8       0                               0D     38
     126      27                                                00010000D     39
     126       0               2       0                               0D     40
     126      29                                                00010000D     41
     126       0              23       0                               0D     42
     126      52                                                00010000D     43
     126       0              24       0                               0D     44
     126      76                                                00010000D     45
     126       0               8       0                               0D     46
     126      84                                                00010000D     47
     126       0               3       0                               0D     48
     126      87                                                00010000D     49
     126       0              23       0                               0D     50
     126     110                                                00010000D     51
     126       0              24       0                               0D     52
     126     134                                                00010000D     53
     126       0               5       0                               0D     54
     126     139                                                00010000D     55
     126       0               3       0                               0D     56
     126     142                                                00010000D     57
     126       0               5       0                               0D     58
     126     147                                                00010000D     59
     126       0               2       0                               0D     60
     126     149                                                00010000D     61
     126       0               2       0                               0D     62
     126     151                                                00010000D     63
     126       0               2       0                               0D     64
     128     153                                                00010000D     65
     128       0     -83      11       0                               0D     66
     128     164                                                00010000D     67
     128       0     -83      11       0                               0D     68
     128     175                                                00010000D     69
     128       0     -83       7       0                               0D     70
     128     182                                                00010000D     71
     128       0     -83       3       0                               0D     72
     128     185                                                00010000D     73
     128       0     -83       4       0                               0D     74
     128     189                                                00010000D     75
     128       0     -83       3       0                               0D     76
     502     192                                                00010000D     77
     502                       4       1                               0D     78
     504     196                                                00010001D     79
     504                       4       1                               0D     80
     406     200                                                00000000D     81
     406                       1      15                               0D     82
     314     201                                                00000200D     83
     314                       2       0                               0D     84
186,3,1,0,0,1,81;                                                      1P      1
514,6,5,1,7,1,9,1,11,1,13,1,15,1;                                      3P      2
510,65,1,1,17;                                                         5P      3
510,67,1,1,19;                                                         7P      4
510,69,3,1,21,23,25;                                                   9P      5
510,71,3,1,27,29,31;                                                  11P      6
510,73,1,1,33;                                                        13P      7
510,75,1,1,35;                                                        15P      8
508,5,0,79,1,0,0,0,79,2,1,0,0,79,3,0,0,0,79,4,0,0,0,79,2,0,0;         17P      9
508,5,0,79,5,0,0,0,79,6,1,0,0,79,7,0,0,0,79,8,0,0,0,79,6,0,0;         19P     10
508,4,0,79,9,1,0,0,79,10,1,0,0,79,11,0,0,0,79,12,0,0;                 21P     11
508,2,0,79,3,1,0,0,79,4,1,0;                                          23P     12
508,2,0,79,7,1,0,0,79,8,1,0;                                          25P     13
508,4,0,79,13,1,0,0,79,12,1,0,0,79,14,0,0,0,79,10,0,0;                27P     14
508,1,0,79,1,1,0;                                                     29P     15
508,1,0,79,5,1,0;                                                     31P     16
508,2,0,79,14,1,0,0,79,11,1,0;                                        33P     17
508,2,0,79,13,0,0,0,79,9,0,0;                                         35P     18
126,8,2,0,1,0,0,-3.14159265358979,-3.14159265358979,                  37P     19
-3.14159265358979,-1.5707963267949,-1.5707963267949,0.,0.,            37P     20
1.5707963267949,1.5707963267949,3.14159265358979,                     37P     21
3.14159265358979,3.14159265358979,1.,0.707106781186547,1.,            37P     22
0.707106781186547,1.,0.707106781186547,1.,0.707106781186547,1.,       37P     23
-2.,5.,0.,-2.,3.,0.,1.22464679914735D-16,3.,0.,2.,3.,0.,2.,5.,        37P     24
0.,2.,7.,0.,1.22464679914735D-16,7.,0.,-2.,7.,0.,-2.,5.,0.,           37P     25
-3.14159265358979,3.14159265358979,0.,0.,0.;                          37P     26
126,1,1,0,0,1,0,0.,0.,4.89897948556636,4.89897948556636,1.,1.,        39P     27
-2.,5.,0.,-2.,5.,9.79795897113272,0.,4.89897948556636,0.,0.,0.;       39P     28
126,17,3,0,0,1,0,0.,0.,0.,0.,0.0755590511780388,                      41P     29
0.0755590511780388,0.151118102356078,0.151118102356078,               41P     30
0.226672919608917,0.226672919608917,0.302227736861757,                41P     31
0.302227736861757,0.377782554114597,0.377782554114597,                41P     32
0.453337371367437,0.453337371367437,0.528896422545475,                41P     33
0.528896422545475,0.604455473723514,0.604455473723514,                41P     34
0.604455473723514,0.604455473723514,1.,1.,1.,1.,1.,1.,1.,1.,1.,       41P     35
1.,1.,1.,1.,1.,1.,1.,1.,1.,2.,5.,9.79795897113272,2.,                 41P     36
4.7481364960732,9.79795897113272,1.94952559249723,                    41P     37
4.47996444567622,9.80867753236894,1.74521083529676,                   41P     38
3.98741598993989,9.84708301585542,1.59140620438418,                   41P     39
3.76297907963799,9.87418170203865,1.23703084929019,                   41P     40
3.408603724544,9.92480675276637,1.01258972239525,                     41P     41
3.25479131691049,9.95166694303727,0.520026612163729,                  41P     42
3.05047091552833,9.98952377294163,0.251849390842799,3.,10.,           41P     43
-0.251849390842799,3.,10.,-0.52002661216373,3.05047091552833,         41P     44
9.98952377294163,-1.01258972239525,3.25479131691049,                  41P     45
9.95166694303727,-1.23703084929019,3.408603724544,                    41P     46
9.92480675276637,-1.59140620438418,3.76297907963799,                  41P     47
9.87418170203865,-1.74521083529676,3.98741598993989,                  41P     48
9.84708301585542,-1.94952559249723,4.47996444567622,                  41P     49
9.80867753236894,-2.,4.7481364960732,9.79795897113271,-2.,5.,         41P     50
9.79795897113271,0.,0.604455473723514,0.,0.,0.;                       41P     51
126,17,3,0,0,1,0,0.604455473723514,0.604455473723514,                 43P     52
0.604455473723514,0.604455473723514,0.680014524901553,                43P     53
0.680014524901553,0.755573576079592,0.755573576079592,                43P     54
0.831128393332432,0.831128393332432,0.906683210585271,                43P     55
0.906683210585271,0.982238027838111,0.982238027838111,                43P     56
1.05779284509095,1.05779284509095,1.13335189626899,                   43P     57
1.13335189626899,1.20891094744703,1.20891094744703,                   43P     58
1.20891094744703,1.20891094744703,1.,1.,1.,1.,1.,1.,1.,1.,1.,1.,      43P     59
1.,1.,1.,1.,1.,1.,1.,1.,-2.,5.,9.79795897113272,-2.,                  43P     60
5.2518635039268,9.79795897113272,-1.94952559249723,                   43P     61
5.52003555432378,9.80867753236894,-1.74521083529676,                  43P     62
6.01258401006011,9.84708301585542,-1.59140620438418,                  43P     63
6.23702092036201,9.87418170203865,-1.23703084929019,                  43P     64
6.591396275456,9.92480675276637,-1.01258972239525,                    43P     65
6.74520868308952,9.95166694303727,-0.520026612163728,                 43P     66
6.94952908447167,9.98952377294163,-0.251849390842799,7.,10.,          43P     67
0.251849390842799,7.,10.,0.520026612163728,6.94952908447167,          43P     68
9.98952377294163,1.01258972239525,6.74520868308952,                   43P     69
9.95166694303727,1.23703084929019,6.591396275456,                     43P     70
9.92480675276637,1.59140620438418,6.23702092036201,                   43P     71
9.87418170203865,1.74521083529676,6.01258401006011,                   43P     72
9.84708301585542,1.94952559249723,5.52003555432378,                   43P     73
9.80867753236894,2.,5.25186350392679,9.79795897113272,2.,5.,          43P     74
9.79795897113272,0.604455473723514,1.20891094744703,0.,0.,0.;         43P     75
126,8,2,0,1,0,0,-3.14159265358979,-3.14159265358979,                  45P     76
-3.14159265358979,-1.5707963267949,-1.5707963267949,0.,0.,            45P     77
1.5707963267949,1.5707963267949,3.14159265358979,                     45P     78
3.14159265358979,3.14159265358979,1.,0.707106781186551,1.,            45P     79
0.707106781186551,1.,0.707106781186551,1.,0.707106781186551,1.,       45P     80
-2.,91.2,0.,-2.,89.2,0.,1.22464679914735D-16,89.2,0.,2.,89.2,0.,      45P     81
2.,91.2,0.,2.,93.2,0.,1.22464679914735D-16,93.2,0.,-2.,93.2,0.,       45P     82
-2.,91.2,0.,-3.14159265358979,3.14159265358979,0.,0.,0.;              45P     83
126,1,1,0,0,1,0,0.,0.,4.89897948556636,4.89897948556636,1.,1.,        47P     84
-2.,91.2,0.,-2.,91.2,9.79795897113271,0.,4.89897948556636,0.,0.,      47P     85
0.;                                                                   47P     86
126,17,3,0,0,1,0,0.,0.,0.,0.,0.0755590511780387,                      49P     87
0.0755590511780387,0.151118102356077,0.151118102356077,               49P     88
0.226672919608917,0.226672919608917,0.302227736861757,                49P     89
0.302227736861757,0.377782554114596,0.377782554114596,                49P     90
0.453337371367436,0.453337371367436,0.528896422545475,                49P     91
0.528896422545475,0.604455473723514,0.604455473723514,                49P     92
0.604455473723514,0.604455473723514,1.,1.,1.,1.,1.,1.,1.,1.,1.,       49P     93
1.,1.,1.,1.,1.,1.,1.,1.,1.,2.,91.2,9.79795897113271,2.,               49P     94
90.9481364960732,9.79795897113271,1.94952559249722,                   49P     95
90.6799644456762,9.80867753236894,1.74521083529676,                   49P     96
90.1874159899399,9.84708301585542,1.59140620438418,                   49P     97
89.962979079638,9.87418170203865,1.23703084929019,                    49P     98
89.608603724544,9.92480675276637,1.01258972239526,                    49P     99
89.4547913169105,9.95166694303727,0.520026612163737,                  49P    100
89.2504709155283,9.98952377294163,0.251849390842799,89.2,10.,         49P    101
-0.251849390842799,89.2,10.,-0.520026612163737,89.2504709155283,      49P    102
9.98952377294163,-1.01258972239526,89.4547913169105,                  49P    103
9.95166694303727,-1.23703084929019,89.608603724544,                   49P    104
9.92480675276637,-1.59140620438418,89.962979079638,                   49P    105
9.87418170203865,-1.74521083529677,90.1874159899399,                  49P    106
9.84708301585542,-1.94952559249723,90.6799644456762,                  49P    107
9.80867753236894,-2.,90.9481364960732,9.79795897113271,-2.,91.2,      49P    108
9.79795897113271,0.,0.604455473723514,0.,0.,0.;                       49P    109
126,17,3,0,0,1,0,0.604455473723514,0.604455473723514,                 51P    110
0.604455473723514,0.604455473723514,0.680014524901552,                51P    111
0.680014524901552,0.755573576079591,0.755573576079591,                51P    112
0.831128393332431,0.831128393332431,0.90668321058527,                 51P    113
0.90668321058527,0.98223802783811,0.98223802783811,                   51P    114
1.05779284509095,1.05779284509095,1.13335189626899,                   51P    115
1.13335189626899,1.20891094744703,1.20891094744703,                   51P    116
1.20891094744703,1.20891094744703,1.,1.,1.,1.,1.,1.,1.,1.,1.,1.,      51P    117
1.,1.,1.,1.,1.,1.,1.,1.,-2.,91.2,9.79795897113271,-2.,                51P    118
91.4518635039268,9.79795897113271,-1.94952559249722,                  51P    119
91.7200355543238,9.80867753236894,-1.74521083529676,                  51P    120
92.2125840100601,9.84708301585542,-1.59140620438418,                  51P    121
92.437020920362,9.87418170203865,-1.23703084929019,                   51P    122
92.791396275456,9.92480675276637,-1.01258972239526,                   51P    123
92.9452086830895,9.95166694303727,-0.520026612163737,                 51P    124
93.1495290844717,9.98952377294163,-0.251849390842799,93.2,10.,        51P    125
0.251849390842799,93.2,10.,0.520026612163737,93.1495290844717,        51P    126
9.98952377294163,1.01258972239526,92.9452086830895,                   51P    127
9.95166694303727,1.23703084929019,92.791396275456,                    51P    128
9.92480675276637,1.59140620438418,92.437020920362,                    51P    129
9.87418170203865,1.74521083529676,92.2125840100601,                   51P    130
9.84708301585542,1.94952559249722,91.7200355543238,                   51P    131
9.80867753236894,2.,91.4518635039268,9.79795897113271,2.,91.2,        51P    132
9.79795897113271,0.604455473723514,1.20891094744703,0.,0.,0.;         51P    133
126,4,2,0,0,0,0,0.,0.,0.,1.5707963267949,1.5707963267949,             53P    134
3.14159265358979,3.14159265358979,3.14159265358979,1.,                53P    135
0.707106781186548,1.,0.707106781186548,1.,-10.,0.,0.,-10.,0.,         53P    136
10.,-6.12323399573677D-16,0.,10.,10.,0.,10.,10.,0.,                   53P    137
3.44509284839767D-15,0.,3.14159265358979,0.,0.,0.;                    53P    138
126,1,1,0,0,1,0,0.,0.,9.62,9.62,1.,1.,10.,0.,                         55P    139
3.44509284839767D-15,10.,96.2,3.44509284839767D-15,0.,9.62,0.,        55P    140
0.,0.;                                                                55P    141
126,4,2,0,0,0,0,0.,0.,0.,1.5707963267949,1.5707963267949,             57P    142
3.14159265358979,3.14159265358979,3.14159265358979,1.,                57P    143
0.707106781186548,1.,0.707106781186548,1.,-10.,96.2,0.,-10.,          57P    144
96.2,10.,-6.12323399573677D-16,96.2,10.,10.,96.2,10.,10.,96.2,        57P    145
3.44509284839767D-15,0.,3.14159265358979,0.,0.,0.;                    57P    146
126,1,1,0,0,1,0,0.,0.,9.62,9.62,1.,1.,-10.,0.,0.,-10.,96.2,0.,        59P    147
0.,9.62,0.,0.,0.;                                                     59P    148
126,1,1,0,0,1,0,-1.,-1.,1.,1.,1.,1.,10.,0.,0.,-10.,0.,0.,-1.,1.,      61P    149
0.,0.,0.;                                                             61P    150
126,1,1,0,0,1,0,-1.,-1.,1.,1.,1.,1.,10.,96.2,0.,-10.,96.2,0.,         63P    151
-1.,1.,0.,0.,0.;                                                      63P    152
128,1,8,1,2,0,1,0,0,1,0.,0.,5.,5.,-3.14159265358979,                  65P    153
-3.14159265358979,-3.14159265358979,-1.5707963267949,                 65P    154
-1.5707963267949,0.,0.,1.5707963267949,1.5707963267949,               65P    155
3.14159265358979,3.14159265358979,3.14159265358979,1.,1.,             65P    156
0.707106781186548,0.707106781186548,1.,1.,0.707106781186548,          65P    157
0.707106781186548,1.,1.,0.707106781186548,0.707106781186548,1.,       65P    158
1.,0.707106781186548,0.707106781186548,1.,1.,-2.,5.,0.,-2.,5.,        65P    159
10.,-2.,3.,0.,-2.,3.,10.,0.,3.,0.,0.,3.,10.,2.,3.,0.,2.,3.,10.,       65P    160
2.,5.,0.,2.,5.,10.,2.,7.,0.,2.,7.,10.,0.,7.,0.,0.,7.,10.,-2.,7.,      65P    161
0.,-2.,7.,10.,-2.,5.,0.,-2.,5.,10.,0.,5.,-3.14159265358979,           65P    162
3.14159265358979;                                                     65P    163
128,1,8,1,2,0,1,0,0,1,0.,0.,5.,5.,-3.14159265358979,                  67P    164
-3.14159265358979,-3.14159265358979,-1.5707963267949,                 67P    165
-1.5707963267949,0.,0.,1.5707963267949,1.5707963267949,               67P    166
3.14159265358979,3.14159265358979,3.14159265358979,1.,1.,             67P    167
0.707106781186548,0.707106781186548,1.,1.,0.707106781186548,          67P    168
0.707106781186548,1.,1.,0.707106781186548,0.707106781186548,1.,       67P    169
1.,0.707106781186548,0.707106781186548,1.,1.,-2.,91.2,0.,-2.,         67P    170
91.2,10.,-2.,89.2,0.,-2.,89.2,10.,0.,89.2,0.,0.,89.2,10.,2.,          67P    171
89.2,0.,2.,89.2,10.,2.,91.2,0.,2.,91.2,10.,2.,93.2,0.,2.,93.2,        67P    172
10.,0.,93.2,0.,0.,93.2,10.,-2.,93.2,0.,-2.,93.2,10.,-2.,91.2,0.,      67P    173
-2.,91.2,10.,0.,5.,-3.14159265358979,3.14159265358979;                67P    174
128,1,4,1,2,0,0,0,0,0,0.,0.,9.62,9.62,0.,0.,0.,1.5707963267949,       69P    175
1.5707963267949,3.14159265358979,3.14159265358979,                    69P    176
3.14159265358979,1.,1.,0.707106781186548,0.707106781186548,1.,        69P    177
1.,0.707106781186548,0.707106781186548,1.,1.,-10.,96.2,0.,-10.,       69P    178
0.,0.,-10.,96.2,10.,-10.,0.,10.,0.,96.2,10.,0.,0.,10.,10.,96.2,       69P    179
10.,10.,0.,10.,10.,96.2,2.22044604925031D-15,10.,0.,                  69P    180
2.22044604925031D-15,0.,9.62,0.,3.14159265358979;                     69P    181
128,1,1,1,1,0,0,1,0,0,-0.001,-0.001,2.001,2.001,-0.001,-0.001,        71P    182
9.621,9.621,1.,1.,1.,1.,10.01,-0.01,0.,-10.01,-0.01,0.,10.01,         71P    183
96.21,0.,-10.01,96.21,0.,-0.001,2.001,-0.001,9.621;                   71P    184
128,1,1,1,1,0,0,1,0,0,-1.001,-1.001,1.001,1.001,-0.501,-0.501,        73P    185
0.501,0.501,1.,1.,1.,1.,-10.01,96.2,10.01,10.01,96.2,10.01,           73P    186
-10.01,96.2,-0.01,10.01,96.2,-0.0099999999999989,-1.001,1.001,        73P    187
-0.501,0.501;                                                         73P    188
128,1,1,1,1,0,0,1,0,0,-1.001,-1.001,1.001,1.001,-0.501,-0.501,        75P    189
0.501,0.501,1.,1.,1.,1.,10.01,0.,10.01,-10.01,0.,10.01,10.01,0.,      75P    190
-0.0099999999999989,-10.01,0.,-0.01,-1.001,1.001,-0.501,0.501;        75P    191
502,10,-2.,5.,0.,-2.,5.,9.79795897113272,2.,5.,9.79795897113272,      77P    192
-2.,91.2,0.,-2.,91.2,9.79795897113271,2.,91.2,9.79795897113271,       77P    193
-10.,0.,0.,10.,0.,3.44509284839767D-15,10.,96.2,                      77P    194
3.44509284839767D-15,-10.,96.2,0.;                                    77P    195
504,14,37,77,1,77,1,39,77,1,77,2,41,77,3,77,2,43,77,2,77,3,45,        79P    196
77,4,77,4,47,77,4,77,5,49,77,6,77,5,51,77,5,77,6,53,77,7,77,8,        79P    197
55,77,8,77,9,57,77,10,77,9,59,77,7,77,10,61,77,8,77,7,63,77,9,        79P    198
77,10;                                                                79P    199
406,1,5HBody1;                                                        81P    200
314,62.7450980392157,62.7450980392157,62.7450980392157,13HSteel       83P    201
- Satin;                                                              83P    202
S      1G      3D     84P    202                                        T      1
