22700 0 2 4           
30 Autodesk Translation Framework 20 ASM 227.7.2.65535 NT 24 Fri Mar 25 20:17:34 2022 
1 9.999999999999999547e-07 1.000000000000000036e-10 
asmheader $-1 -1 @13 227.7.2.65535 #
body $2 -1 $-1 $3 $-1 $4 #
rgb_color-st-attrib $-1 -1 $5 $-1 $1 0.627450980392156854 0.627450980392156854 0.627450980392156854 1 #
lump $-1 -1 $-1 $-1 $6 $1 #
transform $-1 -1 1 0 0 0 1 0 0 0 1 0 0 0 1 no_rotate no_reflect no_shear #
ATTRIB_CUSTOM-attrib $-1 -1 $-1 $2 $1 @20 Timestamp_attrib_def 1 1586046038111158 #
shell $-1 -1 $-1 $-1 $-1 $7 $-1 $3 #
face $8 -1 $-1 $9 $10 $6 $-1 $11 reversed single #
DXID-attrib $-1 -1 $-1 $-1 $7 @10 ASM ENTITY @1 0 #
face $12 -1 $-1 $13 $14 $6 $-1 $15 reversed single #
loop $-1 -1 $-1 $16 $17 $7 #
cone-surface $-1 -1 $-1 0 5 0 0 0 1 1.999999999999999556 0 0 1 I I 0 1 1.999999999999999556 forward I I I I #
DXID-attrib $-1 -1 $-1 $-1 $9 @10 ASM ENTITY @1 1 #
face $18 -1 $-1 $19 $20 $6 $-1 $21 forward single #
loop $-1 -1 $-1 $22 $23 $9 #
cone-surface $-1 -1 $-1 0 91.20000000000001705 0 0 0 1 2 0 0 1 I I 0 1 2 forward I I I I #
loop $-1 -1 $-1 $-1 $24 $7 #
coedge $-1 -1 $-1 $17 $17 $25 $26 reversed $10 0 $-1 #
DXID-attrib $-1 -1 $-1 $-1 $13 @10 ASM ENTITY @1 2 #
face $27 -1 $-1 $28 $29 $6 $-1 $30 forward single #
loop $-1 -1 $-1 $31 $25 $13 #
cone-surface $-1 -1 $-1 1.11022302462515654e-15 0 1.11022302462515654e-15 0 1 0 -10 0 -1.11022302462515654e-15 1 I I 0 1 10 forward I I I I #
loop $-1 -1 $-1 $-1 $32 $9 #
coedge $-1 -1 $-1 $23 $23 $33 $34 reversed $14 0 $-1 #
coedge $35 -1 $-1 $24 $24 $36 $37 reversed $16 0 $-1 #
coedge $-1 -1 $-1 $25 $25 $17 $26 forward $20 0 $-1 #
edge $-1 -1 $-1 $38 0 $38 1.208910947447028317 $25 $39 forward @7 unknown #
DXID-attrib $-1 -1 $-1 $-1 $19 @10 ASM ENTITY @1 3 #
face $40 -1 $-1 $41 $42 $6 $-1 $43 forward single #
loop $-1 -1 $-1 $44 $36 $19 #
plane-surface $-1 -1 $-1 10 0 0 0 0 -1 -10 0 0 forward_v I I I I #
loop $-1 -1 $-1 $45 $33 $13 #
coedge $46 -1 $-1 $32 $32 $47 $48 reversed $22 0 $-1 #
coedge $-1 -1 $-1 $33 $33 $23 $34 forward $31 0 $-1 #
edge $-1 -1 $-1 $49 0 $49 1.208910947447027429 $33 $50 forward @7 unknown #
ATTRIB_CUSTOM-attrib $-1 -1 $-1 $-1 $24 @17 sketch_attrib_def 1 1 3 @13 134 0 0 0 1 1 #
coedge $-1 -1 $-1 $36 $36 $24 $37 forward $29 0 $-1 #
edge $-1 -1 $-1 $51 -3.141592653589793116 $51 3.141592653589793116 $36 $52 forward @7 unknown #
vertex $-1 -1 $-1 $26 0 $53 #
intcurve-curve $-1 -1 $-1 forward { int_int_cur 22507 full nubs 3 periodic 17 
	0 3 0.07555905117803884963 2 0.1511181023560776993 2 0.226672919608917417 2 0.3022277368617571347 2 
	0.3777825541145968802 2 0.4533373713674366257 2 0.5288964225454754198 2 0.6044554737235142694 2 0.680014524901553008 2 
	0.7555735760795918576 2 0.8311283933324316031 2 0.9066832105852712376 2 0.982238027838110872 2 1.057792845090950618 2 
	1.133351896268989467 2 1.208910947447028317 3 
	1.999999999999999556 5 9.797958971132715078 
	1.999999999999999556 4.748136496073204427 9.797958971132715078 
	1.949525592497227677 4.479964445676218432 9.808677532368935914 
	1.745210835296764573 3.987415989939892214 9.847083015855417898 
	1.591406204384176348 3.762979079637986946 9.874181702038654862 
	1.237030849290187362 3.408603724543998403 9.924806752766368589 
	1.012589722395251135 3.254791316910485843 9.95166694303727084 
	0.5200266121637291405 3.050470915528331606 9.989523772941629076 
	0.251849390842798726 3.000000000000000444 10 
	-0.2518493908427994477 3.000000000000000444 10 
	-0.5200266121637298067 3.050470915528331606 9.989523772941629076 
	-1.012589722395251579 3.254791316910485843 9.95166694303727084 
	-1.237030849290188028 3.408603724543998403 9.924806752766368589 
	-1.591406204384177014 3.762979079637988278 9.874181702038654862 
	-1.745210835296764573 3.987415989939893102 9.847083015855416122 
	-1.949525592497227455 4.479964445676218432 9.808677532368935914 
	-1.999999999999999556 4.748136496073204427 9.797958971132715078 
	-1.999999999999999556 5.251863503926795573 9.797958971132715078 
	-1.949525592497226789 5.520035554323781568 9.808677532368935914 
	-1.745210835296764129 6.012584010060106898 9.847083015855416122 
	-1.591406204384176792 6.237020920362013499 9.874181702038654862 
	-1.237030849290187362 6.591396275456001597 9.924806752766368589 
	-1.012589722395249803 6.745208683089515489 9.95166694303727084 
	-0.5200266121637276973 6.949529084471669726 9.989523772941629076 
	-0.251849390842798726 7 10 
	0.2518493908427990591 7 10 
	0.5200266121637284744 6.949529084471668838 9.989523772941629076 
	1.012589722395250247 6.745208683089515489 9.951666943037272617 
	1.237030849290187362 6.591396275456002485 9.924806752766368589 
	1.591406204384176348 6.237020920362013499 9.874181702038654862 
	1.745210835296764351 6.012584010060106898 9.847083015855417898 
	1.949525592497227233 5.520035554323781568 9.808677532368935914 
	1.999999999999999556 5.251863503926795573 9.797958971132715078 
	1.999999999999999556 5 9.797958971132715078 
	0.00155276808163130756 
	
	cone 0 5 0 0 0 1 1.999999999999999556 0 0 1 I I 0 1 1.999999999999999556 forward I I I I 
	cone 1.11022302462515654e-15 0 1.11022302462515654e-15 0 1 0 -10 0 -1.11022302462515654e-15 1 I I 0 1 10 forward I I I I 
	nullbs 
	nullbs 
	I I 
	0 
	0 
	0 
	
	0 } I I #
DXID-attrib $-1 -1 $-1 $-1 $28 @10 ASM ENTITY @1 4 #
face $54 -1 $-1 $-1 $55 $6 $-1 $56 reversed single #
loop $-1 -1 $-1 $-1 $57 $28 #
plane-surface $-1 -1 $-1 5.551115123125782702e-16 96.20000000000001705 5.000000000000000888 0 1 0 10 0 0 forward_v I I I I #
loop $-1 -1 $-1 $58 $47 $19 #
loop $-1 -1 $-1 $-1 $59 $13 #
ATTRIB_CUSTOM-attrib $-1 -1 $-1 $-1 $32 @17 sketch_attrib_def 1 1 3 @13 140 0 0 0 1 1 #
coedge $-1 -1 $-1 $47 $47 $32 $48 forward $44 0 $-1 #
edge $-1 -1 $-1 $60 -3.141592653589793116 $60 3.141592653589793116 $47 $61 forward @7 unknown #
vertex $-1 -1 $-1 $34 0 $62 #
intcurve-curve $-1 -1 $-1 forward { int_int_cur 22507 full nubs 3 periodic 17 
	0 3 0.07555905117803868309 2 0.1511181023560773662 2 0.2266729196089170839 2 0.3022277368617568016 2 
	0.3777825541145964916 2 0.4533373713674362371 2 0.5288964225454748647 2 0.6044554737235136033 2 0.6800145249015523419 2 
	0.7555735760795909695 2 0.8311283933324307149 2 0.9066832105852704604 2 0.9822380278381102059 2 1.057792845090949951 2 
	1.133351896268988579 2 1.208910947447027429 3 
	2 91.20000000000001705 9.797958971132715078 
	2 90.94813649607320372 9.797958971132715078 
	1.949525592497222348 90.67996444567620529 9.808677532368939467 
	1.74521083529675769 90.18741598993989328 9.847083015855419674 
	1.591406204384177681 89.96297907963800355 9.874181702038654862 
	1.237030849290189138 89.60860372454402523 9.924806752766368589 
	1.012589722395258907 89.45479131691050156 9.95166694303727084 
	0.5200266121637366901 89.25047091552833933 9.9895237729416273 
	0.251849390842798726 89.20000000000001705 10 
	-0.2518493908427993366 89.20000000000001705 10 
	-0.5200266121637366901 89.25047091552833933 9.989523772941629076 
	-1.012589722395258907 89.45479131691050156 9.95166694303727084 
	-1.237030849290189582 89.60860372454402523 9.924806752766368589 
	-1.591406204384177903 89.96297907963800355 9.874181702038654862 
	-1.745210835296770568 90.18741598993989328 9.847083015855416122 
	-1.949525592497229898 90.67996444567623371 9.808677532368935914 
	-2 90.94813649607320372 9.797958971132715078 
	-2 91.45186350392680197 9.797958971132713302 
	-1.949525592497222792 91.72003555432381461 9.808677532368935914 
	-1.745210835296757912 92.21258401006012662 9.847083015855417898 
	-1.591406204384177681 92.43702092036201634 9.874181702038654862 
	-1.237030849290189582 92.79139627545600888 9.924806752766368589 
	-1.012589722395259351 92.94520868308951833 9.95166694303727084 
	-0.5200266121637366901 93.14952908447168056 9.9895237729416273 
	-0.2518493908427988925 93.20000000000000284 10 
	0.2518493908427991701 93.20000000000000284 10 
	0.5200266121637369121 93.14952908447168056 9.9895237729416273 
	1.012589722395259351 92.94520868308951833 9.95166694303727084 
	1.23703084929018936 92.79139627545600888 9.924806752766368589 
	1.591406204384177236 92.43702092036201634 9.874181702038654862 
	1.745210835296757912 92.21258401006012662 9.847083015855419674 
	1.949525592497222792 91.72003555432381461 9.808677532368939467 
	2 91.45186350392680197 9.797958971132715078 
	2 91.20000000000001705 9.797958971132715078 
	0.001552768081629356429 
	
	cone 0 91.20000000000001705 0 0 0 1 2 0 0 1 I I 0 1 2 forward I I I I 
	cone 1.11022302462515654e-15 0 1.11022302462515654e-15 0 1 0 -10 0 -1.11022302462515654e-15 1 I I 0 1 10 forward I I I I 
	nullbs 
	nullbs 
	I I 
	0 
	0 
	0 
	
	0 } I I #
vertex $-1 -1 $-1 $37 0 $63 #
ellipse-curve $-1 -1 $-1 0 5 0 0 0 1 1.999999999999999556 0 0 1 I I #
point $-1 -1 $-1 1.999999999999999334 5 9.797958971132715078 #
DXID-attrib $-1 -1 $-1 $-1 $41 @10 ASM ENTITY @1 5 #
loop $-1 -1 $-1 $-1 $64 $41 #
plane-surface $-1 -1 $-1 5.551115123125782702e-16 0 5.000000000000000888 0 1 0 10 0 0 forward_v I I I I #
coedge $-1 -1 $-1 $65 $65 $66 $67 forward $42 0 $-1 #
loop $-1 -1 $-1 $-1 $68 $19 #
coedge $69 -1 $-1 $70 $71 $72 $73 forward $45 0 $-1 #
vertex $-1 -1 $-1 $48 0 $74 #
ellipse-curve $-1 -1 $-1 0 91.20000000000001705 0 0 0 1 2 0 0 1 I I #
point $-1 -1 $-1 2.000000000000000444 91.20000000000003126 9.797958971132713302 #
point $-1 -1 $-1 -1.999999999999999556 5 0 #
coedge $75 -1 $-1 $72 $72 $68 $76 reversed $55 0 $-1 #
coedge $-1 -1 $-1 $57 $57 $77 $78 forward $42 0 $-1 #
coedge $-1 -1 $-1 $79 $80 $57 $67 reversed $58 0 $-1 #
edge $-1 -1 $-1 $81 -1 $82 0.999999999999999889 $66 $83 forward @7 unknown #
coedge $84 -1 $-1 $80 $79 $64 $76 forward $58 0 $-1 #
ATTRIB_CUSTOM-attrib $-1 -1 $-1 $-1 $59 @17 sketch_attrib_def 1 1 3 @13 110 0 0 0 1 1 #
coedge $-1 -1 $-1 $77 $59 $79 $85 forward $45 0 $-1 #
coedge $-1 -1 $-1 $59 $77 $80 $86 reversed $45 0 $-1 #
coedge $87 -1 $-1 $64 $64 $59 $73 reversed $55 0 $-1 #
edge $-1 -1 $-1 $88 0 $89 3.141592653589793116 $59 $90 forward @7 unknown #
point $-1 -1 $-1 -2 91.20000000000001705 0 #
ATTRIB_CUSTOM-attrib $-1 -1 $91 $-1 $64 @17 sketch_attrib_def 1 1 3 @13 106 0 0 0 1 1 #
edge $-1 -1 $-1 $89 -1 $88 0.999999999999999889 $68 $92 forward @7 unknown #
coedge $-1 -1 $-1 $71 $70 $65 $78 reversed $45 0 $-1 #
edge $-1 -1 $-1 $82 0 $81 3.141592653589793116 $77 $93 forward @7 unknown #
coedge $-1 -1 $-1 $68 $66 $70 $85 reversed $58 0 $-1 #
coedge $-1 -1 $-1 $66 $68 $71 $86 forward $58 0 $-1 #
vertex $-1 -1 $-1 $85 1 $94 #
vertex $-1 -1 $-1 $86 1 $95 #
straight-curve $-1 -1 $-1 0 96.20000000000001705 0 -10 0 0 I I #
ATTRIB_CUSTOM-attrib $-1 -1 $96 $-1 $68 @17 sketch_attrib_def 1 1 3 @13 103 0 1 0 1 1 #
edge $-1 -1 $-1 $89 0 $81 9.620000000000000995 $79 $97 forward @7 unknown #
edge $-1 -1 $-1 $88 0 $82 9.620000000000000995 $80 $98 forward @7 unknown #
ATTRIB_CUSTOM-attrib $-1 -1 $-1 $-1 $72 @17 sketch_attrib_def 1 1 3 @13 110 0 0 0 1 1 #
vertex $-1 -1 $-1 $76 1 $99 #
vertex $-1 -1 $-1 $73 1 $100 #
ellipse-curve $-1 -1 $-1 1.11022302462515654e-15 0 1.11022302462515654e-15 0 1 0 -10 0 -1.11022302462515654e-15 1 F 0 F 3.141592653589793116 #
ATTRIB_CUSTOM-attrib $-1 -1 $-1 $75 $64 @17 sketch_attrib_def 1 1 3 @13 103 0 1 0 1 1 #
straight-curve $-1 -1 $-1 0 0 0 -10 0 0 F -1 F 0.999999999999999889 #
ellipse-curve $-1 -1 $-1 1.11022302462515654e-15 96.20000000000001705 1.11022302462515654e-15 0 1 0 -10 0 -1.11022302462515654e-15 1 I I #
point $-1 -1 $-1 10 96.20000000000001705 3.445092848397666535e-15 #
point $-1 -1 $-1 -10 96.20000000000001705 0 #
ATTRIB_CUSTOM-attrib $-1 -1 $-1 $84 $68 @17 sketch_attrib_def 1 1 3 @13 106 0 0 0 1 1 #
straight-curve $-1 -1 $-1 10 0 3.445092848397666535e-15 0 10 0 I I #
straight-curve $-1 -1 $-1 -9.999999999999998224 0 0 0 10 0 I I #
point $-1 -1 $-1 -9.999999999999998224 0 0 #
point $-1 -1 $-1 10 0 3.445092848397666535e-15 #
End-of-ASM-data 