22700 0 2 4           
30 Autodesk Translation Framework 20 ASM 227.7.2.65535 NT 24 Fri Mar 25 21:00:25 2022 
1 9.999999999999999547e-07 1.000000000000000036e-10 
asmheader $-1 -1 @13 227.7.2.65535 #
body $2 -1 $-1 $3 $-1 $4 #
rgb_color-st-attrib $-1 -1 $5 $-1 $1 0.627450980392156854 0.627450980392156854 0.627450980392156854 1 #
lump $-1 -1 $-1 $-1 $6 $1 #
transform $-1 -1 1 0 0 0 1 0 0 0 1 0 0 0 1 no_rotate no_reflect no_shear #
ATTRIB_CUSTOM-attrib $-1 -1 $-1 $2 $1 @20 Timestamp_attrib_def 1 1602871995278038 #
shell $-1 -1 $-1 $-1 $-1 $7 $-1 $3 #
face $8 -1 $-1 $9 $10 $6 $-1 $11 reversed single #
DXID-attrib $-1 -1 $-1 $-1 $7 @10 ASM ENTITY @1 0 #
face $12 -1 $-1 $13 $14 $6 $-1 $15 reversed single #
loop $-1 -1 $-1 $16 $17 $7 #
cone-surface $-1 -1 $-1 93.89999999999997726 0 -14.99999999999997868 0 1 0 1.999999999999992895 0 0 1 I I 0 1 1.999999999999992895 forward I I I I #
DXID-attrib $-1 -1 $-1 $-1 $9 @10 ASM ENTITY @1 1 #
face $18 -1 $-1 $19 $20 $6 $-1 $21 reversed single #
loop $-1 -1 $-1 $22 $23 $9 #
cone-surface $-1 -1 $-1 -43.90000000000000568 0 -15.00000000000005329 0 1 0 2.000000000000001776 0 0 1 I I 0 1 2.000000000000001776 forward I I I I #
loop $-1 -1 $-1 $-1 $24 $7 #
coedge $-1 -1 $-1 $17 $17 $25 $26 reversed $10 0 $-1 #
DXID-attrib $-1 -1 $-1 $-1 $13 @10 ASM ENTITY @1 2 #
face $27 -1 $-1 $28 $29 $6 $-1 $30 reversed single #
loop $-1 -1 $-1 $31 $32 $13 #
cone-surface $-1 -1 $-1 -93.90000000000000568 0 -15.00000000000005329 0 1 0 1.999999999999992895 0 0 1 I I 0 1 1.999999999999992895 forward I I I I #
loop $-1 -1 $-1 $-1 $33 $9 #
coedge $-1 -1 $-1 $23 $23 $34 $35 reversed $14 0 $-1 #
coedge $36 -1 $-1 $24 $24 $37 $38 reversed $16 0 $-1 #
coedge $-1 -1 $-1 $25 $25 $17 $26 forward $39 0 $-1 #
edge $-1 -1 $-1 $40 -3.141592653589793116 $40 3.141592653589793116 $25 $41 forward @7 unknown #
DXID-attrib $-1 -1 $-1 $-1 $19 @10 ASM ENTITY @1 3 #
face $42 -1 $-1 $43 $44 $6 $-1 $45 reversed single #
loop $-1 -1 $-1 $46 $47 $19 #
cone-surface $-1 -1 $-1 93.89999999999997726 0 15.00000000000002132 0 1 0 1.999999999999992895 0 0 1 I I 0 1 1.999999999999992895 forward I I I I #
loop $-1 -1 $-1 $-1 $48 $13 #
coedge $-1 -1 $-1 $32 $32 $49 $50 reversed $20 0 $-1 #
coedge $51 -1 $-1 $33 $33 $52 $53 reversed $22 0 $-1 #
coedge $-1 -1 $-1 $34 $34 $23 $35 forward $54 0 $-1 #
edge $-1 -1 $-1 $55 -3.141592653589793116 $55 3.141592653589793116 $34 $56 forward @7 unknown #
ATTRIB_CUSTOM-attrib $-1 -1 $-1 $-1 $24 @17 sketch_attrib_def 1 1 3 @13 148 0 0 0 1 1 #
coedge $-1 -1 $-1 $37 $37 $24 $38 forward $57 0 $-1 #
edge $-1 -1 $-1 $58 -3.141592653589793116 $58 3.141592653589793116 $37 $59 forward @7 unknown #
loop $-1 -1 $-1 $54 $25 $60 #
vertex $-1 -1 $-1 $26 0 $61 #
ellipse-curve $-1 -1 $-1 93.89999999999997726 3.174999999999999822 -14.99999999999997868 -0 -1 -0 1.999999999999992895 0 0 1 I I #
DXID-attrib $-1 -1 $-1 $-1 $28 @10 ASM ENTITY @1 4 #
face $62 -1 $-1 $63 $64 $6 $-1 $65 reversed single #
loop $-1 -1 $-1 $66 $67 $28 #
cone-surface $-1 -1 $-1 43.89999999999997016 0 15.00000000000002132 0 1 0 2.000000000000001776 0 0 1 I I 0 1 2.000000000000001776 forward I I I I #
loop $-1 -1 $-1 $-1 $68 $19 #
coedge $-1 -1 $-1 $47 $47 $69 $70 reversed $29 0 $-1 #
coedge $71 -1 $-1 $48 $48 $72 $73 reversed $31 0 $-1 #
coedge $-1 -1 $-1 $49 $49 $32 $50 forward $74 0 $-1 #
edge $-1 -1 $-1 $75 -3.141592653589793116 $75 3.141592653589793116 $49 $76 forward @7 unknown #
ATTRIB_CUSTOM-attrib $-1 -1 $-1 $-1 $33 @17 sketch_attrib_def 1 1 3 @13 158 0 0 0 1 1 #
coedge $-1 -1 $-1 $52 $52 $33 $53 forward $77 0 $-1 #
edge $-1 -1 $-1 $78 -3.141592653589793116 $78 3.141592653589793116 $52 $79 forward @7 unknown #
loop $-1 -1 $-1 $74 $34 $60 #
vertex $-1 -1 $-1 $35 0 $80 #
ellipse-curve $-1 -1 $-1 -43.90000000000000568 3.174999999999999822 -15.00000000000005329 -0 -1 -0 2.000000000000001776 0 0 1 I I #
loop $-1 -1 $-1 $77 $37 $81 #
vertex $-1 -1 $-1 $38 0 $82 #
ellipse-curve $-1 -1 $-1 93.89999999999997726 0 -14.99999999999997868 0 1 0 1.999999999999992895 0 0 1 I I #
face $83 -1 $-1 $81 $39 $6 $-1 $84 forward single #
point $-1 -1 $-1 91.89999999999997726 3.174999999999999822 -14.99999999999997868 #
DXID-attrib $-1 -1 $-1 $-1 $43 @10 ASM ENTITY @1 5 #
face $85 -1 $-1 $86 $87 $6 $-1 $88 reversed single #
loop $-1 -1 $-1 $89 $90 $43 #
cone-surface $-1 -1 $-1 -43.90000000000000568 0 14.99999999999994671 0 1 0 2.000000000000001776 0 0 1 I I 0 1 2.000000000000001776 forward I I I I #
loop $-1 -1 $-1 $-1 $91 $28 #
coedge $-1 -1 $-1 $67 $67 $92 $93 reversed $44 0 $-1 #
coedge $94 -1 $-1 $68 $68 $95 $96 reversed $46 0 $-1 #
coedge $-1 -1 $-1 $69 $69 $47 $70 forward $97 0 $-1 #
edge $-1 -1 $-1 $98 -3.141592653589793116 $98 3.141592653589793116 $69 $99 forward @7 unknown #
ATTRIB_CUSTOM-attrib $-1 -1 $-1 $-1 $48 @17 sketch_attrib_def 1 1 3 @13 135 0 0 0 1 1 #
coedge $-1 -1 $-1 $72 $72 $48 $73 forward $100 0 $-1 #
edge $-1 -1 $-1 $101 -3.141592653589793116 $101 3.141592653589793116 $72 $102 forward @7 unknown #
loop $-1 -1 $-1 $97 $49 $60 #
vertex $-1 -1 $-1 $50 0 $103 #
ellipse-curve $-1 -1 $-1 -93.90000000000000568 3.174999999999999822 -15.00000000000005329 -0 -1 -0 1.999999999999992895 0 0 1 I I #
loop $-1 -1 $-1 $100 $52 $81 #
vertex $-1 -1 $-1 $53 0 $104 #
ellipse-curve $-1 -1 $-1 -43.90000000000000568 0 -15.00000000000005329 0 1 0 2.000000000000001776 0 0 1 I I #
point $-1 -1 $-1 -45.90000000000000568 3.174999999999999822 -15.00000000000005329 #
face $105 -1 $-1 $-1 $57 $6 $-1 $106 reversed single #
point $-1 -1 $-1 91.89999999999997726 0 -14.99999999999997868 #
DXID-attrib $-1 -1 $-1 $-1 $60 @10 ASM ENTITY @2 13 #
plane-surface $-1 -1 $-1 -1.776356839400250465e-14 3.174999999999999822 1.776356839400250465e-14 0 1 0 0 0 10 forward_v I I I I #
DXID-attrib $-1 -1 $-1 $-1 $63 @10 ASM ENTITY @1 6 #
face $107 -1 $-1 $108 $109 $6 $-1 $110 reversed single #
loop $-1 -1 $-1 $111 $112 $63 #
cone-surface $-1 -1 $-1 -93.90000000000000568 0 14.99999999999994671 0 1 0 1.999999999999992895 0 0 1 I I 0 1 1.999999999999992895 forward I I I I #
loop $-1 -1 $-1 $-1 $113 $43 #
coedge $-1 -1 $-1 $90 $90 $114 $115 reversed $64 0 $-1 #
coedge $116 -1 $-1 $91 $91 $117 $118 reversed $66 0 $-1 #
coedge $-1 -1 $-1 $92 $92 $67 $93 forward $119 0 $-1 #
edge $-1 -1 $-1 $120 -3.141592653589793116 $120 3.141592653589793116 $92 $121 forward @7 unknown #
ATTRIB_CUSTOM-attrib $-1 -1 $-1 $-1 $68 @17 sketch_attrib_def 1 1 3 @13 146 0 0 0 1 1 #
coedge $-1 -1 $-1 $95 $95 $68 $96 forward $122 0 $-1 #
edge $-1 -1 $-1 $123 -3.141592653589793116 $123 3.141592653589793116 $95 $124 forward @7 unknown #
loop $-1 -1 $-1 $119 $69 $60 #
vertex $-1 -1 $-1 $70 0 $125 #
ellipse-curve $-1 -1 $-1 93.89999999999997726 3.174999999999999822 15.00000000000002132 -0 -1 -0 1.999999999999992895 0 0 1 I I #
loop $-1 -1 $-1 $122 $72 $81 #
vertex $-1 -1 $-1 $73 0 $126 #
ellipse-curve $-1 -1 $-1 -93.90000000000000568 0 -15.00000000000005329 0 1 0 1.999999999999992895 0 0 1 I I #
point $-1 -1 $-1 -95.90000000000000568 3.174999999999999822 -15.00000000000005329 #
point $-1 -1 $-1 -45.90000000000000568 0 -15.00000000000005329 #
DXID-attrib $-1 -1 $-1 $-1 $81 @10 ASM ENTITY @2 14 #
plane-surface $-1 -1 $-1 -1.776356839400250465e-14 0 1.776356839400250465e-14 0 1 0 10 0 0 forward_v I I I I #
DXID-attrib $-1 -1 $-1 $-1 $86 @10 ASM ENTITY @1 7 #
face $127 -1 $-1 $128 $129 $6 $-1 $130 reversed single #
loop $-1 -1 $-1 $131 $132 $86 #
cone-surface $-1 -1 $-1 0 0 0 0 1 0 6.000000000000000888 0 0 1 I I 0 1 6.000000000000000888 forward I I I I #
loop $-1 -1 $-1 $-1 $133 $63 #
coedge $-1 -1 $-1 $112 $112 $134 $135 reversed $87 0 $-1 #
coedge $136 -1 $-1 $113 $113 $137 $138 reversed $89 0 $-1 #
coedge $-1 -1 $-1 $114 $114 $90 $115 forward $139 0 $-1 #
edge $-1 -1 $-1 $140 -3.141592653589793116 $140 3.141592653589793116 $114 $141 forward @7 unknown #
ATTRIB_CUSTOM-attrib $-1 -1 $-1 $-1 $91 @17 sketch_attrib_def 1 1 3 @13 160 0 0 0 1 1 #
coedge $-1 -1 $-1 $117 $117 $91 $118 forward $142 0 $-1 #
edge $-1 -1 $-1 $143 -3.141592653589793116 $143 3.141592653589793116 $117 $144 forward @7 unknown #
loop $-1 -1 $-1 $139 $92 $60 #
vertex $-1 -1 $-1 $93 0 $145 #
ellipse-curve $-1 -1 $-1 43.89999999999997016 3.174999999999999822 15.00000000000002132 -0 -1 -0 2.000000000000001776 0 0 1 I I #
loop $-1 -1 $-1 $142 $95 $81 #
vertex $-1 -1 $-1 $96 0 $146 #
ellipse-curve $-1 -1 $-1 93.89999999999997726 0 15.00000000000002132 0 1 0 1.999999999999992895 0 0 1 I I #
point $-1 -1 $-1 91.89999999999997726 3.174999999999999822 15.00000000000002132 #
point $-1 -1 $-1 -95.90000000000000568 0 -15.00000000000005329 #
DXID-attrib $-1 -1 $-1 $-1 $108 @10 ASM ENTITY @1 8 #
face $147 -1 $-1 $148 $149 $6 $-1 $150 forward single #
loop $-1 -1 $-1 $151 $152 $108 #
cone-surface $-1 -1 $-1 43.89999999999997016 0 -14.99999999999997868 0 1 0 2.000000000000001776 0 0 1 I I 0 1 2.000000000000001776 forward I I I I #
loop $-1 -1 $-1 $-1 $153 $86 #
coedge $-1 -1 $-1 $132 $132 $154 $155 reversed $109 0 $-1 #
coedge $156 -1 $-1 $133 $133 $157 $158 reversed $111 0 $-1 #
coedge $-1 -1 $-1 $134 $134 $112 $135 forward $159 0 $-1 #
edge $-1 -1 $-1 $160 -3.141592653589793116 $160 3.141592653589793116 $134 $161 forward @7 unknown #
ATTRIB_CUSTOM-attrib $-1 -1 $-1 $-1 $113 @17 sketch_attrib_def 1 1 3 @13 156 0 0 0 1 1 #
coedge $-1 -1 $-1 $137 $137 $113 $138 forward $162 0 $-1 #
edge $-1 -1 $-1 $163 -3.141592653589793116 $163 3.141592653589793116 $137 $164 forward @7 unknown #
loop $-1 -1 $-1 $159 $114 $60 #
vertex $-1 -1 $-1 $115 0 $165 #
ellipse-curve $-1 -1 $-1 -43.90000000000000568 3.174999999999999822 14.99999999999994671 -0 -1 -0 2.000000000000001776 0 0 1 I I #
loop $-1 -1 $-1 $162 $117 $81 #
vertex $-1 -1 $-1 $118 0 $166 #
ellipse-curve $-1 -1 $-1 43.89999999999997016 0 15.00000000000002132 0 1 0 2.000000000000001776 0 0 1 I I #
point $-1 -1 $-1 41.89999999999997016 3.174999999999999822 15.00000000000002132 #
point $-1 -1 $-1 91.89999999999997726 0 15.00000000000002132 #
DXID-attrib $-1 -1 $-1 $-1 $128 @10 ASM ENTITY @1 9 #
face $167 -1 $-1 $168 $169 $6 $-1 $170 forward single #
loop $-1 -1 $-1 $-1 $171 $128 #
plane-surface $-1 -1 $-1 -113.9000000000000199 0 50.00000000000001421 0 0 1 10 0 0 forward_v I I I I #
loop $-1 -1 $-1 $-1 $172 $108 #
coedge $-1 -1 $-1 $152 $152 $173 $174 reversed $129 0 $-1 #
coedge $175 -1 $-1 $153 $153 $176 $177 reversed $131 0 $-1 #
coedge $-1 -1 $-1 $154 $154 $132 $155 forward $178 0 $-1 #
edge $-1 -1 $-1 $179 -3.141592653589793116 $179 3.141592653589793116 $154 $180 forward @7 unknown #
ATTRIB_CUSTOM-attrib $-1 -1 $-1 $-1 $133 @17 sketch_attrib_def 1 1 3 @13 133 0 0 0 1 1 #
coedge $-1 -1 $-1 $157 $157 $133 $158 forward $181 0 $-1 #
edge $-1 -1 $-1 $182 -3.141592653589793116 $182 3.141592653589793116 $157 $183 forward @7 unknown #
loop $-1 -1 $-1 $178 $134 $60 #
vertex $-1 -1 $-1 $135 0 $184 #
ellipse-curve $-1 -1 $-1 -93.90000000000000568 3.174999999999999822 14.99999999999994671 -0 -1 -0 1.999999999999992895 0 0 1 I I #
loop $-1 -1 $-1 $181 $137 $81 #
vertex $-1 -1 $-1 $138 0 $185 #
ellipse-curve $-1 -1 $-1 -43.90000000000000568 0 14.99999999999994671 0 1 0 2.000000000000001776 0 0 1 I I #
point $-1 -1 $-1 -45.90000000000000568 3.174999999999999822 14.99999999999994671 #
point $-1 -1 $-1 41.89999999999997016 0 15.00000000000002132 #
DXID-attrib $-1 -1 $-1 $-1 $148 @10 ASM ENTITY @2 10 #
face $186 -1 $-1 $187 $188 $6 $-1 $189 forward single #
loop $-1 -1 $-1 $-1 $190 $148 #
plane-surface $-1 -1 $-1 -113.9000000000000199 0 -49.99999999999999289 -1 0 0 0 0 10 forward_v I I I I #
coedge $191 -1 $-1 $192 $193 $194 $195 forward $149 0 $-1 #
coedge $196 -1 $-1 $172 $172 $197 $198 reversed $151 0 $-1 #
coedge $-1 -1 $-1 $173 $173 $152 $174 forward $199 0 $-1 #
edge $-1 -1 $-1 $200 -3.141592653589793116 $200 3.141592653589793116 $173 $201 forward @7 unknown #
ATTRIB_CUSTOM-attrib $-1 -1 $-1 $-1 $153 @17 sketch_attrib_def 1 1 3 @13 154 0 0 0 1 1 #
coedge $-1 -1 $-1 $176 $176 $153 $177 forward $202 0 $-1 #
edge $-1 -1 $-1 $203 -3.141592653589793116 $203 3.141592653589793116 $176 $204 forward @7 unknown #
loop $-1 -1 $-1 $199 $154 $60 #
vertex $-1 -1 $-1 $155 0 $205 #
ellipse-curve $-1 -1 $-1 0 3.174999999999999822 0 -0 -1 -0 6.000000000000000888 0 0 1 I I #
loop $-1 -1 $-1 $202 $157 $81 #
vertex $-1 -1 $-1 $158 0 $206 #
ellipse-curve $-1 -1 $-1 -93.90000000000000568 0 14.99999999999994671 0 1 0 1.999999999999992895 0 0 1 I I #
point $-1 -1 $-1 -95.90000000000000568 3.174999999999999822 14.99999999999994671 #
point $-1 -1 $-1 -45.90000000000000568 0 14.99999999999994671 #
DXID-attrib $-1 -1 $-1 $-1 $168 @10 ASM ENTITY @2 11 #
face $207 -1 $-1 $60 $208 $6 $-1 $209 forward single #
loop $-1 -1 $-1 $-1 $210 $168 #
plane-surface $-1 -1 $-1 113.8999999999999915 0 -49.99999999999999289 0 0 -1 -10 0 0 forward_v I I I I #
coedge $211 -1 $-1 $212 $213 $214 $215 forward $169 0 $-1 #
ATTRIB_CUSTOM-attrib $-1 -1 $-1 $-1 $171 @17 sketch_attrib_def 1 1 3 @13 107 0 0 0 1 1 #
coedge $-1 -1 $-1 $216 $171 $217 $218 forward $149 0 $-1 #
coedge $-1 -1 $-1 $171 $216 $212 $219 reversed $149 0 $-1 #
coedge $220 -1 $-1 $214 $221 $171 $195 reversed $222 0 $-1 #
edge $-1 -1 $-1 $223 0 $224 22.78000000000000114 $171 $225 forward @7 unknown #
ATTRIB_CUSTOM-attrib $-1 -1 $-1 $-1 $172 @17 sketch_attrib_def 1 1 3 @13 162 0 0 0 1 1 #
coedge $-1 -1 $-1 $197 $197 $172 $198 forward $226 0 $-1 #
edge $-1 -1 $-1 $227 -3.141592653589793116 $227 3.141592653589793116 $197 $228 forward @7 unknown #
loop $-1 -1 $-1 $229 $173 $60 #
vertex $-1 -1 $-1 $174 0 $230 #
ellipse-curve $-1 -1 $-1 43.89999999999997016 3.174999999999999822 -14.99999999999997868 -0 -1 -0 2.000000000000001776 0 0 1 I I #
loop $-1 -1 $-1 $226 $176 $81 #
vertex $-1 -1 $-1 $177 0 $231 #
ellipse-curve $-1 -1 $-1 0 0 0 0 1 0 6.000000000000000888 0 0 1 I I #
point $-1 -1 $-1 -6.000000000000000888 3.174999999999999822 -7.347880794884120722e-16 #
point $-1 -1 $-1 -95.90000000000000568 0 14.99999999999994671 #
DXID-attrib $-1 -1 $-1 $-1 $187 @10 ASM ENTITY @2 12 #
loop $-1 -1 $-1 $-1 $232 $187 #
plane-surface $-1 -1 $-1 113.9000000000000057 0 50.00000000000001421 1 0 -1.776356839400250563e-16 -1.776356839400250465e-15 0 -10 forward_v I I I I #
coedge $233 -1 $-1 $234 $235 $236 $237 forward $188 0 $-1 #
ATTRIB_CUSTOM-attrib $-1 -1 $-1 $-1 $190 @17 sketch_attrib_def 1 1 3 @13 106 0 0 0 1 1 #
coedge $-1 -1 $-1 $238 $190 $193 $219 forward $169 0 $-1 #
coedge $-1 -1 $-1 $190 $238 $234 $239 reversed $169 0 $-1 #
coedge $240 -1 $-1 $236 $194 $190 $215 reversed $222 0 $-1 #
edge $-1 -1 $-1 $241 0 $223 10 $190 $242 forward @7 unknown #
coedge $-1 -1 $-1 $193 $192 $243 $244 reversed $149 0 $-1 #
coedge $-1 -1 $-1 $232 $245 $192 $218 reversed $208 0 $-1 #
edge $-1 -1 $-1 $224 0 $246 0.3175000000000000044 $217 $247 forward @7 unknown #
edge $-1 -1 $-1 $223 0 $248 0.3175000000000000044 $212 $249 forward @7 unknown #
ATTRIB_CUSTOM-attrib $-1 -1 $-1 $-1 $194 @17 sketch_attrib_def 1 1 3 @13 107 0 0 0 1 1 #
coedge $250 -1 $-1 $194 $236 $232 $251 reversed $222 0 $-1 #
loop $-1 -1 $-1 $-1 $221 $81 #
vertex $-1 -1 $-1 $215 1 $252 #
vertex $-1 -1 $-1 $251 0 $253 #
straight-curve $-1 -1 $-1 -113.9000000000000199 0 50.00000000000001421 10 0 0 F 0 F 22.78000000000000114 #
loop $-1 -1 $-1 $222 $197 $81 #
vertex $-1 -1 $-1 $198 0 $254 #
ellipse-curve $-1 -1 $-1 43.89999999999997016 0 -14.99999999999997868 0 1 0 2.000000000000001776 0 0 1 I I #
loop $-1 -1 $-1 $-1 $255 $60 #
point $-1 -1 $-1 41.89999999999997016 3.174999999999999822 -14.99999999999997868 #
point $-1 -1 $-1 -6.000000000000000888 0 -7.347880794884120722e-16 #
coedge $256 -1 $-1 $257 $217 $221 $251 forward $208 0 $-1 #
ATTRIB_CUSTOM-attrib $-1 -1 $-1 $-1 $210 @17 sketch_attrib_def 1 1 3 @13 105 0 0 0 1 1 #
coedge $-1 -1 $-1 $258 $210 $213 $239 forward $188 0 $-1 #
coedge $-1 -1 $-1 $210 $258 $257 $259 reversed $188 0 $-1 #
coedge $260 -1 $-1 $221 $214 $210 $237 reversed $222 0 $-1 #
edge $-1 -1 $-1 $261 0 $241 22.78000000000000114 $210 $262 forward @7 unknown #
coedge $-1 -1 $-1 $213 $212 $263 $264 reversed $169 0 $-1 #
edge $-1 -1 $-1 $241 0 $265 0.3175000000000000044 $234 $266 forward @7 unknown #
ATTRIB_CUSTOM-attrib $-1 -1 $-1 $-1 $214 @17 sketch_attrib_def 1 1 3 @13 106 0 0 0 1 1 #
vertex $-1 -1 $-1 $237 1 $267 #
straight-curve $-1 -1 $-1 -113.9000000000000199 0 -49.99999999999999289 0 0 10 F 0 F 10 #
coedge $-1 -1 $-1 $255 $263 $216 $244 forward $229 0 $-1 #
edge $-1 -1 $-1 $248 0 $246 22.78000000000000114 $216 $268 forward @7 unknown #
coedge $-1 -1 $-1 $217 $257 $255 $269 reversed $208 0 $-1 #
vertex $-1 -1 $-1 $218 1 $270 #
straight-curve $-1 -1 $-1 113.9000000000000057 0 50.00000000000001421 0 10 0 I I #
vertex $-1 -1 $-1 $219 1 $271 #
straight-curve $-1 -1 $-1 -113.9000000000000199 0 50.00000000000001421 0 10 0 I I #
ATTRIB_CUSTOM-attrib $-1 -1 $-1 $-1 $221 @17 sketch_attrib_def 1 1 3 @13 108 0 0 0 1 1 #
edge $-1 -1 $-1 $224 0 $261 10 $232 $272 forward @7 unknown #
point $-1 -1 $-1 -113.9000000000000199 0 50.00000000000001421 #
point $-1 -1 $-1 113.9000000000000057 0 50.00000000000001421 #
point $-1 -1 $-1 41.89999999999997016 0 -14.99999999999997868 #
coedge $-1 -1 $-1 $273 $243 $245 $269 forward $229 0 $-1 #
ATTRIB_CUSTOM-attrib $-1 -1 $-1 $-1 $232 @17 sketch_attrib_def 1 1 3 @13 108 0 0 0 1 1 #
coedge $-1 -1 $-1 $245 $232 $235 $259 forward $208 0 $-1 #
coedge $-1 -1 $-1 $235 $234 $273 $274 reversed $188 0 $-1 #
edge $-1 -1 $-1 $261 0 $275 0.3175000000000000044 $257 $276 forward @7 unknown #
ATTRIB_CUSTOM-attrib $-1 -1 $-1 $-1 $236 @17 sketch_attrib_def 1 1 3 @13 105 0 0 0 1 1 #
vertex $-1 -1 $-1 $251 1 $277 #
straight-curve $-1 -1 $-1 113.8999999999999915 0 -49.99999999999999289 -10 0 0 F 0 F 22.78000000000000114 #
coedge $-1 -1 $-1 $243 $273 $238 $264 forward $229 0 $-1 #
edge $-1 -1 $-1 $265 0 $248 10 $238 $278 forward @7 unknown #
vertex $-1 -1 $-1 $239 1 $279 #
straight-curve $-1 -1 $-1 -113.9000000000000199 0 -49.99999999999999289 0 10 0 I I #
point $-1 -1 $-1 -113.9000000000000199 0 -49.99999999999999289 #
straight-curve $-1 -1 $-1 -113.9000000000000199 3.174999999999999822 50.00000000000001421 10 0 0 I I #
edge $-1 -1 $-1 $246 0 $275 10 $245 $280 forward @7 unknown #
point $-1 -1 $-1 113.9000000000000057 3.174999999999999822 50.00000000000001421 #
point $-1 -1 $-1 -113.9000000000000057 3.174999999999999822 50.00000000000001421 #
straight-curve $-1 -1 $-1 113.9000000000000057 0 50.00000000000001421 -1.776356839400250465e-15 0 -10 F 0 F 10 #
coedge $-1 -1 $-1 $263 $255 $258 $274 forward $229 0 $-1 #
edge $-1 -1 $-1 $275 0 $265 22.78000000000000114 $258 $281 forward @7 unknown #
vertex $-1 -1 $-1 $259 1 $282 #
straight-curve $-1 -1 $-1 113.8999999999999915 0 -49.99999999999998579 0 10 0 I I #
point $-1 -1 $-1 113.8999999999999915 0 -49.99999999999998579 #
straight-curve $-1 -1 $-1 -113.9000000000000199 3.174999999999999822 -49.99999999999999289 0 0 10 I I #
point $-1 -1 $-1 -113.9000000000000057 3.174999999999999822 -49.99999999999998579 #
straight-curve $-1 -1 $-1 113.9000000000000057 3.174999999999999822 50.00000000000001421 -1.776356839400250465e-15 0 -10 I I #
straight-curve $-1 -1 $-1 113.8999999999999915 3.174999999999999822 -49.99999999999999289 -10 0 0 I I #
point $-1 -1 $-1 113.8999999999999915 3.174999999999999822 -49.99999999999998579 #
End-of-ASM-data 