22700 0 5 4           
30 Autodesk Translation Framework 20 ASM 227.7.2.65535 NT 24 Fri Mar 25 21:12:26 2022 
1 9.999999999999999547e-07 1.000000000000000036e-10 
asmheader $-1 -1 @13 227.7.2.65535 #
body $5 -1 $-1 $6 $-1 $7 #
body $8 -1 $-1 $9 $-1 $10 #
body $11 -1 $-1 $12 $-1 $13 #
body $14 -1 $-1 $15 $-1 $16 #
rgb_color-st-attrib $-1 -1 $17 $-1 $1 0.627450980392156854 0.627450980392156854 0.627450980392156854 1 #
lump $-1 -1 $-1 $-1 $18 $1 #
transform $-1 -1 1 0 0 0 1 0 0 0 1 0 0 0 1 no_rotate no_reflect no_shear #
rgb_color-st-attrib $-1 -1 $19 $-1 $2 0.627450980392156854 0.627450980392156854 0.627450980392156854 1 #
lump $-1 -1 $-1 $-1 $20 $2 #
transform $-1 -1 1 0 0 0 1 0 0 0 1 0 0 0 1 no_rotate no_reflect no_shear #
rgb_color-st-attrib $-1 -1 $21 $-1 $3 0.627450980392156854 0.627450980392156854 0.627450980392156854 1 #
lump $-1 -1 $-1 $-1 $22 $3 #
transform $-1 -1 1 0 0 0 1 0 0 0 1 0 0 0 1 no_rotate no_reflect no_shear #
rgb_color-st-attrib $-1 -1 $23 $-1 $4 0.627450980392156854 0.627450980392156854 0.627450980392156854 1 #
lump $-1 -1 $-1 $-1 $24 $4 #
transform $-1 -1 1 0 0 0 1 0 0 0 1 0 0 0 1 no_rotate no_reflect no_shear #
ATTRIB_CUSTOM-attrib $-1 -1 $-1 $5 $1 @20 Timestamp_attrib_def 1 1583013485317733 #
shell $-1 -1 $-1 $-1 $-1 $25 $-1 $6 #
ATTRIB_CUSTOM-attrib $-1 -1 $-1 $8 $2 @20 Timestamp_attrib_def 1 1583203112402930 #
shell $-1 -1 $-1 $-1 $-1 $26 $-1 $9 #
DXID-attrib $-1 -1 $-1 $11 $3 @10 ASM ENTITY @240 {"label":"Body1","asset":"e6f8bd0b-aba9-4621-8637-f5e344f3a895","segment":"0","entity":"268","revision":"7b22bf47-0254-4a5f-9950-aaf9de3edf99","meta":"D3937028-C20C-4E65-B010-94AD418A5C20","metaName":"BodyMetaType","extra":""}:FlattenCopy:1 #
shell $-1 -1 $-1 $-1 $-1 $27 $-1 $12 #
ATTRIB_CUSTOM-attrib $-1 -1 $-1 $14 $4 @20 Timestamp_attrib_def 1 1582953158029926 #
shell $-1 -1 $-1 $-1 $-1 $28 $-1 $15 #
face $29 -1 $-1 $30 $31 $18 $-1 $32 forward single #
face $33 -1 $-1 $34 $35 $20 $-1 $36 forward single #
face $37 -1 $-1 $38 $39 $22 $-1 $40 forward single #
face $41 -1 $-1 $42 $43 $24 $-1 $44 reversed single #
DXID-attrib $-1 -1 $-1 $-1 $25 @10 ASM ENTITY @1 0 #
face $45 -1 $-1 $46 $47 $18 $-1 $48 forward single #
loop $-1 -1 $-1 $49 $50 $25 #
plane-surface $-1 -1 $-1 25.40000000000005542 15.33043498429833917 56.8499999999998451 -4.888487273961460417e-45 0.04536298812925389223 0.9989705697907138582 -9.999999999999973355 -0 1.972152263052529514e-29 forward_v I I I I #
DXID-attrib $-1 -1 $-1 $-1 $26 @10 ASM ENTITY @1 0 #
face $51 -1 $-1 $52 $53 $20 $-1 $54 forward single #
loop $-1 -1 $-1 $55 $56 $26 #
cone-surface $-1 -1 $-1 1.332267629550187849e-13 38.38568149406459185 56.30358262771042632 -3.851859888774471706e-34 -0.04536298812925392693 -0.9989705697907146353 5 3.058465276841514571e-16 -1.388840955306254542e-17 1 I I 0 1 5 forward I I I I #
DXID-attrib $-1 -1 $-1 $-1 $27 @10 ASM ENTITY @1 0 #
face $57 -1 $-1 $58 $59 $22 $-1 $60 forward single #
loop $-1 -1 $-1 $61 $62 $27 #
cone-surface $-1 -1 $-1 1.243449787580175325e-13 38.38568149406457763 -57.00358262771045759 3.851859888774471706e-34 -0.04536298812925382284 0.9989705697907146353 5 -3.058465276841514571e-16 -1.38884095530625146e-17 1 I I 0 1 5 forward I I I I #
DXID-attrib $-1 -1 $-1 $-1 $28 @10 ASM ENTITY @1 0 #
face $63 -1 $-1 $64 $65 $24 $-1 $66 forward single #
loop $-1 -1 $-1 $67 $68 $28 #
cone-surface $-1 -1 $-1 0 89 0 0 -1 0 -1.03774999999999995 0 0 1 I I 0 1 1.270000000000000018 forward I I I I #
DXID-attrib $-1 -1 $-1 $-1 $30 @10 ASM ENTITY @1 1 #
face $69 -1 $-1 $70 $71 $18 $-1 $72 reversed single #
loop $-1 -1 $-1 $-1 $73 $30 #
plane-surface $-1 -1 $-1 1.207922650792170316e-13 48.36299999999997112 55.17499999999986215 0 1.00000000000000222 -6.153115060723893203e-29 -9.999999999999973355 -0 1.972152263052529514e-29 forward_v I I I I #
loop $-1 -1 $-1 $-1 $74 $25 #
coedge $-1 -1 $-1 $50 $50 $75 $76 forward $31 0 $-1 #
DXID-attrib $-1 -1 $-1 $-1 $34 @10 ASM ENTITY @1 1 #
face $77 -1 $-1 $78 $79 $20 $-1 $80 reversed single #
loop $-1 -1 $-1 $81 $82 $34 #
torus-surface $-1 -1 $-1 1.332267629550187849e-13 38.36299999999996402 55.80409734281506928 -3.851859888774471706e-34 -0.04536298812925392693 -0.9989705697907146353 4.5 0.5 -6.123233995736764803e-17 0.9989705697907146353 -0.04536298812925392693 forward_v I I I I #
loop $-1 -1 $-1 $-1 $83 $26 #
coedge $-1 -1 $-1 $56 $56 $84 $85 reversed $35 0 $-1 #
DXID-attrib $-1 -1 $-1 $-1 $38 @10 ASM ENTITY @1 1 #
face $86 -1 $-1 $87 $88 $22 $-1 $89 reversed single #
loop $-1 -1 $-1 $90 $91 $38 #
torus-surface $-1 -1 $-1 1.243449787580175325e-13 38.36299999999994981 -56.50409734281510055 3.851859888774471706e-34 -0.04536298812925382284 0.9989705697907146353 4.5 0.5 -6.123233995736766036e-17 -0.9989705697907147464 -0.04536298812925382978 forward_v I I I I #
loop $-1 -1 $-1 $-1 $92 $27 #
coedge $-1 -1 $-1 $62 $62 $93 $94 reversed $39 0 $-1 #
DXID-attrib $-1 -1 $-1 $-1 $42 @10 ASM ENTITY @1 1 #
face $95 -1 $-1 $96 $97 $24 $-1 $98 forward single #
loop $-1 -1 $-1 $-1 $99 $42 #
plane-surface $-1 -1 $-1 0 85 0 0 1 0 -10 0 0 forward_v I I I I #
loop $-1 -1 $-1 $-1 $100 $28 #
coedge $-1 -1 $-1 $68 $68 $99 $101 forward $43 0 $-1 #
DXID-attrib $-1 -1 $-1 $-1 $46 @10 ASM ENTITY @1 2 #
face $102 -1 $-1 $103 $104 $18 $-1 $105 forward single #
loop $-1 -1 $-1 $-1 $106 $46 #
plane-surface $-1 -1 $-1 16.93000000000007077 48.36299999999997112 -59.04999999999990479 -0.9873812696224727459 -0.158361069706892732 1.169140503583990178e-29 1.583610697068919215 -9.873812696224748109 6.044239346590528527e-28 forward_v I I I I #
coedge $-1 -1 $-1 $107 $108 $109 $110 reversed $47 0 $-1 #
coedge $-1 -1 $-1 $109 $111 $106 $112 forward $49 0 $-1 #
coedge $-1 -1 $-1 $75 $75 $50 $76 reversed $113 0 $-1 #
edge $-1 -1 $-1 $114 -3.141592653589793116 $114 3.141592653589793116 $75 $115 forward @7 unknown #
DXID-attrib $-1 -1 $-1 $-1 $52 @10 ASM ENTITY @1 2 #
face $116 -1 $-1 $117 $118 $20 $-1 $119 forward single #
loop $-1 -1 $-1 $120 $121 $52 #
cone-surface $-1 -1 $-1 1.332267629550187849e-13 38.38568149406459185 56.30358262771042632 -3.851859888774471706e-34 -0.04536298812925392693 -0.9989705697907146353 4 2.446772221473211657e-16 -1.111072764245003726e-17 1 I I 0 1 4 forward I I I I #
loop $-1 -1 $-1 $-1 $122 $34 #
coedge $-1 -1 $-1 $82 $82 $83 $123 forward $53 0 $-1 #
coedge $-1 -1 $-1 $83 $83 $82 $123 reversed $55 0 $-1 #
coedge $-1 -1 $-1 $84 $84 $56 $85 forward $124 0 $-1 #
edge $-1 -1 $-1 $125 -3.141592653589793116 $125 3.141592653589793116 $56 $126 forward @7 unknown #
DXID-attrib $-1 -1 $-1 $-1 $58 @10 ASM ENTITY @1 2 #
face $127 -1 $-1 $128 $129 $22 $-1 $130 forward single #
loop $-1 -1 $-1 $131 $132 $58 #
cone-surface $-1 -1 $-1 1.243449787580175325e-13 38.38568149406457763 -57.00358262771045759 3.851859888774471706e-34 -0.04536298812925382284 0.9989705697907146353 4 -2.446772221473211657e-16 -1.111072764245001261e-17 1 I I 0 1 4 forward I I I I #
loop $-1 -1 $-1 $-1 $133 $38 #
coedge $-1 -1 $-1 $91 $91 $92 $134 forward $59 0 $-1 #
coedge $-1 -1 $-1 $92 $92 $91 $134 reversed $61 0 $-1 #
coedge $-1 -1 $-1 $93 $93 $62 $94 forward $135 0 $-1 #
edge $-1 -1 $-1 $136 -3.141592653589793116 $136 3.141592653589793116 $62 $137 forward @7 unknown #
DXID-attrib $-1 -1 $-1 $-1 $64 @10 ASM ENTITY @1 2 #
face $138 -1 $-1 $139 $140 $24 $-1 $141 forward single #
loop $-1 -1 $-1 $142 $143 $64 #
cone-surface $-1 -1 $-1 0 81.00000000000001421 0 0 1 0 -50 0 0 1 I I -0.7071067811865474617 0.7071067811865474617 50 forward I I I I #
coedge $-1 -1 $-1 $99 $99 $68 $101 reversed $65 0 $-1 #
coedge $144 -1 $-1 $100 $100 $145 $146 reversed $67 0 $-1 #
edge $-1 -1 $-1 $147 -3.141592653589793116 $147 3.141592653589793116 $68 $148 forward @7 unknown #
DXID-attrib $-1 -1 $-1 $-1 $70 @10 ASM ENTITY @1 3 #
face $149 -1 $-1 $150 $151 $18 $-1 $152 reversed single #
loop $-1 -1 $-1 $-1 $153 $70 #
plane-surface $-1 -1 $-1 50.79999999999997584 -13.98700000000008714 -59.04999999999990479 0.9999999999999986677 0 -1.972152263052532316e-30 -4.893524816237175513e-44 -6.336309517034005957e-30 9.999999999999976907 forward_v I I I I #
coedge $-1 -1 $-1 $154 $155 $74 $112 reversed $71 0 $-1 #
coedge $-1 -1 $-1 $156 $73 $155 $157 forward $47 0 $-1 #
coedge $-1 -1 $-1 $73 $156 $158 $159 forward $47 0 $-1 #
coedge $-1 -1 $-1 $160 $74 $73 $110 forward $49 0 $-1 #
edge $-1 -1 $-1 $161 0.8470000000000004192 $162 4.23300000000000054 $73 $163 forward @7 unknown #
coedge $-1 -1 $-1 $74 $164 $165 $166 forward $49 0 $-1 #
edge $-1 -1 $-1 $167 -4.877728007588053138 $161 1.443299394915211087 $106 $168 forward @7 unknown #
loop $-1 -1 $-1 $-1 $75 $103 #
vertex $-1 -1 $-1 $76 0 $169 #
ellipse-curve $-1 -1 $-1 1.207922650792170316e-13 38.36299999999995691 55.80409734281504797 4.888487273961460417e-45 -0.04536298812925389223 -0.9989705697907138582 1.11106830802673909e-45 4.999999999999994671 -0.2270486714075930224 0.9989705697907147464 I I #
DXID-attrib $-1 -1 $-1 $-1 $78 @10 ASM ENTITY @1 3 #
face $170 -1 $-1 $171 $172 $20 $-1 $173 reversed single #
loop $-1 -1 $-1 $174 $175 $78 #
torus-surface $-1 -1 $-1 1.332267629550187849e-13 38.36299999999996402 55.80409734281506928 3.851859888774471706e-34 0.04536298812925392693 0.9989705697907146353 2.500000000000000444 0.5 6.123233995736764803e-17 -0.9989705697907146353 0.04536298812925392693 forward_v I I I I #
loop $-1 -1 $-1 $-1 $176 $52 #
coedge $-1 -1 $-1 $121 $121 $177 $178 forward $79 0 $-1 #
coedge $-1 -1 $-1 $122 $122 $176 $179 forward $81 0 $-1 #
edge $-1 -1 $-1 $180 -3.141592653589793116 $180 3.141592653589793116 $83 $181 forward @7 tangent #
loop $-1 -1 $-1 $-1 $84 $182 #
vertex $-1 -1 $-1 $85 2 $183 #
ellipse-curve $-1 -1 $-1 1.332267629550187849e-13 36.11753208760189437 6.35505413817469389 -3.851859888774471706e-34 -0.04536298812925392693 -0.9989705697907146353 5 3.058465276841514571e-16 -1.388840955306254542e-17 1 I I #
DXID-attrib $-1 -1 $-1 $-1 $87 @10 ASM ENTITY @1 3 #
face $184 -1 $-1 $185 $186 $22 $-1 $187 reversed single #
loop $-1 -1 $-1 $188 $189 $87 #
torus-surface $-1 -1 $-1 1.243449787580175325e-13 38.36299999999994981 -56.50409734281510055 -3.851859888774471706e-34 0.04536298812925382284 -0.9989705697907146353 2.500000000000000444 0.5 6.123233995736766036e-17 0.9989705697907147464 0.04536298812925382978 forward_v I I I I #
loop $-1 -1 $-1 $-1 $190 $58 #
coedge $-1 -1 $-1 $132 $132 $191 $192 forward $88 0 $-1 #
coedge $-1 -1 $-1 $133 $133 $190 $193 forward $90 0 $-1 #
edge $-1 -1 $-1 $194 -3.141592653589793116 $194 3.141592653589793116 $92 $195 forward @7 tangent #
loop $-1 -1 $-1 $-1 $93 $196 #
vertex $-1 -1 $-1 $94 2 $197 #
ellipse-curve $-1 -1 $-1 1.243449787580175325e-13 36.11753208760188727 -7.055054138174725153 3.851859888774471706e-34 -0.04536298812925382284 0.9989705697907146353 5 -3.058465276841514571e-16 -1.38884095530625146e-17 1 I I #
DXID-attrib $-1 -1 $-1 $-1 $96 @10 ASM ENTITY @1 3 #
face $198 -1 $-1 $199 $200 $24 $-1 $201 forward single #
loop $-1 -1 $-1 $202 $203 $96 #
cone-surface $-1 -1 $-1 0 83 0 0 -1 0 -52 0 0 1 I I 0 1 52 forward I I I I #
loop $-1 -1 $-1 $-1 $204 $64 #
coedge $-1 -1 $-1 $143 $143 $205 $206 forward $97 0 $-1 #
ATTRIB_CUSTOM-attrib $-1 -1 $-1 $-1 $100 @17 sketch_attrib_def 1 1 3 @13 124 0 0 0 1 1 #
coedge $-1 -1 $-1 $145 $145 $100 $146 forward $207 0 $-1 #
edge $-1 -1 $-1 $208 -3.141592653589793116 $208 3.141592653589793116 $145 $209 forward @7 unknown #
vertex $-1 -1 $-1 $101 0 $210 #
ellipse-curve $-1 -1 $-1 0 85 0 -0 -1 -0 -1.03774999999999995 0 0 1 I I #
DXID-attrib $-1 -1 $-1 $-1 $103 @10 ASM ENTITY @1 4 #
face $211 -1 $-1 $212 $213 $18 $-1 $214 forward single #
loop $-1 -1 $-1 $113 $215 $103 #
cone-surface $-1 -1 $-1 1.207922650792170316e-13 38.36299999999995691 -59.04999999999990479 -4.893524816237181985e-45 -6.336309517034014715e-31 0.9999999999999991118 0 4.999999999999994671 -3.076557530361936624e-28 1 I I 0 1 4.999999999999984013 forward I I I I #
coedge $-1 -1 $-1 $216 $217 $164 $218 reversed $104 0 $-1 #
coedge $-1 -1 $-1 $219 $106 $220 $221 reversed $71 0 $-1 #
coedge $-1 -1 $-1 $106 $219 $107 $157 reversed $71 0 $-1 #
coedge $-1 -1 $-1 $108 $107 $222 $223 forward $47 0 $-1 #
edge $-1 -1 $-1 $161 -5.728749999999999787 $224 -5.393750000000000711 $107 $225 forward @7 unknown #
coedge $-1 -1 $-1 $226 $227 $108 $159 reversed $228 0 $-1 #
edge $-1 -1 $-1 $229 5.393750000000000711 $162 5.728749999999999787 $108 $230 forward @7 unknown #
coedge $-1 -1 $-1 $231 $109 $227 $232 forward $49 0 $-1 #
vertex $-1 -1 $-1 $157 0 $233 #
vertex $-1 -1 $-1 $110 1 $234 #
straight-curve $-1 -1 $-1 25.40000000000005542 48.36299999999997112 55.3499999999998451 -9.999999999999973355 0 1.972152263052529514e-29 F -19.63319130973499327 F 24.71319130973499512 #
coedge $-1 -1 $-1 $111 $235 $153 $218 forward $49 0 $-1 #
coedge $-1 -1 $-1 $236 $220 $111 $166 reversed $237 0 $-1 #
edge $-1 -1 $-1 $238 -3.810000000000000497 $167 -1.423000000000000043 $165 $239 forward @7 unknown #
vertex $-1 -1 $-1 $166 1 $240 #
straight-curve $-1 -1 $-1 19.21333038762602285 34.12643503315207738 55.99647863222597977 -1.58202130179656475 9.863902816701617837 -0.4479172058851437765 I I #
point $-1 -1 $-1 1.207922650792170316e-13 33.36299999999996402 56.03114601422263519 #
DXID-attrib $-1 -1 $-1 $-1 $117 @10 ASM ENTITY @1 4 #
face $241 -1 $-1 $242 $243 $20 $-1 $244 reversed single #
loop $-1 -1 $-1 $245 $246 $117 #
cone-surface $-1 -1 $-1 1.332267629550187849e-13 38.38568149406459185 56.30358262771042632 -3.851859888774471706e-34 -0.04536298812925392693 -0.9989705697907146353 3.000000000000000444 1.835079166104908989e-16 -8.3330457318375291e-18 1 I I 0 -1 3.000000000000000444 forward I I I I #
loop $-1 -1 $-1 $-1 $247 $78 #
coedge $-1 -1 $-1 $175 $175 $248 $249 forward $118 0 $-1 #
coedge $-1 -1 $-1 $176 $176 $122 $179 reversed $120 0 $-1 #
coedge $-1 -1 $-1 $177 $177 $121 $178 reversed $250 0 $-1 #
edge $-1 -1 $-1 $251 -3.141592653589793116 $251 3.141592653589793116 $121 $252 forward @7 unknown #
edge $-1 -1 $-1 $253 -3.141592653589793116 $253 3.141592653589793116 $176 $254 forward @7 tangent #
vertex $-1 -1 $-1 $123 0 $255 #
ellipse-curve $-1 -1 $-1 1.332267629550187849e-13 38.36299999999996402 55.80409734281506928 3.851859888774471706e-34 0.04536298812925392693 0.9989705697907146353 5 3.058465276841514571e-16 -1.388840955306254542e-17 1 I I #
face $256 -1 $-1 $-1 $124 $20 $-1 $257 forward single #
point $-1 -1 $-1 -4.999999999999866773 36.11753208760189437 6.35505413817469389 #
DXID-attrib $-1 -1 $-1 $-1 $128 @10 ASM ENTITY @1 4 #
face $258 -1 $-1 $259 $260 $22 $-1 $261 reversed single #
loop $-1 -1 $-1 $262 $263 $128 #
cone-surface $-1 -1 $-1 1.243449787580175325e-13 38.38568149406457763 -57.00358262771045759 3.851859888774471706e-34 -0.04536298812925382284 0.9989705697907146353 3.000000000000000444 -1.835079166104908989e-16 -8.33304573183750907e-18 1 I I 0 -1 3.000000000000000444 forward I I I I #
loop $-1 -1 $-1 $-1 $264 $87 #
coedge $-1 -1 $-1 $189 $189 $265 $266 forward $129 0 $-1 #
coedge $-1 -1 $-1 $190 $190 $133 $193 reversed $131 0 $-1 #
coedge $-1 -1 $-1 $191 $191 $132 $192 reversed $267 0 $-1 #
edge $-1 -1 $-1 $268 -3.141592653589793116 $268 3.141592653589793116 $132 $269 forward @7 unknown #
edge $-1 -1 $-1 $270 -3.141592653589793116 $270 3.141592653589793116 $190 $271 forward @7 tangent #
vertex $-1 -1 $-1 $134 0 $272 #
ellipse-curve $-1 -1 $-1 1.243449787580175325e-13 38.36299999999994981 -56.50409734281510055 -3.851859888774471706e-34 0.04536298812925382284 -0.9989705697907146353 5 -3.058465276841514571e-16 -1.38884095530625146e-17 1 I I #
face $273 -1 $-1 $-1 $135 $22 $-1 $274 forward single #
point $-1 -1 $-1 -4.999999999999875655 36.11753208760188727 -7.055054138174725153 #
DXID-attrib $-1 -1 $-1 $-1 $139 @10 ASM ENTITY @1 4 #
face $275 -1 $-1 $276 $277 $24 $-1 $278 reversed single #
loop $-1 -1 $-1 $279 $280 $139 #
plane-surface $-1 -1 $-1 0 83 0 0 1 0 -10 0 0 forward_v I I I I #
loop $-1 -1 $-1 $-1 $205 $96 #
coedge $-1 -1 $-1 $203 $203 $281 $282 reversed $140 0 $-1 #
coedge $-1 -1 $-1 $204 $204 $283 $284 forward $142 0 $-1 #
coedge $-1 -1 $-1 $205 $205 $143 $206 reversed $202 0 $-1 #
edge $-1 -1 $-1 $285 -3.141592653589793116 $285 3.141592653589793116 $205 $286 forward @7 unknown #
loop $-1 -1 $-1 $287 $145 $288 #
vertex $-1 -1 $-1 $146 0 $289 #
ellipse-curve $-1 -1 $-1 0 89 0 -0 -1 -0 -1.03774999999999995 0 0 1 I I #
point $-1 -1 $-1 1.03774999999999995 85 1.270877215815165781e-16 #
DXID-attrib $-1 -1 $-1 $-1 $150 @10 ASM ENTITY @1 5 #
face $290 -1 $-1 $291 $292 $18 $-1 $293 forward single #
loop $-1 -1 $-1 $294 $295 $150 #
plane-surface $-1 -1 $-1 -25.39999999999980673 15.33043498429833917 -57.54999999999990479 4.888487273961460417e-45 0.04536298812925378815 -0.9989705697907138582 9.999999999999973355 0 -1.972152263052529514e-29 forward_v I I I I #
coedge $-1 -1 $-1 $215 $215 $296 $297 reversed $151 0 $-1 #
coedge $-1 -1 $-1 $298 $153 $299 $300 forward $104 0 $-1 #
coedge $301 -1 $-1 $153 $302 $236 $303 reversed $104 0 $-1 #
edge $-1 -1 $-1 $304 -2.105176257413499119 $238 -1.733280413456702362 $153 $305 forward @7 unknown #
coedge $-1 -1 $-1 $155 $154 $306 $307 reversed $71 0 $-1 #
coedge $-1 -1 $-1 $165 $308 $154 $221 forward $237 0 $-1 #
edge $-1 -1 $-1 $309 11.1050000000000022 $167 11.7231296932452711 $154 $310 forward @7 unknown #
coedge $-1 -1 $-1 $306 $311 $156 $223 reversed $312 0 $-1 #
edge $-1 -1 $-1 $224 -6.772999999999999687 $229 -3.387000000000000011 $222 $313 forward @7 unknown #
vertex $-1 -1 $-1 $223 0 $314 #
straight-curve $-1 -1 $-1 16.93000000000007077 48.36299999999997112 -1.937500000000021316 4.893524816237175513e-44 6.336309517034005957e-30 -9.999999999999976907 I I #
coedge $-1 -1 $-1 $315 $158 $311 $316 reversed $228 0 $-1 #
coedge $-1 -1 $-1 $158 $315 $160 $232 reversed $228 0 $-1 #
loop $-1 -1 $-1 $-1 $227 $317 #
vertex $-1 -1 $-1 $316 1 $318 #
straight-curve $-1 -1 $-1 -16.92999999999982919 48.36299999999997112 -1.937500000000021316 -4.893524816237175513e-44 -6.336309517034005957e-30 9.999999999999976907 I I #
coedge $-1 -1 $-1 $319 $160 $320 $321 forward $49 0 $-1 #
edge $-1 -1 $-1 $162 -4.19563875245543727 $322 2.125388650047827177 $227 $323 forward @7 unknown #
point $-1 -1 $-1 16.93000000000007077 48.36299999999997112 55.3499999999998451 #
point $-1 -1 $-1 -16.92999999999982919 48.36299999999997112 55.3499999999998451 #
coedge $-1 -1 $-1 $164 $319 $324 $325 forward $49 0 $-1 #
coedge $326 -1 $-1 $327 $165 $217 $303 forward $237 0 $-1 #
loop $-1 -1 $-1 $-1 $320 $328 #
vertex $-1 -1 $-1 $303 0 $329 #
straight-curve $-1 -1 $-1 12.700000000000081 -13.98700000000008714 58.18129693245253264 -9.999999999999973355 -0 1.972152263052529514e-29 I I #
point $-1 -1 $-1 26.93000000000004235 -13.98700000000008536 58.18129693245253264 #
DXID-attrib $-1 -1 $-1 $-1 $171 @10 ASM ENTITY @1 5 #
face $330 -1 $-1 $182 $331 $20 $-1 $332 forward single #
loop $-1 -1 $-1 $-1 $333 $171 #
plane-surface $-1 -1 $-1 1.332267629550187849e-13 38.38568149406459185 56.30358262771042632 -3.851859888774471706e-34 -0.04536298812925392693 -0.9989705697907146353 10 6.116930553683029141e-16 -2.777681910612509084e-17 forward_v I I I I #
loop $-1 -1 $-1 $-1 $248 $117 #
coedge $-1 -1 $-1 $246 $246 $334 $335 forward $172 0 $-1 #
coedge $-1 -1 $-1 $247 $247 $333 $336 forward $174 0 $-1 #
coedge $-1 -1 $-1 $248 $248 $175 $249 reversed $245 0 $-1 #
edge $-1 -1 $-1 $337 -3.141592653589793116 $337 3.141592653589793116 $248 $338 forward @7 tangent #
loop $-1 -1 $-1 $-1 $177 $242 #
vertex $-1 -1 $-1 $178 0 $339 #
ellipse-curve $-1 -1 $-1 1.332267629550187849e-13 38.29495551780608054 54.30564148812899816 -3.851859888774471706e-34 -0.04536298812925392693 -0.9989705697907146353 4 2.446772221473211657e-16 -1.111072764245003726e-17 1 I I #
vertex $-1 -1 $-1 $179 0 $340 #
ellipse-curve $-1 -1 $-1 1.332267629550187849e-13 38.36299999999996402 55.80409734281506928 -3.851859888774471706e-34 -0.04536298812925392693 -0.9989705697907146353 4 2.446772221473211657e-16 -1.111072764245003726e-17 1 I I #
point $-1 -1 $-1 -4.999999999999866773 38.36299999999996402 55.80409734281506928 #
DXID-attrib $-1 -1 $-1 $-1 $182 @10 ASM ENTITY @1 7 #
plane-surface $-1 -1 $-1 1.332267629550187849e-13 36.11753208760189437 6.35505413817469389 -3.851859888774471706e-34 -0.04536298812925392693 -0.9989705697907146353 10 6.116930553683029141e-16 -2.777681910612509084e-17 forward_v I I I I #
DXID-attrib $-1 -1 $-1 $-1 $185 @10 ASM ENTITY @1 5 #
face $341 -1 $-1 $196 $342 $22 $-1 $343 forward single #
loop $-1 -1 $-1 $-1 $344 $185 #
plane-surface $-1 -1 $-1 1.243449787580175325e-13 38.38568149406457763 -57.00358262771045759 3.851859888774471706e-34 -0.04536298812925382284 0.9989705697907146353 10 -6.116930553683029141e-16 -2.777681910612502921e-17 forward_v I I I I #
loop $-1 -1 $-1 $-1 $265 $128 #
coedge $-1 -1 $-1 $263 $263 $345 $346 forward $186 0 $-1 #
coedge $-1 -1 $-1 $264 $264 $344 $347 forward $188 0 $-1 #
coedge $-1 -1 $-1 $265 $265 $189 $266 reversed $262 0 $-1 #
edge $-1 -1 $-1 $348 -3.141592653589793116 $348 3.141592653589793116 $265 $349 forward @7 tangent #
loop $-1 -1 $-1 $-1 $191 $259 #
vertex $-1 -1 $-1 $192 0 $350 #
ellipse-curve $-1 -1 $-1 1.243449787580175325e-13 38.29495551780607343 -55.00564148812902943 3.851859888774471706e-34 -0.04536298812925382284 0.9989705697907146353 4 -2.446772221473211657e-16 -1.111072764245001261e-17 1 I I #
vertex $-1 -1 $-1 $193 0 $351 #
ellipse-curve $-1 -1 $-1 1.243449787580175325e-13 38.36299999999994981 -56.50409734281510055 3.851859888774471706e-34 -0.04536298812925382284 0.9989705697907146353 4 -2.446772221473211657e-16 -1.111072764245001261e-17 1 I I #
point $-1 -1 $-1 -4.999999999999875655 38.36299999999994981 -56.50409734281510055 #
DXID-attrib $-1 -1 $-1 $-1 $196 @10 ASM ENTITY @1 7 #
plane-surface $-1 -1 $-1 1.243449787580175325e-13 36.11753208760188727 -7.055054138174725153 3.851859888774471706e-34 -0.04536298812925382284 0.9989705697907146353 10 -6.116930553683029141e-16 -2.777681910612502921e-17 forward_v I I I I #
DXID-attrib $-1 -1 $-1 $-1 $199 @10 ASM ENTITY @1 5 #
face $352 -1 $-1 $353 $354 $24 $-1 $355 reversed single #
loop $-1 -1 $-1 $356 $357 $199 #
plane-surface $-1 -1 $-1 0 68 0 0 1 0 -10 0 0 forward_v I I I I #
loop $-1 -1 $-1 $-1 $283 $139 #
coedge $-1 -1 $-1 $280 $280 $358 $359 reversed $200 0 $-1 #
coedge $-1 -1 $-1 $281 $281 $203 $282 forward $356 0 $-1 #
edge $-1 -1 $-1 $360 -3.141592653589793116 $360 3.141592653589793116 $203 $361 forward @7 unknown #
coedge $-1 -1 $-1 $283 $283 $204 $284 reversed $279 0 $-1 #
edge $-1 -1 $-1 $362 -3.141592653589793116 $362 3.141592653589793116 $283 $363 forward @7 unknown #
vertex $-1 -1 $-1 $206 0 $364 #
ellipse-curve $-1 -1 $-1 0 79 0 0 1 0 -52 0 0 1 I I #
loop $-1 -1 $-1 $-1 $365 $288 #
face $366 -1 $-1 $367 $207 $24 $-1 $368 forward single #
point $-1 -1 $-1 1.03774999999999995 89 1.270877215815165781e-16 #
DXID-attrib $-1 -1 $-1 $-1 $212 @10 ASM ENTITY @1 6 #
face $369 -1 $-1 $370 $371 $18 $-1 $372 reversed single #
loop $-1 -1 $-1 $-1 $373 $212 #
plane-surface $-1 -1 $-1 1.207922650792170316e-13 48.36299999999997112 -55.87499999999991473 0 1.00000000000000222 -6.153115060723893203e-29 -9.999999999999973355 -0 1.972152263052529514e-29 forward_v I I I I #
loop $-1 -1 $-1 $-1 $374 $150 #
coedge $-1 -1 $-1 $295 $295 $375 $376 forward $213 0 $-1 #
coedge $-1 -1 $-1 $296 $296 $215 $297 forward $377 0 $-1 #
edge $-1 -1 $-1 $378 -3.141592653589793116 $378 3.141592653589793116 $296 $379 forward @7 unknown #
coedge $-1 -1 $-1 $380 $216 $381 $382 reversed $104 0 $-1 #
coedge $-1 -1 $-1 $324 $383 $216 $300 reversed $384 0 $-1 #
edge $-1 -1 $-1 $304 0.3715130031403202082 $385 0.6350000000000000089 $216 $386 forward @7 unknown #
ATTRIB_CUSTOM-attrib $-1 -1 $-1 $-1 $217 @17 sketch_attrib_def 1 1 3 @13 107 0 1 0 1 1 #
coedge $-1 -1 $-1 $217 $380 $387 $388 reversed $104 0 $-1 #
edge $-1 -1 $-1 $238 0.01687030675473089048 $389 11.7231296932452711 $217 $390 forward @7 unknown #
vertex $-1 -1 $-1 $300 0 $391 #
straight-curve $-1 -1 $-1 50.79999999999997584 3.327961222379201445 57.39502914424947022 2.219849081491757983e-45 9.989705697907155013 -0.4536298812925368407 I I #
coedge $-1 -1 $-1 $392 $222 $219 $307 forward $312 0 $-1 #
edge $-1 -1 $-1 $224 -3.34634557959668566 $309 2.968337706206332971 $306 $393 forward @7 unknown #
coedge $-1 -1 $-1 $220 $394 $392 $395 forward $237 0 $-1 #
vertex $-1 -1 $-1 $221 0 $396 #
straight-curve $-1 -1 $-1 26.93000000000004235 -13.98700000000008536 -59.04999999999990479 -4.893524816237175513e-44 -6.336309517034005957e-30 9.999999999999976907 I I #
coedge $-1 -1 $-1 $222 $392 $226 $316 forward $312 0 $-1 #
loop $-1 -1 $-1 $-1 $306 $397 #
straight-curve $-1 -1 $-1 -50.79999999999973426 48.36299999999997112 51.99999999999985079 -9.999999999999973355 0 1.972152263052529514e-29 I I #
point $-1 -1 $-1 16.93000000000007077 48.36299999999997112 51.99999999999985079 #
coedge $-1 -1 $-1 $227 $226 $394 $398 forward $228 0 $-1 #
edge $-1 -1 $-1 $399 -0.6154702974158373641 $229 5.699212988387181156 $311 $400 forward @7 unknown #
face $401 -1 $-1 $402 $228 $18 $-1 $372 reversed single #
point $-1 -1 $-1 -16.92999999999982919 48.36299999999997112 51.99999999999985079 #
coedge $-1 -1 $-1 $235 $231 $403 $404 forward $49 0 $-1 #
coedge $-1 -1 $-1 $394 $405 $231 $321 reversed $237 0 $-1 #
edge $-1 -1 $-1 $322 3.962999999999999634 $406 6.349999999999999645 $320 $239 forward @7 unknown #
vertex $-1 -1 $-1 $321 0 $407 #
straight-curve $-1 -1 $-1 -23.56758988102749797 6.977627091792317771 57.2292987869030938 -1.58202130179656475 -9.863902816701617837 0.4479172058851437765 I I #
coedge $-1 -1 $-1 $408 $299 $235 $325 reversed $384 0 $-1 #
edge $-1 -1 $-1 $409 -7.620000000000000107 $304 2.540000000000000036 $324 $410 forward @7 unknown #
ATTRIB_CUSTOM-attrib $-1 -1 $-1 $-1 $236 @17 sketch_attrib_def 1 1 3 @13 107 0 1 0 1 1 #
coedge $-1 -1 $-1 $411 $236 $412 $413 reversed $237 0 $-1 #
face $414 -1 $-1 $397 $237 $18 $-1 $415 reversed single #
point $-1 -1 $-1 50.79999999999997584 -13.98700000000008714 58.18129693245253264 #
DXID-attrib $-1 -1 $-1 $-1 $242 @10 ASM ENTITY @1 6 #
loop $-1 -1 $-1 $250 $334 $242 #
plane-surface $-1 -1 $-1 1.332267629550187849e-13 38.29495551780608054 54.30564148812899816 3.851859888774471706e-34 0.04536298812925392693 0.9989705697907146353 10 6.116930553683029141e-16 -2.777681910612509084e-17 forward_v I I I I #
coedge $-1 -1 $-1 $333 $333 $247 $336 reversed $243 0 $-1 #
coedge $-1 -1 $-1 $334 $334 $246 $335 reversed $331 0 $-1 #
edge $-1 -1 $-1 $416 -3.141592653589793116 $416 3.141592653589793116 $246 $417 forward @7 unknown #
edge $-1 -1 $-1 $418 -3.141592653589793116 $418 3.141592653589793116 $333 $419 forward @7 tangent #
vertex $-1 -1 $-1 $249 0 $420 #
ellipse-curve $-1 -1 $-1 1.332267629550187849e-13 38.36299999999996402 55.80409734281506928 3.851859888774471706e-34 0.04536298812925392693 0.9989705697907146353 3.000000000000000444 1.835079166104908989e-16 -8.3330457318375291e-18 1 I I #
point $-1 -1 $-1 -3.999999999999866773 38.29495551780608054 54.30564148812899816 #
point $-1 -1 $-1 -3.999999999999866773 38.36299999999996402 55.80409734281506928 #
DXID-attrib $-1 -1 $-1 $-1 $259 @10 ASM ENTITY @1 6 #
loop $-1 -1 $-1 $267 $345 $259 #
plane-surface $-1 -1 $-1 1.243449787580175325e-13 38.29495551780607343 -55.00564148812902943 -3.851859888774471706e-34 0.04536298812925382284 -0.9989705697907146353 10 -6.116930553683029141e-16 -2.777681910612502921e-17 forward_v I I I I #
coedge $-1 -1 $-1 $344 $344 $264 $347 reversed $260 0 $-1 #
coedge $-1 -1 $-1 $345 $345 $263 $346 reversed $342 0 $-1 #
edge $-1 -1 $-1 $421 -3.141592653589793116 $421 3.141592653589793116 $263 $422 forward @7 unknown #
edge $-1 -1 $-1 $423 -3.141592653589793116 $423 3.141592653589793116 $344 $424 forward @7 tangent #
vertex $-1 -1 $-1 $266 0 $425 #
ellipse-curve $-1 -1 $-1 1.243449787580175325e-13 38.36299999999994981 -56.50409734281510055 -3.851859888774471706e-34 0.04536298812925382284 -0.9989705697907146353 3.000000000000000444 -1.835079166104908989e-16 -8.33304573183750907e-18 1 I I #
point $-1 -1 $-1 -3.999999999999875655 38.29495551780607343 -55.00564148812902943 #
point $-1 -1 $-1 -3.999999999999875655 38.36299999999994981 -56.50409734281510055 #
DXID-attrib $-1 -1 $-1 $-1 $276 @10 ASM ENTITY @1 6 #
face $426 -1 $-1 $288 $427 $24 $-1 $428 forward single #
loop $-1 -1 $-1 $429 $358 $276 #
cone-surface $-1 -1 $-1 0 89 0 0 -1 0 -7.500000000000000888 0 0 1 I I 0 -1 7.500000000000000888 forward I I I I #
loop $-1 -1 $-1 $-1 $281 $199 #
coedge $-1 -1 $-1 $357 $357 $430 $431 reversed $277 0 $-1 #
coedge $-1 -1 $-1 $358 $358 $280 $359 forward $354 0 $-1 #
edge $-1 -1 $-1 $432 -3.141592653589793116 $432 3.141592653589793116 $358 $433 forward @7 unknown #
vertex $-1 -1 $-1 $282 0 $434 #
ellipse-curve $-1 -1 $-1 0 68 0 -0 -1 -0 -52 0 0 1 I I #
vertex $-1 -1 $-1 $284 0 $435 #
ellipse-curve $-1 -1 $-1 0 83 0 -0 -1 -0 -48 0 0 1 I I #
point $-1 -1 $-1 52 79 -6.36816335556623717e-15 #
coedge $-1 -1 $-1 $365 $365 $436 $437 forward $287 0 $-1 #
DXID-attrib $-1 -1 $-1 $-1 $288 @10 ASM ENTITY @1 8 #
face $438 -1 $-1 $-1 $439 $24 $-1 $440 reversed single #
plane-surface $-1 -1 $-1 0 89 0 0 1 0 10 0 0 forward_v I I I I #
DXID-attrib $-1 -1 $-1 $-1 $291 @10 ASM ENTITY @1 7 #
face $441 -1 $-1 $442 $443 $18 $-1 $444 forward single #
loop $-1 -1 $-1 $-1 $445 $291 #
plane-surface $-1 -1 $-1 -26.92999999999980076 -13.98700000000008714 -59.04999999999990479 0.9873812696224727459 -0.158361069706892732 7.796872625076612651e-30 1.583610697068919215 9.873812696224748109 -6.106701774990902379e-28 forward_v I I I I #
coedge $-1 -1 $-1 $446 $447 $448 $449 reversed $292 0 $-1 #
coedge $-1 -1 $-1 $448 $450 $445 $451 forward $294 0 $-1 #
coedge $-1 -1 $-1 $375 $375 $295 $376 reversed $452 0 $-1 #
edge $-1 -1 $-1 $453 -3.141592653589793116 $453 3.141592653589793116 $375 $454 forward @7 unknown #
loop $-1 -1 $-1 $312 $296 $397 #
vertex $-1 -1 $-1 $297 0 $455 #
ellipse-curve $-1 -1 $-1 1.207922650792170316e-13 38.36299999999995691 51.99999999999985079 -4.893524816237181985e-45 -6.336309517034014715e-31 0.9999999999999991118 0 4.999999999999994671 -3.076557530361936624e-28 1 I I #
coedge $-1 -1 $-1 $302 $298 $456 $457 forward $104 0 $-1 #
coedge $-1 -1 $-1 $458 $459 $298 $382 forward $460 0 $-1 #
edge $-1 -1 $-1 $461 -11.74000000000000199 $385 -0 $298 $462 forward @7 unknown #
coedge $-1 -1 $-1 $299 $408 $458 $463 reversed $384 0 $-1 #
loop $-1 -1 $-1 $-1 $324 $402 #
vertex $-1 -1 $-1 $300 1 $464 #
straight-curve $-1 -1 $-1 50.79999999999997584 -13.98700000000008714 58.3499999999998451 0 -10.00000000000000711 6.153115060723884011e-28 I I #
coedge $-1 -1 $-1 $465 $412 $302 $388 forward $294 0 $-1 #
edge $-1 -1 $-1 $389 1.466999673137982851 $466 1.83889551709477983 $302 $467 forward @7 unknown #
vertex $-1 -1 $-1 $388 0 $468 #
straight-curve $-1 -1 $-1 50.79999999999997584 -13.98700000000008714 58.3499999999998451 4.893524816237175513e-44 6.336309517034005957e-30 -9.999999999999976907 F 0 F 11.74000000000000199 #
point $-1 -1 $-1 50.79999999999997584 -17.70213003140329278 58.3499999999998451 #
coedge $469 -1 $-1 $311 $306 $308 $395 reversed $312 0 $-1 #
straight-curve $-1 -1 $-1 22.22930865593867367 15.3218105302226526 51.99999999999985079 1.583610697068919215 -9.873812696224748109 6.044239346590528527e-28 I I #
coedge $-1 -1 $-1 $308 $320 $315 $398 reversed $237 0 $-1 #
edge $-1 -1 $-1 $399 -5.23300000000000054 $309 0.1529999999999995808 $308 $470 forward @7 unknown #
point $-1 -1 $-1 26.93000000000004235 -13.98700000000008536 51.99999999999985079 #
face $471 -1 $-1 $472 $377 $18 $-1 $473 forward single #
edge $-1 -1 $-1 $399 11.10500000000000043 $322 11.7231296932452711 $394 $474 forward @7 unknown #
vertex $-1 -1 $-1 $395 0 $475 #
straight-curve $-1 -1 $-1 -25.955334653283888 -7.909961563226371339 51.99999999999985079 1.583610697068919215 9.873812696224748109 -6.106701774990902379e-28 I I #
DXID-attrib $-1 -1 $-1 $-1 $317 @10 ASM ENTITY @2 11 #
face $476 -1 $-1 $477 $384 $18 $-1 $478 forward single #
coedge $-1 -1 $-1 $479 $480 $319 $404 reversed $443 0 $-1 #
edge $-1 -1 $-1 $406 1.466999673137982851 $409 1.83889551709477983 $403 $481 forward @7 unknown #
coedge $482 -1 $-1 $320 $483 $479 $484 forward $237 0 $-1 #
vertex $-1 -1 $-1 $404 0 $485 #
point $-1 -1 $-1 -26.92999999999980076 -13.98700000000008714 58.18129693245253264 #
coedge $-1 -1 $-1 $383 $324 $480 $486 forward $384 0 $-1 #
vertex $-1 -1 $-1 $486 0 $487 #
straight-curve $-1 -1 $-1 25.40000000000005542 -17.70213003140329278 58.3499999999998451 9.999999999999973355 0 -1.972152263052529514e-29 F -24.71319130973499512 F 19.63319130973499327 #
coedge $-1 -1 $-1 $488 $327 $489 $490 forward $237 0 $-1 #
coedge $-1 -1 $-1 $387 $491 $327 $413 forward $294 0 $-1 #
edge $-1 -1 $-1 $492 3.962999999999999634 $389 6.349999999999999645 $327 $493 forward @7 unknown #
DXID-attrib $-1 -1 $-1 $-1 $328 @10 ASM ENTITY @2 15 #
plane-surface $-1 -1 $-1 1.207922650792170316e-13 -13.98700000000008714 -0.3500000000000298428 0 -1.00000000000000222 6.153115060723893203e-29 -4.893524816237175513e-44 -6.336309517034005957e-30 9.999999999999976907 forward_v I I I I #
vertex $-1 -1 $-1 $335 0 $494 #
ellipse-curve $-1 -1 $-1 1.332267629550187849e-13 38.29495551780608054 54.30564148812899816 3.851859888774471706e-34 0.04536298812925392693 0.9989705697907146353 3.000000000000000444 1.835079166104908989e-16 -8.3330457318375291e-18 1 I I #
vertex $-1 -1 $-1 $336 0 $495 #
ellipse-curve $-1 -1 $-1 1.332267629550187849e-13 38.38568149406459185 56.30358262771042632 -3.851859888774471706e-34 -0.04536298812925392693 -0.9989705697907146353 2.500000000000000444 1.529232638420757532e-16 -6.944204776531275791e-18 1 I I #
point $-1 -1 $-1 -2.999999999999867217 38.36299999999996402 55.80409734281506928 #
vertex $-1 -1 $-1 $346 0 $496 #
ellipse-curve $-1 -1 $-1 1.243449787580175325e-13 38.29495551780607343 -55.00564148812902943 -3.851859888774471706e-34 0.04536298812925382284 -0.9989705697907146353 3.000000000000000444 -1.835079166104908989e-16 -8.33304573183750907e-18 1 I I #
vertex $-1 -1 $-1 $347 0 $497 #
ellipse-curve $-1 -1 $-1 1.243449787580175325e-13 38.38568149406457763 -57.00358262771045759 3.851859888774471706e-34 -0.04536298812925382284 0.9989705697907146353 2.500000000000000444 -1.529232638420757532e-16 -6.944204776531258843e-18 1 I I #
point $-1 -1 $-1 -2.999999999999876099 38.36299999999994981 -56.50409734281510055 #
DXID-attrib $-1 -1 $-1 $-1 $353 @10 ASM ENTITY @1 7 #
loop $-1 -1 $-1 $498 $430 $353 #
cone-surface $-1 -1 $-1 0 0 0 0 1 0 50 0 0 1 I I 0 1 50 forward I I I I #
loop $-1 -1 $-1 $-1 $436 $276 #
coedge $-1 -1 $-1 $430 $430 $357 $431 forward $427 0 $-1 #
edge $-1 -1 $-1 $499 -1.224646799147353207e-16 $499 6.283185307179586232 $430 $500 forward @7 unknown #
vertex $-1 -1 $-1 $359 0 $501 #
ellipse-curve $-1 -1 $-1 0 83 0 0 1 0 -7.500000000000000888 0 0 1 I I #
point $-1 -1 $-1 52 68 -6.36816335556623717e-15 #
point $-1 -1 $-1 48 83 5.878304635907295e-15 #
coedge $502 -1 $-1 $436 $436 $365 $437 reversed $429 0 $-1 #
edge $-1 -1 $-1 $503 -3.141592653589793116 $503 3.141592653589793116 $365 $504 forward @7 unknown #
DXID-attrib $-1 -1 $-1 $-1 $367 @10 ASM ENTITY @1 9 #
loop $-1 -1 $-1 $-1 $505 $367 #
plane-surface $-1 -1 $-1 0 0 0 0 1 0 10 0 0 forward_v I I I I #
DXID-attrib $-1 -1 $-1 $-1 $370 @10 ASM ENTITY @1 8 #
face $506 -1 $-1 $507 $508 $18 $-1 $152 reversed single #
loop $-1 -1 $-1 $-1 $403 $370 #
plane-surface $-1 -1 $-1 -50.79999999999973426 -13.98700000000008714 58.3499999999998451 -0.9999999999999986677 -0 1.972152263052532316e-30 4.893524816237175513e-44 6.336309517034005957e-30 -9.999999999999976907 forward_v I I I I #
coedge $-1 -1 $-1 $509 $510 $374 $451 reversed $371 0 $-1 #
coedge $-1 -1 $-1 $511 $373 $510 $512 forward $292 0 $-1 #
coedge $-1 -1 $-1 $373 $511 $513 $514 forward $292 0 $-1 #
coedge $-1 -1 $-1 $491 $374 $373 $449 forward $294 0 $-1 #
edge $-1 -1 $-1 $515 0.8469999999999999751 $516 4.232999999999999652 $373 $517 forward @7 unknown #
coedge $-1 -1 $-1 $374 $518 $483 $519 forward $294 0 $-1 #
edge $-1 -1 $-1 $520 -1.460627839536918327 $515 4.860399562966346565 $445 $521 forward @7 unknown #
loop $-1 -1 $-1 $-1 $375 $442 #
vertex $-1 -1 $-1 $376 0 $522 #
ellipse-curve $-1 -1 $-1 1.207922650792170316e-13 38.36299999999995691 -56.50409734281510055 -4.888487273961460417e-45 -0.04536298812925378815 0.9989705697907138582 -1.111068308026736445e-45 4.999999999999994671 0.227048671407592495 0.9989705697907147464 I I #
point $-1 -1 $-1 1.207922650792170316e-13 33.36299999999996402 51.99999999999985079 #
coedge $-1 -1 $-1 $523 $524 $380 $457 reversed $525 0 $-1 #
edge $-1 -1 $-1 $461 -0.6350000000000000089 $466 -0.3715130031403202082 $380 $526 forward @7 unknown #
coedge $-1 -1 $-1 $527 $381 $383 $463 forward $460 0 $-1 #
coedge $-1 -1 $-1 $381 $527 $523 $528 forward $460 0 $-1 #
loop $-1 -1 $-1 $-1 $381 $472 #
vertex $-1 -1 $-1 $457 0 $529 #
straight-curve $-1 -1 $-1 50.79999999999997584 -20.33700000000009211 58.3499999999998451 -4.893524816237175513e-44 -6.336309517034005957e-30 9.999999999999976907 I I #
edge $-1 -1 $-1 $385 -10.16000000000000014 $530 -0 $383 $531 forward @7 unknown #
point $-1 -1 $-1 50.79999999999997584 -20.33700000000009211 58.3499999999998451 #
coedge $-1 -1 $-1 $518 $387 $524 $532 forward $294 0 $-1 #
vertex $-1 -1 $-1 $532 0 $533 #
straight-curve $-1 -1 $-1 50.79999999999997584 0.6678949935743538902 -58.21582204487082635 2.219849081491752693e-45 -9.989705697907155013 -0.453629881292535786 I I #
point $-1 -1 $-1 50.79999999999997584 -13.98700000000008714 -58.88129693245259944 #
ATTRIB_CUSTOM-attrib $-1 -1 $-1 $-1 $392 @17 sketch_attrib_def 1 1 3 @13 131 0 1 0 1 1 #
straight-curve $-1 -1 $-1 25.40000000000005542 -13.98700000000008714 51.99999999999983658 9.999999999999973355 0 -1.972152263052529514e-29 I I #
DXID-attrib $-1 -1 $-1 $-1 $397 @10 ASM ENTITY @2 16 #
face $534 -1 $-1 $-1 $460 $18 $-1 $535 forward single #
plane-surface $-1 -1 $-1 50.79999999999997584 -13.98700000000008714 51.99999999999985079 4.893524816237181985e-45 6.336309517034014715e-31 -0.9999999999999991118 -9.999999999999973355 0 1.972152263052529514e-29 forward_v I I I I #
straight-curve $-1 -1 $-1 -26.92999999999980076 -13.98700000000008714 -59.04999999999990479 -4.893524816237175513e-44 -6.336309517034005957e-30 9.999999999999976907 I I #
point $-1 -1 $-1 -26.92999999999980432 -13.98700000000008714 51.99999999999983658 #
DXID-attrib $-1 -1 $-1 $-1 $402 @10 ASM ENTITY @2 12 #
face $536 -1 $-1 $537 $525 $18 $-1 $538 forward single #
plane-surface $-1 -1 $-1 50.79999999999997584 -13.98700000000008714 58.3499999999998451 -4.893524816237181985e-45 -6.336309517034014715e-31 0.9999999999999991118 -9.999999999999973355 0 1.972152263052529514e-29 forward_v I I I I #
coedge $539 -1 $-1 $540 $403 $405 $484 reversed $443 0 $-1 #
coedge $-1 -1 $-1 $403 $541 $408 $486 reversed $443 0 $-1 #
straight-curve $-1 -1 $-1 -50.79999999999973426 0.6678949935743538902 57.51582204487076666 -2.219849081491757983e-45 -9.989705697907155013 0.4536298812925368407 I I #
ATTRIB_CUSTOM-attrib $-1 -1 $-1 $-1 $405 @17 sketch_attrib_def 1 1 3 @13 105 0 1 0 1 1 #
coedge $-1 -1 $-1 $405 $542 $450 $519 reversed $237 0 $-1 #
edge $-1 -1 $-1 $543 0.01687030675473095986 $406 11.7231296932452711 $479 $544 forward @7 unknown #
point $-1 -1 $-1 -50.79999999999973426 -13.98700000000008714 58.18129693245253264 #
edge $-1 -1 $-1 $409 0.3715130031403202082 $530 0.6350000000000000089 $408 $545 forward @7 unknown #
point $-1 -1 $-1 -50.79999999999973426 -17.70213003140329278 58.3499999999998451 #
coedge $-1 -1 $-1 $542 $411 $546 $547 forward $237 0 $-1 #
coedge $-1 -1 $-1 $548 $549 $411 $490 reversed $550 0 $-1 #
edge $-1 -1 $-1 $492 0.01687030675473098762 $551 0.6350000000000000089 $489 $310 forward @7 unknown #
coedge $-1 -1 $-1 $412 $448 $548 $552 forward $294 0 $-1 #
vertex $-1 -1 $-1 $490 0 $553 #
straight-curve $-1 -1 $-1 -12.69999999999983942 -13.98700000000008714 -58.88129693245259233 9.999999999999973355 0 -1.972152263052529514e-29 I I #
point $-1 -1 $-1 -2.999999999999867217 38.29495551780608054 54.30564148812899816 #
point $-1 -1 $-1 -2.499999999999867217 38.38568149406459185 56.30358262771042632 #
point $-1 -1 $-1 -2.999999999999876099 38.29495551780607343 -55.00564148812902943 #
point $-1 -1 $-1 -2.499999999999876099 38.38568149406457763 -57.00358262771045759 #
loop $-1 -1 $-1 $-1 $554 $353 #
vertex $-1 -1 $-1 $431 0 $555 #
ellipse-curve $-1 -1 $-1 0 68 0 -0 -1 -0 50 0 0 1 I I #
point $-1 -1 $-1 7.500000000000000888 83 -9.184850993605151889e-16 #
ATTRIB_CUSTOM-attrib $-1 -1 $-1 $-1 $436 @17 sketch_attrib_def 1 1 3 @22 107 0 4294967295 0 1 1 #
vertex $-1 -1 $-1 $437 0 $556 #
ellipse-curve $-1 -1 $-1 0 89 0 0 1 0 -7.500000000000000888 0 0 1 I I #
coedge $557 -1 $-1 $505 $505 $554 $558 reversed $439 0 $-1 #
DXID-attrib $-1 -1 $-1 $-1 $442 @10 ASM ENTITY @1 9 #
face $559 -1 $-1 $317 $550 $18 $-1 $72 reversed single #
loop $-1 -1 $-1 $452 $560 $442 #
coedge $-1 -1 $-1 $561 $445 $542 $562 forward $371 0 $-1 #
coedge $-1 -1 $-1 $445 $561 $446 $512 reversed $371 0 $-1 #
coedge $-1 -1 $-1 $447 $446 $563 $564 forward $292 0 $-1 #
edge $-1 -1 $-1 $515 0.1412500000000000422 $565 0.4762500000000000067 $446 $566 forward @7 unknown #
coedge $-1 -1 $-1 $549 $548 $447 $514 reversed $550 0 $-1 #
edge $-1 -1 $-1 $567 -0.4762500000000000067 $516 -0.1412500000000000422 $447 $568 forward @7 unknown #
vertex $-1 -1 $-1 $512 0 $569 #
vertex $-1 -1 $-1 $449 1 $570 #
straight-curve $-1 -1 $-1 -25.39999999999980673 48.36299999999997112 -56.04999999999991189 9.999999999999973355 0 -1.972152263052529514e-29 F -19.63319130973499327 F 24.71319130973499512 #
coedge $-1 -1 $-1 $450 $465 $540 $571 forward $294 0 $-1 #
edge $-1 -1 $-1 $543 -3.810000000000000053 $520 -1.423000000000000043 $483 $493 forward @7 unknown #
vertex $-1 -1 $-1 $562 0 $572 #
straight-curve $-1 -1 $-1 -24.61925564385530052 0.4204910605609182284 -58.22705659172916626 1.58202130179656475 9.863902816701617837 0.4479172058851427773 I I #
point $-1 -1 $-1 1.207922650792170316e-13 33.36299999999996402 -56.73114601422268777 #
coedge $-1 -1 $-1 $573 $456 $459 $528 reversed $525 0 $-1 #
coedge $-1 -1 $-1 $456 $573 $465 $532 reversed $525 0 $-1 #
loop $-1 -1 $-1 $-1 $524 $477 #
straight-curve $-1 -1 $-1 50.79999999999997584 -13.98700000000008714 -59.04999999999990479 0 10.00000000000000711 -6.153115060723884011e-28 I I #
coedge $-1 -1 $-1 $459 $458 $541 $574 forward $460 0 $-1 #
edge $-1 -1 $-1 $575 -10.16000000000000014 $461 -0 $523 $576 forward @7 unknown #
point $-1 -1 $-1 50.79999999999997584 -20.33700000000009211 -59.04999999999990479 #
vertex $-1 -1 $-1 $486 1 $577 #
straight-curve $-1 -1 $-1 -50.79999999999973426 -20.33700000000009211 58.3499999999998451 -9.999999999999973355 0 1.972152263052529514e-29 I I #
edge $-1 -1 $-1 $466 -7.620000000000000107 $578 2.540000000000000036 $524 $579 forward @7 unknown #
point $-1 -1 $-1 50.79999999999997584 -17.70213003140329278 -59.04999999999990479 #
DXID-attrib $-1 -1 $-1 $-1 $472 @10 ASM ENTITY @2 17 #
plane-surface $-1 -1 $-1 1.207922650792170316e-13 -20.33700000000009211 -0.3500000000000298428 0 -1.00000000000000222 6.153115060723893203e-29 9.999999999999973355 0 -1.972152263052529514e-29 forward_v I I I I #
DXID-attrib $-1 -1 $-1 $-1 $477 @10 ASM ENTITY @2 13 #
face $580 -1 $-1 $328 $581 $18 $-1 $582 forward single #
plane-surface $-1 -1 $-1 -50.79999999999973426 -13.98700000000008714 -59.04999999999990479 4.893524816237181985e-45 6.336309517034014715e-31 -0.9999999999999991118 9.999999999999973355 0 -1.972152263052529514e-29 forward_v I I I I #
ATTRIB_CUSTOM-attrib $-1 -1 $-1 $-1 $479 @17 sketch_attrib_def 1 1 3 @13 105 0 1 0 1 1 #
coedge $-1 -1 $-1 $583 $479 $518 $571 reversed $443 0 $-1 #
coedge $-1 -1 $-1 $480 $583 $527 $574 reversed $443 0 $-1 #
coedge $-1 -1 $-1 $483 $488 $509 $562 reversed $237 0 $-1 #
vertex $-1 -1 $-1 $484 0 $584 #
straight-curve $-1 -1 $-1 -50.79999999999973426 -13.98700000000008714 -59.04999999999990479 -4.893524816237175513e-44 -6.336309517034005957e-30 9.999999999999976907 F 0 F 11.74000000000000199 #
straight-curve $-1 -1 $-1 -50.79999999999973426 -13.98700000000008714 58.3499999999998451 0 -10.00000000000000711 6.153115060723884011e-28 I I #
coedge $585 -1 $-1 $586 $587 $488 $547 reversed $588 0 $-1 #
edge $-1 -1 $-1 $551 -5.232999999999999652 $589 0.1530000000000000249 $488 $590 forward @7 unknown #
coedge $-1 -1 $-1 $513 $489 $491 $552 reversed $550 0 $-1 #
coedge $-1 -1 $-1 $489 $513 $586 $591 reversed $550 0 $-1 #
loop $-1 -1 $-1 $-1 $548 $507 #
vertex $-1 -1 $-1 $547 0 $592 #
edge $-1 -1 $-1 $516 -1.30439338411346295 $492 5.016634018389802385 $548 $593 forward @7 unknown #
point $-1 -1 $-1 26.93000000000004235 -13.98700000000008536 -58.88129693245259233 #
coedge $594 -1 $-1 $554 $554 $505 $558 forward $498 0 $-1 #
point $-1 -1 $-1 50 68 -6.123233995736766085e-15 #
point $-1 -1 $-1 7.500000000000000888 89 -9.184850993605151889e-16 #
ATTRIB_CUSTOM-attrib $-1 -1 $-1 $-1 $505 @17 sketch_attrib_def 1 1 3 @13 102 0 0 0 1 1 #
edge $-1 -1 $-1 $595 -3.141592653589793116 $595 3.141592653589793116 $554 $596 forward @7 unknown #
DXID-attrib $-1 -1 $-1 $-1 $507 @10 ASM ENTITY @2 10 #
coedge $-1 -1 $-1 $560 $560 $597 $598 reversed $508 0 $-1 #
coedge $-1 -1 $-1 $510 $509 $587 $599 reversed $371 0 $-1 #
edge $-1 -1 $-1 $520 0.01687030675473095986 $589 0.6350000000000000089 $542 $474 forward @7 unknown #
coedge $-1 -1 $-1 $587 $586 $511 $564 reversed $588 0 $-1 #
edge $-1 -1 $-1 $565 -6.772999999999999687 $567 -3.387000000000000455 $563 $600 forward @7 unknown #
vertex $-1 -1 $-1 $564 0 $601 #
straight-curve $-1 -1 $-1 -16.92999999999982919 48.36299999999997112 -57.46249999999990621 -4.893524816237175513e-44 -6.336309517034005957e-30 9.999999999999976907 I I #
vertex $-1 -1 $-1 $591 1 $602 #
straight-curve $-1 -1 $-1 16.93000000000007077 48.36299999999997112 -57.46249999999990621 4.893524816237175513e-44 6.336309517034005957e-30 -9.999999999999976907 I I #
point $-1 -1 $-1 -16.92999999999982919 48.36299999999997112 -56.04999999999991189 #
point $-1 -1 $-1 16.93000000000007077 48.36299999999997112 -56.04999999999991189 #
edge $-1 -1 $-1 $578 -2.105176257413498675 $543 -1.733280413456701696 $540 $603 forward @7 unknown #
point $-1 -1 $-1 -26.92999999999980076 -13.98700000000008714 -58.88129693245259233 #
coedge $-1 -1 $-1 $524 $523 $583 $604 reversed $525 0 $-1 #
edge $-1 -1 $-1 $530 -11.74000000000000199 $575 -0 $541 $605 forward @7 unknown #
vertex $-1 -1 $-1 $604 1 $606 #
straight-curve $-1 -1 $-1 50.79999999999997584 -20.33700000000009211 -59.04999999999990479 9.999999999999973355 0 -1.972152263052529514e-29 I I #
point $-1 -1 $-1 -50.79999999999973426 -20.33700000000009211 58.3499999999998451 #
vertex $-1 -1 $-1 $604 0 $607 #
straight-curve $-1 -1 $-1 -25.39999999999980673 -17.70213003140329278 -59.04999999999990479 -9.999999999999973355 0 1.972152263052529514e-29 F -24.71319130973499512 F 19.63319130973499327 #
DXID-attrib $-1 -1 $-1 $-1 $537 @10 ASM ENTITY @2 14 #
loop $-1 -1 $-1 $588 $597 $537 #
plane-surface $-1 -1 $-1 -50.79999999999973426 -13.98700000000008714 -52.69999999999991758 -4.893524816237181985e-45 -6.336309517034014715e-31 0.9999999999999991118 9.999999999999973355 0 -1.972152263052529514e-29 forward_v I I I I #
coedge $-1 -1 $-1 $541 $540 $573 $604 forward $443 0 $-1 #
point $-1 -1 $-1 -50.79999999999973426 -13.98700000000008714 -58.88129693245259233 #
ATTRIB_CUSTOM-attrib $-1 -1 $-1 $-1 $546 @17 sketch_attrib_def 1 1 3 @13 124 0 1 0 1 1 #
coedge $-1 -1 $-1 $563 $546 $549 $591 forward $588 0 $-1 #
coedge $-1 -1 $-1 $546 $563 $561 $599 forward $588 0 $-1 #
loop $-1 -1 $-1 $-1 $586 $537 #
vertex $-1 -1 $-1 $562 1 $608 #
straight-curve $-1 -1 $-1 -25.39999999999980673 -13.98700000000008714 -52.69999999999991758 -9.999999999999973355 -0 1.972152263052529514e-29 I I #
edge $-1 -1 $-1 $551 -3.772811940317346568 $567 2.541871345485672062 $586 $609 forward @7 unknown #
point $-1 -1 $-1 26.93000000000004235 -13.98700000000008536 -52.69999999999991758 #
straight-curve $-1 -1 $-1 18.99357811959009013 35.49659042435622069 -56.63426023998707848 1.58202130179656475 -9.863902816701617837 -0.4479172058851427773 I I #
ATTRIB_CUSTOM-attrib $-1 -1 $-1 $-1 $554 @17 sketch_attrib_def 1 1 3 @13 102 0 0 0 1 1 #
vertex $-1 -1 $-1 $558 0 $610 #
ellipse-curve $-1 -1 $-1 0 0 0 0 1 0 50 0 0 1 I I #
coedge $-1 -1 $-1 $597 $597 $560 $598 forward $581 0 $-1 #
edge $-1 -1 $-1 $611 -3.141592653589793116 $611 3.141592653589793116 $597 $612 forward @7 unknown #
edge $-1 -1 $-1 $565 -6.503687222498194309 $589 -0.1890039366951760946 $587 $613 forward @7 unknown #
straight-curve $-1 -1 $-1 50.79999999999997584 48.36299999999997112 -52.69999999999991758 9.999999999999973355 0 -1.972152263052529514e-29 I I #
point $-1 -1 $-1 -16.92999999999982919 48.36299999999997112 -52.69999999999991758 #
point $-1 -1 $-1 16.93000000000007077 48.36299999999997112 -52.69999999999991758 #
straight-curve $-1 -1 $-1 -50.79999999999973426 3.327961222379194339 -58.09502914424955122 -2.219849081491752693e-45 9.989705697907155013 0.453629881292535786 I I #
edge $-1 -1 $-1 $578 0.3715130031403202082 $575 0.6350000000000000089 $583 $614 forward @7 unknown #
straight-curve $-1 -1 $-1 -50.79999999999973426 -20.33700000000009211 -59.04999999999990479 4.893524816237175513e-44 6.336309517034005957e-30 -9.999999999999976907 I I #
point $-1 -1 $-1 -50.79999999999973426 -20.33700000000009211 -59.04999999999990479 #
point $-1 -1 $-1 -50.79999999999973426 -17.70213003140329278 -59.04999999999990479 #
point $-1 -1 $-1 -26.92999999999980076 -13.98700000000008714 -52.69999999999991758 #
straight-curve $-1 -1 $-1 20.95533465328414735 23.26503843677365779 -52.69999999999991758 -1.583610697068919215 9.873812696224748109 -6.044239346590528527e-28 I I #
point $-1 -1 $-1 -50 0 6.123233995736766085e-15 #
vertex $-1 -1 $-1 $598 0 $615 #
ellipse-curve $-1 -1 $-1 1.207922650792170316e-13 38.36299999999995691 -52.69999999999991758 4.893524816237181985e-45 6.336309517034014715e-31 -0.9999999999999991118 0 4.999999999999994671 -3.076557530361936624e-28 1 I I #
straight-curve $-1 -1 $-1 -27.22930865593842142 -15.85318946977737475 -52.69999999999991758 -1.583610697068919215 -9.873812696224748109 6.106701774990902379e-28 I I #
straight-curve $-1 -1 $-1 -50.79999999999973426 -13.98700000000008714 -59.04999999999990479 0 -10.00000000000000711 6.153115060723884011e-28 I I #
point $-1 -1 $-1 1.207922650792170316e-13 33.36299999999996402 -52.69999999999991758 #
End-of-ASM-data 