700 0 4 0           
30 Autodesk Translation Framework 20 ASM 227.7.2.65535 NT 24 Fri Mar 25 21:12:13 2022 
1 9.999999999999999547e-07 1.000000000000000036e-10 
body $4 -1 $-1 $5 $-1 $6 #
body $7 -1 $-1 $8 $-1 $9 #
body $10 -1 $-1 $11 $-1 $12 #
body $13 -1 $-1 $14 $-1 $15 #
rgb_color-st-attrib $-1 -1 $16 $-1 $0 0.627450980392156854 0.627450980392156854 0.627450980392156854 #
lump $-1 -1 $-1 $-1 $17 $0 #
transform $-1 -1 1 0 0 0 1 0 0 0 1 0 0 0 1 no_rotate no_reflect no_shear #
rgb_color-st-attrib $-1 -1 $18 $-1 $1 0.627450980392156854 0.627450980392156854 0.627450980392156854 #
lump $-1 -1 $-1 $-1 $19 $1 #
transform $-1 -1 1 0 0 0 1 0 0 0 1 0 0 0 1 no_rotate no_reflect no_shear #
rgb_color-st-attrib $-1 -1 $20 $-1 $2 0.627450980392156854 0.627450980392156854 0.627450980392156854 #
lump $-1 -1 $-1 $-1 $21 $2 #
transform $-1 -1 1 0 0 0 1 0 0 0 1 0 0 0 1 no_rotate no_reflect no_shear #
rgb_color-st-attrib $-1 -1 $22 $-1 $3 0.627450980392156854 0.627450980392156854 0.627450980392156854 #
lump $-1 -1 $-1 $-1 $23 $3 #
transform $-1 -1 1 0 0 0 1 0 0 0 1 0 0 0 1 no_rotate no_reflect no_shear #
ATTRIB_CUSTOM-attrib $-1 -1 $-1 $4 $0 @20 Timestamp_attrib_def 1 1583013485317733 #
shell $-1 -1 $-1 $-1 $-1 $24 $-1 $5 #
ATTRIB_CUSTOM-attrib $-1 -1 $-1 $7 $1 @20 Timestamp_attrib_def 1 1583203112402930 #
shell $-1 -1 $-1 $-1 $-1 $25 $-1 $8 #
DXID-attrib $-1 -1 $-1 $10 $2 @10 ASM ENTITY @240 {"label":"Body1","asset":"e6f8bd0b-aba9-4621-8637-f5e344f3a895","segment":"0","entity":"268","revision":"7b22bf47-0254-4a5f-9950-aaf9de3edf99","meta":"D3937028-C20C-4E65-B010-94AD418A5C20","metaName":"BodyMetaType","extra":""}:FlattenCopy:1 #
shell $-1 -1 $-1 $-1 $-1 $26 $-1 $11 #
ATTRIB_CUSTOM-attrib $-1 -1 $-1 $13 $3 @20 Timestamp_attrib_def 1 1582953158029926 #
shell $-1 -1 $-1 $-1 $-1 $27 $-1 $14 #
face $28 -1 $-1 $29 $30 $17 $-1 $31 forward single #
face $32 -1 $-1 $33 $34 $19 $-1 $35 forward single #
face $36 -1 $-1 $37 $38 $21 $-1 $39 forward single #
face $40 -1 $-1 $41 $42 $23 $-1 $43 reversed single #
DXID-attrib $-1 -1 $-1 $-1 $24 @10 ASM ENTITY @1 0 #
face $44 -1 $-1 $45 $46 $17 $-1 $47 forward single #
loop $-1 -1 $-1 $48 $49 $24 #
plane-surface $-1 -1 $-1 25.40000000000008384 15.3304349842982468 56.8499999999998451 -4.888487273961465395e-45 0.04536298812925378815 0.9989705697907147464 -9.999999999999976907 -3.01104212468150223e-72 -4.893524816237175513e-44 forward_v I I I I #
DXID-attrib $-1 -1 $-1 $-1 $25 @10 ASM ENTITY @1 0 #
face $50 -1 $-1 $51 $52 $19 $-1 $53 forward single #
loop $-1 -1 $-1 $54 $55 $25 #
cone-surface $-1 -1 $-1 1.332267629550187849e-13 38.38568149406459185 56.30358262771042632 0 -0.04536298812925392693 -0.9989705697907146353 5 3.058465276841514571e-16 -1.388840955306254542e-17 1 I I 0 1 5 forward I I I I #
DXID-attrib $-1 -1 $-1 $-1 $26 @10 ASM ENTITY @1 0 #
face $56 -1 $-1 $57 $58 $21 $-1 $59 forward single #
loop $-1 -1 $-1 $60 $61 $26 #
cone-surface $-1 -1 $-1 1.243449787580175325e-13 38.38568149406457763 -57.00358262771045759 0 -0.04536298812925382978 0.9989705697907147464 5 -3.058465276841514571e-16 -1.38884095530625146e-17 1 I I 0 1 5 forward I I I I #
DXID-attrib $-1 -1 $-1 $-1 $27 @10 ASM ENTITY @1 0 #
face $62 -1 $-1 $63 $64 $23 $-1 $65 forward single #
loop $-1 -1 $-1 $66 $67 $27 #
cone-surface $-1 -1 $-1 0 89 0 0 -1 0 -1.03774999999999995 0 0 1 I I 0 1 1.270000000000000018 forward I I I I #
DXID-attrib $-1 -1 $-1 $-1 $29 @10 ASM ENTITY @1 1 #
face $68 -1 $-1 $69 $70 $17 $-1 $71 reversed single #
loop $-1 -1 $-1 $-1 $72 $29 #
plane-surface $-1 -1 $-1 1.49213974509621039e-13 48.36299999999977217 55.17499999999986215 -3.042049012546474678e-73 1 6.336309517034005957e-31 -9.999999999999976907 -3.01104212468150223e-72 -4.893524816237175513e-44 forward_v I I I I #
loop $-1 -1 $-1 $-1 $73 $24 #
coedge $-1 -1 $-1 $49 $49 $74 $75 forward $30 $-1 #
DXID-attrib $-1 -1 $-1 $-1 $33 @10 ASM ENTITY @1 1 #
face $76 -1 $-1 $77 $78 $19 $-1 $79 reversed single #
loop $-1 -1 $-1 $80 $81 $33 #
torus-surface $-1 -1 $-1 1.332267629550187849e-13 38.36299999999996402 55.80409734281506928 0 -0.04536298812925392693 -0.9989705697907146353 4.5 0.5 -6.123233995736762338e-17 0.9989705697907146353 -0.04536298812925392693 forward_v I I I I #
loop $-1 -1 $-1 $-1 $82 $25 #
coedge $-1 -1 $-1 $55 $55 $83 $84 reversed $34 $-1 #
DXID-attrib $-1 -1 $-1 $-1 $37 @10 ASM ENTITY @1 1 #
face $85 -1 $-1 $86 $87 $21 $-1 $88 reversed single #
loop $-1 -1 $-1 $89 $90 $37 #
torus-surface $-1 -1 $-1 1.243449787580175325e-13 38.36299999999994981 -56.50409734281510055 0 -0.04536298812925382978 0.9989705697907147464 4.5 0.5 -6.123233995736763571e-17 -0.9989705697907147464 -0.04536298812925382978 forward_v I I I I #
loop $-1 -1 $-1 $-1 $91 $26 #
coedge $-1 -1 $-1 $61 $61 $92 $93 reversed $38 $-1 #
DXID-attrib $-1 -1 $-1 $-1 $41 @10 ASM ENTITY @1 1 #
face $94 -1 $-1 $95 $96 $23 $-1 $97 forward single #
loop $-1 -1 $-1 $-1 $98 $41 #
plane-surface $-1 -1 $-1 0 85 0 0 1 0 -10 0 0 forward_v I I I I #
loop $-1 -1 $-1 $-1 $99 $27 #
coedge $-1 -1 $-1 $67 $67 $98 $100 forward $42 $-1 #
DXID-attrib $-1 -1 $-1 $-1 $45 @10 ASM ENTITY @1 2 #
face $101 -1 $-1 $102 $103 $17 $-1 $104 forward single #
loop $-1 -1 $-1 $-1 $105 $45 #
plane-surface $-1 -1 $-1 16.93000000000009919 48.36299999999977217 -59.04999999999990479 -0.9873812696224740781 -0.1583610697068923712 -1.003424753111516071e-31 1.583610697068920103 -9.873812696224717911 -6.256353335649979487e-30 forward_v I I I I #
coedge $-1 -1 $-1 $106 $107 $108 $109 reversed $46 $-1 #
coedge $-1 -1 $-1 $108 $110 $105 $111 forward $48 $-1 #
coedge $-1 -1 $-1 $74 $74 $49 $75 reversed $112 $-1 #
edge $-1 -1 $-1 $113 -3.141592653589793116 $113 3.141592653589793116 $74 $114 forward @7 unknown #
DXID-attrib $-1 -1 $-1 $-1 $51 @10 ASM ENTITY @1 2 #
face $115 -1 $-1 $116 $117 $19 $-1 $118 forward single #
loop $-1 -1 $-1 $119 $120 $51 #
cone-surface $-1 -1 $-1 1.332267629550187849e-13 38.38568149406459185 56.30358262771042632 0 -0.04536298812925392693 -0.9989705697907146353 4 2.446772221473211657e-16 -1.111072764245003726e-17 1 I I 0 1 4 forward I I I I #
loop $-1 -1 $-1 $-1 $121 $33 #
coedge $-1 -1 $-1 $81 $81 $82 $122 forward $52 $-1 #
coedge $-1 -1 $-1 $82 $82 $81 $122 reversed $54 $-1 #
coedge $-1 -1 $-1 $83 $83 $55 $84 forward $123 $-1 #
edge $-1 -1 $-1 $124 -3.141592653589793116 $124 3.141592653589793116 $55 $125 forward @7 unknown #
DXID-attrib $-1 -1 $-1 $-1 $57 @10 ASM ENTITY @1 2 #
face $126 -1 $-1 $127 $128 $21 $-1 $129 forward single #
loop $-1 -1 $-1 $130 $131 $57 #
cone-surface $-1 -1 $-1 1.243449787580175325e-13 38.38568149406457763 -57.00358262771045759 0 -0.04536298812925382978 0.9989705697907147464 4 -2.446772221473211657e-16 -1.111072764245001261e-17 1 I I 0 1 4 forward I I I I #
loop $-1 -1 $-1 $-1 $132 $37 #
coedge $-1 -1 $-1 $90 $90 $91 $133 forward $58 $-1 #
coedge $-1 -1 $-1 $91 $91 $90 $133 reversed $60 $-1 #
coedge $-1 -1 $-1 $92 $92 $61 $93 forward $134 $-1 #
edge $-1 -1 $-1 $135 -3.141592653589793116 $135 3.141592653589793116 $61 $136 forward @7 unknown #
DXID-attrib $-1 -1 $-1 $-1 $63 @10 ASM ENTITY @1 2 #
face $137 -1 $-1 $138 $139 $23 $-1 $140 forward single #
loop $-1 -1 $-1 $141 $142 $63 #
cone-surface $-1 -1 $-1 0 81.00000000000001421 0 0 1 0 -50 0 0 1 I I -0.7071067811865474617 0.7071067811865474617 50 forward I I I I #
coedge $-1 -1 $-1 $98 $98 $67 $100 reversed $64 $-1 #
coedge $143 -1 $-1 $99 $99 $144 $145 reversed $66 $-1 #
edge $-1 -1 $-1 $146 -3.141592653589793116 $146 3.141592653589793116 $67 $147 forward @7 unknown #
DXID-attrib $-1 -1 $-1 $-1 $69 @10 ASM ENTITY @1 3 #
face $148 -1 $-1 $149 $150 $17 $-1 $151 reversed single #
loop $-1 -1 $-1 $-1 $152 $69 #
plane-surface $-1 -1 $-1 50.80000000000003268 -13.98700000000008714 -59.04999999999990479 1 3.011042124681509142e-73 4.893524816237186964e-45 -4.893524816237175513e-44 -6.336309517034005957e-30 9.999999999999976907 forward_v I I I I #
coedge $-1 -1 $-1 $153 $154 $73 $111 reversed $70 $-1 #
coedge $-1 -1 $-1 $155 $72 $154 $156 forward $46 $-1 #
coedge $-1 -1 $-1 $72 $155 $157 $158 forward $46 $-1 #
coedge $-1 -1 $-1 $159 $73 $72 $109 forward $48 $-1 #
edge $-1 -1 $-1 $160 0.8470000000000004192 $161 4.23300000000000054 $72 $162 forward @7 unknown #
coedge $-1 -1 $-1 $73 $163 $164 $165 forward $48 $-1 #
edge $-1 -1 $-1 $166 -4.877728007588053138 $160 1.443299394915211087 $105 $167 forward @7 unknown #
loop $-1 -1 $-1 $-1 $74 $102 #
vertex $-1 -1 $-1 $75 $168 #
ellipse-curve $-1 -1 $-1 1.49213974509621039e-13 38.36299999999979349 55.80409734281504797 4.888487273961465395e-45 -0.04536298812925378815 -0.9989705697907147464 1.111068308026739245e-45 4.999999999999979572 -0.2270486714075930224 0.9989705697907147464 I I #
DXID-attrib $-1 -1 $-1 $-1 $77 @10 ASM ENTITY @1 3 #
face $169 -1 $-1 $170 $171 $19 $-1 $172 reversed single #
loop $-1 -1 $-1 $173 $174 $77 #
torus-surface $-1 -1 $-1 1.332267629550187849e-13 38.36299999999996402 55.80409734281506928 0 0.04536298812925392693 0.9989705697907146353 2.500000000000000444 0.5 6.123233995736762338e-17 -0.9989705697907146353 0.04536298812925392693 forward_v I I I I #
loop $-1 -1 $-1 $-1 $175 $51 #
coedge $-1 -1 $-1 $120 $120 $176 $177 forward $78 $-1 #
coedge $-1 -1 $-1 $121 $121 $175 $178 forward $80 $-1 #
edge $-1 -1 $-1 $179 -3.141592653589793116 $179 3.141592653589793116 $82 $180 forward @7 tangent #
loop $-1 -1 $-1 $-1 $83 $181 #
vertex $-1 -1 $-1 $84 $182 #
ellipse-curve $-1 -1 $-1 1.332267629550187849e-13 36.11753208760189437 6.35505413817469389 0 -0.04536298812925392693 -0.9989705697907146353 5 3.058465276841514571e-16 -1.388840955306254542e-17 1 I I #
DXID-attrib $-1 -1 $-1 $-1 $86 @10 ASM ENTITY @1 3 #
face $183 -1 $-1 $184 $185 $21 $-1 $186 reversed single #
loop $-1 -1 $-1 $187 $188 $86 #
torus-surface $-1 -1 $-1 1.243449787580175325e-13 38.36299999999994981 -56.50409734281510055 0 0.04536298812925382978 -0.9989705697907147464 2.500000000000000444 0.5 6.123233995736763571e-17 0.9989705697907147464 0.04536298812925382978 forward_v I I I I #
loop $-1 -1 $-1 $-1 $189 $57 #
coedge $-1 -1 $-1 $131 $131 $190 $191 forward $87 $-1 #
coedge $-1 -1 $-1 $132 $132 $189 $192 forward $89 $-1 #
edge $-1 -1 $-1 $193 -3.141592653589793116 $193 3.141592653589793116 $91 $194 forward @7 tangent #
loop $-1 -1 $-1 $-1 $92 $195 #
vertex $-1 -1 $-1 $93 $196 #
ellipse-curve $-1 -1 $-1 1.243449787580175325e-13 36.11753208760188727 -7.055054138174718048 0 -0.04536298812925382978 0.9989705697907147464 5 -3.058465276841514571e-16 -1.38884095530625146e-17 1 I I #
DXID-attrib $-1 -1 $-1 $-1 $95 @10 ASM ENTITY @1 3 #
face $197 -1 $-1 $198 $199 $23 $-1 $200 forward single #
loop $-1 -1 $-1 $201 $202 $95 #
cone-surface $-1 -1 $-1 0 83 0 0 -1 0 -52 0 0 1 I I 0 1 52 forward I I I I #
loop $-1 -1 $-1 $-1 $203 $63 #
coedge $-1 -1 $-1 $142 $142 $204 $205 forward $96 $-1 #
ATTRIB_CUSTOM-attrib $-1 -1 $-1 $-1 $99 @17 sketch_attrib_def 1 1 3 @13 124 0 0 0 1 1 #
coedge $-1 -1 $-1 $144 $144 $99 $145 forward $206 $-1 #
edge $-1 -1 $-1 $207 -3.141592653589793116 $207 3.141592653589793116 $144 $208 forward @7 unknown #
vertex $-1 -1 $-1 $100 $209 #
ellipse-curve $-1 -1 $-1 0 85 0 -0 -1 -0 -1.03774999999999995 0 0 1 I I #
DXID-attrib $-1 -1 $-1 $-1 $102 @10 ASM ENTITY @1 4 #
face $210 -1 $-1 $211 $212 $17 $-1 $213 forward single #
loop $-1 -1 $-1 $112 $214 $102 #
cone-surface $-1 -1 $-1 1.49213974509621039e-13 38.36299999999979349 -59.04999999999990479 -4.893524816237186964e-45 -6.336309517034020845e-31 1 -1.521024506273231118e-72 4.999999999999979572 3.168154758516989666e-30 1 I I 0 1 4.999999999999979572 forward I I I I #
coedge $-1 -1 $-1 $215 $216 $163 $217 reversed $103 $-1 #
coedge $-1 -1 $-1 $218 $105 $219 $220 reversed $70 $-1 #
coedge $-1 -1 $-1 $105 $218 $106 $156 reversed $70 $-1 #
coedge $-1 -1 $-1 $107 $106 $221 $222 forward $46 $-1 #
edge $-1 -1 $-1 $160 -5.728749999999999787 $223 -5.393750000000000711 $106 $224 forward @7 unknown #
coedge $-1 -1 $-1 $225 $226 $107 $158 reversed $227 $-1 #
edge $-1 -1 $-1 $228 5.393750000000000711 $161 5.728749999999999787 $107 $229 forward @7 unknown #
coedge $-1 -1 $-1 $230 $108 $226 $231 forward $48 $-1 #
vertex $-1 -1 $-1 $111 $232 #
vertex $-1 -1 $-1 $109 $233 #
straight-curve $-1 -1 $-1 25.40000000000008384 48.36299999999977217 55.3499999999998451 -9.999999999999976907 -3.01104212468150223e-72 -4.893524816237175513e-44 F -19.63319130973499327 F 24.71319130973499512 #
coedge $-1 -1 $-1 $110 $234 $152 $217 forward $48 $-1 #
coedge $-1 -1 $-1 $235 $219 $110 $165 reversed $236 $-1 #
edge $-1 -1 $-1 $237 -3.810000000000000497 $166 -1.423000000000000043 $164 $238 forward @7 unknown #
vertex $-1 -1 $-1 $111 $239 #
straight-curve $-1 -1 $-1 19.21333038762606549 34.12643503315192817 55.99647863222597977 -1.582021301796565638 9.863902816701587639 -0.4479172058851438321 I I #
point $-1 -1 $-1 1.49213974509621039e-13 33.3629999999998148 56.0311460142226494 #
DXID-attrib $-1 -1 $-1 $-1 $116 @10 ASM ENTITY @1 4 #
face $240 -1 $-1 $241 $242 $19 $-1 $243 reversed single #
loop $-1 -1 $-1 $244 $245 $116 #
cone-surface $-1 -1 $-1 1.332267629550187849e-13 38.38568149406459185 56.30358262771042632 0 -0.04536298812925392693 -0.9989705697907146353 3.000000000000000444 1.835079166104908989e-16 -8.333045731837527559e-18 1 I I 0 -1 3.000000000000000444 forward I I I I #
loop $-1 -1 $-1 $-1 $246 $77 #
coedge $-1 -1 $-1 $174 $174 $247 $248 forward $117 $-1 #
coedge $-1 -1 $-1 $175 $175 $121 $178 reversed $119 $-1 #
coedge $-1 -1 $-1 $176 $176 $120 $177 reversed $249 $-1 #
edge $-1 -1 $-1 $250 -3.141592653589793116 $250 3.141592653589793116 $120 $251 forward @7 unknown #
edge $-1 -1 $-1 $252 -3.141592653589793116 $252 3.141592653589793116 $175 $253 forward @7 tangent #
vertex $-1 -1 $-1 $122 $254 #
ellipse-curve $-1 -1 $-1 1.332267629550187849e-13 38.36299999999996402 55.80409734281506928 0 0.04536298812925392693 0.9989705697907146353 5 3.058465276841514571e-16 -1.388840955306254542e-17 1 I I #
face $255 -1 $-1 $-1 $123 $19 $-1 $256 forward single #
point $-1 -1 $-1 -4.999999999999866773 36.11753208760189437 6.35505413817469389 #
DXID-attrib $-1 -1 $-1 $-1 $127 @10 ASM ENTITY @1 4 #
face $257 -1 $-1 $258 $259 $21 $-1 $260 reversed single #
loop $-1 -1 $-1 $261 $262 $127 #
cone-surface $-1 -1 $-1 1.243449787580175325e-13 38.38568149406457763 -57.00358262771045759 0 -0.04536298812925382978 0.9989705697907147464 3.000000000000000444 -1.835079166104908989e-16 -8.33304573183750907e-18 1 I I 0 -1 3.000000000000000444 forward I I I I #
loop $-1 -1 $-1 $-1 $263 $86 #
coedge $-1 -1 $-1 $188 $188 $264 $265 forward $128 $-1 #
coedge $-1 -1 $-1 $189 $189 $132 $192 reversed $130 $-1 #
coedge $-1 -1 $-1 $190 $190 $131 $191 reversed $266 $-1 #
edge $-1 -1 $-1 $267 -3.141592653589793116 $267 3.141592653589793116 $131 $268 forward @7 unknown #
edge $-1 -1 $-1 $269 -3.141592653589793116 $269 3.141592653589793116 $189 $270 forward @7 tangent #
vertex $-1 -1 $-1 $133 $271 #
ellipse-curve $-1 -1 $-1 1.243449787580175325e-13 38.36299999999994981 -56.50409734281510055 0 0.04536298812925382978 -0.9989705697907147464 5 -3.058465276841514571e-16 -1.38884095530625146e-17 1 I I #
face $272 -1 $-1 $-1 $134 $21 $-1 $273 forward single #
point $-1 -1 $-1 -4.999999999999875655 36.11753208760188727 -7.055054138174718048 #
DXID-attrib $-1 -1 $-1 $-1 $138 @10 ASM ENTITY @1 4 #
face $274 -1 $-1 $275 $276 $23 $-1 $277 reversed single #
loop $-1 -1 $-1 $278 $279 $138 #
plane-surface $-1 -1 $-1 0 83 0 0 1 0 -10 0 0 forward_v I I I I #
loop $-1 -1 $-1 $-1 $204 $95 #
coedge $-1 -1 $-1 $202 $202 $280 $281 reversed $139 $-1 #
coedge $-1 -1 $-1 $203 $203 $282 $283 forward $141 $-1 #
coedge $-1 -1 $-1 $204 $204 $142 $205 reversed $201 $-1 #
edge $-1 -1 $-1 $284 -3.141592653589793116 $284 3.141592653589793116 $204 $285 forward @7 unknown #
loop $-1 -1 $-1 $286 $144 $287 #
vertex $-1 -1 $-1 $145 $288 #
ellipse-curve $-1 -1 $-1 0 89 0 -0 -1 -0 -1.03774999999999995 0 0 1 I I #
point $-1 -1 $-1 1.03774999999999995 85 1.270877215815165781e-16 #
DXID-attrib $-1 -1 $-1 $-1 $149 @10 ASM ENTITY @1 5 #
face $289 -1 $-1 $290 $291 $17 $-1 $292 forward single #
loop $-1 -1 $-1 $293 $294 $149 #
plane-surface $-1 -1 $-1 -25.39999999999979252 15.3304349842982468 -57.54999999999990479 4.888487273961465395e-45 0.04536298812925368407 -0.9989705697907147464 9.999999999999976907 3.01104212468150223e-72 4.893524816237175513e-44 forward_v I I I I #
coedge $-1 -1 $-1 $214 $214 $295 $296 reversed $150 $-1 #
coedge $-1 -1 $-1 $297 $152 $298 $299 forward $103 $-1 #
coedge $300 -1 $-1 $152 $301 $235 $302 reversed $103 $-1 #
edge $-1 -1 $-1 $303 -2.105176257413499119 $237 -1.733280413456702362 $152 $304 forward @7 unknown #
coedge $-1 -1 $-1 $154 $153 $305 $306 reversed $70 $-1 #
coedge $-1 -1 $-1 $164 $307 $153 $220 forward $236 $-1 #
edge $-1 -1 $-1 $308 11.1050000000000022 $166 11.7231296932452711 $153 $309 forward @7 unknown #
coedge $-1 -1 $-1 $305 $310 $155 $222 reversed $311 $-1 #
edge $-1 -1 $-1 $223 -6.772999999999999687 $228 -3.387000000000000011 $221 $312 forward @7 unknown #
vertex $-1 -1 $-1 $156 $313 #
straight-curve $-1 -1 $-1 16.93000000000009919 48.36299999999977217 -1.937500000000021316 4.893524816237175513e-44 6.336309517034005957e-30 -9.999999999999976907 I I #
coedge $-1 -1 $-1 $314 $157 $310 $315 reversed $227 $-1 #
coedge $-1 -1 $-1 $157 $314 $159 $231 reversed $227 $-1 #
loop $-1 -1 $-1 $-1 $226 $316 #
vertex $-1 -1 $-1 $222 $317 #
straight-curve $-1 -1 $-1 -16.92999999999981497 48.36299999999977217 -1.937500000000021316 -4.893524816237175513e-44 -6.336309517034005957e-30 9.999999999999976907 I I #
coedge $-1 -1 $-1 $318 $159 $319 $320 forward $48 $-1 #
edge $-1 -1 $-1 $161 -4.19563875245543727 $321 2.125388650047827177 $226 $322 forward @7 unknown #
point $-1 -1 $-1 16.93000000000009919 48.36299999999977217 55.3499999999998451 #
point $-1 -1 $-1 -16.92999999999981497 48.36299999999977217 55.3499999999998451 #
coedge $-1 -1 $-1 $163 $318 $323 $324 forward $48 $-1 #
coedge $325 -1 $-1 $326 $164 $216 $302 forward $236 $-1 #
loop $-1 -1 $-1 $-1 $319 $327 #
vertex $-1 -1 $-1 $217 $328 #
straight-curve $-1 -1 $-1 12.70000000000011653 -13.98700000000008714 58.18129693245253264 -9.999999999999976907 -3.01104212468150223e-72 -4.893524816237175513e-44 I I #
point $-1 -1 $-1 26.93000000000008498 -13.98700000000008536 58.18129693245253264 #
DXID-attrib $-1 -1 $-1 $-1 $170 @10 ASM ENTITY @1 5 #
face $329 -1 $-1 $181 $330 $19 $-1 $331 forward single #
loop $-1 -1 $-1 $-1 $332 $170 #
plane-surface $-1 -1 $-1 1.332267629550187849e-13 38.38568149406459185 56.30358262771042632 0 -0.04536298812925392693 -0.9989705697907146353 10 6.116930553683029141e-16 -2.777681910612509084e-17 forward_v I I I I #
loop $-1 -1 $-1 $-1 $247 $116 #
coedge $-1 -1 $-1 $245 $245 $333 $334 forward $171 $-1 #
coedge $-1 -1 $-1 $246 $246 $332 $335 forward $173 $-1 #
coedge $-1 -1 $-1 $247 $247 $174 $248 reversed $244 $-1 #
edge $-1 -1 $-1 $336 -3.141592653589793116 $336 3.141592653589793116 $247 $337 forward @7 tangent #
loop $-1 -1 $-1 $-1 $176 $241 #
vertex $-1 -1 $-1 $177 $338 #
ellipse-curve $-1 -1 $-1 1.332267629550187849e-13 38.29495551780608054 54.30564148812899816 0 -0.04536298812925392693 -0.9989705697907146353 4 2.446772221473211657e-16 -1.111072764245003726e-17 1 I I #
vertex $-1 -1 $-1 $178 $339 #
ellipse-curve $-1 -1 $-1 1.332267629550187849e-13 38.36299999999996402 55.80409734281506928 0 -0.04536298812925392693 -0.9989705697907146353 4 2.446772221473211657e-16 -1.111072764245003726e-17 1 I I #
point $-1 -1 $-1 -4.999999999999866773 38.36299999999996402 55.80409734281506928 #
DXID-attrib $-1 -1 $-1 $-1 $181 @10 ASM ENTITY @1 7 #
plane-surface $-1 -1 $-1 1.332267629550187849e-13 36.11753208760189437 6.35505413817469389 0 -0.04536298812925392693 -0.9989705697907146353 10 6.116930553683029141e-16 -2.777681910612509084e-17 forward_v I I I I #
DXID-attrib $-1 -1 $-1 $-1 $184 @10 ASM ENTITY @1 5 #
face $340 -1 $-1 $195 $341 $21 $-1 $342 forward single #
loop $-1 -1 $-1 $-1 $343 $184 #
plane-surface $-1 -1 $-1 1.243449787580175325e-13 38.38568149406457763 -57.00358262771045759 0 -0.04536298812925382978 0.9989705697907147464 10 -6.116930553683029141e-16 -2.777681910612502921e-17 forward_v I I I I #
loop $-1 -1 $-1 $-1 $264 $127 #
coedge $-1 -1 $-1 $262 $262 $344 $345 forward $185 $-1 #
coedge $-1 -1 $-1 $263 $263 $343 $346 forward $187 $-1 #
coedge $-1 -1 $-1 $264 $264 $188 $265 reversed $261 $-1 #
edge $-1 -1 $-1 $347 -3.141592653589793116 $347 3.141592653589793116 $264 $348 forward @7 tangent #
loop $-1 -1 $-1 $-1 $190 $258 #
vertex $-1 -1 $-1 $191 $349 #
ellipse-curve $-1 -1 $-1 1.243449787580175325e-13 38.29495551780607343 -55.00564148812902943 0 -0.04536298812925382978 0.9989705697907147464 4 -2.446772221473211657e-16 -1.111072764245001261e-17 1 I I #
vertex $-1 -1 $-1 $192 $350 #
ellipse-curve $-1 -1 $-1 1.243449787580175325e-13 38.36299999999994981 -56.50409734281510055 0 -0.04536298812925382978 0.9989705697907147464 4 -2.446772221473211657e-16 -1.111072764245001261e-17 1 I I #
point $-1 -1 $-1 -4.999999999999875655 38.36299999999994981 -56.50409734281510055 #
DXID-attrib $-1 -1 $-1 $-1 $195 @10 ASM ENTITY @1 7 #
plane-surface $-1 -1 $-1 1.243449787580175325e-13 36.11753208760188727 -7.055054138174718048 0 -0.04536298812925382978 0.9989705697907147464 10 -6.116930553683029141e-16 -2.777681910612502921e-17 forward_v I I I I #
DXID-attrib $-1 -1 $-1 $-1 $198 @10 ASM ENTITY @1 5 #
face $351 -1 $-1 $352 $353 $23 $-1 $354 reversed single #
loop $-1 -1 $-1 $355 $356 $198 #
plane-surface $-1 -1 $-1 0 68 0 0 1 0 -10 0 0 forward_v I I I I #
loop $-1 -1 $-1 $-1 $282 $138 #
coedge $-1 -1 $-1 $279 $279 $357 $358 reversed $199 $-1 #
coedge $-1 -1 $-1 $280 $280 $202 $281 forward $355 $-1 #
edge $-1 -1 $-1 $359 -3.141592653589793116 $359 3.141592653589793116 $202 $360 forward @7 unknown #
coedge $-1 -1 $-1 $282 $282 $203 $283 reversed $278 $-1 #
edge $-1 -1 $-1 $361 -3.141592653589793116 $361 3.141592653589793116 $282 $362 forward @7 unknown #
vertex $-1 -1 $-1 $205 $363 #
ellipse-curve $-1 -1 $-1 0 79 0 0 1 0 -52 0 0 1 I I #
loop $-1 -1 $-1 $-1 $364 $287 #
face $365 -1 $-1 $366 $206 $23 $-1 $367 forward single #
point $-1 -1 $-1 1.03774999999999995 89 1.270877215815165781e-16 #
DXID-attrib $-1 -1 $-1 $-1 $211 @10 ASM ENTITY @1 6 #
face $368 -1 $-1 $369 $370 $17 $-1 $371 reversed single #
loop $-1 -1 $-1 $-1 $372 $211 #
plane-surface $-1 -1 $-1 1.49213974509621039e-13 48.36299999999977217 -55.87499999999991473 -3.042049012546474678e-73 1 6.336309517034005957e-31 -9.999999999999976907 -3.01104212468150223e-72 -4.893524816237175513e-44 forward_v I I I I #
loop $-1 -1 $-1 $-1 $373 $149 #
coedge $-1 -1 $-1 $294 $294 $374 $375 forward $212 $-1 #
coedge $-1 -1 $-1 $295 $295 $214 $296 forward $376 $-1 #
edge $-1 -1 $-1 $377 -3.141592653589793116 $377 3.141592653589793116 $295 $378 forward @7 unknown #
coedge $-1 -1 $-1 $379 $215 $380 $381 reversed $103 $-1 #
coedge $-1 -1 $-1 $323 $382 $215 $299 reversed $383 $-1 #
edge $-1 -1 $-1 $303 0.3715130031403202082 $384 0.6350000000000000089 $215 $385 forward @7 unknown #
ATTRIB_CUSTOM-attrib $-1 -1 $-1 $-1 $216 @17 sketch_attrib_def 1 1 3 @13 107 0 1 0 1 1 #
coedge $-1 -1 $-1 $216 $379 $386 $387 reversed $103 $-1 #
edge $-1 -1 $-1 $237 0.01687030675473089048 $388 11.7231296932452711 $216 $389 forward @7 unknown #
vertex $-1 -1 $-1 $324 $390 #
straight-curve $-1 -1 $-1 50.80000000000003268 3.327961222379148154 57.39502914424948443 2.219849081491758294e-45 9.989705697907124815 -0.4536298812925368407 I I #
coedge $-1 -1 $-1 $391 $221 $218 $306 forward $311 $-1 #
edge $-1 -1 $-1 $223 -3.34634557959668566 $308 2.968337706206332971 $305 $392 forward @7 unknown #
coedge $-1 -1 $-1 $219 $393 $391 $394 forward $236 $-1 #
vertex $-1 -1 $-1 $220 $395 #
straight-curve $-1 -1 $-1 26.93000000000008498 -13.98700000000008536 -59.04999999999990479 -4.893524816237175513e-44 -6.336309517034005957e-30 9.999999999999976907 I I #
coedge $-1 -1 $-1 $221 $391 $225 $315 forward $311 $-1 #
loop $-1 -1 $-1 $-1 $305 $396 #
straight-curve $-1 -1 $-1 -50.79999999999973426 48.36299999999977217 51.999999999999865 -9.999999999999976907 -3.01104212468150223e-72 -4.893524816237175513e-44 I I #
point $-1 -1 $-1 16.93000000000009919 48.36299999999977217 51.999999999999865 #
coedge $-1 -1 $-1 $226 $225 $393 $397 forward $227 $-1 #
edge $-1 -1 $-1 $398 -0.6154702974158373641 $228 5.699212988387181156 $310 $399 forward @7 unknown #
face $400 -1 $-1 $401 $227 $17 $-1 $371 reversed single #
point $-1 -1 $-1 -16.92999999999981497 48.36299999999977217 51.999999999999865 #
coedge $-1 -1 $-1 $234 $230 $402 $403 forward $48 $-1 #
coedge $-1 -1 $-1 $393 $404 $230 $320 reversed $236 $-1 #
edge $-1 -1 $-1 $321 3.962999999999999634 $405 6.349999999999999645 $319 $238 forward @7 unknown #
vertex $-1 -1 $-1 $231 $406 #
straight-curve $-1 -1 $-1 -23.56758988102748731 6.977627091792257374 57.22929878690310801 -1.582021301796565638 -9.863902816701587639 0.4479172058851438321 I I #
coedge $-1 -1 $-1 $407 $298 $234 $324 reversed $383 $-1 #
edge $-1 -1 $-1 $408 -7.620000000000000107 $303 2.540000000000000036 $323 $409 forward @7 unknown #
ATTRIB_CUSTOM-attrib $-1 -1 $-1 $-1 $235 @17 sketch_attrib_def 1 1 3 @13 107 0 1 0 1 1 #
coedge $-1 -1 $-1 $410 $235 $411 $412 reversed $236 $-1 #
face $413 -1 $-1 $396 $236 $17 $-1 $414 reversed single #
point $-1 -1 $-1 50.80000000000003268 -13.98700000000008714 58.18129693245253264 #
DXID-attrib $-1 -1 $-1 $-1 $241 @10 ASM ENTITY @1 6 #
loop $-1 -1 $-1 $249 $333 $241 #
plane-surface $-1 -1 $-1 1.332267629550187849e-13 38.29495551780608054 54.30564148812899816 0 0.04536298812925392693 0.9989705697907146353 10 6.116930553683029141e-16 -2.777681910612509084e-17 forward_v I I I I #
coedge $-1 -1 $-1 $332 $332 $246 $335 reversed $242 $-1 #
coedge $-1 -1 $-1 $333 $333 $245 $334 reversed $330 $-1 #
edge $-1 -1 $-1 $415 -3.141592653589793116 $415 3.141592653589793116 $245 $416 forward @7 unknown #
edge $-1 -1 $-1 $417 -3.141592653589793116 $417 3.141592653589793116 $332 $418 forward @7 tangent #
vertex $-1 -1 $-1 $248 $419 #
ellipse-curve $-1 -1 $-1 1.332267629550187849e-13 38.36299999999996402 55.80409734281506928 0 0.04536298812925392693 0.9989705697907146353 3.000000000000000444 1.835079166104908989e-16 -8.333045731837527559e-18 1 I I #
point $-1 -1 $-1 -3.999999999999866773 38.29495551780608054 54.30564148812899816 #
point $-1 -1 $-1 -3.999999999999866773 38.36299999999996402 55.80409734281506928 #
DXID-attrib $-1 -1 $-1 $-1 $258 @10 ASM ENTITY @1 6 #
loop $-1 -1 $-1 $266 $344 $258 #
plane-surface $-1 -1 $-1 1.243449787580175325e-13 38.29495551780607343 -55.00564148812902943 0 0.04536298812925382978 -0.9989705697907147464 10 -6.116930553683029141e-16 -2.777681910612502921e-17 forward_v I I I I #
coedge $-1 -1 $-1 $343 $343 $263 $346 reversed $259 $-1 #
coedge $-1 -1 $-1 $344 $344 $262 $345 reversed $341 $-1 #
edge $-1 -1 $-1 $420 -3.141592653589793116 $420 3.141592653589793116 $262 $421 forward @7 unknown #
edge $-1 -1 $-1 $422 -3.141592653589793116 $422 3.141592653589793116 $343 $423 forward @7 tangent #
vertex $-1 -1 $-1 $265 $424 #
ellipse-curve $-1 -1 $-1 1.243449787580175325e-13 38.36299999999994981 -56.50409734281510055 0 0.04536298812925382978 -0.9989705697907147464 3.000000000000000444 -1.835079166104908989e-16 -8.33304573183750907e-18 1 I I #
point $-1 -1 $-1 -3.999999999999875655 38.29495551780607343 -55.00564148812902943 #
point $-1 -1 $-1 -3.999999999999875655 38.36299999999994981 -56.50409734281510055 #
DXID-attrib $-1 -1 $-1 $-1 $275 @10 ASM ENTITY @1 6 #
face $425 -1 $-1 $287 $426 $23 $-1 $427 forward single #
loop $-1 -1 $-1 $428 $357 $275 #
cone-surface $-1 -1 $-1 0 89 0 0 -1 0 -7.500000000000000888 0 0 1 I I 0 -1 7.500000000000000888 forward I I I I #
loop $-1 -1 $-1 $-1 $280 $198 #
coedge $-1 -1 $-1 $356 $356 $429 $430 reversed $276 $-1 #
coedge $-1 -1 $-1 $357 $357 $279 $358 forward $353 $-1 #
edge $-1 -1 $-1 $431 -3.141592653589793116 $431 3.141592653589793116 $357 $432 forward @7 unknown #
vertex $-1 -1 $-1 $281 $433 #
ellipse-curve $-1 -1 $-1 0 68 0 -0 -1 -0 -52 0 0 1 I I #
vertex $-1 -1 $-1 $283 $434 #
ellipse-curve $-1 -1 $-1 0 83 0 -0 -1 -0 -48 0 0 1 I I #
point $-1 -1 $-1 52 79 -6.36816335556623717e-15 #
coedge $-1 -1 $-1 $364 $364 $435 $436 forward $286 $-1 #
DXID-attrib $-1 -1 $-1 $-1 $287 @10 ASM ENTITY @1 8 #
face $437 -1 $-1 $-1 $438 $23 $-1 $439 reversed single #
plane-surface $-1 -1 $-1 0 89 0 0 1 0 10 0 0 forward_v I I I I #
DXID-attrib $-1 -1 $-1 $-1 $290 @10 ASM ENTITY @1 7 #
face $440 -1 $-1 $441 $442 $17 $-1 $443 forward single #
loop $-1 -1 $-1 $-1 $444 $290 #
plane-surface $-1 -1 $-1 -26.92999999999979011 -13.98700000000008714 -59.04999999999990479 0.9873812696224740781 -0.1583610697068923712 -1.003424753111419294e-31 1.583610697068920103 9.873812696224717911 6.256353335649995602e-30 forward_v I I I I #
coedge $-1 -1 $-1 $445 $446 $447 $448 reversed $291 $-1 #
coedge $-1 -1 $-1 $447 $449 $444 $450 forward $293 $-1 #
coedge $-1 -1 $-1 $374 $374 $294 $375 reversed $451 $-1 #
edge $-1 -1 $-1 $452 -3.141592653589793116 $452 3.141592653589793116 $374 $453 forward @7 unknown #
loop $-1 -1 $-1 $311 $295 $396 #
vertex $-1 -1 $-1 $296 $454 #
ellipse-curve $-1 -1 $-1 1.49213974509621039e-13 38.36299999999979349 51.999999999999865 -4.893524816237186964e-45 -6.336309517034020845e-31 1 -1.521024506273231118e-72 4.999999999999979572 3.168154758516989666e-30 1 I I #
coedge $-1 -1 $-1 $301 $297 $455 $456 forward $103 $-1 #
coedge $-1 -1 $-1 $457 $458 $297 $381 forward $459 $-1 #
edge $-1 -1 $-1 $460 -11.74000000000000199 $384 -0 $297 $461 forward @7 unknown #
coedge $-1 -1 $-1 $298 $407 $457 $462 reversed $383 $-1 #
loop $-1 -1 $-1 $-1 $323 $401 #
vertex $-1 -1 $-1 $299 $463 #
straight-curve $-1 -1 $-1 50.80000000000003268 -13.98700000000008714 58.3499999999998451 3.042049012546467766e-72 -9.999999999999976907 -6.336309517033991944e-30 I I #
coedge $-1 -1 $-1 $464 $411 $301 $387 forward $293 $-1 #
edge $-1 -1 $-1 $388 1.466999673137982851 $465 1.83889551709477983 $301 $466 forward @7 unknown #
vertex $-1 -1 $-1 $387 $467 #
straight-curve $-1 -1 $-1 50.80000000000003268 -13.98700000000008714 58.3499999999998451 4.893524816237175513e-44 6.336309517034005957e-30 -9.999999999999976907 F 0 F 11.74000000000000199 #
point $-1 -1 $-1 50.80000000000003268 -17.70213003140328212 58.3499999999998451 #
coedge $468 -1 $-1 $310 $305 $307 $394 reversed $311 $-1 #
straight-curve $-1 -1 $-1 22.2293086559387163 15.32181053022255668 51.999999999999865 1.583610697068920103 -9.873812696224717911 -6.256353335649979487e-30 I I #
coedge $-1 -1 $-1 $307 $319 $314 $397 reversed $236 $-1 #
edge $-1 -1 $-1 $398 -5.23300000000000054 $308 0.1529999999999995808 $307 $469 forward @7 unknown #
point $-1 -1 $-1 26.93000000000008498 -13.98700000000008536 51.999999999999865 #
face $470 -1 $-1 $471 $376 $17 $-1 $472 forward single #
edge $-1 -1 $-1 $398 11.10500000000000043 $321 11.7231296932452711 $393 $473 forward @7 unknown #
vertex $-1 -1 $-1 $315 $474 #
straight-curve $-1 -1 $-1 -25.95533465328387734 -7.909961563226390879 51.999999999999865 1.583610697068920103 9.873812696224717911 6.256353335649995602e-30 I I #
DXID-attrib $-1 -1 $-1 $-1 $316 @10 ASM ENTITY @2 11 #
face $475 -1 $-1 $476 $383 $17 $-1 $477 forward single #
coedge $-1 -1 $-1 $478 $479 $318 $403 reversed $442 $-1 #
edge $-1 -1 $-1 $405 1.466999673137982851 $408 1.83889551709477983 $402 $480 forward @7 unknown #
coedge $481 -1 $-1 $319 $482 $478 $483 forward $236 $-1 #
vertex $-1 -1 $-1 $320 $484 #
point $-1 -1 $-1 -26.92999999999979011 -13.98700000000008714 58.18129693245253264 #
coedge $-1 -1 $-1 $382 $323 $479 $485 forward $383 $-1 #
vertex $-1 -1 $-1 $403 $486 #
straight-curve $-1 -1 $-1 25.40000000000008384 -17.70213003140328212 58.3499999999998451 9.999999999999976907 3.01104212468150223e-72 4.893524816237175513e-44 F -24.71319130973499512 F 19.63319130973499327 #
coedge $-1 -1 $-1 $487 $326 $488 $489 forward $236 $-1 #
coedge $-1 -1 $-1 $386 $490 $326 $412 forward $293 $-1 #
edge $-1 -1 $-1 $491 3.962999999999999634 $388 6.349999999999999645 $326 $492 forward @7 unknown #
DXID-attrib $-1 -1 $-1 $-1 $327 @10 ASM ENTITY @2 15 #
plane-surface $-1 -1 $-1 1.49213974509621039e-13 -13.98700000000008714 -0.3500000000000298428 3.042049012546474678e-73 -1 -6.336309517034005957e-31 -4.893524816237175513e-44 -6.336309517034005957e-30 9.999999999999976907 forward_v I I I I #
vertex $-1 -1 $-1 $334 $493 #
ellipse-curve $-1 -1 $-1 1.332267629550187849e-13 38.29495551780608054 54.30564148812899816 0 0.04536298812925392693 0.9989705697907146353 3.000000000000000444 1.835079166104908989e-16 -8.333045731837527559e-18 1 I I #
vertex $-1 -1 $-1 $335 $494 #
ellipse-curve $-1 -1 $-1 1.332267629550187849e-13 38.38568149406459185 56.30358262771042632 0 -0.04536298812925392693 -0.9989705697907146353 2.500000000000000444 1.529232638420757532e-16 -6.94420477653127425e-18 1 I I #
point $-1 -1 $-1 -2.999999999999867217 38.36299999999996402 55.80409734281506928 #
vertex $-1 -1 $-1 $345 $495 #
ellipse-curve $-1 -1 $-1 1.243449787580175325e-13 38.29495551780607343 -55.00564148812902943 0 0.04536298812925382978 -0.9989705697907147464 3.000000000000000444 -1.835079166104908989e-16 -8.33304573183750907e-18 1 I I #
vertex $-1 -1 $-1 $346 $496 #
ellipse-curve $-1 -1 $-1 1.243449787580175325e-13 38.38568149406457763 -57.00358262771045759 0 -0.04536298812925382978 0.9989705697907147464 2.500000000000000444 -1.529232638420757532e-16 -6.944204776531258843e-18 1 I I #
point $-1 -1 $-1 -2.999999999999876099 38.36299999999994981 -56.50409734281510055 #
DXID-attrib $-1 -1 $-1 $-1 $352 @10 ASM ENTITY @1 7 #
loop $-1 -1 $-1 $497 $429 $352 #
cone-surface $-1 -1 $-1 0 0 0 0 1 0 50 0 0 1 I I 0 1 50 forward I I I I #
loop $-1 -1 $-1 $-1 $435 $275 #
coedge $-1 -1 $-1 $429 $429 $356 $430 forward $426 $-1 #
edge $-1 -1 $-1 $498 -1.224646799147353207e-16 $498 6.283185307179586232 $429 $499 forward @7 unknown #
vertex $-1 -1 $-1 $358 $500 #
ellipse-curve $-1 -1 $-1 0 83 0 0 1 0 -7.500000000000000888 0 0 1 I I #
point $-1 -1 $-1 52 68 -6.36816335556623717e-15 #
point $-1 -1 $-1 48 83 5.878304635907295e-15 #
coedge $501 -1 $-1 $435 $435 $364 $436 reversed $428 $-1 #
edge $-1 -1 $-1 $502 -3.141592653589793116 $502 3.141592653589793116 $364 $503 forward @7 unknown #
DXID-attrib $-1 -1 $-1 $-1 $366 @10 ASM ENTITY @1 9 #
loop $-1 -1 $-1 $-1 $504 $366 #
plane-surface $-1 -1 $-1 0 0 0 0 1 0 10 0 0 forward_v I I I I #
DXID-attrib $-1 -1 $-1 $-1 $369 @10 ASM ENTITY @1 8 #
face $505 -1 $-1 $506 $507 $17 $-1 $151 reversed single #
loop $-1 -1 $-1 $-1 $402 $369 #
plane-surface $-1 -1 $-1 -50.79999999999973426 -13.98700000000008714 58.3499999999998451 -1 -3.011042124681509142e-73 -4.893524816237186964e-45 4.893524816237175513e-44 6.336309517034005957e-30 -9.999999999999976907 forward_v I I I I #
coedge $-1 -1 $-1 $508 $509 $373 $450 reversed $370 $-1 #
coedge $-1 -1 $-1 $510 $372 $509 $511 forward $291 $-1 #
coedge $-1 -1 $-1 $372 $510 $512 $513 forward $291 $-1 #
coedge $-1 -1 $-1 $490 $373 $372 $448 forward $293 $-1 #
edge $-1 -1 $-1 $514 0.8469999999999999751 $515 4.232999999999999652 $372 $516 forward @7 unknown #
coedge $-1 -1 $-1 $373 $517 $482 $518 forward $293 $-1 #
edge $-1 -1 $-1 $519 -1.460627839536918327 $514 4.860399562966346565 $444 $520 forward @7 unknown #
loop $-1 -1 $-1 $-1 $374 $441 #
vertex $-1 -1 $-1 $375 $521 #
ellipse-curve $-1 -1 $-1 1.49213974509621039e-13 38.36299999999979349 -56.50409734281510055 -4.888487273961465395e-45 -0.04536298812925368407 0.9989705697907147464 -1.111068308026736756e-45 4.999999999999979572 0.2270486714075925228 0.9989705697907147464 I I #
point $-1 -1 $-1 1.49213974509621039e-13 33.3629999999998148 51.999999999999865 #
coedge $-1 -1 $-1 $522 $523 $379 $456 reversed $524 $-1 #
edge $-1 -1 $-1 $460 -0.6350000000000000089 $465 -0.3715130031403202082 $379 $525 forward @7 unknown #
coedge $-1 -1 $-1 $526 $380 $382 $462 forward $459 $-1 #
coedge $-1 -1 $-1 $380 $526 $522 $527 forward $459 $-1 #
loop $-1 -1 $-1 $-1 $380 $471 #
vertex $-1 -1 $-1 $381 $528 #
straight-curve $-1 -1 $-1 50.80000000000003268 -20.33700000000007435 58.3499999999998451 -4.893524816237175513e-44 -6.336309517034005957e-30 9.999999999999976907 I I #
edge $-1 -1 $-1 $384 -10.16000000000000014 $529 -0 $382 $530 forward @7 unknown #
point $-1 -1 $-1 50.80000000000003268 -20.33700000000007435 58.3499999999998451 #
coedge $-1 -1 $-1 $517 $386 $523 $531 forward $293 $-1 #
vertex $-1 -1 $-1 $456 $532 #
straight-curve $-1 -1 $-1 50.80000000000003268 0.6678949935743059285 -58.21582204487082635 2.219849081491753004e-45 -9.989705697907124815 -0.453629881292535786 I I #
point $-1 -1 $-1 50.80000000000003268 -13.98700000000008714 -58.88129693245259944 #
ATTRIB_CUSTOM-attrib $-1 -1 $-1 $-1 $391 @17 sketch_attrib_def 1 1 3 @13 131 0 1 0 1 1 #
straight-curve $-1 -1 $-1 25.40000000000008384 -13.98700000000008714 51.99999999999983658 9.999999999999976907 3.01104212468150223e-72 4.893524816237175513e-44 I I #
DXID-attrib $-1 -1 $-1 $-1 $396 @10 ASM ENTITY @2 16 #
face $533 -1 $-1 $-1 $459 $17 $-1 $534 forward single #
plane-surface $-1 -1 $-1 50.80000000000003268 -13.98700000000008714 51.999999999999865 4.893524816237186964e-45 6.336309517034020845e-31 -1 -9.999999999999976907 -3.01104212468150223e-72 -4.893524816237175513e-44 forward_v I I I I #
straight-curve $-1 -1 $-1 -26.92999999999979011 -13.98700000000008714 -59.04999999999990479 -4.893524816237175513e-44 -6.336309517034005957e-30 9.999999999999976907 I I #
point $-1 -1 $-1 -26.92999999999979366 -13.98700000000008714 51.99999999999983658 #
DXID-attrib $-1 -1 $-1 $-1 $401 @10 ASM ENTITY @2 12 #
face $535 -1 $-1 $536 $524 $17 $-1 $537 forward single #
plane-surface $-1 -1 $-1 50.80000000000003268 -13.98700000000008714 58.3499999999998451 -4.893524816237186964e-45 -6.336309517034020845e-31 1 -9.999999999999976907 -3.01104212468150223e-72 -4.893524816237175513e-44 forward_v I I I I #
coedge $538 -1 $-1 $539 $402 $404 $483 reversed $442 $-1 #
coedge $-1 -1 $-1 $402 $540 $407 $485 reversed $442 $-1 #
straight-curve $-1 -1 $-1 -50.79999999999973426 0.6678949935743059285 57.51582204487076666 -2.219849081491758294e-45 -9.989705697907124815 0.4536298812925368407 I I #
ATTRIB_CUSTOM-attrib $-1 -1 $-1 $-1 $404 @17 sketch_attrib_def 1 1 3 @13 105 0 1 0 1 1 #
coedge $-1 -1 $-1 $404 $541 $449 $518 reversed $236 $-1 #
edge $-1 -1 $-1 $542 0.01687030675473095986 $405 11.7231296932452711 $478 $543 forward @7 unknown #
point $-1 -1 $-1 -50.79999999999973426 -13.98700000000008714 58.18129693245253264 #
edge $-1 -1 $-1 $408 0.3715130031403202082 $529 0.6350000000000000089 $407 $544 forward @7 unknown #
point $-1 -1 $-1 -50.79999999999973426 -17.70213003140328212 58.3499999999998451 #
coedge $-1 -1 $-1 $541 $410 $545 $546 forward $236 $-1 #
coedge $-1 -1 $-1 $547 $548 $410 $489 reversed $549 $-1 #
edge $-1 -1 $-1 $491 0.01687030675473098762 $550 0.6350000000000000089 $488 $309 forward @7 unknown #
coedge $-1 -1 $-1 $411 $447 $547 $551 forward $293 $-1 #
vertex $-1 -1 $-1 $551 $552 #
straight-curve $-1 -1 $-1 -12.69999999999982521 -13.98700000000008714 -58.88129693245259233 9.999999999999976907 3.01104212468150223e-72 4.893524816237175513e-44 I I #
point $-1 -1 $-1 -2.999999999999867217 38.29495551780608054 54.30564148812899816 #
point $-1 -1 $-1 -2.499999999999867217 38.38568149406459185 56.30358262771042632 #
point $-1 -1 $-1 -2.999999999999876099 38.29495551780607343 -55.00564148812902943 #
point $-1 -1 $-1 -2.499999999999876099 38.38568149406457763 -57.00358262771045759 #
loop $-1 -1 $-1 $-1 $553 $352 #
vertex $-1 -1 $-1 $430 $554 #
ellipse-curve $-1 -1 $-1 0 68 0 -0 -1 -0 50 0 0 1 I I #
point $-1 -1 $-1 7.500000000000000888 83 -9.184850993605151889e-16 #
ATTRIB_CUSTOM-attrib $-1 -1 $-1 $-1 $435 @17 sketch_attrib_def 1 1 3 @22 107 0 4294967295 0 1 1 #
vertex $-1 -1 $-1 $436 $555 #
ellipse-curve $-1 -1 $-1 0 89 0 0 1 0 -7.500000000000000888 0 0 1 I I #
coedge $556 -1 $-1 $504 $504 $553 $557 reversed $438 $-1 #
DXID-attrib $-1 -1 $-1 $-1 $441 @10 ASM ENTITY @1 9 #
face $558 -1 $-1 $316 $549 $17 $-1 $71 reversed single #
loop $-1 -1 $-1 $451 $559 $441 #
coedge $-1 -1 $-1 $560 $444 $541 $561 forward $370 $-1 #
coedge $-1 -1 $-1 $444 $560 $445 $511 reversed $370 $-1 #
coedge $-1 -1 $-1 $446 $445 $562 $563 forward $291 $-1 #
edge $-1 -1 $-1 $514 0.1412500000000000422 $564 0.4762500000000000067 $445 $565 forward @7 unknown #
coedge $-1 -1 $-1 $548 $547 $446 $513 reversed $549 $-1 #
edge $-1 -1 $-1 $566 -0.4762500000000000067 $515 -0.1412500000000000422 $446 $567 forward @7 unknown #
vertex $-1 -1 $-1 $450 $568 #
vertex $-1 -1 $-1 $448 $569 #
straight-curve $-1 -1 $-1 -25.39999999999979252 48.36299999999977217 -56.04999999999991189 9.999999999999976907 3.01104212468150223e-72 4.893524816237175513e-44 F -19.63319130973499327 F 24.71319130973499512 #
coedge $-1 -1 $-1 $449 $464 $539 $570 forward $293 $-1 #
edge $-1 -1 $-1 $542 -3.810000000000000053 $519 -1.423000000000000043 $482 $492 forward @7 unknown #
vertex $-1 -1 $-1 $450 $571 #
straight-curve $-1 -1 $-1 -24.61925564385528631 0.4204910605608755958 -58.22705659172916626 1.582021301796565638 9.863902816701587639 0.4479172058851428329 I I #
point $-1 -1 $-1 1.49213974509621039e-13 33.3629999999998148 -56.73114601422268777 #
coedge $-1 -1 $-1 $572 $455 $458 $527 reversed $524 $-1 #
coedge $-1 -1 $-1 $455 $572 $464 $531 reversed $524 $-1 #
loop $-1 -1 $-1 $-1 $523 $476 #
straight-curve $-1 -1 $-1 50.80000000000003268 -13.98700000000008714 -59.04999999999990479 -3.042049012546467766e-72 9.999999999999976907 6.336309517033991944e-30 I I #
coedge $-1 -1 $-1 $458 $457 $540 $573 forward $459 $-1 #
edge $-1 -1 $-1 $574 -10.16000000000000014 $460 -0 $522 $575 forward @7 unknown #
point $-1 -1 $-1 50.80000000000003268 -20.33700000000007435 -59.04999999999990479 #
vertex $-1 -1 $-1 $573 $576 #
straight-curve $-1 -1 $-1 -50.79999999999973426 -20.33700000000007435 58.3499999999998451 -9.999999999999976907 -3.01104212468150223e-72 -4.893524816237175513e-44 I I #
edge $-1 -1 $-1 $465 -7.620000000000000107 $577 2.540000000000000036 $523 $578 forward @7 unknown #
point $-1 -1 $-1 50.80000000000003268 -17.70213003140328212 -59.04999999999990479 #
DXID-attrib $-1 -1 $-1 $-1 $471 @10 ASM ENTITY @2 17 #
plane-surface $-1 -1 $-1 1.49213974509621039e-13 -20.33700000000007435 -0.3500000000000298428 3.042049012546474678e-73 -1 -6.336309517034005957e-31 9.999999999999976907 3.01104212468150223e-72 4.893524816237175513e-44 forward_v I I I I #
DXID-attrib $-1 -1 $-1 $-1 $476 @10 ASM ENTITY @2 13 #
face $579 -1 $-1 $327 $580 $17 $-1 $581 forward single #
plane-surface $-1 -1 $-1 -50.79999999999973426 -13.98700000000008714 -59.04999999999990479 4.893524816237186964e-45 6.336309517034020845e-31 -1 9.999999999999976907 3.01104212468150223e-72 4.893524816237175513e-44 forward_v I I I I #
ATTRIB_CUSTOM-attrib $-1 -1 $-1 $-1 $478 @17 sketch_attrib_def 1 1 3 @13 105 0 1 0 1 1 #
coedge $-1 -1 $-1 $582 $478 $517 $570 reversed $442 $-1 #
coedge $-1 -1 $-1 $479 $582 $526 $573 reversed $442 $-1 #
coedge $-1 -1 $-1 $482 $487 $508 $561 reversed $236 $-1 #
vertex $-1 -1 $-1 $570 $583 #
straight-curve $-1 -1 $-1 -50.79999999999973426 -13.98700000000008714 -59.04999999999990479 -4.893524816237175513e-44 -6.336309517034005957e-30 9.999999999999976907 F 0 F 11.74000000000000199 #
straight-curve $-1 -1 $-1 -50.79999999999973426 -13.98700000000008714 58.3499999999998451 3.042049012546467766e-72 -9.999999999999976907 -6.336309517033991944e-30 I I #
coedge $584 -1 $-1 $585 $586 $487 $546 reversed $587 $-1 #
edge $-1 -1 $-1 $550 -5.232999999999999652 $588 0.1530000000000000249 $487 $589 forward @7 unknown #
coedge $-1 -1 $-1 $512 $488 $490 $551 reversed $549 $-1 #
coedge $-1 -1 $-1 $488 $512 $585 $590 reversed $549 $-1 #
loop $-1 -1 $-1 $-1 $547 $506 #
vertex $-1 -1 $-1 $590 $591 #
edge $-1 -1 $-1 $515 -1.30439338411346295 $491 5.016634018389802385 $547 $592 forward @7 unknown #
point $-1 -1 $-1 26.93000000000008498 -13.98700000000008536 -58.88129693245259233 #
coedge $593 -1 $-1 $553 $553 $504 $557 forward $497 $-1 #
point $-1 -1 $-1 50 68 -6.123233995736766085e-15 #
point $-1 -1 $-1 7.500000000000000888 89 -9.184850993605151889e-16 #
ATTRIB_CUSTOM-attrib $-1 -1 $-1 $-1 $504 @17 sketch_attrib_def 1 1 3 @13 102 0 0 0 1 1 #
edge $-1 -1 $-1 $594 -3.141592653589793116 $594 3.141592653589793116 $553 $595 forward @7 unknown #
DXID-attrib $-1 -1 $-1 $-1 $506 @10 ASM ENTITY @2 10 #
coedge $-1 -1 $-1 $559 $559 $596 $597 reversed $507 $-1 #
coedge $-1 -1 $-1 $509 $508 $586 $598 reversed $370 $-1 #
edge $-1 -1 $-1 $519 0.01687030675473095986 $588 0.6350000000000000089 $541 $473 forward @7 unknown #
coedge $-1 -1 $-1 $586 $585 $510 $563 reversed $587 $-1 #
edge $-1 -1 $-1 $564 -6.772999999999999687 $566 -3.387000000000000455 $562 $599 forward @7 unknown #
vertex $-1 -1 $-1 $511 $600 #
straight-curve $-1 -1 $-1 -16.92999999999981497 48.36299999999977217 -57.46249999999990621 -4.893524816237175513e-44 -6.336309517034005957e-30 9.999999999999976907 I I #
vertex $-1 -1 $-1 $563 $601 #
straight-curve $-1 -1 $-1 16.93000000000009919 48.36299999999977217 -57.46249999999990621 4.893524816237175513e-44 6.336309517034005957e-30 -9.999999999999976907 I I #
point $-1 -1 $-1 -16.92999999999981497 48.36299999999977217 -56.04999999999991189 #
point $-1 -1 $-1 16.93000000000009919 48.36299999999977217 -56.04999999999991189 #
edge $-1 -1 $-1 $577 -2.105176257413498675 $542 -1.733280413456701696 $539 $602 forward @7 unknown #
point $-1 -1 $-1 -26.92999999999979011 -13.98700000000008714 -58.88129693245259233 #
coedge $-1 -1 $-1 $523 $522 $582 $603 reversed $524 $-1 #
edge $-1 -1 $-1 $529 -11.74000000000000199 $574 -0 $540 $604 forward @7 unknown #
vertex $-1 -1 $-1 $603 $605 #
straight-curve $-1 -1 $-1 50.80000000000003268 -20.33700000000007435 -59.04999999999990479 9.999999999999976907 3.01104212468150223e-72 4.893524816237175513e-44 I I #
point $-1 -1 $-1 -50.79999999999973426 -20.33700000000007435 58.3499999999998451 #
vertex $-1 -1 $-1 $531 $606 #
straight-curve $-1 -1 $-1 -25.39999999999979252 -17.70213003140328212 -59.04999999999990479 -9.999999999999976907 -3.01104212468150223e-72 -4.893524816237175513e-44 F -24.71319130973499512 F 19.63319130973499327 #
DXID-attrib $-1 -1 $-1 $-1 $536 @10 ASM ENTITY @2 14 #
loop $-1 -1 $-1 $587 $596 $536 #
plane-surface $-1 -1 $-1 -50.79999999999973426 -13.98700000000008714 -52.69999999999991758 -4.893524816237186964e-45 -6.336309517034020845e-31 1 9.999999999999976907 3.01104212468150223e-72 4.893524816237175513e-44 forward_v I I I I #
coedge $-1 -1 $-1 $540 $539 $572 $603 forward $442 $-1 #
point $-1 -1 $-1 -50.79999999999973426 -13.98700000000008714 -58.88129693245259233 #
ATTRIB_CUSTOM-attrib $-1 -1 $-1 $-1 $545 @17 sketch_attrib_def 1 1 3 @13 124 0 1 0 1 1 #
coedge $-1 -1 $-1 $562 $545 $548 $590 forward $587 $-1 #
coedge $-1 -1 $-1 $545 $562 $560 $598 forward $587 $-1 #
loop $-1 -1 $-1 $-1 $585 $536 #
vertex $-1 -1 $-1 $561 $607 #
straight-curve $-1 -1 $-1 -25.39999999999979252 -13.98700000000008714 -52.69999999999992468 -9.999999999999976907 -3.01104212468150223e-72 -4.893524816237175513e-44 I I #
edge $-1 -1 $-1 $550 -3.772811940317346568 $566 2.541871345485672062 $585 $608 forward @7 unknown #
point $-1 -1 $-1 26.93000000000008498 -13.98700000000008536 -52.69999999999991758 #
straight-curve $-1 -1 $-1 18.99357811959011855 35.49659042435607148 -56.63426023998707848 1.582021301796565638 -9.863902816701587639 -0.4479172058851428329 I I #
ATTRIB_CUSTOM-attrib $-1 -1 $-1 $-1 $553 @17 sketch_attrib_def 1 1 3 @13 102 0 0 0 1 1 #
vertex $-1 -1 $-1 $557 $609 #
ellipse-curve $-1 -1 $-1 0 0 0 0 1 0 50 0 0 1 I I #
coedge $-1 -1 $-1 $596 $596 $559 $597 forward $580 $-1 #
edge $-1 -1 $-1 $610 -3.141592653589793116 $610 3.141592653589793116 $596 $611 forward @7 unknown #
edge $-1 -1 $-1 $564 -6.503687222498194309 $588 -0.1890039366951760946 $586 $612 forward @7 unknown #
straight-curve $-1 -1 $-1 50.80000000000003268 48.36299999999977217 -52.69999999999991758 9.999999999999976907 3.01104212468150223e-72 4.893524816237175513e-44 I I #
point $-1 -1 $-1 -16.92999999999981497 48.36299999999977217 -52.69999999999991758 #
point $-1 -1 $-1 16.93000000000009919 48.36299999999977217 -52.69999999999991758 #
straight-curve $-1 -1 $-1 -50.79999999999973426 3.327961222379141049 -58.09502914424955122 -2.219849081491753004e-45 9.989705697907124815 0.453629881292535786 I I #
edge $-1 -1 $-1 $577 0.3715130031403202082 $574 0.6350000000000000089 $582 $613 forward @7 unknown #
straight-curve $-1 -1 $-1 -50.79999999999973426 -20.33700000000007435 -59.04999999999990479 4.893524816237175513e-44 6.336309517034005957e-30 -9.999999999999976907 I I #
point $-1 -1 $-1 -50.79999999999973426 -20.33700000000007435 -59.04999999999990479 #
point $-1 -1 $-1 -50.79999999999973426 -17.70213003140328212 -59.04999999999990479 #
point $-1 -1 $-1 -26.92999999999979011 -13.98700000000008714 -52.69999999999991758 #
straight-curve $-1 -1 $-1 20.95533465328418998 23.265038436773537 -52.69999999999991758 -1.583610697068920103 9.873812696224717911 6.256353335649979487e-30 I I #
point $-1 -1 $-1 -50 0 6.123233995736766085e-15 #
vertex $-1 -1 $-1 $597 $614 #
ellipse-curve $-1 -1 $-1 1.49213974509621039e-13 38.36299999999979349 -52.69999999999991758 4.893524816237186964e-45 6.336309517034020845e-31 -1 -1.521024506273231118e-72 4.999999999999979572 3.168154758516989666e-30 1 I I #
straight-curve $-1 -1 $-1 -27.22930865593841077 -15.85318946977736942 -52.69999999999991758 -1.583610697068920103 -9.873812696224717911 -6.256353335649995602e-30 I I #
straight-curve $-1 -1 $-1 -50.79999999999973426 -13.98700000000008714 -59.04999999999990479 3.042049012546467766e-72 -9.999999999999976907 -6.336309517033991944e-30 I I #
point $-1 -1 $-1 1.49213974509621039e-13 33.3629999999998148 -52.69999999999991758 #
End-of-ACIS-data 