700 0 1 0           
30 Autodesk Translation Framework 20 ASM 227.7.2.65535 NT 24 Fri Mar 25 20:32:50 2022 
1 9.999999999999999547e-07 1.000000000000000036e-10 
body $1 -1 $-1 $2 $-1 $3 #
rgb_color-st-attrib $-1 -1 $4 $-1 $0 0.627450980392156854 0.627450980392156854 0.627450980392156854 #
lump $-1 -1 $-1 $-1 $5 $0 #
transform $-1 -1 1 0 0 0 1 0 0 0 1 0 0 0 1 no_rotate no_reflect no_shear #
ATTRIB_CUSTOM-attrib $-1 -1 $-1 $1 $0 @20 Timestamp_attrib_def 1 1586219013993071 #
shell $-1 -1 $-1 $-1 $-1 $6 $-1 $2 #
face $7 -1 $-1 $8 $9 $5 $-1 $10 reversed single #
DXID-attrib $-1 -1 $-1 $-1 $6 @10 ASM ENTITY @1 0 #
face $11 -1 $-1 $12 $13 $5 $-1 $14 reversed single #
loop $-1 -1 $-1 $15 $16 $6 #
cone-surface $-1 -1 $-1 21 5 0 0 0 1 1.999999999999997335 0 0 1 I I 0 1 1.999999999999997335 forward I I I I #
DXID-attrib $-1 -1 $-1 $-1 $8 @10 ASM ENTITY @1 1 #
face $17 -1 $-1 $18 $19 $5 $-1 $20 forward single #
loop $-1 -1 $-1 $21 $22 $8 #
cone-surface $-1 -1 $-1 21 91.20000000000001705 0 0 0 1 2.000000000000001776 0 0 1 I I 0 1 2.000000000000001776 forward I I I I #
loop $-1 -1 $-1 $-1 $23 $6 #
coedge $-1 -1 $-1 $16 $16 $24 $25 reversed $9 $-1 #
DXID-attrib $-1 -1 $-1 $-1 $12 @10 ASM ENTITY @1 2 #
face $26 -1 $-1 $27 $28 $5 $-1 $29 forward single #
loop $-1 -1 $-1 $30 $31 $12 #
plane-surface $-1 -1 $-1 42 0 0 0 0 -1 -10 -0 -0 forward_v I I I I #
loop $-1 -1 $-1 $-1 $32 $8 #
coedge $-1 -1 $-1 $22 $22 $33 $34 reversed $13 $-1 #
coedge $35 -1 $-1 $23 $23 $31 $36 reversed $15 $-1 #
coedge $-1 -1 $-1 $24 $24 $16 $25 forward $28 $-1 #
edge $-1 -1 $-1 $37 0 $37 1.206182154171772325 $24 $38 forward @7 unknown #
DXID-attrib $-1 -1 $-1 $-1 $18 @10 ASM ENTITY @1 3 #
face $39 -1 $-1 $40 $41 $5 $-1 $42 forward single #
loop $-1 -1 $-1 $43 $24 $18 #
cone-surface $-1 -1 $-1 21 0 0 0 1 0 -21 0 0 1 I I 0 1 21 forward I I I I #
loop $-1 -1 $-1 $44 $45 $12 #
coedge $-1 -1 $-1 $31 $31 $23 $36 forward $19 $-1 #
coedge $46 -1 $-1 $32 $32 $45 $47 reversed $21 $-1 #
coedge $-1 -1 $-1 $33 $33 $22 $34 forward $43 $-1 #
edge $-1 -1 $-1 $48 0 $48 1.206182154171772547 $33 $49 forward @7 unknown #
ATTRIB_CUSTOM-attrib $-1 -1 $-1 $-1 $23 @17 sketch_attrib_def 1 1 3 @13 128 0 0 0 1 1 #
edge $-1 -1 $-1 $50 -3.141592653589793116 $50 3.141592653589793116 $31 $51 forward @7 unknown #
vertex $-1 -1 $-1 $25 $52 #
intcurve-curve $-1 -1 $-1 forward { surfintcur full nubs 3 periodic 17 
	0 3 0.07538649009522617461 2 0.1507729801904523492 2 0.2261592593666977291 2 0.3015455385429430812 2 
	0.3769318177191884889 2 0.452318096895433841 2 0.5277045869906600295 2 0.6030910770858861625 2 0.6784775671811122955 2 
	0.7538640572763385395 2 0.8292503364525838361 2 0.9046366156288292437 2 0.9800228948050746514 2 1.055409173981320059 2 
	1.130795664076546192 2 1.206182154171772325 3 
	23 5 20.90454496036687004 
	23 4.748711699682579557 20.90454496036687004 
	22.94974877103088673 4.480778392240555519 20.90954281694308037 
	22.74559420436207802 3.988065085971467916 20.92757515614648511 
	22.59169919090700418 3.763272066160815221 20.94034714008357412 
	22.23672843041473612 3.408301305668548498 20.96430650591312528 
	22.01193519247237163 3.254405905243906272 20.97705317046367668 
	21.5192211574948189 3.050251048169601464 20.9950275527022221 
	21.25128759725415151 3.000000000000002665 21 
	20.74871240274585205 3.000000000000002665 21 
	20.4807788425051811 3.050251048169601464 20.9950275527022221 
	19.98806480752763193 3.25440590524390494 20.97705317046367668 
	19.76327156958526388 3.408301305668548498 20.96430650591312528 
	19.40830080909299937 3.763272066160815221 20.94034714008357412 
	19.25440579563792554 3.988065085971467028 20.92757515614648511 
	19.05025122896911682 4.480778392240555519 20.90954281694308037 
	19.00000000000000355 4.748711699682579557 20.90454496036687004 
	19.00000000000000355 5.251288300317420443 20.90454496036687004 
	19.05025122896911682 5.519221607759443593 20.90954281694308037 
	19.25440579563792554 6.011934914028533861 20.92757515614648511 
	19.40830080909300293 6.236727933839184779 20.94034714008357412 
	19.76327156958526743 6.591698694331451946 20.96430650591312528 
	19.98806480752762837 6.745594094756093284 20.97705317046367668 
	20.48077884250517755 6.949748951830395427 20.9950275527022221 
	20.74871240274585205 6.999999999999997335 21 
	21.25128759725415151 6.999999999999997335 21 
	21.5192211574948189 6.949748951830397203 20.9950275527022221 
	22.01193519247237163 6.745594094756093284 20.97705317046367668 
	22.23672843041473612 6.591698694331451946 20.96430650591312528 
	22.59169919090700418 6.236727933839183891 20.94034714008357412 
	22.74559420436207802 6.011934914028531196 20.92757515614648511 
	22.94974877103088673 5.519221607759443593 20.90954281694308037 
	23 5.251288300317420443 20.90454496036687004 
	23 5 20.90454496036687004 
	0.001526299857979207704 
	
	cone 21 5 0 0 0 1 1.999999999999997335 0 0 1 I I 0 1 1.999999999999997335 forward I I I I 
	cone 21 0 0 0 1 0 -21 0 0 1 I I 0 1 21 forward I I I I 
	nullbs 
	nullbs 
	I I 
	0 
	0 
	0 
	} I I #
DXID-attrib $-1 -1 $-1 $-1 $27 @10 ASM ENTITY @1 4 #
face $53 -1 $-1 $-1 $54 $5 $-1 $55 reversed single #
loop $-1 -1 $-1 $-1 $56 $27 #
plane-surface $-1 -1 $-1 21 96.20000000000001705 10.5 0 1 0 10 0 0 forward_v I I I I #
loop $-1 -1 $-1 $57 $33 $18 #
loop $-1 -1 $-1 $-1 $58 $12 #
coedge $-1 -1 $-1 $45 $45 $32 $47 forward $30 $-1 #
ATTRIB_CUSTOM-attrib $-1 -1 $-1 $-1 $32 @17 sketch_attrib_def 1 1 3 @13 135 0 0 0 1 1 #
edge $-1 -1 $-1 $59 -3.141592653589793116 $59 3.141592653589793116 $45 $60 forward @7 unknown #
vertex $-1 -1 $-1 $34 $61 #
intcurve-curve $-1 -1 $-1 forward { surfintcur full nubs 3 periodic 17 
	0 3 0.07538649009522609135 2 0.1507729801904521827 2 0.2261592593666976736 2 0.3015455385429431368 2 
	0.3769318177191885999 2 0.4523180968954341186 2 0.5277045869906602515 2 0.6030910770858862735 2 0.6784775671811122955 2 
	0.7538640572763384284 2 0.8292503364525838361 2 0.9046366156288293547 2 0.9800228948050748734 2 1.055409173981320281 2 
	1.130795664076546414 2 1.206182154171772547 3 
	23.00000000000000355 91.20000000000001705 20.90454496036687004 
	23.00000000000000355 90.94871169968259039 20.90454496036687004 
	22.94974877103089739 90.68077839224056902 20.90954281694308037 
	22.74559420436208512 90.18806508597148763 20.92757515614648511 
	22.59169919090700418 89.96327206616084027 20.94034714008357412 
	22.23672843041473968 89.60830130566854734 20.96430650591312528 
	22.01193519247236807 89.45440590524391666 20.97705317046367668 
	21.51922115749481534 89.25025104816960209 20.9950275527022221 
	21.25128759725415151 89.20000000000001705 21 
	20.74871240274585205 89.20000000000001705 21 
	20.4807788425051811 89.25025104816960209 20.9950275527022221 
	19.98806480752763548 89.45440590524391666 20.97705317046367668 
	19.76327156958526388 89.60830130566854734 20.96430650591312528 
	19.40830080909299582 89.96327206616084027 20.94034714008357412 
	19.25440579563791133 90.18806508597151605 20.92757515614648511 
	19.05025122896910261 90.68077839224059744 20.90954281694308037 
	19 90.94871169968259039 20.90454496036687004 
	19 91.45128830031744371 20.90454496036687004 
	19.05025122896912038 91.71922160775949351 20.90954281694308037 
	19.25440579563793264 92.21193491402856068 20.92757515614648511 
	19.40830080909299937 92.43672793383920805 20.94034714008357412 
	19.76327156958526388 92.79169869433147255 20.96430650591312528 
	19.98806480752764259 92.94559409475610323 20.97705317046367668 
	20.48077884250519531 93.14974895183041781 20.9950275527022221 
	20.74871240274585205 93.20000000000000284 21 
	21.25128759725415151 93.20000000000000284 21 
	21.51922115749480469 93.14974895183041781 20.9950275527022221 
	22.01193519247235741 92.94559409475610323 20.97705317046367668 
	22.23672843041473968 92.79169869433147255 20.96430650591312528 
	22.59169919090700418 92.43672793383919384 20.94034714008357412 
	22.74559420436208512 92.21193491402854647 20.92757515614648511 
	22.94974877103089739 91.71922160775946509 20.90954281694308037 
	23.00000000000000355 91.4512883003174295 20.90454496036687004 
	23.00000000000000355 91.20000000000001705 20.90454496036687004 
	0.001526299857988937551 
	
	cone 21 91.20000000000001705 0 0 0 1 2.000000000000001776 0 0 1 I I 0 1 2.000000000000001776 forward I I I I 
	cone 21 0 0 0 1 0 -21 0 0 1 I I 0 1 21 forward I I I I 
	nullbs 
	nullbs 
	I I 
	0 
	0 
	0 
	} I I #
vertex $-1 -1 $-1 $36 $62 #
ellipse-curve $-1 -1 $-1 21 5 0 0 0 1 1.999999999999997335 0 0 1 I I #
point $-1 -1 $-1 23 4.999999999999999112 20.90454496036687715 #
DXID-attrib $-1 -1 $-1 $-1 $40 @10 ASM ENTITY @1 5 #
loop $-1 -1 $-1 $-1 $63 $40 #
plane-surface $-1 -1 $-1 21 0 10.5 0 1 0 10 0 0 forward_v I I I I #
coedge $-1 -1 $-1 $64 $64 $65 $66 forward $41 $-1 #
loop $-1 -1 $-1 $-1 $67 $18 #
coedge $68 -1 $-1 $69 $70 $71 $72 reversed $44 $-1 #
vertex $-1 -1 $-1 $47 $73 #
ellipse-curve $-1 -1 $-1 21 91.20000000000001705 0 0 0 1 2.000000000000001776 0 0 1 I I #
point $-1 -1 $-1 23.00000000000000355 91.19999999999998863 20.90454496036687004 #
point $-1 -1 $-1 19.00000000000000355 5 0 #
coedge $74 -1 $-1 $71 $71 $67 $75 reversed $54 $-1 #
coedge $-1 -1 $-1 $56 $56 $76 $77 forward $41 $-1 #
coedge $-1 -1 $-1 $78 $79 $56 $66 reversed $57 $-1 #
edge $-1 -1 $-1 $80 0 $81 3.141592653589793116 $65 $82 forward @7 unknown #
coedge $83 -1 $-1 $79 $78 $63 $75 forward $57 $-1 #
ATTRIB_CUSTOM-attrib $-1 -1 $-1 $-1 $58 @17 sketch_attrib_def 1 1 3 @13 103 0 1 0 1 1 #
coedge $-1 -1 $-1 $76 $58 $78 $84 forward $44 $-1 #
coedge $-1 -1 $-1 $58 $76 $79 $85 reversed $44 $-1 #
coedge $86 -1 $-1 $63 $63 $58 $72 forward $54 $-1 #
edge $-1 -1 $-1 $87 0 $88 4.200000000000000178 $58 $89 forward @7 unknown #
point $-1 -1 $-1 19 91.20000000000001705 0 #
ATTRIB_CUSTOM-attrib $-1 -1 $-1 $-1 $63 @17 sketch_attrib_def 1 1 3 @13 106 0 0 0 1 1 #
edge $-1 -1 $-1 $87 0 $88 3.141592653589793116 $67 $90 forward @7 unknown #
coedge $-1 -1 $-1 $70 $69 $64 $77 reversed $44 $-1 #
edge $-1 -1 $-1 $81 -4.200000000000000178 $80 -0 $76 $91 forward @7 unknown #
coedge $-1 -1 $-1 $67 $65 $69 $84 reversed $57 $-1 #
coedge $-1 -1 $-1 $65 $67 $70 $85 forward $57 $-1 #
vertex $-1 -1 $-1 $84 $92 #
vertex $-1 -1 $-1 $77 $93 #
ellipse-curve $-1 -1 $-1 21 96.20000000000001705 0 0 1 0 -21 0 0 1 I I #
ATTRIB_CUSTOM-attrib $-1 -1 $-1 $-1 $67 @17 sketch_attrib_def 1 1 3 @13 106 0 0 0 1 1 #
edge $-1 -1 $-1 $87 0 $80 9.620000000000000995 $78 $94 forward @7 unknown #
edge $-1 -1 $-1 $88 0 $81 9.620000000000000995 $79 $95 forward @7 unknown #
ATTRIB_CUSTOM-attrib $-1 -1 $-1 $-1 $71 @17 sketch_attrib_def 1 1 3 @13 103 0 1 0 1 1 #
vertex $-1 -1 $-1 $72 $96 #
vertex $-1 -1 $-1 $72 $97 #
straight-curve $-1 -1 $-1 0 0 0 10 0 0 F 0 F 4.200000000000000178 #
ellipse-curve $-1 -1 $-1 21 0 0 0 1 0 -21 0 0 1 F 0 F 3.141592653589793116 #
straight-curve $-1 -1 $-1 0 96.20000000000001705 0 -10 -0 -0 I I #
point $-1 -1 $-1 0 96.20000000000001705 0 #
point $-1 -1 $-1 42 96.20000000000001705 2.571758278209442056e-15 #
straight-curve $-1 -1 $-1 0 0 0 0 10 0 I I #
straight-curve $-1 -1 $-1 42 0 2.571758278209442056e-15 0 10 0 I I #
point $-1 -1 $-1 0 0 0 #
point $-1 -1 $-1 42 0 2.571758278209442056e-15 #
End-of-ACIS-data 