                                                                        S      1
,,18HStepper Fixture v1,18HStepper Fixture v1,7Hunknown,7Hunknown,32,38,G      1
7,99,15,,1.,2,2HMM,1,0.08,15H20220325.203240,0.01,10000.,7Hunknown,7HunkG      2
nown,11,0,15H20201009.201349;                                           G      3
     186       1                                                00000000D      1
     186             -83       1       0                               0D      2
     514       2                                                00010000D      3
     514                       1       1                               0D      4
     510       3                                                00010000D      5
     510             -83       1       1                               0D      6
     510       4                                                00010000D      7
     510             -83       1       1                               0D      8
     510       5                                                00010000D      9
     510             -83       1       1                               0D     10
     510       6                                                00010000D     11
     510             -83       1       1                               0D     12
     510       7                                                00010000D     13
     510             -83       1       1                               0D     14
     510       8                                                00010000D     15
     510             -83       1       1                               0D     16
     508       9                                                00010000D     17
     508                       1       1                               0D     18
     508      10                                                00010000D     19
     508                       1       1                               0D     20
     508      11                                                00010000D     21
     508                       1       1                               0D     22
     508      12                                                00010000D     23
     508                       1       1                               0D     24
     508      13                                                00010000D     25
     508                       1       1                               0D     26
     508      14                                                00010000D     27
     508                       1       1                               0D     28
     508      15                                                00010000D     29
     508                       1       1                               0D     30
     508      16                                                00010000D     31
     508                       1       1                               0D     32
     508      17                                                00010000D     33
     508                       1       1                               0D     34
     508      18                                                00010000D     35
     508                       1       1                               0D     36
     126      19                                                00010000D     37
     126       0               8       0                               0D     38
     126      27                                                00010000D     39
     126       0               2       0                               0D     40
     126      29                                                00010000D     41
     126       0              23       0                               0D     42
     126      52                                                00010000D     43
     126       0              24       0                               0D     44
     126      76                                                00010000D     45
     126       0               8       0                               0D     46
     126      84                                                00010000D     47
     126       0               3       0                               0D     48
     126      87                                                00010000D     49
     126       0              23       0                               0D     50
     126     110                                                00010000D     51
     126       0              24       0                               0D     52
     126     134                                                00010000D     53
     126       0               2       0                               0D     54
     126     136                                                00010000D     55
     126       0               2       0                               0D     56
     126     138                                                00010000D     57
     126       0               2       0                               0D     58
     126     140                                                00010000D     59
     126       0               3       0                               0D     60
     126     143                                                00010000D     61
     126       0               5       0                               0D     62
     126     148                                                00010000D     63
     126       0               5       0                               0D     64
     128     153                                                00010000D     65
     128       0     -83      11       0                               0D     66
     128     164                                                00010000D     67
     128       0     -83      11       0                               0D     68
     128     175                                                00010000D     69
     128       0     -83       4       0                               0D     70
     128     179                                                00010000D     71
     128       0     -83       8       0                               0D     72
     128     187                                                00010000D     73
     128       0     -83       4       0                               0D     74
     128     191                                                00010000D     75
     128       0     -83       4       0                               0D     76
     502     195                                                00010000D     77
     502                       4       1                               0D     78
     504     199                                                00010001D     79
     504                       4       1                               0D     80
     406     203                                                00000000D     81
     406                       1      15                               0D     82
     314     204                                                00000200D     83
     314                       2       0                               0D     84
186,3,1,0,0,1,81;                                                      1P      1
514,6,5,1,7,1,9,1,11,1,13,1,15,1;                                      3P      2
510,65,1,1,17;                                                         5P      3
510,67,1,1,19;                                                         7P      4
510,69,3,1,21,23,25;                                                   9P      5
510,71,3,1,27,29,31;                                                  11P      6
510,73,1,1,33;                                                        13P      7
510,75,1,1,35;                                                        15P      8
508,5,0,79,1,0,0,0,79,2,1,0,0,79,3,0,0,0,79,4,0,0,0,79,2,0,0;         17P      9
508,5,0,79,5,0,0,0,79,6,1,0,0,79,7,0,0,0,79,8,0,0,0,79,6,0,0;         19P     10
508,4,0,79,9,0,0,0,79,10,1,0,0,79,11,0,0,0,79,12,0,0;                 21P     11
508,1,0,79,1,1,0;                                                     23P     12
508,1,0,79,5,1,0;                                                     25P     13
508,4,0,79,13,1,0,0,79,12,1,0,0,79,14,0,0,0,79,10,0,0;                27P     14
508,2,0,79,3,1,0,0,79,4,1,0;                                          29P     15
508,2,0,79,7,1,0,0,79,8,1,0;                                          31P     16
508,2,0,79,14,1,0,0,79,11,1,0;                                        33P     17
508,2,0,79,13,0,0,0,79,9,1,0;                                         35P     18
126,8,2,0,1,0,0,-3.14159265358979,-3.14159265358979,                  37P     19
-3.14159265358979,-1.5707963267949,-1.5707963267949,0.,0.,            37P     20
1.5707963267949,1.5707963267949,3.14159265358979,                     37P     21
3.14159265358979,3.14159265358979,1.,0.707106781186547,1.,            37P     22
0.707106781186547,1.,0.707106781186547,1.,0.707106781186547,1.,       37P     23
19.,5.,0.,19.,3.,0.,21.,3.,0.,23.,3.,0.,23.,5.,0.,23.,7.,0.,21.,      37P     24
7.,0.,19.,7.,0.,19.,5.,0.,-3.14159265358979,3.14159265358979,0.,      37P     25
0.,0.;                                                                37P     26
126,1,1,0,0,1,0,0.,0.,10.4522724801834,10.4522724801834,1.,1.,        39P     27
19.,5.,0.,19.,5.,20.9045449603669,0.,10.4522724801834,0.,0.,0.;       39P     28
126,17,3,0,0,1,0,0.,0.,0.,0.,0.0753864900952262,                      41P     29
0.0753864900952262,0.150772980190452,0.150772980190452,               41P     30
0.226159259366698,0.226159259366698,0.301545538542943,                41P     31
0.301545538542943,0.376931817719188,0.376931817719188,                41P     32
0.452318096895434,0.452318096895434,0.52770458699066,                 41P     33
0.52770458699066,0.603091077085886,0.603091077085886,                 41P     34
0.603091077085886,0.603091077085886,1.,1.,1.,1.,1.,1.,1.,1.,1.,       41P     35
1.,1.,1.,1.,1.,1.,1.,1.,1.,23.,5.,20.9045449603669,23.,               41P     36
4.74871169968258,20.9045449603669,22.9497487710309,                   41P     37
4.48077839224056,20.9095428169431,22.7455942043621,                   41P     38
3.98806508597147,20.9275751561465,22.591699190907,                    41P     39
3.76327206616082,20.9403471400836,22.2367284304147,                   41P     40
3.40830130566855,20.9643065059131,22.0119351924724,                   41P     41
3.25440590524391,20.9770531704637,21.5192211574948,                   41P     42
3.0502510481696,20.9950275527022,21.2512875972542,3.,21.,             41P     43
20.7487124027459,3.,21.,20.4807788425052,3.0502510481696,             41P     44
20.9950275527022,19.9880648075276,3.2544059052439,                    41P     45
20.9770531704637,19.7632715695853,3.40830130566855,                   41P     46
20.9643065059131,19.408300809093,3.76327206616082,                    41P     47
20.9403471400836,19.2544057956379,3.98806508597147,                   41P     48
20.9275751561465,19.0502512289691,4.48077839224056,                   41P     49
20.9095428169431,19.,4.74871169968258,20.9045449603669,19.,5.,        41P     50
20.9045449603669,0.,0.603091077085886,0.,0.,0.;                       41P     51
126,17,3,0,0,1,0,0.603091077085886,0.603091077085886,                 43P     52
0.603091077085886,0.603091077085886,0.678477567181112,                43P     53
0.678477567181112,0.753864057276339,0.753864057276339,                43P     54
0.829250336452584,0.829250336452584,0.904636615628829,                43P     55
0.904636615628829,0.980022894805075,0.980022894805075,                43P     56
1.05540917398132,1.05540917398132,1.13079566407655,                   43P     57
1.13079566407655,1.20618215417177,1.20618215417177,                   43P     58
1.20618215417177,1.20618215417177,1.,1.,1.,1.,1.,1.,1.,1.,1.,1.,      43P     59
1.,1.,1.,1.,1.,1.,1.,1.,19.,5.,20.9045449603669,19.,                  43P     60
5.25128830031742,20.9045449603669,19.0502512289691,                   43P     61
5.51922160775944,20.9095428169431,19.2544057956379,                   43P     62
6.01193491402853,20.9275751561465,19.408300809093,                    43P     63
6.23672793383918,20.9403471400836,19.7632715695853,                   43P     64
6.59169869433145,20.9643065059131,19.9880648075276,                   43P     65
6.74559409475609,20.9770531704637,20.4807788425052,                   43P     66
6.9497489518304,20.9950275527022,20.7487124027459,7.,21.,             43P     67
21.2512875972542,7.,21.,21.5192211574948,6.9497489518304,             43P     68
20.9950275527022,22.0119351924724,6.74559409475609,                   43P     69
20.9770531704637,22.2367284304147,6.59169869433145,                   43P     70
20.9643065059131,22.591699190907,6.23672793383918,                    43P     71
20.9403471400836,22.7455942043621,6.01193491402853,                   43P     72
20.9275751561465,22.9497487710309,5.51922160775944,                   43P     73
20.9095428169431,23.,5.25128830031742,20.9045449603669,23.,5.,        43P     74
20.9045449603669,0.603091077085886,1.20618215417177,0.,0.,0.;         43P     75
126,8,2,0,1,0,0,-3.14159265358979,-3.14159265358979,                  45P     76
-3.14159265358979,-1.5707963267949,-1.5707963267949,0.,0.,            45P     77
1.5707963267949,1.5707963267949,3.14159265358979,                     45P     78
3.14159265358979,3.14159265358979,1.,0.707106781186551,1.,            45P     79
0.707106781186551,1.,0.707106781186551,1.,0.707106781186551,1.,       45P     80
19.,91.2,0.,19.,89.2,0.,21.,89.2,0.,23.,89.2,0.,23.,91.2,0.,23.,      45P     81
93.2,0.,21.,93.2,0.,19.,93.2,0.,19.,91.2,0.,-3.14159265358979,        45P     82
3.14159265358979,0.,0.,0.;                                            45P     83
126,1,1,0,0,1,0,0.,0.,10.4522724801834,10.4522724801834,1.,1.,        47P     84
19.,91.2,0.,19.,91.2,20.9045449603669,0.,10.4522724801834,0.,0.,      47P     85
0.;                                                                   47P     86
126,17,3,0,0,1,0,0.,0.,0.,0.,0.0753864900952261,                      49P     87
0.0753864900952261,0.150772980190452,0.150772980190452,               49P     88
0.226159259366698,0.226159259366698,0.301545538542943,                49P     89
0.301545538542943,0.376931817719189,0.376931817719189,                49P     90
0.452318096895434,0.452318096895434,0.52770458699066,                 49P     91
0.52770458699066,0.603091077085886,0.603091077085886,                 49P     92
0.603091077085886,0.603091077085886,1.,1.,1.,1.,1.,1.,1.,1.,1.,       49P     93
1.,1.,1.,1.,1.,1.,1.,1.,1.,23.,91.2,20.9045449603669,23.,             49P     94
90.9487116996826,20.9045449603669,22.9497487710309,                   49P     95
90.6807783922406,20.9095428169431,22.7455942043621,                   49P     96
90.1880650859715,20.9275751561465,22.591699190907,                    49P     97
89.9632720661608,20.9403471400836,22.2367284304147,                   49P     98
89.6083013056685,20.9643065059131,22.0119351924724,                   49P     99
89.4544059052439,20.9770531704637,21.5192211574948,                   49P    100
89.2502510481696,20.9950275527022,21.2512875972542,89.2,21.,          49P    101
20.7487124027459,89.2,21.,20.4807788425052,89.2502510481696,          49P    102
20.9950275527022,19.9880648075276,89.4544059052439,                   49P    103
20.9770531704637,19.7632715695853,89.6083013056685,                   49P    104
20.9643065059131,19.408300809093,89.9632720661608,                    49P    105
20.9403471400836,19.2544057956379,90.1880650859715,                   49P    106
20.9275751561465,19.0502512289691,90.6807783922406,                   49P    107
20.9095428169431,19.,90.9487116996826,20.9045449603669,19.,91.2,      49P    108
20.9045449603669,0.,0.603091077085886,0.,0.,0.;                       49P    109
126,17,3,0,0,1,0,0.603091077085886,0.603091077085886,                 51P    110
0.603091077085886,0.603091077085886,0.678477567181112,                51P    111
0.678477567181112,0.753864057276338,0.753864057276338,                51P    112
0.829250336452584,0.829250336452584,0.904636615628829,                51P    113
0.904636615628829,0.980022894805075,0.980022894805075,                51P    114
1.05540917398132,1.05540917398132,1.13079566407655,                   51P    115
1.13079566407655,1.20618215417177,1.20618215417177,                   51P    116
1.20618215417177,1.20618215417177,1.,1.,1.,1.,1.,1.,1.,1.,1.,1.,      51P    117
1.,1.,1.,1.,1.,1.,1.,1.,19.,91.2,20.9045449603669,19.,                51P    118
91.4512883003174,20.9045449603669,19.0502512289691,                   51P    119
91.7192216077595,20.9095428169431,19.2544057956379,                   51P    120
92.2119349140286,20.9275751561465,19.408300809093,                    51P    121
92.4367279338392,20.9403471400836,19.7632715695853,                   51P    122
92.7916986943315,20.9643065059131,19.9880648075276,                   51P    123
92.9455940947561,20.9770531704637,20.4807788425052,                   51P    124
93.1497489518304,20.9950275527022,20.7487124027459,93.2,21.,          51P    125
21.2512875972542,93.2,21.,21.5192211574948,93.1497489518304,          51P    126
20.9950275527022,22.0119351924724,92.9455940947561,                   51P    127
20.9770531704637,22.2367284304147,92.7916986943315,                   51P    128
20.9643065059131,22.591699190907,92.4367279338392,                    51P    129
20.9403471400836,22.7455942043621,92.2119349140285,                   51P    130
20.9275751561465,22.9497487710309,91.7192216077595,                   51P    131
20.9095428169431,23.,91.4512883003174,20.9045449603669,23.,91.2,      51P    132
20.9045449603669,0.603091077085886,1.20618215417177,0.,0.,0.;         51P    133
126,1,1,0,0,1,0,0.,0.,4.2,4.2,1.,1.,0.,0.,0.,42.,0.,0.,0.,4.2,        53P    134
0.,0.,0.;                                                             53P    135
126,1,1,0,0,1,0,0.,0.,9.62,9.62,1.,1.,0.,0.,0.,0.,96.2,0.,0.,         55P    136
9.62,0.,0.,0.;                                                        55P    137
126,1,1,0,0,1,0,-4.2,-4.2,0.,0.,1.,1.,42.,96.2,0.,0.,96.2,0.,         57P    138
-4.2,0.,0.,0.,0.;                                                     57P    139
126,1,1,0,0,1,0,0.,0.,9.62,9.62,1.,1.,42.,0.,                         59P    140
2.57175827820944D-15,42.,96.2,2.57175827820944D-15,0.,9.62,0.,        59P    141
0.,0.;                                                                59P    142
126,4,2,0,0,0,0,0.,0.,0.,1.5707963267949,1.5707963267949,             61P    143
3.14159265358979,3.14159265358979,3.14159265358979,1.,                61P    144
0.707106781186548,1.,0.707106781186548,1.,0.,0.,0.,0.,0.,21.,         61P    145
21.,0.,21.,42.,0.,21.,42.,0.,2.57175827820944D-15,0.,                 61P    146
3.14159265358979,0.,0.,0.;                                            61P    147
126,4,2,0,0,0,0,0.,0.,0.,1.5707963267949,1.5707963267949,             63P    148
3.14159265358979,3.14159265358979,3.14159265358979,1.,                63P    149
0.707106781186548,1.,0.707106781186548,1.,0.,96.2,0.,0.,96.2,         63P    150
21.,21.,96.2,21.,42.,96.2,21.,42.,96.2,2.57175827820944D-15,0.,       63P    151
3.14159265358979,0.,0.,0.;                                            63P    152
128,1,8,1,2,0,1,0,0,1,0.,0.,10.5,10.5,-3.14159265358979,              65P    153
-3.14159265358979,-3.14159265358979,-1.5707963267949,                 65P    154
-1.5707963267949,0.,0.,1.5707963267949,1.5707963267949,               65P    155
3.14159265358979,3.14159265358979,3.14159265358979,1.,1.,             65P    156
0.707106781186548,0.707106781186548,1.,1.,0.707106781186548,          65P    157
0.707106781186548,1.,1.,0.707106781186548,0.707106781186548,1.,       65P    158
1.,0.707106781186548,0.707106781186548,1.,1.,19.,5.,0.,19.,5.,        65P    159
21.,19.,3.,0.,19.,3.,21.,21.,3.,0.,21.,3.,21.,23.,3.,0.,23.,3.,       65P    160
21.,23.,5.,0.,23.,5.,21.,23.,7.,0.,23.,7.,21.,21.,7.,0.,21.,7.,       65P    161
21.,19.,7.,0.,19.,7.,21.,19.,5.,0.,19.,5.,21.,0.,10.5,                65P    162
-3.14159265358979,3.14159265358979;                                   65P    163
128,1,8,1,2,0,1,0,0,1,0.,0.,10.5,10.5,-3.14159265358979,              67P    164
-3.14159265358979,-3.14159265358979,-1.5707963267949,                 67P    165
-1.5707963267949,0.,0.,1.5707963267949,1.5707963267949,               67P    166
3.14159265358979,3.14159265358979,3.14159265358979,1.,1.,             67P    167
0.707106781186548,0.707106781186548,1.,1.,0.707106781186548,          67P    168
0.707106781186548,1.,1.,0.707106781186548,0.707106781186548,1.,       67P    169
1.,0.707106781186548,0.707106781186548,1.,1.,19.,91.2,0.,19.,         67P    170
91.2,21.,19.,89.2,0.,19.,89.2,21.,21.,89.2,0.,21.,89.2,21.,23.,       67P    171
89.2,0.,23.,89.2,21.,23.,91.2,0.,23.,91.2,21.,23.,93.2,0.,23.,        67P    172
93.2,21.,21.,93.2,0.,21.,93.2,21.,19.,93.2,0.,19.,93.2,21.,19.,       67P    173
91.2,0.,19.,91.2,21.,0.,10.5,-3.14159265358979,3.14159265358979;      67P    174
128,1,1,1,1,0,0,1,0,0,-0.001,-0.001,4.201,4.201,-0.001,-0.001,        69P    175
9.621,9.621,1.,1.,1.,1.,42.01,-0.01,0.,-0.0100000000000033,           69P    176
-0.01,0.,42.01,96.21,0.,-0.0100000000000033,96.21,0.,-0.001,          69P    177
4.201,-0.001,9.621;                                                   69P    178
128,1,4,1,2,0,0,0,0,0,0.,0.,4.58095238095238,4.58095238095238,        71P    179
0.,0.,0.,1.5707963267949,1.5707963267949,3.14159265358979,            71P    180
3.14159265358979,3.14159265358979,1.,1.,0.707106781186548,            71P    181
0.707106781186548,1.,1.,0.707106781186548,0.707106781186548,1.,       71P    182
1.,0.,96.2,0.,0.,0.,0.,4.44089209850063D-15,96.2,21.,                 71P    183
4.44089209850063D-15,0.,21.,21.,96.2,21.,21.,0.,21.,42.,96.2,         71P    184
21.,42.,0.,21.,42.,96.2,0.,42.,0.,0.,0.,4.58095238095238,0.,          71P    185
3.14159265358979;                                                     71P    186
128,1,1,1,1,0,0,1,0,0,-2.101,-2.101,2.101,2.101,-1.051,-1.051,        73P    187
1.051,1.051,1.,1.,1.,1.,-0.0099999999999989,96.2,21.01,42.01,         73P    188
96.2,21.01,-0.0099999999999989,96.2,-0.0099999999999989,42.01,        73P    189
96.2,-0.0099999999999989,-2.101,2.101,-1.051,1.051;                   73P    190
128,1,1,1,1,0,0,1,0,0,-2.101,-2.101,2.101,2.101,-1.051,-1.051,        75P    191
1.051,1.051,1.,1.,1.,1.,42.01,0.,21.01,-0.0099999999999989,0.,        75P    192
21.01,42.01,0.,-0.0099999999999989,-0.0099999999999989,0.,            75P    193
-0.0099999999999989,-2.101,2.101,-1.051,1.051;                        75P    194
502,10,19.,5.,0.,19.,5.,20.9045449603669,23.,5.,                      77P    195
20.9045449603669,19.,91.2,0.,19.,91.2,20.9045449603669,23.,91.2,      77P    196
20.9045449603669,0.,0.,0.,42.,0.,2.57175827820944D-15,0.,96.2,        77P    197
0.,42.,96.2,2.57175827820944D-15;                                     77P    198
504,14,37,77,1,77,1,39,77,1,77,2,41,77,3,77,2,43,77,2,77,3,45,        79P    199
77,4,77,4,47,77,4,77,5,49,77,6,77,5,51,77,5,77,6,53,77,7,77,8,        79P    200
55,77,7,77,9,57,77,10,77,9,59,77,8,77,10,61,77,7,77,8,63,77,9,        79P    201
77,10;                                                                79P    202
406,1,5HBody1;                                                        81P    203
314,62.7450980392157,62.7450980392157,62.7450980392157,13HSteel       83P    204
- Satin;                                                              83P    205
S      1G      3D     84P    205                                        T      1
