                                                                        S      1
,,12HBoat Hull v4,12HBoat Hull v4,7Hunknown,7Hunknown,32,38,7,99,15,,1.,G      1
1,4HINCH,1,0.08,15H20220325.203546,0.000393700787401575,10000.,7HunknownG      2
,7Hunknown,11,0,15H20201011.212007;                                     G      3
     186       1                                                00000000D      1
     186             -71       1       0                               0D      2
     514       2                                                00010000D      3
     514                       1       1                               0D      4
     510       3                                                00010000D      5
     510             -71       1       1                               0D      6
     510       4                                                00010000D      7
     510             -71       1       1                               0D      8
     510       5                                                00010000D      9
     510             -71       1       1                               0D     10
     510       6                                                00010000D     11
     510             -71       1       1                               0D     12
     510       7                                                00010000D     13
     510             -71       1       1                               0D     14
     510       8                                                00010000D     15
     510             -71       1       1                               0D     16
     508       9                                                00010000D     17
     508                       1       1                               0D     18
     508      10                                                00010000D     19
     508                       1       1                               0D     20
     508      11                                                00010000D     21
     508                       1       1                               0D     22
     508      12                                                00010000D     23
     508                       1       1                               0D     24
     508      13                                                00010000D     25
     508                       1       1                               0D     26
     508      14                                                00010000D     27
     508                       1       1                               0D     28
     126      15                                                00010000D     29
     126       0               2       0                               0D     30
     126      17                                                00010000D     31
     126       0               2       0                               0D     32
     126      19                                                00010000D     33
     126       0               2       0                               0D     34
     126      21                                                00010000D     35
     126       0               2       0                               0D     36
     126      23                                                00010000D     37
     126       0               3       0                               0D     38
     126      26                                                00010000D     39
     126       0               3       0                               0D     40
     126      29                                                00010000D     41
     126       0               3       0                               0D     42
     126      32                                                00010000D     43
     126       0               2       0                               0D     44
     126      34                                                00010000D     45
     126       0               2       0                               0D     46
     126      36                                                00010000D     47
     126       0               2       0                               0D     48
     126      38                                                00010000D     49
     126       0               2       0                               0D     50
     126      40                                                00010000D     51
     126       0               2       0                               0D     52
     128      42                                                00010000D     53
     128       0     -71       6       0                               0D     54
     128      48                                                00010000D     55
     128       0     -71       6       0                               0D     56
     128      54                                                00010000D     57
     128       0     -71       7       0                               0D     58
     128      61                                                00010000D     59
     128       0     -71       7       0                               0D     60
     128      68                                                00010000D     61
     128       0     -71       5       0                               0D     62
     128      73                                                00010000D     63
     128       0     -71       6       0                               0D     64
     502      79                                                00010000D     65
     502                       4       1                               0D     66
     504      83                                                00010001D     67
     504                       3       1                               0D     68
     406      86                                                00000000D     69
     406                       1      15                               0D     70
     314      87                                                00000200D     71
     314                       2       0                               0D     72
186,3,1,0,0,1,69;                                                      1P      1
514,6,5,1,7,1,9,1,11,1,13,1,15,1;                                      3P      2
510,53,1,1,17;                                                         5P      3
510,55,1,1,19;                                                         7P      4
510,57,1,1,21;                                                         9P      5
510,59,1,1,23;                                                        11P      6
510,61,1,1,25;                                                        13P      7
510,63,1,1,27;                                                        15P      8
508,4,0,67,1,1,0,0,67,2,1,0,0,67,3,0,0,0,67,4,0,0;                    17P      9
508,4,0,67,5,1,0,0,67,4,1,0,0,67,6,0,0,0,67,7,0,0;                    19P     10
508,4,0,67,8,1,0,0,67,7,1,0,0,67,9,0,0,0,67,10,0,0;                   21P     11
508,4,0,67,11,1,0,0,67,10,1,0,0,67,12,0,0,0,67,2,0,0;                 23P     12
508,4,0,67,12,1,0,0,67,9,1,0,0,67,6,1,0,0,67,3,1,0;                   25P     13
508,4,0,67,11,0,0,0,67,1,0,0,0,67,5,0,0,0,67,8,0,0;                   27P     14
126,1,1,0,0,1,0,0.,0.,75.,75.,1.,1.,29.5275590551181,0.5,0.,0.,       29P     15
0.5,0.,0.,75.,0.,0.,0.;                                               29P     16
126,1,1,0,0,1,0,0.,0.,7.62,7.62,1.,1.,7.24198929889036D-33,0.5,       31P     17
0.,7.24198929889036D-33,0.5,3.,0.,7.62,0.,0.,0.;                      31P     18
126,1,1,0,0,1,0,0.,0.,75.,75.,1.,1.,29.5275590551181,0.5,3.,0.,       33P     19
0.5,3.,0.,75.,0.,0.,0.;                                               33P     20
126,1,1,0,0,1,0,0.,0.,7.62,7.62,1.,1.,29.5275590551181,0.5,0.,        35P     21
29.5275590551181,0.5,3.,0.,7.62,0.,0.,0.;                             35P     22
126,1,1,0,0,1,0,0.,0.,1.27,1.27,1.,1.,29.5275590551181,               37P     23
-7.76437898839578D-32,0.,29.5275590551181,0.5,0.,0.,1.27,0.,0.,       37P     24
0.;                                                                   37P     25
126,1,1,0,0,1,0,0.,0.,1.27,1.27,1.,1.,29.5275590551181,               39P     26
-7.76437898839578D-32,3.,29.5275590551181,0.5,3.,0.,1.27,0.,0.,       39P     27
0.;                                                                   39P     28
126,1,1,0,0,1,0,0.,0.,7.62,7.62,1.,1.,29.5275590551181,               41P     29
-7.76437898839578D-32,0.,29.5275590551181,-7.76437898839578D-32,      41P     30
3.,0.,7.62,0.,0.,0.;                                                  41P     31
126,1,1,0,0,1,0,0.,0.,75.,75.,1.,1.,0.,0.,0.,29.5275590551181,        43P     32
-7.76437898839578D-32,0.,0.,75.,0.,0.,0.;                             43P     33
126,1,1,0,0,1,0,0.,0.,75.,75.,1.,1.,0.,0.,3.,29.5275590551181,        45P     34
-7.76437898839578D-32,3.,0.,75.,0.,0.,0.;                             45P     35
126,1,1,0,0,1,0,0.,0.,7.62,7.62,1.,1.,0.,0.,0.,0.,0.,3.,0.,7.62,      47P     36
0.,0.,0.;                                                             47P     37
126,1,1,0,0,1,0,0.,0.,1.27,1.27,1.,1.,7.24198929889036D-33,0.5,       49P     38
0.,0.,0.,0.,0.,1.27,0.,0.,0.;                                         49P     39
126,1,1,0,0,1,0,0.,0.,1.27,1.27,1.,1.,7.24198929889036D-33,0.5,       51P     40
3.,0.,0.,3.,0.,1.27,0.,0.,0.;                                         51P     41
128,1,1,1,1,0,0,1,0,0,-0.001,-0.001,75.001,75.001,-0.001,-0.001,      53P     42
7.621,7.621,1.,1.,1.,1.,29.5279527559055,0.5,                         53P     43
-0.000393700787401575,-0.000393700787403455,0.5,                      53P     44
-0.000393700787401575,29.5279527559055,0.5,3.0003937007874,           53P     45
-0.000393700787403455,0.5,3.0003937007874,-0.001,75.001,-0.001,       53P     46
7.621;                                                                53P     47
128,1,1,1,1,0,0,1,0,0,-0.001,-0.001,1.271,1.271,-0.001,-0.001,        55P     48
7.621,7.621,1.,1.,1.,1.,29.5275590551181,-0.000393700787401575,       55P     49
-0.000393700787401575,29.5275590551181,0.500393700787402,             55P     50
-0.000393700787401575,29.5275590551181,-0.000393700787401575,         55P     51
3.0003937007874,29.5275590551181,0.500393700787402,                   55P     52
3.0003937007874,-0.001,1.271,-0.001,7.621;                            55P     53
128,1,1,1,1,0,0,1,0,0,-0.001,-0.001,75.001,75.001,-0.001,-0.001,      57P     54
7.621,7.621,1.,1.,1.,1.,-0.000393700787401575,                        57P     55
1.0352505317861D-36,-0.000393700787401575,29.5279527559055,           57P     56
-7.76448251344896D-32,-0.000393700787401575,                          57P     57
-0.000393700787401575,1.0352505317861D-36,3.0003937007874,            57P     58
29.5279527559055,-7.76448251344896D-32,3.0003937007874,-0.001,        57P     59
75.001,-0.001,7.621;                                                  57P     60
128,1,1,1,1,0,0,1,0,0,-0.001,-0.001,1.271,1.271,-0.001,-0.001,        59P     61
7.621,7.621,1.,1.,1.,1.,7.24769165266901D-33,0.500393700787402,       59P     62
-0.000393700787401575,-5.70235377865321D-36,                          59P     63
-0.000393700787401531,-0.000393700787401575,                          59P     64
7.24769165266901D-33,0.500393700787402,3.0003937007874,               59P     65
-5.70235377865321D-36,-0.000393700787401531,3.0003937007874,          59P     66
-0.001,1.271,-0.001,7.621;                                            59P     67
128,1,1,1,1,0,0,1,0,0,-37.501,-37.501,37.501,37.501,-0.636,           61P     68
-0.636,0.636,0.636,1.,1.,1.,1.,-0.000393700787400657,                 61P     69
-0.000393700787401575,3.,29.5279527559055,-0.000393700787401575,      61P     70
3.,-0.000393700787400657,0.500393700787402,3.,29.5279527559055,       61P     71
0.500393700787402,3.,-37.501,37.501,-0.636,0.636;                     61P     72
128,1,1,1,1,0,0,1,0,0,-37.501,-37.501,37.501,37.501,-0.636,           63P     73
-0.636,0.636,0.636,1.,1.,1.,1.,29.5279527559055,                      63P     74
-0.000393700787401575,0.,-0.000393700787400657,                       63P     75
-0.000393700787401575,0.,29.5279527559055,0.500393700787402,0.,       63P     76
-0.000393700787400657,0.500393700787402,0.,-37.501,37.501,            63P     77
-0.636,0.636;                                                         63P     78
502,8,29.5275590551181,0.5,0.,7.24198929889036D-33,0.5,0.,            65P     79
7.24198929889036D-33,0.5,3.,29.5275590551181,0.5,3.,                  65P     80
29.5275590551181,-7.76437898839578D-32,0.,29.5275590551181,0.,        65P     81
3.,0.,0.,0.,0.,0.,3.;                                                 65P     82
504,12,29,65,1,65,2,31,65,2,65,3,33,65,4,65,3,35,65,1,65,4,37,        67P     83
65,5,65,1,39,65,6,65,4,41,65,5,65,6,43,65,7,65,5,45,65,8,65,6,        67P     84
47,65,7,65,8,49,65,2,65,7,51,65,3,65,8;                               67P     85
406,1,5HBody1;                                                        69P     86
314,62.7450980392157,62.7450980392157,62.7450980392157,13HSteel       71P     87
- Satin;                                                              71P     88
S      1G      3D     72P     88                                        T      1
